<svg xmlns="http://www.w3.org/2000/svg" viewBox="0 0 38.08 80.29"><defs><style>.cls-1{fill:#908f90;}.cls-2{fill:#d7d7d7;}.cls-3{fill:#afafaf;}.cls-4{fill:#c4c4c4;}.cls-5,.cls-7{opacity:0.15;}.cls-6,.cls-7{fill:none;}.cls-7{stroke:#000;stroke-miterlimit:10;}.cls-8{fill:#8b8b8c;}</style></defs><title>mercury suit gloves</title><g id="Layer_3" data-name="Layer 3"><path class="cls-1" d="M200.54,346.19c1.17-1,2.86-1.17,4.3-1.25,4.89-.28,7.34-.42,9.87,0a30.69,30.69,0,0,1,8.89,2.93,30.07,30.07,0,0,1,4.71,3c-.17,1.41-.24,1.81-.41,2.91a28.76,28.76,0,0,0-4.3-2.7,30.8,30.8,0,0,0-8.89-2.94c-2.53-.42-5-.28-9.87,0-1.53.09-3.35.24-4.52,1.47a3.82,3.82,0,0,0-.92,1.79h-.58a18.76,18.76,0,0,1,.27-3.68c.22-1,.57-1.24.68-1.31a2.06,2.06,0,0,0,.59-.43Z" transform="translate(-198.82 -344.67)"/><path class="cls-2" d="M236.87,401.11c.09,1.84-.07,2.28-.38,2.55a2.35,2.35,0,0,1-1.92.25,5.79,5.79,0,0,1-2.29-1,22.49,22.49,0,0,1-3.07-2,10.23,10.23,0,0,1-1.29-1.41,2.43,2.43,0,0,0-1.26-1,3.67,3.67,0,0,0-2.43.12,4.88,4.88,0,0,0-2.68,2.81,7.22,7.22,0,0,0-.25,3.58,20.73,20.73,0,0,0,1.15,5.74c.45,1.27,1.09,2.72,1.65,3.91.44.92.82,1.69,1,2.09A5.26,5.26,0,0,1,226,420a5,5,0,0,1-1.28,2.43,6.37,6.37,0,0,1-2.8,2.17l-.29.09-.1,0a5.74,5.74,0,0,1-2.81.13,6,6,0,0,1-2.42-1.15c-.29-.21-.57-.43-.85-.65a34.68,34.68,0,0,1-8.09-8.79,18.55,18.55,0,0,1-1.15-2.17c-1.44-3.46-.67-5.63-1.66-10.86-.22-1.14-.25-1-.44-1.94.55-.35,1.34-.84,2.27-1.46l1.41-1c2.67-1.88,2.67-2.23,4-2.78a8.75,8.75,0,0,1,.94-.32,30.49,30.49,0,0,0,4.68-1.22,10.63,10.63,0,0,0,1.7-.68c2.32-1.78-.36-6.17-.68-15.15-.1-2.71,0-6-1-6.29-.2-.05-.32.05-.83.29-1.59.78-2,.58-4,1.34-.42.16-.81.33-1.14.48-.71.32-1.2.59-1.35.67-1.54.85-1.86,1.32-3.19,2.11a15.71,15.71,0,0,1-3.13,1.4h-.8c0-1.25.08-2.46.23-3.94.21-2.12.66-5.34,0-7.92a5.37,5.37,0,0,0-.77-1.79c-.62-.9-1.07-.87-2-1.91a6.11,6.11,0,0,1-1.4-2.17,4.13,4.13,0,0,1-.19-.75,6.18,6.18,0,0,1,1.33-1.8c1.06-1.24,2.71-1.39,4.09-1.47,4.43-.28,6.64-.42,8.94,0a26,26,0,0,1,8,2.93,38.64,38.64,0,0,1,5.27,3.25h0c0,.16-.11.33-.17.51a15.89,15.89,0,0,1-.76,1.79c-1.51,3.09-1.35,7.81-1.28,9.83a20.51,20.51,0,0,0,.51,5c.65,2.31,1.48,3,4.6,7.53.3.43.57.83.81,1.19,3,4.47,2,3.74,4.17,6.72a11.66,11.66,0,0,1,2,4,8.35,8.35,0,0,1,.25,1.34C236.8,399.56,236.83,400.21,236.87,401.11Z" transform="translate(-198.82 -344.67)"/><path class="cls-3" d="M227.9,353.8c-.13.8-.33,2-.65,4.15l-.67,0a37.26,37.26,0,0,0-5.28-3.25,25.8,25.8,0,0,0-8-2.94c-2.3-.42-4.51-.28-8.94,0-1.38.09-3,.23-4.09,1.47-.52.61-1.24,1.32-1.33,1.81h-.05c0-1.17,0-2.42,0-3.59h.58a3.82,3.82,0,0,1,.92-1.79c1.17-1.23,3-1.38,4.52-1.47,4.89-.28,7.34-.42,9.87,0a30.8,30.8,0,0,1,8.89,2.94A28.76,28.76,0,0,1,227.9,353.8Z" transform="translate(-198.82 -344.67)"/><path class="cls-1" d="M227.25,358c0,.16-.05.34-.08.52a16.39,16.39,0,0,1-.6,2.67,38.64,38.64,0,0,0-5.27-3.25,26,26,0,0,0-8-2.93c-2.3-.42-4.51-.28-8.94,0-1.38.08-3,.23-4.09,1.47a6.18,6.18,0,0,0-1.33,1.8,5.65,5.65,0,0,1-.07-1.29c0-.59,0-1.25,0-1.93h.05c.09-.49.81-1.2,1.33-1.81,1.06-1.24,2.71-1.38,4.09-1.47,4.43-.28,6.64-.42,8.94,0a25.8,25.8,0,0,1,8,2.94,37.26,37.26,0,0,1,5.28,3.25Z" transform="translate(-198.82 -344.67)"/><path class="cls-4" d="M218.49,376.72c.32,9,3,13.37.68,15.15a10.63,10.63,0,0,1-1.7.68,30.49,30.49,0,0,1-4.68,1.22c-.06-.31-.14-1.83-.26-2.41-.33-1.66-.63-2.76-.76-3.32a23.16,23.16,0,0,1-.6-5.1c0-1.3.06-1.54.26-5,.08-1.51.08-4.55.11-5.37.33-.15.72-.32,1.14-.48,2-.76,2.37-.56,4-1.34.51-.24.63-.34.83-.29C218.5,370.68,218.39,374,218.49,376.72Z" transform="translate(-198.82 -344.67)"/><path class="cls-3" d="M212.53,391.36c.12.58.2,2.1.26,2.41a8.75,8.75,0,0,0-.94.32c-1.37.55-1.37.9-4,2.78l0-.06c-.07-.53-.17-3.79-.26-4.77-.17-1.74-.2-2.78-.34-5.53-.08-1.53-.14-2.64-.26-4.85-.1-1.94.15-5.34.09-6.34,1.33-.79,1.65-1.26,3.19-2.11.15-.08.64-.35,1.35-.67,0,.82,0,3.86-.11,5.37-.2,3.49-.29,3.73-.26,5a23.16,23.16,0,0,0,.6,5.1C211.9,388.6,212.2,389.7,212.53,391.36Z" transform="translate(-198.82 -344.67)"/><path class="cls-4" d="M207.77,396.81l0,.06-1.41,1c-.93.62-1.72,1.11-2.27,1.46,0-.1,0-.22-.07-.35-.89-4.6-.38-6.35-.63-12.64-.17-4-.41-4.22-.39-7.41,0-.77,0-1.48,0-2.18h.8a15.71,15.71,0,0,0,3.13-1.4c.06,1-.19,4.4-.09,6.34.12,2.21.18,3.32.26,4.85.14,2.75.17,3.79.34,5.53C207.6,393,207.7,396.28,207.77,396.81Z" transform="translate(-198.82 -344.67)"/></g><g id="Layer_5" data-name="Layer 5"><g class="cls-5"><path class="cls-6" d="M216.28,363.45" transform="translate(-198.82 -344.67)"/></g><g class="cls-5"><path d="M203.09,358.77a10.17,10.17,0,0,1,2.61,1.55,5.82,5.82,0,0,1,2,2.49,3.82,3.82,0,0,1,0,1.68c-.09.48-.14.95-.21,1.44-.11,1-.18,1.95-.27,3a10.42,10.42,0,0,1-.51-3,13.21,13.21,0,0,1,.05-1.54,2.85,2.85,0,0,0-.05-1.28,6.94,6.94,0,0,0-1.58-2.19C204.51,360.17,203.8,359.49,203.09,358.77Z" transform="translate(-198.82 -344.67)"/></g><g class="cls-5"><path d="M208.19,357.74a5,5,0,0,1,1.58,2,3.42,3.42,0,0,1,0,2.68c-.37.79-.71,1.42-1,2.17s-.52,1.49-.78,2.28a6.52,6.52,0,0,1,0-2.49,9.78,9.78,0,0,1,.81-2.34A3.28,3.28,0,0,0,209,360,11.93,11.93,0,0,0,208.19,357.74Z" transform="translate(-198.82 -344.67)"/></g><g class="cls-5"><path d="M213.55,358.17a5.86,5.86,0,0,1,.63,2.55,4.47,4.47,0,0,1-.74,2.65c-.53.74-1.08,1.31-1.54,2a17.46,17.46,0,0,0-1.24,2.18,5.75,5.75,0,0,1,.56-2.56,14.09,14.09,0,0,1,1.39-2.16,5,5,0,0,0,.8-2.14A18.3,18.3,0,0,0,213.55,358.17Z" transform="translate(-198.82 -344.67)"/></g><g class="cls-5"><path d="M218.23,358.68a5,5,0,0,1,0,2.79,4.24,4.24,0,0,1-.62,1.33,10.68,10.68,0,0,1-.89,1.1,14.58,14.58,0,0,1-4.42,3.21c1.21-1.39,2.49-2.61,3.7-3.9.3-.31.59-.64.85-1a4.5,4.5,0,0,0,.65-1.05A9.48,9.48,0,0,0,218.23,358.68Z" transform="translate(-198.82 -344.67)"/></g><g class="cls-5"><path d="M224.74,422.43a27,27,0,0,1-3.53-2.43,20.88,20.88,0,0,1-2.93-3.16,26.34,26.34,0,0,1-2.3-3.62,19.85,19.85,0,0,1-1.58-4,77.67,77.67,0,0,0,4.68,7,38.68,38.68,0,0,0,2.67,3.2c.47.52,1,1,1.5,1.47S224.26,421.89,224.74,422.43Z" transform="translate(-198.82 -344.67)"/></g><g class="cls-5"><path d="M221.55,424.72a16.3,16.3,0,0,1-3.82-2.28,17,17,0,0,1-1.66-1.52,20.91,20.91,0,0,1-1.42-1.75c-.88-1.19-1.68-2.42-2.44-3.69s-1.49-2.54-2.15-3.86q1.49,1.67,2.8,3.42l2.59,3.54a21.88,21.88,0,0,0,2.8,3.27A39.69,39.69,0,0,0,221.55,424.72Z" transform="translate(-198.82 -344.67)"/></g><path class="cls-7" d="M205.6,395.62" transform="translate(-198.82 -344.67)"/></g><g id="Layer_7" data-name="Layer 7"><path class="cls-8" d="M205.6,396.16l4.12-2.54c1.38-.84,2.75-1.68,4.15-2.5l.16.52-6.48.8-1.48.18,1.21-.9c1.46-1.09,3-2.14,4.44-3.2l.21.8-5.1-.55-1.41-.15,1.23-.73c1.48-.88,2.95-1.79,4.44-2.66l.17.92-4.45-.8-1.15-.2,1-.64,4.3-2.87.21.8-4.26-.39-.95-.1.74-.59,4.57-3.66.19.5c-1.52,0-3-.06-4.54-.11l-.67,0,.58-.31c1.57-.82,3.12-1.64,4.7-2.44-1.5.93-3,1.84-4.53,2.75l-.08-.33c1.51-.05,3-.09,4.54-.11h.78l-.6.51L207.16,382l-.21-.69c1.42.08,2.84.19,4.26.29l1.24.1-1,.7-4.27,2.92-.18-.85,4.46.74,1.31.22-1.15.69c-1.47.9-3,1.75-4.46,2.63l-.19-.88,5.09.61,1.16.14-1,.66c-1.5,1-3,2.11-4.49,3.13l-.27-.72,6.51-.57,1.32-.11-1.16.64c-1.41.78-2.84,1.53-4.26,2.29Z" transform="translate(-198.82 -344.67)"/></g></svg>