<svg xmlns="http://www.w3.org/2000/svg" viewBox="0 0 73.53 149.39"><defs><style>.cls-1{fill:#e5e4e4;}.cls-2{fill:#1d1d1b;}.cls-3{fill:#d7d7d7;}.cls-4{fill:#788d8e;}</style></defs><title>mercury suit lifesupportsystem</title><g id="Layer_3" data-name="Layer 3"><path class="cls-1" d="M431.94,547.39v2.06l14.17-2.24V517l-2.94.3-11.23,1.17Zm-2.85,79.77-22.56,3.07a9,9,0,0,1-1.56-.13,9.69,9.69,0,0,1-1.21-.29,9.33,9.33,0,0,1-6.55-8.9V523a9.32,9.32,0,0,1,7.67-9.17,9,9,0,0,1,1.65-.15l34.73-3.26h.48l.23,0,.37,0a8.59,8.59,0,0,1,1.25.22,9.34,9.34,0,0,1,7,9l-.51,96.55a9.32,9.32,0,0,1-9.32,9.32l-6.76.92Zm18.76-73.09c0-2.25-1.44-4.08-3.21-4.08s-3.21,1.83-3.21,4.08,1.43,4.09,3.21,4.09S447.85,556.33,447.85,554.07ZM419.94,522c5.1-.76,9-2.88,8.72-4.74s-4.63-2.75-9.72-2l-.63.1-.53.07c-5.1.76-9,2.88-8.72,4.74s4.63,2.75,9.72,2l.63-.1Zm1,4.57c0-.5-.28-.9-.62-.9s-.61.4-.61.9.27.91.61.91S420.94,527,420.94,526.53Zm0,4.35c0-.5-.28-.91-.62-.91s-.61.41-.61.91.27.9.61.9S420.94,531.38,420.94,530.88Zm-4.05.7c0-.5-.27-.9-.61-.9s-.62.4-.62.9.28.9.62.9S416.89,532.08,416.89,531.58Zm-.1-4.66c0-.5-.28-.9-.62-.9s-.61.4-.61.9.27.9.61.9S416.79,527.42,416.79,526.92Zm-11.88,25.46c0-2.25-1.43-4.08-3.21-4.08s-3.21,1.83-3.21,4.08,1.44,4.09,3.21,4.09S404.91,554.64,404.91,552.38Zm0,26.56c0-2.25-1.43-4.08-3.21-4.08s-3.21,1.83-3.21,4.08,1.44,4.09,3.21,4.09S404.91,581.2,404.91,578.94Z" transform="translate(-377.04 -487.5)"/><path class="cls-2" d="M444.64,550c1.77,0,3.21,1.83,3.21,4.08s-1.44,4.09-3.21,4.09-3.21-1.83-3.21-4.09S442.86,550,444.64,550Z" transform="translate(-377.04 -487.5)"/><polygon class="cls-3" points="69.07 29.46 69.07 59.71 66.13 58.12 66.13 29.76 69.07 29.46"/><polygon class="cls-3" points="69.07 59.71 54.9 61.95 54.9 59.89 66.13 58.12 69.07 59.71"/><polygon class="cls-4" points="66.13 29.76 66.13 58.12 54.9 59.89 54.9 30.93 66.13 29.76"/><path class="cls-1" d="M443.59,510.67a8.59,8.59,0,0,0-1.25-.22l-.37,0-.23,0-1.62-.18.05-.47c-.76-9.14-1.69-15.78-2.23-17a6,6,0,0,0-1.15-1.66,2.57,2.57,0,0,0-1.21-.76,2.17,2.17,0,0,0-1.09,0l-21.51.57s-6.15.16-6.56,1.8c0,.09-.06.3-.08.44a12.22,12.22,0,0,0-.13,2.42q-.34,7.13-.46,14.06l-2.63.25q.12-8.06.56-16.31a13.13,13.13,0,0,1,.15-2.77l.09-.49c.5-1.87,7.8-2.05,7.8-2.05l25.59-.66a5.64,5.64,0,0,1,1.29,0c.58.07.79.26,1.44.88a6.94,6.94,0,0,1,1.37,1.89C442.05,491.74,442.69,500.26,443.59,510.67Z" transform="translate(-377.04 -487.5)"/><path class="cls-3" d="M440.12,510.21l1.62.18h-.48l-34.73,3.26a9,9,0,0,0-1.65.15l-.12-.71c.72-.1,1.26-.54,1.26-1.07a.84.84,0,0,0-.31-.64c0-.6,0-1.2,0-1.8l15.34-1.44Z" transform="translate(-377.04 -487.5)"/><path class="cls-2" d="M434,626.49v6.67a7.47,7.47,0,0,1-2.64.72,3.14,3.14,0,0,1-2.25-1.23v-5.49Z" transform="translate(-377.04 -487.5)"/><path class="cls-3" d="M428.66,517.22c.28,1.86-3.62,4-8.72,4.74l-.53.07c4.78-.83,8.35-2.86,8.08-4.64s-4.32-2.69-9.18-2.06l.63-.1C424,514.47,428.39,515.36,428.66,517.22Z" transform="translate(-377.04 -487.5)"/><path class="cls-4" d="M427.49,517.39c.27,1.78-3.3,3.81-8.08,4.64-4.86.63-8.92-.28-9.18-2.07s3.3-3.8,8.08-4.63C423.17,514.7,427.23,515.61,427.49,517.39Z" transform="translate(-377.04 -487.5)"/><path class="cls-2" d="M420.32,525.63c.34,0,.62.4.62.9s-.28.91-.62.91-.61-.41-.61-.91S420,525.63,420.32,525.63Z" transform="translate(-377.04 -487.5)"/><path class="cls-2" d="M420.32,530c.34,0,.62.41.62.91s-.28.9-.62.9-.61-.4-.61-.9S420,530,420.32,530Z" transform="translate(-377.04 -487.5)"/><path class="cls-4" d="M419.41,522l-.63.1c-5.09.76-9.44-.13-9.72-2s3.62-4,8.72-4.74l.53-.07c-4.78.83-8.35,2.85-8.08,4.63S414.55,522.66,419.41,522Z" transform="translate(-377.04 -487.5)"/><path class="cls-2" d="M416.28,530.68c.34,0,.61.4.61.9s-.27.9-.61.9-.62-.4-.62-.9S415.94,530.68,416.28,530.68Z" transform="translate(-377.04 -487.5)"/><path class="cls-2" d="M416.17,526c.34,0,.62.4.62.9s-.28.9-.62.9-.61-.4-.61-.9S415.83,526,416.17,526Z" transform="translate(-377.04 -487.5)"/><path class="cls-1" d="M405.75,509.57c0,.6,0,1.2,0,1.8a1.88,1.88,0,0,0-1.27-.44,1.82,1.82,0,0,0-1.35.52c0-.54,0-1.08,0-1.63Z" transform="translate(-377.04 -487.5)"/><path class="cls-1" d="M405.71,511.37a.84.84,0,0,1,.31.64c0,.53-.54,1-1.26,1.07l-.32,0a1.76,1.76,0,0,1-1.37-.56c0-.36,0-.72,0-1.09a1.82,1.82,0,0,1,1.35-.52A1.88,1.88,0,0,1,405.71,511.37Z" transform="translate(-377.04 -487.5)"/><path class="cls-2" d="M403.64,630.21l.12-.4a9.69,9.69,0,0,0,1.21.29l-.06.33v5.74a7.46,7.46,0,0,1-2.63.72,3.17,3.17,0,0,1-2.26-1.23v-6.09l.13-.43Z" transform="translate(-377.04 -487.5)"/><path class="cls-3" d="M403.07,512.54a1.76,1.76,0,0,0,1.37.56l.32,0,.12.71a9.32,9.32,0,0,0-7.67,9.17v97.95a9.33,9.33,0,0,0,6.55,8.9l-.12.4-3.49-1.07L393.2,627l-4.79-1.47-10.63-3.26-.07-.16a9.28,9.28,0,0,1-.67-3.47V520.71a9.32,9.32,0,0,1,9.32-9.32l16.76-1.57c0,.55,0,1.09,0,1.63a.8.8,0,0,0-.23.56A.77.77,0,0,0,403.07,512.54Z" transform="translate(-377.04 -487.5)"/><path class="cls-2" d="M401.7,548.3c1.78,0,3.21,1.83,3.21,4.08s-1.43,4.09-3.21,4.09-3.21-1.83-3.21-4.09S399.93,548.3,401.7,548.3Z" transform="translate(-377.04 -487.5)"/><path class="cls-2" d="M401.7,574.86c1.78,0,3.21,1.83,3.21,4.08S403.48,583,401.7,583s-3.21-1.83-3.21-4.09S399.93,574.86,401.7,574.86Z" transform="translate(-377.04 -487.5)"/><path class="cls-2" d="M403.09,511.45c0,.37,0,.73,0,1.09a.77.77,0,0,1-.21-.53A.8.8,0,0,1,403.09,511.45Z" transform="translate(-377.04 -487.5)"/><path class="cls-2" d="M393.2,627v5.5a7.55,7.55,0,0,1-2.64.72A3.17,3.17,0,0,1,388.3,632v-6.09l.11-.37Z" transform="translate(-377.04 -487.5)"/><rect x="384.06" y="606.55" width="4.34" height="9.96" rx="2.17" transform="translate(193.64 -575.35) rotate(47.05)"/></g><g id="Layer_7" data-name="Layer 7"><path class="cls-1" d="M379.09,614.68c-.63-7.25-.95-14.5-1.17-21.75-.14-3.62-.17-7.25-.25-10.87l-.08-10.88.07-10.87c.09-3.63.12-7.26.25-10.88.22-7.25.55-14.5,1.18-21.75.62,7.25,1,14.5,1.17,21.75.14,3.62.16,7.25.25,10.88l.07,10.87-.08,10.88c-.08,3.62-.11,7.25-.25,10.87C380,600.18,379.71,607.43,379.09,614.68Z" transform="translate(-377.04 -487.5)"/><path class="cls-1" d="M391.85,618.77c-.62-7.87-.94-15.73-1.16-23.6-.14-3.93-.17-7.87-.26-11.8l-.08-11.8.08-11.79c.08-3.94.11-7.87.25-11.8.22-7.87.55-15.73,1.17-23.6.63,7.87.95,15.73,1.17,23.6.14,3.93.17,7.86.25,11.8l.08,11.79-.08,11.8c-.08,3.93-.11,7.87-.25,11.8C392.8,603,392.47,610.9,391.85,618.77Z" transform="translate(-377.04 -487.5)"/><path class="cls-1" d="M386.23,589.87c-.62-4.67-.94-9.34-1.16-14-.14-2.33-.17-4.67-.25-7l-.09-7,.08-7c.09-2.34.11-4.67.25-7,.22-4.67.55-9.34,1.17-14,.63,4.67.95,9.34,1.17,14,.14,2.34.17,4.67.25,7l.08,7-.08,7c-.08,2.33-.11,4.67-.25,7C387.18,580.53,386.85,585.2,386.23,589.87Z" transform="translate(-377.04 -487.5)"/></g></svg>