<svg xmlns="http://www.w3.org/2000/svg" xmlns:xlink="http://www.w3.org/1999/xlink" viewBox="0 0 86.46 96.44"><defs><style>.cls-1{fill:#7c7c7c;}.cls-2{fill:#c69152;}.cls-3{fill:#777776;}.cls-4{fill:#d7d7d7;}.cls-5{fill:#c0e3e7;}.cls-6{fill:#806036;}.cls-7{fill:#888989;}.cls-8{fill:#bfbebe;}.cls-9{fill:#717070;}.cls-10{fill:#3ebfee;opacity:0.33;}.cls-11{opacity:0.59;fill:url(#radial-gradient);}</style><radialGradient id="radial-gradient" cx="60.55" cy="36.93" r="8.68" gradientUnits="userSpaceOnUse"><stop offset="0" stop-color="#fff"/><stop offset="1" stop-color="#36a9e1" stop-opacity="0"/></radialGradient></defs><title>mercury suit helmet</title><g id="Layer_3" data-name="Layer 3"><path class="cls-1" d="M257.17,170.55a18.87,18.87,0,0,0,2.43,6.26,16.15,16.15,0,0,0,2.16,2.77,27.14,27.14,0,0,0,2.81,2.46,28.86,28.86,0,0,0,8.81,4.73,44.33,44.33,0,0,0,10.24,1.6c2.43.15,4.55.17,5.7.14s3.2,0,5.68-.18a44.28,44.28,0,0,0,10.26-1.56,28.84,28.84,0,0,0,8.8-4.73c.6-.47,1.23-1,1.86-1.54a16.65,16.65,0,0,0,3.12-3.69,18.87,18.87,0,0,0,2.43-6.26c.32-1.46.34-3.82.38-8.55a30.35,30.35,0,0,0-.38-6.26,12.87,12.87,0,0,0-1.15-3.83,11.38,11.38,0,0,0-3.45-3.95c-.28-.21-.55-.4-.82-.57h0l-.07,0a19.81,19.81,0,0,0-5.1-2.06,45.47,45.47,0,0,0-6.76-1.54,147,147,0,0,0-14.79-.6,146.2,146.2,0,0,0-14.79.6,45.47,45.47,0,0,0-6.76,1.54,19.5,19.5,0,0,0-5.17,2.1h0c-.27.17-.54.36-.82.57a11.38,11.38,0,0,0-3.45,3.95,12.58,12.58,0,0,0-1.15,3.83,29.67,29.67,0,0,0-.38,6.26C256.83,166.73,256.85,169.09,257.17,170.55Zm6.77,14.56a26.93,26.93,0,0,1-3.71-3.07,19.91,19.91,0,0,1-4.21-5.49,17.8,17.8,0,0,1-1.4-4c-.34-1.36-.41-2.24-.64-6.77-.26-5-.26-5.75-.26-6.38a22.28,22.28,0,0,1,.51-5.88,16.42,16.42,0,0,1,2-4.59,19.13,19.13,0,0,1,4.46-4.6,39.51,39.51,0,0,1,8.56-5,34.38,34.38,0,0,1,9.32-2.8,103.41,103.41,0,0,1,10.7-.26,103.47,103.47,0,0,1,10.7.26,34.38,34.38,0,0,1,9.32,2.8,39,39,0,0,1,8.55,5,19.05,19.05,0,0,1,4.47,4.6,16,16,0,0,1,2,4.59,21.8,21.8,0,0,1,.52,5.88c0,.63,0,1.34-.26,6.38-.23,4.53-.31,5.41-.64,6.77a17.8,17.8,0,0,1-1.4,4A19.73,19.73,0,0,1,318.4,182a26.37,26.37,0,0,1-3.7,3.07,29.35,29.35,0,0,1-5.87,3.06,39,39,0,0,1-6,1.92c-2.3.51-9.23.82-13.51.82a90.23,90.23,0,0,1-13.51-.82,38.6,38.6,0,0,1-6-1.92A29.09,29.09,0,0,1,263.94,185.11Z" transform="translate(-241.86 -114.89)"/><path class="cls-2" d="M316.05,147.39a38.28,38.28,0,0,1,3,6.44,8.17,8.17,0,0,1,.26,3.32c-.25,3.28-.75,6.54-.77,9.83a12.84,12.84,0,0,1-.38,3.7,11.23,11.23,0,0,1-1.15,2.81c-.65,1.11-1,1.19-1.28,1.91a5.2,5.2,0,0,0,.19,4l-.67,0a7.79,7.79,0,0,1-2-.26c-1-.27-1-.49-2.42-1-.89-.32-1.3-.38-1.72-.83a2.4,2.4,0,0,1-.58-1l-.08-.29-.11-.36c.05-1.5.14-4,.38-7,.35-4.46.7-6.4,1-10.6.14-1.79.32-4.51.39-7.89.82.19,2.93.82,3.83.91,1.8.17,2,.2,2.35-.19a13.32,13.32,0,0,0-.34-3.49l0,0,.07,0Z" transform="translate(-241.86 -114.89)"/><path class="cls-3" d="M252.32,149.36c.39-1.8.73-3.36,1.12-4.84l.79.2a21.73,21.73,0,0,1,3.15-3.91c2.22-2.18,4.34-3.3,7.83-5.11a47.68,47.68,0,0,1,6.47-2.89,39.06,39.06,0,0,1,8-2c1.2-.17,2.7-.31,5.7-.6,1.17-.11,3.27-.2,3.94-.26s2.76.15,3.94.26c3,.29,4.5.43,5.7.6a39.06,39.06,0,0,1,8,2,47.68,47.68,0,0,1,6.47,2.89c3.49,1.81,5.61,2.93,7.83,5.11a21.16,21.16,0,0,1,3.14,3.91l.8-.2c.39,1.48.73,3,1.12,4.84.09.43.19.84.27,1.25l-.74.16a23.75,23.75,0,0,0-2.21-3.58,26.87,26.87,0,0,0-6.21-5.79,38.91,38.91,0,0,0-10.13-4.93A46.29,46.29,0,0,0,295.72,134c-2-.15-5.2-.17-6.4-.12s-4.42,0-6.41.12a46.33,46.33,0,0,0-11.57,2.47,38.91,38.91,0,0,0-10.13,4.93,26.87,26.87,0,0,0-6.21,5.79,23.75,23.75,0,0,0-2.21,3.58l-.74-.16C252.13,150.2,252.23,149.79,252.32,149.36Z" transform="translate(-241.86 -114.89)"/><path d="M257.17,155.74a12.58,12.58,0,0,1,1.15-3.83,11.38,11.38,0,0,1,3.45-3.95c.28-.21.55-.4.82-.57a37.51,37.51,0,0,0-3,6.44,8.17,8.17,0,0,0-.26,3.32c.25,3.28.75,6.54.77,9.83a12.84,12.84,0,0,0,.38,3.7,11.23,11.23,0,0,0,1.15,2.81c.65,1.11,1,1.19,1.27,1.91a5.14,5.14,0,0,1-.18,4l-1,.18a16.15,16.15,0,0,1-2.16-2.77,18.87,18.87,0,0,1-2.43-6.26c-.32-1.46-.34-3.82-.38-8.55A29.67,29.67,0,0,1,257.17,155.74Z" transform="translate(-241.86 -114.89)"/><path class="cls-4" d="M328.25,167.68c.07,2.61.1,5.14,0,6.86l-.54,0a24.42,24.42,0,0,1-2,6.47c-5,10.45-15.78,13.72-17.19,14.13-1,.29-1.78.44-3,.68-6,1.19-12.85,1.06-16.19,1.06-3.51,0-10.2.13-16.19-1.06-1.2-.24-2-.39-3-.68C268.74,194.7,258,191.43,253,181a24.74,24.74,0,0,1-2.05-6.47l-1.08-.17a41.92,41.92,0,0,0,.83-6.6c.14-5.06-.16-5.51.25-10.08a56.47,56.47,0,0,1,1.14-7l.74.16a23.75,23.75,0,0,1,2.21-3.58,26.87,26.87,0,0,1,6.21-5.79,38.91,38.91,0,0,1,10.13-4.93A46.33,46.33,0,0,1,282.91,134c2-.15,5.21-.17,6.41-.12s4.42,0,6.4.12a46.29,46.29,0,0,1,11.58,2.47,38.91,38.91,0,0,1,10.13,4.93,26.87,26.87,0,0,1,6.21,5.79,23.75,23.75,0,0,1,2.21,3.58l.74-.16a54.73,54.73,0,0,1,1.13,7C328.13,162.23,328.11,162.57,328.25,167.68Zm-3.59-1.85c.26-5,.26-5.75.26-6.38a21.8,21.8,0,0,0-.52-5.88,16,16,0,0,0-2-4.59,19.05,19.05,0,0,0-4.47-4.6,39,39,0,0,0-8.55-5,34.38,34.38,0,0,0-9.32-2.8,103.47,103.47,0,0,0-10.7-.26,103.41,103.41,0,0,0-10.7.26,34.38,34.38,0,0,0-9.32,2.8,39.51,39.51,0,0,0-8.56,5,19.13,19.13,0,0,0-4.46,4.6,16.42,16.42,0,0,0-2,4.59,22.28,22.28,0,0,0-.51,5.88c0,.63,0,1.34.26,6.38.23,4.53.3,5.41.64,6.77a17.8,17.8,0,0,0,1.4,4,19.91,19.91,0,0,0,4.21,5.49,26.93,26.93,0,0,0,3.71,3.07,29.09,29.09,0,0,0,5.87,3.06,38.6,38.6,0,0,0,6,1.92,90.23,90.23,0,0,0,13.51.82c4.28,0,11.21-.31,13.51-.82a39,39,0,0,0,6-1.92,29.35,29.35,0,0,0,5.87-3.06,26.37,26.37,0,0,0,3.7-3.07,19.73,19.73,0,0,0,4.22-5.49,17.8,17.8,0,0,0,1.4-4C324.35,171.24,324.43,170.36,324.66,165.83Z" transform="translate(-241.86 -114.89)"/><path class="cls-4" d="M320.79,193.71l.33.43a1.3,1.3,0,0,0-.58,1.09,1.32,1.32,0,0,0,2.63,0l2.65.25c0,.13,0,.26-.05.39-.06.5-.14,1.13-.24,1.85l-.7-.15a35.51,35.51,0,0,1-4.68,3.41,36.44,36.44,0,0,1-4.85,2.47,34.45,34.45,0,0,1-5.79,1.78c-1.21.26-2.87.44-6.13.77s-5.1.52-7,.6c-2.33.09-5.8.1-7.08.05s-4.76,0-7.09-.05c-1.87-.08-3.6-.25-7-.6s-4.92-.51-6.13-.77a32.69,32.69,0,0,1-9.05-3.34l2.28-1.56c.47.15,1.88.63,3.17,1a1.29,1.29,0,0,0,.83,0,1.58,1.58,0,0,0,.77-1,2.29,2.29,0,0,0-.07-1.47l-.09-.25-.42-.13a28.36,28.36,0,0,1-3.44-1.41,28.75,28.75,0,0,1-4.47-2.74,37.74,37.74,0,0,1-5.17-4.53l-1.26,0c0,.2,0,.41.07.62.27,2.31.34,3.31.59,5.44,0,.41,0,1,.06,1.71a22.67,22.67,0,0,0,.2,3.23l-.41-.29-.13-.09a11.91,11.91,0,0,0-1.25-.73,5.32,5.32,0,0,0-2.38-.85,4.21,4.21,0,0,0-2.39.77,5.51,5.51,0,0,0-1.87,1.95l-.17.34c0,.1,0,.21,0,.33l-2.69.13v-.1c0-.91.09-2.93.11-3.25.12-3.61.14-4.09.51-4.85a9.16,9.16,0,0,1,2.94-3.19c.86-.59,1.15-.58,1.66-1.15s.88-1.42,1.14-3.32a25.24,25.24,0,0,0,.26-3.57c0-2.33.37-2.9,1.15-7.54.05-.32.12-.67.19-1.06l1.08.17A24.74,24.74,0,0,0,253,181c5,10.45,15.78,13.72,17.19,14.13,1,.29,1.78.44,3,.68,6,1.19,12.68,1.06,16.19,1.06,3.34,0,10.2.13,16.19-1.06,1.2-.24,2-.39,3-.68,1.41-.41,12.2-3.68,17.19-14.13a24.42,24.42,0,0,0,2-6.47l.54,0c0,.37,0,.7-.07,1-.51,4.67-1.29,8.65-1.32,11-.11.74-.26,1.89-.44,3.3l-1.26,0A38.66,38.66,0,0,1,320.79,193.71Z" transform="translate(-241.86 -114.89)"/><path class="cls-4" d="M326.43,189.81c0,.2-.05.41-.07.62-.25,2.17-.33,3.18-.54,5l-2.65-.25a1.32,1.32,0,0,0-1.31-1.32,1.27,1.27,0,0,0-.74.23l-.33-.43a38.66,38.66,0,0,0,4.38-3.94Z" transform="translate(-241.86 -114.89)"/><path class="cls-4" d="M305.16,210.07l-1.44.19a75.81,75.81,0,0,1-8.42.76c-1.09,0-5.35,0-6,0s-4.89,0-6,0a75.91,75.91,0,0,1-8.43-.76,52.86,52.86,0,0,1-6.38-1,29.63,29.63,0,0,1-5.44-2,46,46,0,0,1-4.77-2.89c-1.29-.84-3.08-2-5.19-3.49a22.67,22.67,0,0,1-.2-3.23h.88a35.51,35.51,0,0,0,4.68,3.41c.55.34,1.09.64,1.59.91a32.69,32.69,0,0,0,9.05,3.34c1.21.26,2.87.44,6.13.77s5.1.52,7,.6c2.33.09,5.8.1,7.09.05s4.75,0,7.08-.05c1.88-.08,3.61-.25,7-.6s4.92-.51,6.13-.77a34.45,34.45,0,0,0,5.79-1.78,36.44,36.44,0,0,0,4.85-2.47,35.51,35.51,0,0,0,4.68-3.41l.7.15c-.09.67-.2,1.41-.32,2.23l.58.09.31,0-.05.35c-2.35,1.65-4.33,3-5.73,3.87a46,46,0,0,1-4.77,2.89,29.63,29.63,0,0,1-5.44,2A39.36,39.36,0,0,1,305.16,210.07Z" transform="translate(-241.86 -114.89)"/><path class="cls-4" d="M325.2,144.52l-.8.2a21.16,21.16,0,0,0-3.14-3.91c-2.22-2.18-4.34-3.3-7.83-5.11a47.68,47.68,0,0,0-6.47-2.89,39.06,39.06,0,0,0-8-2c-1.2-.17-2.7-.31-5.7-.6-1.18-.11-3.27-.2-3.94-.26s-2.77.15-3.94.26c-3,.29-4.5.43-5.7.6a39.06,39.06,0,0,0-8,2,47.68,47.68,0,0,0-6.47,2.89c-3.49,1.81-5.61,2.93-7.83,5.11a21.73,21.73,0,0,0-3.15,3.91l-.79-.2a38.72,38.72,0,0,1,1.69-5.12,46,46,0,0,1,4.47-8.29c2.11-3.14,4.51-6.71,8.93-9.83a32.14,32.14,0,0,1,8.17-4.09,43.59,43.59,0,0,1,8.68-2c.89-.13,3.41-.21,3.94-.26s3.05.13,3.94.26a43.59,43.59,0,0,1,8.68,2,32.14,32.14,0,0,1,8.17,4.09c4.42,3.12,6.82,6.69,8.93,9.83a46,46,0,0,1,4.47,8.29A41.89,41.89,0,0,1,325.2,144.52Z" transform="translate(-241.86 -114.89)"/><path class="cls-5" d="M321.86,193.91a1.32,1.32,0,1,1-1.32,1.32,1.3,1.3,0,0,1,.58-1.09A1.27,1.27,0,0,1,321.86,193.91Z" transform="translate(-241.86 -114.89)"/><path d="M321.47,155.74a30.35,30.35,0,0,1,.38,6.26c0,4.73-.06,7.09-.38,8.55a18.87,18.87,0,0,1-2.43,6.26,16.65,16.65,0,0,1-3.12,3.69l-.68-1.07.67,0a5.2,5.2,0,0,1-.19-4c.32-.72.63-.8,1.28-1.91a11.23,11.23,0,0,0,1.15-2.81,12.84,12.84,0,0,0,.38-3.7c0-3.29.52-6.55.77-9.83a8.17,8.17,0,0,0-.26-3.32,38.28,38.28,0,0,0-3-6.44c.27.17.54.36.82.57a11.38,11.38,0,0,1,3.45,3.95A12.87,12.87,0,0,1,321.47,155.74Z" transform="translate(-241.86 -114.89)"/><path class="cls-6" d="M316,147.38a13.32,13.32,0,0,1,.34,3.49c-.39.39-.55.36-2.35.19-.9-.09-3-.72-3.83-.91v0c-.67-.2-2.61-1-3.83-1.28a55.07,55.07,0,0,0-8.68-1.79c-1.38-.14-5.74-.18-8.28-.18s-6.9,0-8.28.18a55.07,55.07,0,0,0-8.68,1.79c-1.22.32-3.16,1.08-3.83,1.28s-3,.84-3.92.93c-1.8.17-1.95.2-2.35-.19a14.2,14.2,0,0,1,.34-3.48h0a19.5,19.5,0,0,1,5.17-2.1,45.47,45.47,0,0,1,6.76-1.54,146.2,146.2,0,0,1,14.79-.6,147,147,0,0,1,14.79.6,45.47,45.47,0,0,1,6.76,1.54,19.81,19.81,0,0,1,5.1,2.06Z" transform="translate(-241.86 -114.89)"/><path class="cls-7" d="M315.24,179.43l.68,1.07c-.63.57-1.26,1.07-1.86,1.54a28.84,28.84,0,0,1-8.8,4.73A44.28,44.28,0,0,1,295,188.33l-.07-1.36,2.09-.27a6.14,6.14,0,0,0,1.66-.44,5,5,0,0,0,2.17-1.6,7,7,0,0,0,.9-2.23,11.67,11.67,0,0,0,.38-1.73,22.81,22.81,0,0,0,0-2.86,1.31,1.31,0,0,0,.5-.14c.45-.21.48-.54.83-.89a3.29,3.29,0,0,1,2-.7,20.9,20.9,0,0,1,3-.1l.08.29a2.4,2.4,0,0,0,.58,1c.42.45.83.51,1.72.83,1.47.53,1.4.75,2.42,1A7.79,7.79,0,0,0,315.24,179.43Z" transform="translate(-241.86 -114.89)"/><path class="cls-1" d="M310.11,150.15c-.07,3.38-.25,6.1-.39,7.89-.32,4.2-.67,6.14-1,10.6-.24,3.05-.33,5.51-.38,7l.11.36a20.9,20.9,0,0,0-3,.1,3.29,3.29,0,0,0-2,.7c-.35.35-.38.68-.83.89a1.31,1.31,0,0,1-.5.14,2.21,2.21,0,0,1-.39,0c-.91-.1-1.09-.74-2-1a3.29,3.29,0,0,0-1.54,0,6.08,6.08,0,0,0-2.36.83,6,6,0,0,0-1.15,1,4.89,4.89,0,0,0-1,1.34,4.69,4.69,0,0,0-.45,1.72,8,8,0,0,0,.25,2.17,7,7,0,0,0,.64,2.23,4.44,4.44,0,0,0,.72.91l.07,1.36c-2.48.16-4.61.18-5.68.18s-3.27,0-5.7-.14l.09-1.4a4.81,4.81,0,0,0,.72-.91,6.75,6.75,0,0,0,.63-2.23,7.68,7.68,0,0,0,.26-2.17,4.71,4.71,0,0,0-1.41-3.06,5.73,5.73,0,0,0-1.14-1,6.15,6.15,0,0,0-2.37-.83,3.25,3.25,0,0,0-1.53,0c-.89.28-1.07.92-2,1a2.21,2.21,0,0,1-.39,0,1.31,1.31,0,0,1-.5-.14c-.45-.21-.48-.54-.83-.89a3.29,3.29,0,0,0-2-.7,21,21,0,0,0-3-.1l.11-.36c-.05-1.5-.15-4-.38-7-.35-4.46-.7-6.4-1-10.6-.13-1.79-.31-4.52-.38-7.91.67-.2,2.61-1,3.83-1.28a55.07,55.07,0,0,1,8.68-1.79c1.38-.14,5.78-.18,8.28-.18s6.9,0,8.28.18a55.07,55.07,0,0,1,8.68,1.79c1.22.32,3.16,1.08,3.83,1.28Z" transform="translate(-241.86 -114.89)"/><path d="M302.14,177.84a22.81,22.81,0,0,1,0,2.86,11.67,11.67,0,0,1-.38,1.73,7,7,0,0,1-.9,2.23,5,5,0,0,1-2.17,1.6,6.14,6.14,0,0,1-1.66.44l-2.09.27a4.44,4.44,0,0,1-.72-.91,7,7,0,0,1-.64-2.23,8,8,0,0,1-.25-2.17,4.69,4.69,0,0,1,.45-1.72,4.89,4.89,0,0,1,1-1.34,6,6,0,0,1,1.15-1,6.08,6.08,0,0,1,2.36-.83,3.29,3.29,0,0,1,1.54,0c.89.28,1.07.92,2,1A2.21,2.21,0,0,0,302.14,177.84Z" transform="translate(-241.86 -114.89)"/><path d="M285.32,181.66a7.68,7.68,0,0,1-.26,2.17,6.75,6.75,0,0,1-.63,2.23,4.81,4.81,0,0,1-.72.91l-2.09-.27a6.14,6.14,0,0,1-1.66-.44,5,5,0,0,1-2.17-1.6,7,7,0,0,1-.9-2.23,11.67,11.67,0,0,1-.38-1.73,21,21,0,0,1,0-2.86,2.21,2.21,0,0,0,.39,0c.91-.1,1.09-.74,2-1a3.25,3.25,0,0,1,1.53,0,6.15,6.15,0,0,1,2.37.83,5.73,5.73,0,0,1,1.14,1,4.71,4.71,0,0,1,1.41,3.06Z" transform="translate(-241.86 -114.89)"/><path class="cls-7" d="M283.71,187l-.09,1.4a44.33,44.33,0,0,1-10.24-1.6,28.86,28.86,0,0,1-8.81-4.73,27.14,27.14,0,0,1-2.81-2.46l1-.18a7.93,7.93,0,0,0,2.67-.23c1-.27,1-.49,2.43-1,.89-.32,1.3-.38,1.72-.83a2.4,2.4,0,0,0,.58-1l.08-.29a21,21,0,0,1,3,.1,3.29,3.29,0,0,1,2,.7c.35.35.38.68.83.89a1.31,1.31,0,0,0,.5.14,21,21,0,0,0,0,2.86,11.67,11.67,0,0,0,.38,1.73,7,7,0,0,0,.9,2.23,5,5,0,0,0,2.17,1.6,6.14,6.14,0,0,0,1.66.44Z" transform="translate(-241.86 -114.89)"/><path class="cls-2" d="M270.32,175.65l-.11.36-.08.29a2.4,2.4,0,0,1-.58,1c-.42.45-.83.51-1.72.83-1.47.53-1.4.75-2.43,1a7.93,7.93,0,0,1-2.67.23,5.14,5.14,0,0,0,.18-4c-.31-.72-.62-.8-1.27-1.91a11.23,11.23,0,0,1-1.15-2.81,12.84,12.84,0,0,1-.38-3.7c0-3.29-.52-6.55-.77-9.83a8.17,8.17,0,0,1,.26-3.32,37.51,37.51,0,0,1,3-6.44h0a14.2,14.2,0,0,0-.34,3.48c.4.39.55.36,2.35.19.93-.09,3.17-.77,3.92-.93.07,3.39.25,6.12.38,7.91.33,4.2.68,6.14,1,10.6C270.17,171.69,270.27,174.15,270.32,175.65Z" transform="translate(-241.86 -114.89)"/><path class="cls-4" d="M262.36,200.33l-2.28,1.56c-.5-.27-1-.57-1.59-.91a35.51,35.51,0,0,1-4.68-3.41h-.88c0-.69,0-1.3-.06-1.71-.25-2.13-.32-3.13-.59-5.44,0-.21-.05-.42-.07-.62l1.26,0a37.74,37.74,0,0,0,5.17,4.53,28.75,28.75,0,0,0,4.47,2.74,28.36,28.36,0,0,0,3.44,1.41l.42.13.09.25a2.29,2.29,0,0,1,.07,1.47,1.58,1.58,0,0,1-.77,1,1.29,1.29,0,0,1-.83,0C264.24,201,262.83,200.48,262.36,200.33Z" transform="translate(-241.86 -114.89)"/></g><g id="Layer_4" data-name="Layer 4"><path class="cls-8" d="M250.91,173.71a25.33,25.33,0,0,0,5.51,10.61,28.41,28.41,0,0,0,9.44,7,27.7,27.7,0,0,0,2.72,1.11,17,17,0,0,0,2.81.8,43.74,43.74,0,0,0,5.85.94,105.22,105.22,0,0,0,12.08.36,107.52,107.52,0,0,0,12.08-.37,43.73,43.73,0,0,0,5.85-.93,16.63,16.63,0,0,0,2.8-.8c.93-.32,1.83-.7,2.73-1.11a28.37,28.37,0,0,0,9.43-7,25.22,25.22,0,0,0,5.51-10.61,23.15,23.15,0,0,1-4.35,11.52,27.73,27.73,0,0,1-4.29,4.64,31,31,0,0,1-5.25,3.55,24.33,24.33,0,0,1-5.92,2.36,45.86,45.86,0,0,1-6.2,1.21,101.43,101.43,0,0,1-12.39.55,101.34,101.34,0,0,1-12.39-.55,45.86,45.86,0,0,1-6.2-1.21,24.33,24.33,0,0,1-5.92-2.36,31.19,31.19,0,0,1-5.24-3.56,26.49,26.49,0,0,1-4.29-4.63A23.18,23.18,0,0,1,250.91,173.71Z" transform="translate(-241.86 -114.89)"/><path class="cls-9" d="M250.91,187.5a25.55,25.55,0,0,0,5.42,10.57,28,28,0,0,0,9.31,7c.88.42,1.78.8,2.69,1.13a17.69,17.69,0,0,0,2.78.8,43,43,0,0,0,5.8.94,103.38,103.38,0,0,0,12,.38,105.91,105.91,0,0,0,12-.38,43,43,0,0,0,5.8-.94,16.32,16.32,0,0,0,2.77-.81c.92-.32,1.81-.71,2.7-1.12a27.83,27.83,0,0,0,9.3-7,25.33,25.33,0,0,0,5.42-10.56A23.24,23.24,0,0,1,322.61,199a27.6,27.6,0,0,1-9.4,8.2,24,24,0,0,1-5.86,2.39,45.19,45.19,0,0,1-6.15,1.22,98.2,98.2,0,0,1-12.31.55,98,98,0,0,1-12.3-.55,45.19,45.19,0,0,1-6.15-1.22,24.38,24.38,0,0,1-5.86-2.39,27.71,27.71,0,0,1-9.4-8.2A23.26,23.26,0,0,1,250.91,187.5Z" transform="translate(-241.86 -114.89)"/><path class="cls-9" d="M250.27,179.75a24.05,24.05,0,0,0,5,11,28.07,28.07,0,0,0,9.46,7.53,33.39,33.39,0,0,0,11.7,3.15,103.58,103.58,0,0,0,12.21.41,103.51,103.51,0,0,0,12.21-.41,45.24,45.24,0,0,0,6-1,24.63,24.63,0,0,0,5.69-2.1,28.1,28.1,0,0,0,9.47-7.53,24.16,24.16,0,0,0,5-11,24.2,24.2,0,0,1-4.84,11.14,28.21,28.21,0,0,1-9.51,7.67,24.66,24.66,0,0,1-5.75,2.17,44.37,44.37,0,0,1-6.05,1.1,104.64,104.64,0,0,1-12.26.5,102.6,102.6,0,0,1-12.26-.5,44.93,44.93,0,0,1-6.05-1.1,24.83,24.83,0,0,1-5.75-2.17,28.08,28.08,0,0,1-9.5-7.67A24.2,24.2,0,0,1,250.27,179.75Z" transform="translate(-241.86 -114.89)"/><path class="cls-8" d="M253.13,200.81a44.65,44.65,0,0,1-2.27-5.78,5.56,5.56,0,0,0-.52-1.18,1.85,1.85,0,0,0-.82-.59,5,5,0,0,0-2.51-.18,3.3,3.3,0,0,0-2.13.92,3.24,3.24,0,0,0-.67,1,9.44,9.44,0,0,0-.47,1.28c-.2.85-.25,2-.4,3s-.29,2.05-.52,3.07c-.21-1-.33-2-.46-3.08a17.46,17.46,0,0,1-.16-3.2,6.63,6.63,0,0,1,.38-1.68,5.29,5.29,0,0,1,.89-1.62,4.47,4.47,0,0,1,1.54-1.18,5.78,5.78,0,0,1,1.78-.46,6.19,6.19,0,0,1,3.54.45,3.66,3.66,0,0,1,1.5,1.38,5.43,5.43,0,0,1,.54,1.7A55.47,55.47,0,0,1,253.13,200.81Z" transform="translate(-241.86 -114.89)"/></g><g id="Layer_2" data-name="Layer 2"><path class="cls-10" d="M289.32,136.34a106,106,0,0,0-10.7.25,34.7,34.7,0,0,0-9.32,2.81,39.51,39.51,0,0,0-8.56,5,18.94,18.94,0,0,0-4.46,4.6,16.3,16.3,0,0,0-2,4.59,22.24,22.24,0,0,0-.51,5.87c0,.63,0,1.35.26,6.39.23,4.52.3,5.4.64,6.76a18,18,0,0,0,1.4,4,19.91,19.91,0,0,0,4.21,5.49,26.73,26.73,0,0,0,3.71,3.06,28.7,28.7,0,0,0,5.87,3.07,37,37,0,0,0,6,1.91,90.08,90.08,0,0,0,13.51.83" transform="translate(-241.86 -114.89)"/><path class="cls-10" d="M289.32,136.34a106.1,106.1,0,0,1,10.7.25,34.7,34.7,0,0,1,9.32,2.81,39,39,0,0,1,8.55,5,18.86,18.86,0,0,1,4.47,4.6,15.91,15.91,0,0,1,2,4.59,21.76,21.76,0,0,1,.52,5.87c0,.63,0,1.35-.26,6.39-.23,4.52-.31,5.4-.64,6.76a18,18,0,0,1-1.4,4A19.73,19.73,0,0,1,318.4,182a26.17,26.17,0,0,1-3.7,3.06,29,29,0,0,1-5.87,3.07,37.3,37.3,0,0,1-6,1.91c-2.3.51-9.23.83-13.51.83" transform="translate(-241.86 -114.89)"/></g><g id="Layer_5" data-name="Layer 5"><rect class="cls-5" x="79.09" y="81.16" width="1.87" height="11.49"/></g><g id="Layer_9" data-name="Layer 9"><circle class="cls-11" cx="60.55" cy="36.93" r="8.68"/></g></svg>