<svg xmlns="http://www.w3.org/2000/svg" viewBox="0 0 170.11 75.78"><defs><style>.cls-1{fill:#eab957;}.cls-2{fill:#a9a9a9;}.cls-3{fill:#7f7f80;}.cls-4{fill:#8e4922;}.cls-5{fill:#472515;}.cls-6{opacity:0.15;}.cls-7{fill:none;}.cls-8{fill:#8b8b8c;}</style></defs><title>mercury suit boots</title><g id="Layer_3" data-name="Layer 3"><path class="cls-1" d="M222.39,562.72l2.82,1.66a14.56,14.56,0,0,0,4.09,1.53,15.2,15.2,0,0,0,1.51.34,23.2,23.2,0,0,0,3.08.35,10.44,10.44,0,0,0,1.12,0c.8,0,1.93-.2,5.27-.51,4.25-.4,4.67-.37,5.61-.86.34-.17,1.41-.76,3-1.44.51-.22.9-.38,1.22-.49,0,.82-.07,1.64-.11,2.44s-.08,1.55-.13,2.28a18.08,18.08,0,0,1-2.17,1,19.53,19.53,0,0,1-3.83.94c-4.22.74-3.49.79-4.94.94a28.36,28.36,0,0,1-4.47.06l-1.4-.06c-1.27-.06-2.14-.1-2.85-.18a9.91,9.91,0,0,1-1.06-.16c-2-.43-1.81-.81-4.77-1.71-.8-.25-1.42-.4-1.92-.57C222.27,566,222.4,564.9,222.39,562.72Z" transform="translate(-204.27 -546.51)"/><path class="cls-1" d="M210.32,600.55c-.2,0-.21-1,0-1.78s.77-1.87,2.81-3.41a16.45,16.45,0,0,1,4.82-2.78c-.22.31-.53.7-1,1.33s-.88,1.24-1.35,2a6.2,6.2,0,0,0-3.84,2C210.83,599.11,210.57,600.62,210.32,600.55Z" transform="translate(-204.27 -546.51)"/><path class="cls-2" d="M229.3,565.91a14.56,14.56,0,0,1-4.09-1.53l-2.82-1.66h0c0-1.44-.08-3.34-.33-6.33-.13-1.59-.51-5.83-.83-8.43l.32,0a12.1,12.1,0,0,0,4.34,2.81,36.35,36.35,0,0,0,5.49,1.74c0,1.78-.15,4.43-.21,6.22-.08,2.34-.16,4.66-.26,7l-.1.59A15.2,15.2,0,0,1,229.3,565.91Z" transform="translate(-204.27 -546.51)"/><path class="cls-2" d="M225.64,600a48.55,48.55,0,0,0,3-4l0-.12a5.23,5.23,0,0,1,1.86.63,21.06,21.06,0,0,1,2.89,2.3,16.8,16.8,0,0,1,2.47,2.38,14,14,0,0,1,1.79,2.89,38.54,38.54,0,0,1,1.59,5.27,14.75,14.75,0,0,0-1.93,2.14c-.81,1.12-1.1,1.79-1.49,2.36a4.4,4.4,0,0,1-.9,1,8.06,8.06,0,0,1-3.31,1.36,24.78,24.78,0,0,1-5.37.68c-1.16,0-1,0-5.78-.17-2.15-.06-2.12,0-2.47-.09-2.51-.28-2.71-.9-5.19-1.19-2.87-.33-3.15-.34-3.15-.34-.84,0-1.38,0-1.7-.34s-.2-1,0-2c.53-2.67.19-2.15.59-3.66a21.13,21.13,0,0,1,1.45-3.74,51.26,51.26,0,0,1,2.81-4.94c1.23-2,2.08-3.37,2.82-4.52.76-.16,1.58-.28,2.45-.41a29.77,29.77,0,0,1,5.95-.05h0c-.46.67-1.35,2.14-2.2,3.19a20.26,20.26,0,0,1-3.15,3.4c-1.32,1-2.21,1.32-2.64,2.47-.08.22-.39,1,0,1.53s1.64.34,2,.26a6.21,6.21,0,0,0,2.9-1.71A43.85,43.85,0,0,0,225.64,600Z" transform="translate(-204.27 -546.51)"/><path class="cls-1" d="M218.06,595.45c-.87.13-1.69.25-2.45.41.47-.71.9-1.33,1.35-2s.77-1,1-1.33h0q.42-.15.87-.27a16.41,16.41,0,0,1,5.7-.43q.57,0,1.11.09a24.12,24.12,0,0,1,4.51.88c.85.26,1.49.5,1.87.65,2.28.92,3.9,1.57,5.28,3.23a17.21,17.21,0,0,1,2.21,4.17c.76,1.72,1.81,4.49,2.15,5.49-.31.44-.74,1-1.38,1.75-.44.52-.77.89-1.05,1.18a38.54,38.54,0,0,0-1.59-5.27,14,14,0,0,0-1.79-2.89,16.8,16.8,0,0,0-2.47-2.38,21.06,21.06,0,0,0-2.89-2.3,5.23,5.23,0,0,0-1.86-.63,29.58,29.58,0,0,0-3.84-.39l-.78-.05A29.77,29.77,0,0,0,218.06,595.45Z" transform="translate(-204.27 -546.51)"/><path class="cls-1" d="M341,604a34.73,34.73,0,0,0-1.72,5.13c-.25-.27-.55-.6-.92-1-.64-.75-1.07-1.31-1.38-1.75.33-1,1.39-3.77,2.15-5.49a17.21,17.21,0,0,1,2.21-4.17c1.38-1.66,3-2.31,5.28-3.23.38-.15,1-.39,1.86-.65A24.08,24.08,0,0,1,353,592q.54-.06,1.11-.09a16.41,16.41,0,0,1,5.7.43q.45.12.87.27h0c.22.31.53.7,1,1.33s.88,1.24,1.35,2c-.77-.16-1.59-.28-2.46-.41a29.65,29.65,0,0,0-5.94-.05l-.78.05a29.58,29.58,0,0,0-3.84.39,5.15,5.15,0,0,0-1.86.63,21.06,21.06,0,0,0-2.89,2.3,16.8,16.8,0,0,0-2.47,2.38A14,14,0,0,0,341,604Z" transform="translate(-204.27 -546.51)"/><path class="cls-2" d="M349.34,565.91c-.27.08-.8.21-1.52.34l-.1-.59c-.09-2.32-.17-4.64-.25-7-.06-1.79-.16-4.44-.21-6.22a36.35,36.35,0,0,0,5.49-1.74A12.09,12.09,0,0,0,357,548l.13-.12c.09-.09.22-.23.38-.42-.33,2.53-.75,7.2-.9,8.89-.25,3-.32,4.89-.32,6.33-.56.35-1.45.87-2.82,1.67A14.56,14.56,0,0,1,349.34,565.91Z" transform="translate(-204.27 -546.51)"/><path class="cls-1" d="M363,595.86c-.47-.71-.9-1.33-1.35-2s-.77-1-1-1.33a16.45,16.45,0,0,1,4.82,2.78c2,1.54,2.58,2.54,2.81,3.41s.2,1.73,0,1.78-.51-1.44-1.45-2.64A6.2,6.2,0,0,0,363,595.86Z" transform="translate(-204.27 -546.51)"/><path class="cls-3" d="M233,570.94l1.4.06,0,.45c0,.43,0,1.67,0,2.46,0,2.16,0,2.54,0,3.15a28.77,28.77,0,0,1-.51,4.85,33.7,33.7,0,0,1-4-.58c.23-1.6.41-4.37.51-6.22.07-1.28-.2-3.19-.21-4.35C230.9,570.84,231.77,570.88,233,570.94Z" transform="translate(-204.27 -546.51)"/><path class="cls-2" d="M350,596a46.36,46.36,0,0,0,3,4,42.9,42.9,0,0,0,4.68,4.59,6.23,6.23,0,0,0,2.89,1.71c.41.08,1.58.34,2.05-.26s.08-1.31,0-1.53c-.43-1.15-1.32-1.43-2.64-2.47a20.26,20.26,0,0,1-3.15-3.4c-.85-1.05-1.74-2.52-2.2-3.19h0a29.65,29.65,0,0,1,5.94.05c.87.13,1.69.25,2.46.41.74,1.15,1.59,2.52,2.82,4.52a51.26,51.26,0,0,1,2.81,4.94,21.13,21.13,0,0,1,1.45,3.74c.4,1.51.06,1,.59,3.66.2,1,.35,1.56,0,2s-.87.32-1.7.34c0,0-.28,0-3.15.34-2.48.29-2.68.91-5.19,1.19-.35,0-.32,0-2.47.09-4.8.14-4.62.2-5.79.17a24.64,24.64,0,0,1-5.36-.68,8.17,8.17,0,0,1-3.32-1.36,4.15,4.15,0,0,1-.78-.8c-.44-.6-.72-1.29-1.6-2.52a16.91,16.91,0,0,0-2.06-2.28A34.73,34.73,0,0,1,341,604a14,14,0,0,1,1.79-2.89,16.8,16.8,0,0,1,2.47-2.38,21.06,21.06,0,0,1,2.89-2.3,5.15,5.15,0,0,1,1.86-.63Z" transform="translate(-204.27 -546.51)"/><path class="cls-4" d="M374.36,617.23a2.45,2.45,0,0,1-1.19,2.3l-.31.14c-.8.27-1.55-.25-3.6-.39a17.06,17.06,0,0,0-4.09.25c-1.21.18-1.53.33-3.4.77a30.39,30.39,0,0,1-7.07,1.19c-.47,0-.9,0-1.33,0h-.05c-.68,0-1.4-.15-2.36-.28a15.7,15.7,0,0,1-4.34-.94,11.23,11.23,0,0,1-3.66-2.55,24.77,24.77,0,0,1-2-2.81c-.12-.17-.23-.33-.33-.49l2.35-.39a4.15,4.15,0,0,0,.78.8,8.17,8.17,0,0,0,3.32,1.36,24.64,24.64,0,0,0,5.36.68c1.17,0,1,0,5.79-.17,2.15-.06,2.12,0,2.47-.09,2.51-.28,2.71-.9,5.19-1.19C368.72,615,369,615,369,615c.83,0,1.38,0,1.7-.34a10,10,0,0,1,2.39.77A2.58,2.58,0,0,1,374.36,617.23Z" transform="translate(-204.27 -546.51)"/><path class="cls-5" d="M369.26,619.28c2.05.14,2.8.66,3.6.39-.71.33-2.28,1.07-2.88,1.25a22.12,22.12,0,0,1-4.53,1,27.2,27.2,0,0,1-5.3.37c-.68,0-6.1-.68-6.78-.82.43,0,.86,0,1.33,0a30.39,30.39,0,0,0,7.07-1.19c1.87-.44,2.19-.59,3.4-.77A17.06,17.06,0,0,1,369.26,619.28Z" transform="translate(-204.27 -546.51)"/><path class="cls-1" d="M366.19,573.66c.25.18,0,.73-.25,2.13a10.52,10.52,0,0,1-.6,2.72,5.16,5.16,0,0,1-1.11,1.45,8.32,8.32,0,0,1-3,1.78,13.1,13.1,0,0,0-2.34,1.19q-.12-.67-.3-1.44c-.22-1-.46-1.83-.67-2.51a17.36,17.36,0,0,0,2.45-1.66,50.61,50.61,0,0,1,4.69-3.32C365.33,573.84,365.92,573.46,366.19,573.66Z" transform="translate(-204.27 -546.51)"/><path class="cls-3" d="M362.62,604.47c.08.22.38,1,0,1.53s-1.64.34-2.05.26a6.23,6.23,0,0,1-2.89-1.71A42.9,42.9,0,0,1,353,600a46.36,46.36,0,0,1-3-4l0-.12a29.58,29.58,0,0,1,3.84-.39l.78-.05h0c.46.67,1.35,2.14,2.2,3.19A20.26,20.26,0,0,0,360,602C361.3,603,362.19,603.32,362.62,604.47Z" transform="translate(-204.27 -546.51)"/><path class="cls-2" d="M360.06,591.53a4.4,4.4,0,0,0,.62,1q-.42-.15-.87-.27a16.41,16.41,0,0,0-5.7-.43q-.57,0-1.11.09v-.15a15.88,15.88,0,0,1-2.2-1.72c-.93-1-1.14-3.43-1.18-3.84.7-.1,1.08-.18,1.43-.25a25.36,25.36,0,0,0,4.85-1.36,12.92,12.92,0,0,0,3-1.71c.29,1.55.42,2.71.46,3.07C359.72,589.17,359.36,589.92,360.06,591.53Z" transform="translate(-204.27 -546.51)"/><path class="cls-1" d="M358.7,561.66c.11.07.25.24.17,2a8.76,8.76,0,0,1-.17,1.79,5.22,5.22,0,0,1-.93,1.87,3.1,3.1,0,0,1-1.58,1c.17-2.3.05-3.43.06-5.62l.92-.54C357.78,561.8,358.37,561.44,358.7,561.66Z" transform="translate(-204.27 -546.51)"/><path class="cls-1" d="M358.92,582.93a12.92,12.92,0,0,1-3,1.71A25.36,25.36,0,0,1,351,586c-.35.07-.73.15-1.43.25s-2,.25-3.94.44l-1.69.16a74.27,74.27,0,0,1-8,.43,20.78,20.78,0,0,1-4.77-.77c-.32-.09-.61-.17-.87-.27-.06-1.58-.2-2.39-.49-5.24a9.88,9.88,0,0,1,1.62.66,11.84,11.84,0,0,0,3.4.34c2,.06,3,0,5-.09,3.41-.08,3,.12,4.86,0a33.7,33.7,0,0,0,4-.58l2.63-.44a30.46,30.46,0,0,0,3.75-.68A15.11,15.11,0,0,0,358,579c.21.68.45,1.54.67,2.51Q358.8,582.26,358.92,582.93Z" transform="translate(-204.27 -546.51)"/><path class="cls-2" d="M357.51,577.57c.08.22.24.72.44,1.41a15.11,15.11,0,0,1-2.82,1.23,30.46,30.46,0,0,1-3.75.68l-2.63.44c-.23-1.6-.42-4.37-.52-6.22-.06-1.28.21-3.19.22-4.35a9.91,9.91,0,0,0,1.06-.16c2-.43,1.81-.81,4.77-1.71.8-.25,1.41-.4,1.91-.56,0,.42-.07.89-.13,1.41a11.89,11.89,0,0,0,.09,4A36.16,36.16,0,0,0,357.51,577.57Z" transform="translate(-204.27 -546.51)"/><path d="M356.84,547.91l.12.12a12.09,12.09,0,0,1-4.21,2.69,36.35,36.35,0,0,1-5.49,1.74c-1.13.27-2.32.52-3.62.78l-4,.8c-1.58.32-2.88,1-4.85,1a20.38,20.38,0,0,0-3.58,0,4.4,4.4,0,0,1-2.3.13,2.35,2.35,0,0,1-.63-.33c1.18-2.91,5.15-7.61,10.85-8.09A51.72,51.72,0,0,1,356.84,547.91Z" transform="translate(-204.27 -546.51)"/><path class="cls-1" d="M356.25,562.71c0,2.19.11,3.32-.06,5.62-.5.16-1.11.31-1.91.56-3,.9-2.73,1.28-4.77,1.71a9.91,9.91,0,0,1-1.06.16c-.71.08-1.58.12-2.85.18l-1.4.06a28.51,28.51,0,0,1-4.48-.06c-1.44-.15-.72-.2-4.93-.94a19.36,19.36,0,0,1-3.83-.94,17.38,17.38,0,0,1-2.17-1c-.05-.73-.09-1.49-.13-2.28s-.08-1.62-.11-2.44c.32.11.71.27,1.22.49,1.56.68,2.64,1.27,3,1.44.93.49,1.36.46,5.61.86,3.34.31,4.47.47,5.27.51a10.44,10.44,0,0,0,1.12,0,23,23,0,0,0,3.07-.35c.72-.13,1.25-.26,1.52-.34a14.56,14.56,0,0,0,4.09-1.53C354.8,563.58,355.69,563.06,356.25,562.71Z" transform="translate(-204.27 -546.51)"/><path class="cls-3" d="M353,591.81V592a24.08,24.08,0,0,0-4.52.88c-.35-.62-1.47-2.84-1.78-3.69-.17-.48-.91-2-1-2.46,2-.19,3.15-.33,3.94-.44,0,.41.25,2.86,1.18,3.84A15.88,15.88,0,0,0,353,591.81Z" transform="translate(-204.27 -546.51)"/><path class="cls-3" d="M348.23,575.11c.1,1.85.29,4.62.52,6.22a33.7,33.7,0,0,1-4,.58,30,30,0,0,1-.52-4.85c0-.61,0-1,0-3.15,0-.79,0-2,0-2.46l0-.45,1.4-.06c1.27-.06,2.14-.1,2.85-.18C348.44,571.92,348.17,573.83,348.23,575.11Z" transform="translate(-204.27 -546.51)"/><path class="cls-3" d="M347.72,565.66l.1.59a23,23,0,0,1-3.07.35,10.44,10.44,0,0,1-1.12,0V553.24c1.3-.26,2.49-.51,3.62-.78.05,1.78.15,4.43.21,6.22C347.55,561,347.63,563.34,347.72,565.66Z" transform="translate(-204.27 -546.51)"/><path class="cls-2" d="M330.57,594.42c.17-2.37-.17-4.76-.21-7.14,0-.39,0-.73,0-1,.26.1.55.18.87.27a20.78,20.78,0,0,0,4.77.77,74.27,74.27,0,0,0,8-.43l1.69-.16c.12.43.86,2,1,2.46.31.85,1.43,3.07,1.78,3.69-.85.26-1.48.5-1.86.65-2.28.92-3.9,1.57-5.28,3.23a17.21,17.21,0,0,0-2.21,4.17c-.76,1.72-1.82,4.49-2.15,5.49a12.86,12.86,0,0,0-2-2.51c-1.38-1.28-1.9-1.31-2.81-2.55a9.19,9.19,0,0,1-1.45-3.06,9.29,9.29,0,0,1-.17-3.32c0-.16,0-.33,0-.49Z" transform="translate(-204.27 -546.51)"/><path class="cls-2" d="M344.23,577.06a30,30,0,0,0,.52,4.85c-1.9.12-1.45-.08-4.86,0-2,.06-3,.15-5,.09a11.84,11.84,0,0,1-3.4-.34,9.88,9.88,0,0,0-1.62-.66c-.12-1.13-.26-2.58-.42-4.53s-.41-4.81-.64-8.45a17.38,17.38,0,0,0,2.17,1,19.36,19.36,0,0,0,3.83.94c4.21.74,3.49.79,4.93.94a28.51,28.51,0,0,0,4.48.06l0,.45c0,.43,0,1.67,0,2.46C344.23,576.07,344.21,576.45,344.23,577.06Z" transform="translate(-204.27 -546.51)"/><path class="cls-2" d="M343.64,560v6.56c-.8,0-1.93-.2-5.27-.51-4.25-.4-4.68-.37-5.61-.86-.34-.17-1.42-.76-3-1.44-.51-.22-.9-.38-1.22-.49-.14-3.13-.2-6.22-.23-8h-.25c.05-.14.1-.29.17-.45a2.35,2.35,0,0,0,.63.33,4.4,4.4,0,0,0,2.3-.13,20.38,20.38,0,0,1,3.58,0c2,0,3.27-.7,4.85-1l4-.8V560Z" transform="translate(-204.27 -546.51)"/><path class="cls-4" d="M342.94,614l-2.35.39c-1.58-2.33-1.78-2.81-2.57-3.08s-1.26.1-2.72-.34a10.56,10.56,0,0,1-1.87-.85,9.62,9.62,0,0,1-2.64-1.71,4.76,4.76,0,0,1-1.19-1.7,6.21,6.21,0,0,1-.17-2.72c0-1.26,0-.15-.05.14,0-.24,0-1.28.13-4.23,0-.64.91-4.18,1.06-5.42,0,.16,0,.33,0,.49a9.29,9.29,0,0,0,.17,3.32,9.19,9.19,0,0,0,1.45,3.06c.91,1.24,1.43,1.27,2.81,2.55a12.86,12.86,0,0,1,2,2.51c.31.44.74,1,1.38,1.75.37.44.67.77.92,1a16.91,16.91,0,0,1,2.06,2.28C342.22,612.68,342.5,613.37,342.94,614Z" transform="translate(-204.27 -546.51)"/><path class="cls-1" d="M329.85,581c.29,2.85.43,3.66.49,5.24a2.75,2.75,0,0,1-1.85-1.35,4.47,4.47,0,0,1-.26-1.53,2.86,2.86,0,0,1,.17-1.45,1.8,1.8,0,0,1,.77-.85A1.06,1.06,0,0,1,329.85,581Z" transform="translate(-204.27 -546.51)"/><path class="cls-1" d="M328.66,565.74c0,.79.08,1.55.13,2.28-1-.51-1.28-.72-1.49-1.08a3.08,3.08,0,0,1-.26-1.62c0-1.18,0-1.77.34-2s.54-.18,1.17,0C328.58,564.12,328.62,564.94,328.66,565.74Z" transform="translate(-204.27 -546.51)"/><path class="cls-1" d="M251.26,563.28c.36.27.35.86.34,2a3.08,3.08,0,0,1-.26,1.62c-.21.36-.5.57-1.49,1.08.05-.73.09-1.49.13-2.28s.08-1.62.11-2.44C250.72,563.1,251,563.11,251.26,563.28Z" transform="translate(-204.27 -546.51)"/><path class="cls-1" d="M250.23,581.91a2.66,2.66,0,0,1,.17,1.45,4.24,4.24,0,0,1-.25,1.53,2.78,2.78,0,0,1-1.85,1.35c.06-1.58.2-2.39.49-5.24a1.06,1.06,0,0,1,.68.06A1.71,1.71,0,0,1,250.23,581.91Z" transform="translate(-204.27 -546.51)"/><path class="cls-2" d="M250.2,555a2.56,2.56,0,0,1,.12.32c0,1.77-.09,4.86-.23,8-.32.11-.71.27-1.22.49-1.57.68-2.64,1.27-3,1.44-.94.49-1.36.46-5.61.86-3.34.31-4.47.47-5.27.51V553.24l4,.8c1.58.32,2.88,1,4.85,1a20.38,20.38,0,0,1,3.58,0,4.4,4.4,0,0,0,2.3.13A1.89,1.89,0,0,0,250.2,555Z" transform="translate(-204.27 -546.51)"/><path d="M250.2,555a1.89,1.89,0,0,1-.43.2,4.4,4.4,0,0,1-2.3-.13,20.38,20.38,0,0,0-3.58,0c-2,0-3.27-.7-4.85-1l-4-.8c-1.3-.26-2.49-.51-3.62-.78a36.35,36.35,0,0,1-5.49-1.74,12.1,12.1,0,0,1-4.34-2.81,51.72,51.72,0,0,1,17.75-1.14C245.08,547.26,249.08,552.09,250.2,555Z" transform="translate(-204.27 -546.51)"/><path class="cls-2" d="M249.85,568c-.23,3.64-.48,6.61-.64,8.45s-.3,3.4-.42,4.53a9.88,9.88,0,0,0-1.62.66,11.84,11.84,0,0,1-3.4.34c-2,.06-3,0-5-.09-3.41-.08-3,.12-4.85,0a28.77,28.77,0,0,0,.51-4.85c0-.61,0-1,0-3.15,0-.79,0-2,0-2.46l0-.45a28.36,28.36,0,0,0,4.47-.06c1.45-.15.72-.2,4.94-.94a19.53,19.53,0,0,0,3.83-.94A18.08,18.08,0,0,0,249.85,568Z" transform="translate(-204.27 -546.51)"/><path class="cls-4" d="M249.2,603.42c0,.07,0,.24,0,.54a6.38,6.38,0,0,1-.17,2.72,4.76,4.76,0,0,1-1.19,1.7,9.62,9.62,0,0,1-2.64,1.71,10.56,10.56,0,0,1-1.87.85c-1.46.44-1.82,0-2.72.34-.74.25-1,.69-2.27,2.64l-2.54-.11c.39-.57.68-1.24,1.49-2.36a14.75,14.75,0,0,1,1.93-2.14c.28-.29.61-.66,1.05-1.18.64-.75,1.07-1.31,1.38-1.75a12.86,12.86,0,0,1,2-2.51c1.38-1.28,1.9-1.31,2.81-2.55a9.19,9.19,0,0,0,1.45-3.06,9.29,9.29,0,0,0,.17-3.32,3.71,3.71,0,0,1,0-.47c.15,1.26,1,4.76,1,5.4C249.34,606.12,249.24,603.81,249.2,603.42Z" transform="translate(-204.27 -546.51)"/><path class="cls-1" d="M248.79,581c-.29,2.85-.43,3.66-.49,5.24-.26.1-.55.18-.87.27a20.78,20.78,0,0,1-4.77.77,74.27,74.27,0,0,1-8-.43l-1.7-.16c-2-.19-3.14-.33-3.93-.44s-1.08-.18-1.43-.25a25.45,25.45,0,0,1-4.86-1.36,13,13,0,0,1-3-1.71q.12-.67.3-1.44c.22-1,.46-1.83.67-2.51a15.11,15.11,0,0,0,2.82,1.23,30.46,30.46,0,0,0,3.75.68l2.63.44a33.7,33.7,0,0,0,4,.58c1.9.12,1.44-.08,4.85,0,2,.06,3,.15,5,.09a11.84,11.84,0,0,0,3.4-.34A9.88,9.88,0,0,1,248.79,581Z" transform="translate(-204.27 -546.51)"/><path class="cls-2" d="M248.07,594.42a.09.09,0,0,0,0,.05,3.71,3.71,0,0,0,0,.47,9.29,9.29,0,0,1-.17,3.32,9.19,9.19,0,0,1-1.45,3.06c-.91,1.24-1.43,1.27-2.81,2.55a12.86,12.86,0,0,0-2,2.51c-.34-1-1.39-3.77-2.15-5.49a17.21,17.21,0,0,0-2.21-4.17c-1.38-1.66-3-2.31-5.28-3.23-.38-.15-1-.39-1.87-.65.36-.62,1.47-2.84,1.79-3.69.17-.48.91-2,1-2.46l1.7.16a74.27,74.27,0,0,0,8,.43,20.78,20.78,0,0,0,4.77-.77c.32-.09.61-.17.87-.27,0,.31,0,.65,0,1C248.24,589.66,247.89,592.05,248.07,594.42Z" transform="translate(-204.27 -546.51)"/><path class="cls-4" d="M235.81,613.81l2.54.11c-.19.28-.39.59-.63.93a26.16,26.16,0,0,1-2,2.81,11.23,11.23,0,0,1-3.66,2.55,15.7,15.7,0,0,1-4.34.94c-1,.13-1.68.23-2.36.28h0c-.43,0-.86,0-1.33,0a30.39,30.39,0,0,1-7.07-1.19c-1.87-.44-2.19-.59-3.4-.77a17.06,17.06,0,0,0-4.09-.25c-2,.14-2.8.66-3.6.39l-.31-.14a2.43,2.43,0,0,1-1.19-2.3,2.56,2.56,0,0,1,1.27-1.78,10,10,0,0,1,2.39-.77c.32.37.86.32,1.7.34,0,0,.28,0,3.15.34,2.48.29,2.68.91,5.19,1.19.35,0,.32,0,2.47.09,4.8.14,4.62.2,5.78.17a24.78,24.78,0,0,0,5.37-.68,8.06,8.06,0,0,0,3.31-1.36A4.4,4.4,0,0,0,235.81,613.81Z" transform="translate(-204.27 -546.51)"/><path class="cls-3" d="M235,566.32v.28a10.44,10.44,0,0,1-1.12,0,23.2,23.2,0,0,1-3.08-.35l.1-.59c.1-2.32.18-4.64.26-7,.06-1.79.16-4.44.21-6.22,1.13.27,2.32.52,3.62.78v13.08Z" transform="translate(-204.27 -546.51)"/><path class="cls-3" d="M233,586.69c-.11.43-.85,2-1,2.46-.32.85-1.43,3.07-1.79,3.69a24.12,24.12,0,0,0-4.51-.88v-.15a16.49,16.49,0,0,0,2.2-1.72c.93-1,1.14-3.43,1.18-3.84C229.82,586.36,231,586.5,233,586.69Z" transform="translate(-204.27 -546.51)"/><path class="cls-2" d="M230.19,570.76c0,1.16.28,3.07.21,4.35-.1,1.85-.28,4.62-.51,6.22l-2.63-.44a30.46,30.46,0,0,1-3.75-.68,15.11,15.11,0,0,1-2.82-1.23c.2-.69.36-1.19.44-1.41a36.16,36.16,0,0,0,1.36-3.83,11.59,11.59,0,0,0,.08-4c-.06-.52-.1-1-.13-1.42.5.17,1.12.32,1.92.57,3,.9,2.73,1.28,4.77,1.71A9.91,9.91,0,0,0,230.19,570.76Z" transform="translate(-204.27 -546.51)"/><path class="cls-2" d="M229,586.25c0,.41-.25,2.86-1.18,3.84a16.49,16.49,0,0,1-2.2,1.72V592q-.54-.06-1.11-.09a16.41,16.41,0,0,0-5.7.43q-.45.12-.87.27a4.36,4.36,0,0,0,.61-1c.71-1.61.35-2.36.69-5.53,0-.36.16-1.52.46-3.07a13,13,0,0,0,3,1.71A25.45,25.45,0,0,0,227.6,586C228,586.07,228.33,586.15,229,586.25Z" transform="translate(-204.27 -546.51)"/><path class="cls-3" d="M228.63,595.84l0,.12a48.55,48.55,0,0,1-3,4,43.85,43.85,0,0,1-4.68,4.59,6.21,6.21,0,0,1-2.9,1.71c-.4.08-1.57.34-2-.26s-.08-1.31,0-1.53c.43-1.15,1.32-1.43,2.64-2.47a20.26,20.26,0,0,0,3.15-3.4c.85-1.05,1.74-2.52,2.2-3.19h0l.78.05A29.58,29.58,0,0,1,228.63,595.84Z" transform="translate(-204.27 -546.51)"/><path class="cls-5" d="M223.94,621.49c.47,0,.9,0,1.33,0-.68.14-6.1.78-6.78.82a27.2,27.2,0,0,1-5.3-.37,22.12,22.12,0,0,1-4.53-1c-.6-.18-2.17-.92-2.88-1.25.8.27,1.55-.25,3.6-.39a17.06,17.06,0,0,1,4.09.25c1.21.18,1.53.33,3.4.77A30.39,30.39,0,0,0,223.94,621.49Z" transform="translate(-204.27 -546.51)"/><path class="cls-1" d="M222.44,568.32a3,3,0,0,1-1.57-1,5.22,5.22,0,0,1-.93-1.87,8.76,8.76,0,0,1-.17-1.79c-.09-1.8.06-2,.17-2,.33-.22.92.14,1.53.51l.92.54h0C222.4,564.9,222.27,566,222.44,568.32Z" transform="translate(-204.27 -546.51)"/><path class="cls-1" d="M218.23,577.32a18.28,18.28,0,0,0,2.46,1.66c-.21.68-.45,1.54-.67,2.51q-.18.76-.3,1.44a13.1,13.1,0,0,0-2.34-1.19,8.34,8.34,0,0,1-3-1.78,5.35,5.35,0,0,1-1.1-1.45,10.52,10.52,0,0,1-.6-2.72c-.28-1.4-.51-1.95-.25-2.13s.86.18,1.1.34A51.86,51.86,0,0,1,218.23,577.32Z" transform="translate(-204.27 -546.51)"/></g><g id="Layer_5" data-name="Layer 5"><g class="cls-6"><path class="cls-7" d="M248.11,552" transform="translate(-204.27 -546.51)"/></g><g class="cls-6"><path class="cls-7" d="M229.72,550.34" transform="translate(-204.27 -546.51)"/></g><g class="cls-6"><path class="cls-7" d="M241.13,546.77" transform="translate(-204.27 -546.51)"/></g></g><g id="Layer_7" data-name="Layer 7"><path class="cls-8" d="M236.45,556c-1.19,0-2.37-.1-3.56-.16s-2.36-.16-3.54-.24l.22-.6c1.1.71,2.21,1.41,3.3,2.14s2.18,1.46,3.26,2.2l.84.58-1,.29c-2.15.62-4.31,1.21-6.47,1.8l.05-.9c2.15.9,4.28,1.83,6.41,2.78l.88.39-.93.19c-1,.21-2.06.42-3.09.6s-2.07.39-3.11.55c1-.32,2-.61,3-.9s2-.58,3-.85l0,.59q-3.28-1.2-6.54-2.47l-1.3-.51,1.35-.39c2.16-.62,4.31-1.23,6.47-1.82l-.15.87c-1.07-.74-2.14-1.51-3.2-2.27s-2.12-1.55-3.18-2.33l-1.07-.79,1.3.19c1.17.16,2.35.3,3.52.49S235.28,555.83,236.45,556Z" transform="translate(-204.27 -546.51)"/><path class="cls-8" d="M229.89,571.79c1,.29,2,.62,3,.93s2,.65,2.93,1l.81.28-.82.3q-3.11,1.14-6.24,2.21l0-.9c2.1.78,4.21,1.56,6.29,2.37l1.37.53-1.4.39q-3.54,1-7.11,1.88l0-.67c1.17.2,2.35.36,3.52.58s2.34.41,3.5.65c-1.19-.05-2.37-.15-3.56-.24s-2.36-.21-3.55-.31l-1.65-.15,1.6-.52c2.33-.75,4.68-1.47,7-2.15l0,.92c-2.1-.77-4.19-1.58-6.28-2.39L228,576l1.29-.4c2.1-.66,4.22-1.29,6.34-1.89l0,.58c-.95-.4-1.9-.8-2.84-1.23S230.83,572.23,229.89,571.79Z" transform="translate(-204.27 -546.51)"/><path class="cls-8" d="M227.68,587.28c2.26.05,4.52.17,6.77.33l2.64.19-2.62.5q-3.53.68-7.06,1.21l0-1c1.88.39,3.75.82,5.62,1.25l2.63.6-2.66.32c-2.11.26-4.22.46-6.33.66l0-.56c.81.25,1.61.52,2.42.8s1.6.55,2.4.85c-.84-.16-1.67-.34-2.5-.53s-1.65-.36-2.48-.57l-1.32-.33,1.36-.23c2.09-.36,4.18-.72,6.28-1l0,.92c-1.88-.39-3.76-.78-5.63-1.2l-2.55-.59,2.58-.38q3.54-.52,7.1-.93l0,.69C232.14,588,229.91,587.68,227.68,587.28Z" transform="translate(-204.27 -546.51)"/><path class="cls-8" d="M222.22,596.3c1.07.09,2.14.2,3.21.32s2.15.21,3.22.35l2.17.28-2.19.25c-2.4.28-4.8.59-7.21.85l.11-.84c2,.68,4,1.36,6,2.07l2.26.8-2.4.15q-4.58.29-9.17.48l.1-.89c2.38.76,4.75,1.57,7.12,2.36l1.87.63-2,0c-1.29,0-2.57-.07-3.86-.13s-2.57-.1-3.86-.17c1.29-.08,2.57-.13,3.86-.18s2.57-.1,3.86-.12l-.09.58c-2.4-.68-4.81-1.34-7.2-2.06l-2.4-.72,2.5-.17c3.06-.2,6.12-.39,9.18-.55l-.14,1q-3-1.07-5.93-2.18l-1.84-.68,1.94-.16c2.41-.19,4.83-.34,7.24-.51v.53c-1.06-.18-2.12-.39-3.18-.59S223.27,596.52,222.22,596.3Z" transform="translate(-204.27 -546.51)"/><path class="cls-8" d="M342.45,556c1.17-.21,2.35-.38,3.52-.57s2.34-.33,3.51-.49l1.3-.19-1.07.79c-1.06.78-2.1,1.57-3.18,2.33s-2.13,1.53-3.2,2.27l-.15-.87q3.24.88,6.47,1.82l1.35.39-1.3.51q-3.26,1.28-6.53,2.47l-.05-.59c1,.27,2,.55,3,.85s2,.58,3,.9c-1-.16-2.07-.36-3.11-.55s-2.06-.39-3.09-.6l-.93-.19.89-.39q3.18-1.42,6.4-2.78l.05.9c-2.16-.59-4.32-1.18-6.47-1.8l-1-.29.84-.58c1.08-.74,2.18-1.47,3.27-2.2s2.19-1.43,3.29-2.14l.22.6c-1.18.08-2.36.19-3.54.24S343.64,556,342.45,556Z" transform="translate(-204.27 -546.51)"/><path class="cls-8" d="M349,571.79c-.94.44-1.88.85-2.83,1.27s-1.89.83-2.84,1.23v-.58q3.18.9,6.33,1.89l1.29.4-1.26.49c-2.09.81-4.18,1.62-6.29,2.39l0-.92c2.35.68,4.7,1.4,7,2.15l1.6.52-1.65.15c-1.19.1-2.37.24-3.55.31s-2.37.19-3.56.24c1.17-.24,2.34-.44,3.51-.65s2.34-.38,3.51-.58l-.05.67q-3.57-.88-7.1-1.88l-1.41-.39,1.37-.53c2.09-.81,4.19-1.59,6.29-2.37l0,.9c-2.09-.71-4.16-1.45-6.24-2.21l-.82-.3.81-.28c1-.34,1.95-.68,2.93-1S348,572.08,349,571.79Z" transform="translate(-204.27 -546.51)"/><path class="cls-8" d="M351.22,587.28c-2.23.4-4.46.73-6.7,1l0-.69q3.56.4,7.1.93l2.58.38-2.55.59c-1.87.42-3.75.81-5.63,1.2l0-.92c2.1.3,4.19.66,6.28,1l1.36.23-1.32.33c-.82.21-1.65.39-2.48.57s-1.66.37-2.5.53c.8-.3,1.6-.57,2.41-.85s1.6-.55,2.41-.8l0,.56c-2.11-.2-4.22-.4-6.32-.66l-2.67-.32,2.63-.6c1.87-.43,3.74-.86,5.62-1.25l0,1q-3.54-.54-7.06-1.21l-2.62-.5,2.64-.19C346.7,587.45,349,587.33,351.22,587.28Z" transform="translate(-204.27 -546.51)"/><path class="cls-8" d="M356.68,596.3c-1.05.22-2.11.42-3.17.61s-2.11.41-3.18.59V597c2.41.17,4.83.32,7.24.51l1.94.16-1.84.68q-3,1.11-5.93,2.18l-.14-1c3.06.16,6.12.35,9.18.55l2.5.17-2.39.72c-2.4.72-4.8,1.38-7.21,2.06l-.09-.58c1.29,0,2.58.06,3.86.12s2.58.1,3.86.18c-1.28.07-2.57.12-3.86.17s-2.57.1-3.86.13l-2,0,1.87-.63c2.37-.79,4.74-1.6,7.12-2.36l.11.89q-4.59-.19-9.18-.48l-2.4-.15,2.26-.8c2-.71,4-1.39,6-2.07l.11.84c-2.41-.26-4.81-.57-7.21-.85l-2.19-.25,2.18-.28c1.06-.14,2.14-.23,3.21-.35S355.61,596.39,356.68,596.3Z" transform="translate(-204.27 -546.51)"/></g></svg>