<svg xmlns="http://www.w3.org/2000/svg" xmlns:xlink="http://www.w3.org/1999/xlink" viewBox="0 0 101 96.02"><defs><style>.cls-1{fill:#f8f7f7;}.cls-2{fill:#1d1d1b;}.cls-3{fill:#e8e8e8;}.cls-4{fill:url(#radial-gradient);}.cls-5{fill:url(#radial-gradient-2);}.cls-6{fill:url(#radial-gradient-3);}.cls-7{fill:url(#radial-gradient-4);}.cls-8{fill:url(#radial-gradient-5);}.cls-9{fill:#d7d8d7;}.cls-10{fill:none;}</style><radialGradient id="radial-gradient" cx="64.08" cy="50.9" r="13.28" gradientUnits="userSpaceOnUse"><stop offset="0" stop-color="#fff"/><stop offset="0.85"/></radialGradient><radialGradient id="radial-gradient-2" cx="96.57" cy="33.49" r="1.92" xlink:href="#radial-gradient"/><radialGradient id="radial-gradient-3" cx="96.9" cy="24.15" r="1.59" xlink:href="#radial-gradient"/><radialGradient id="radial-gradient-4" cx="4.01" cy="23.96" r="1.39" xlink:href="#radial-gradient"/><radialGradient id="radial-gradient-5" cx="4.16" cy="33.01" r="1.55" xlink:href="#radial-gradient"/></defs><title>emu helmet</title><g id="Layer_2" data-name="Layer 2"><path class="cls-1" d="M385,152.38c.23,1.18.42,2.32.56,3.42h-.05a86.2,86.2,0,0,0-4.59-7.85,38.46,38.46,0,0,0-6.3-7.75,34,34,0,0,0-10.3-6,53,53,0,0,0-9.62-3,43.6,43.6,0,0,0-20.15,0,53.08,53.08,0,0,0-9.61,3,34,34,0,0,0-10.3,6,38.46,38.46,0,0,0-6.3,7.75,81.74,81.74,0,0,0-4.59,7.85h0c.14-1.1.33-2.24.56-3.42a44.15,44.15,0,0,1,5.27-14.47,34.08,34.08,0,0,1,9.54-11.06c4.7-3.42,9.14-4.6,12.93-5.62a47.77,47.77,0,0,1,25.26,0c3.79,1,8.23,2.2,12.93,5.62a34.08,34.08,0,0,1,9.54,11.06A44.15,44.15,0,0,1,385,152.38Z" transform="translate(-294.15 -119.53)"/><path class="cls-1" d="M395.15,153.41v2.36a4.6,4.6,0,0,1-9.19,0v-2.36h.84a3.7,3.7,0,1,0,7.4,0Z" transform="translate(-294.15 -119.53)"/><path class="cls-1" d="M395.15,144.48v8.93h-.95a3.7,3.7,0,0,0-7.4,0H386v-8.93h.84a3.7,3.7,0,1,0,7.4,0Z" transform="translate(-294.15 -119.53)"/><path class="cls-1" d="M395.15,142.4v2.08h-.95a3.7,3.7,0,0,0-7.4,0H386V142.4a4.6,4.6,0,0,1,9.19,0Z" transform="translate(-294.15 -119.53)"/><circle class="cls-2" cx="96.35" cy="24.95" r="3.7"/><path class="cls-2" d="M390.5,149.71a3.71,3.71,0,1,1-3.7,3.7A3.7,3.7,0,0,1,390.5,149.71Z" transform="translate(-294.15 -119.53)"/><path class="cls-3" d="M385.58,155.8a52.69,52.69,0,0,1,.22,10.67h0a41.46,41.46,0,0,0-4.41-5.43,32,32,0,0,0-9.95-6.38,45.45,45.45,0,0,0-8.68-2.87,58.5,58.5,0,0,0-9.77-1.22c-3.3-.22-6.14-.27-8.32-.26s-5,0-8.34.26a58.5,58.5,0,0,0-9.77,1.22,45.45,45.45,0,0,0-8.68,2.87,32,32,0,0,0-10,6.38,42.16,42.16,0,0,0-4.4,5.43h0a52.69,52.69,0,0,1,.22-10.67h0a81.74,81.74,0,0,1,4.59-7.85,38.46,38.46,0,0,1,6.3-7.75,34,34,0,0,1,10.3-6,53.08,53.08,0,0,1,9.61-3,43.6,43.6,0,0,1,20.15,0,53,53,0,0,1,9.62,3,34,34,0,0,1,10.3,6,38.46,38.46,0,0,1,6.3,7.75,86.2,86.2,0,0,1,4.59,7.85Z" transform="translate(-294.15 -119.53)"/><path d="M385.79,166.47h0c-.15,2.08-.37,4.16-.61,6.34a83.26,83.26,0,0,1-5.78,23.66c-2.32,5.39-4.09,9.36-8.35,12.76a28.83,28.83,0,0,1-11.4,5.28,39.1,39.1,0,0,1-7.49.85c-3,.11-5.49.19-7.53.19-2.21,0-4.53-.08-7.51-.19a39.1,39.1,0,0,1-7.49-.85,28.91,28.91,0,0,1-11.41-5.28c-4.25-3.4-6-7.37-8.34-12.76-.83-1.93-4.35-10.36-5.78-23.66-.24-2.18-.46-4.26-.61-6.34h0a42.16,42.16,0,0,1,4.4-5.43,32,32,0,0,1,10-6.38,45.45,45.45,0,0,1,8.68-2.87,58.5,58.5,0,0,1,9.77-1.22c3.31-.23,6.15-.27,8.34-.26s5,0,8.32.26a58.5,58.5,0,0,1,9.77,1.22,45.45,45.45,0,0,1,8.68,2.87,32,32,0,0,1,9.95,6.38A41.46,41.46,0,0,1,385.79,166.47Z" transform="translate(-294.15 -119.53)"/><path class="cls-1" d="M303.34,153.41v2.36a4.6,4.6,0,0,1-9.19,0v-2.36h1a3.7,3.7,0,1,0,7.4,0Z" transform="translate(-294.15 -119.53)"/><path class="cls-1" d="M303.34,144.48v8.93h-.84a3.7,3.7,0,1,0-7.4,0h-1v-8.93h1a3.7,3.7,0,1,0,7.4,0Z" transform="translate(-294.15 -119.53)"/><path class="cls-1" d="M303.34,142.4v2.08h-.84a3.7,3.7,0,1,0-7.4,0h-1V142.4a4.6,4.6,0,0,1,9.19,0Z" transform="translate(-294.15 -119.53)"/><circle class="cls-2" cx="4.65" cy="24.95" r="3.7"/><path class="cls-2" d="M298.8,149.71a3.71,3.71,0,1,1-3.7,3.7A3.7,3.7,0,0,1,298.8,149.71Z" transform="translate(-294.15 -119.53)"/></g><g id="Layer_4" data-name="Layer 4"><circle class="cls-4" cx="64.08" cy="50.9" r="13.28"/><circle class="cls-5" cx="96.57" cy="33.49" r="1.92"/><circle class="cls-6" cx="96.9" cy="24.15" r="1.59"/><circle class="cls-7" cx="4.01" cy="23.96" r="1.39"/><circle class="cls-8" cx="4.16" cy="33.01" r="1.55"/></g><g id="Layer_5" data-name="Layer 5"><path class="cls-9" d="M317.3,135.79c1-.92,2-1.67,3-2.5s1.89-1.67,3-2.52a8,8,0,0,1-6,5Z" transform="translate(-294.15 -119.53)"/><path class="cls-9" d="M333.81,130.85a5.11,5.11,0,0,1-.63-2.26,6.27,6.27,0,0,1,.2-2.33,3.84,3.84,0,0,1,.56,1.08c.08.19.11.38.17.57l.06.59A5.07,5.07,0,0,1,333.81,130.85Z" transform="translate(-294.15 -119.53)"/><path class="cls-9" d="M341.47,130.43a4.09,4.09,0,0,1-.18-2.92,4,4,0,0,1,1.71-2.36c-.23,1-.52,1.79-.75,2.64S341.81,129.47,341.47,130.43Z" transform="translate(-294.15 -119.53)"/><path class="cls-9" d="M346.15,128.72a2.08,2.08,0,0,1-.5-1.12,2.67,2.67,0,0,1,.1-1.25,2.21,2.21,0,0,1,.74-1.06,1.7,1.7,0,0,1,1.19-.4,5.7,5.7,0,0,0-1,1.78C346.49,127.27,346.38,127.92,346.15,128.72Z" transform="translate(-294.15 -119.53)"/><path class="cls-9" d="M350.83,130.34a28.44,28.44,0,0,0-.62-3,24.48,24.48,0,0,0-1.08-2.86,4.11,4.11,0,0,1,2,2.59A4.21,4.21,0,0,1,350.83,130.34Z" transform="translate(-294.15 -119.53)"/><path class="cls-9" d="M353.38,129.91a2.65,2.65,0,0,1-.21-2.59,2.54,2.54,0,0,1,2.09-1.58,11.56,11.56,0,0,0-1.17,2A14.47,14.47,0,0,0,353.38,129.91Z" transform="translate(-294.15 -119.53)"/><path class="cls-9" d="M357.3,131.28a8.5,8.5,0,0,1,.65-2.37,7.13,7.13,0,0,1,1.22-2.14,4,4,0,0,1,0,1.29,4.28,4.28,0,0,1-.31,1.23A4.37,4.37,0,0,1,357.3,131.28Z" transform="translate(-294.15 -119.53)"/><path class="cls-9" d="M360.53,131.53a31.82,31.82,0,0,1,2.84-1.76c.47-.27.95-.53,1.4-.82a8.24,8.24,0,0,1,1.55-.74,7.58,7.58,0,0,1-1.08,1.37,5.7,5.7,0,0,1-1.38,1.06A6.35,6.35,0,0,1,360.53,131.53Z" transform="translate(-294.15 -119.53)"/><path class="cls-9" d="M367.51,134.26a5.48,5.48,0,0,1,2.77-2,5.63,5.63,0,0,1,1.72-.32,7.06,7.06,0,0,1,1.72.23,7.66,7.66,0,0,1-1.59.54c-.52.15-1,.32-1.52.5C369.6,133.5,368.64,133.91,367.51,134.26Z" transform="translate(-294.15 -119.53)"/><path class="cls-10" d="M366.45,122.17" transform="translate(-294.15 -119.53)"/></g></svg>