<svg xmlns="http://www.w3.org/2000/svg" viewBox="0 0 157.63 61"><defs><style>.cls-1{fill:#e8e8e8;}.cls-2{fill:#efefef;}.cls-3{fill:#ffeac0;}.cls-4{fill:#575656;}.cls-5{fill:#d7d8d7;}</style></defs><title>emu space  boots</title><g id="Layer_2" data-name="Layer 2"><path class="cls-1" d="M374.83,578.31c0,.59,0,1.45,0,1.88,0,0,0,1.1.13,2.19a37.06,37.06,0,0,0,1.4,7.15c.8,2.48,1,2.06,2.17,5.24,1,2.72.8,3,1.66,5.36A28.41,28.41,0,0,0,383,606a26.71,26.71,0,0,0,4.85,5.49,32.52,32.52,0,0,0,7.41,5.49,29.64,29.64,0,0,0,7.91,2.81c3.5.7,6.13,1.23,9.19.12a10.56,10.56,0,0,0,5.62-4.34c2-3.34,1.32-6.93,1-8.42a20.68,20.68,0,0,0-2.55-6.13c-.88-1.55-1-1.36-1.79-2.81a26.68,26.68,0,0,1-2.4-5.66,20.37,20.37,0,0,1,9,8.77c3.24,6.37,3,15-1,19.28a16.2,16.2,0,0,1-3.57,2.8,17.66,17.66,0,0,1-6.51,2.17,26.48,26.48,0,0,1-9.45-.25,32.63,32.63,0,0,1-9.57-3.32,24.82,24.82,0,0,1-8.43-6.64,23.11,23.11,0,0,1-2.81-4.85c-.32-.79-.23-.72-.89-2.68-1.11-3.27-1.38-3.52-2.17-6-.74-2.32-.55-2.24-1.15-3.83-.51-1.37-.68-1.5-1.91-4.21A24.79,24.79,0,0,1,372,589a9.83,9.83,0,0,1-.38-3.06,15.35,15.35,0,0,1,.38-3.45c.18-1.06,2.7-4.1,2.84-4.72C374.84,577.9,374.83,578.09,374.83,578.31Z" transform="translate(-265.83 -564.89)"/><path class="cls-2" d="M409.63,578h.07c.19,1.26.55,4.51.92,6.68.53,3.15.79,4.73,1.08,5.87.15.58.32,1.25.54,2h0a26.68,26.68,0,0,0,2.4,5.66c.83,1.45.91,1.26,1.79,2.81a20.68,20.68,0,0,1,2.55,6.13c.3,1.49,1,5.08-1,8.42a10.56,10.56,0,0,1-5.62,4.34c-3.06,1.11-5.69.58-9.19-.12a29.64,29.64,0,0,1-7.91-2.81,32.52,32.52,0,0,1-7.41-5.49A26.71,26.71,0,0,1,383,606a28.41,28.41,0,0,1-2.81-5.87c-.86-2.35-.68-2.64-1.66-5.36-1.14-3.18-1.37-2.76-2.17-5.24a37.06,37.06,0,0,1-1.4-7.15c-.1-1.09-.13-2.19-.13-2.19,0-.43,0-1.29,0-1.88,0-.12.09-.25.13-.39a15.43,15.43,0,0,0,2.66,2.29,17.89,17.89,0,0,0,8.55,2.43,25.89,25.89,0,0,0,5.87-.38c2.76-.42,2.86-.77,6.77-1.66,2.86-.66,5.68-1.47,8.55-2.05a7.74,7.74,0,0,0,2.25-.71C409.62,577.9,409.62,578,409.63,578Z" transform="translate(-265.83 -564.89)"/><path class="cls-2" d="M409.52,576.88c0,.34.06.67.09,1a7.74,7.74,0,0,1-2.25.71c-2.87.58-5.69,1.39-8.55,2.05-3.91.89-4,1.24-6.77,1.66a25.89,25.89,0,0,1-5.87.38,17.89,17.89,0,0,1-8.55-2.43,15.43,15.43,0,0,1-2.66-2.29c.35-.94.89-2.29,1.22-3.41h0a25.33,25.33,0,0,0,6.24,4.3,20.92,20.92,0,0,0,8.62,1.21,47.4,47.4,0,0,0,8-1c2.37-.4,7-1.36,10.38-2.18Z" transform="translate(-265.83 -564.89)"/><path class="cls-3" d="M409.52,576.88h0c-3.38.82-8,1.78-10.38,2.18a47.4,47.4,0,0,1-8,1,20.92,20.92,0,0,1-8.62-1.21,25.33,25.33,0,0,1-6.24-4.3h0a7.84,7.84,0,0,0,.21-.79c0-.21.12-.6.22-1.07a17.26,17.26,0,0,0,4.42,3,13.87,13.87,0,0,0,4.79.64c5.81.17,4.95.41,6.83.32,3.1-.15,4-.72,9.13-1.73,2.76-.54,6-1.13,7.55-1.34V574A20.67,20.67,0,0,0,409.52,576.88Z" transform="translate(-265.83 -564.89)"/><path class="cls-2" d="M409.29,571.17c-.07.64,0,1.61,0,2.4-1.52.21-4.79.8-7.55,1.34-5.12,1-6,1.58-9.13,1.73-1.88.09-1-.15-6.83-.32a13.87,13.87,0,0,1-4.79-.64,17.26,17.26,0,0,1-4.42-3c.29-1.47.72-3.76.8-4.37a5.13,5.13,0,0,0,.26,2.12,6,6,0,0,0,2.89,3.15c.85.48,1.93.88,6.81.94a48.92,48.92,0,0,0,6.64-.17,73.29,73.29,0,0,0,7.32-1.45C403.28,572.46,406.88,571.6,409.29,571.17Z" transform="translate(-265.83 -564.89)"/><path class="cls-4" d="M405.5,567.42c1.72.86,3.05,3,3.79,3.75-2.41.43-6,1.29-8,1.7a73.29,73.29,0,0,1-7.32,1.45,48.92,48.92,0,0,1-6.64.17c-4.88-.06-6-.46-6.81-.94a6,6,0,0,1-2.89-3.15,5.13,5.13,0,0,1-.26-2.12c.43-1.79,3.62-2.34,5.62-2.64,2.67-.41,3.52,0,7.66.17,5,.21,6.73-.26,10.89.42A13.36,13.36,0,0,1,405.5,567.42Z" transform="translate(-265.83 -564.89)"/><path class="cls-2" d="M374.84,577.79l.12.13c0,.14-.09.27-.13.39C374.83,578.09,374.84,577.9,374.84,577.79Z" transform="translate(-265.83 -564.89)"/><path class="cls-1" d="M317.3,582.51a15.35,15.35,0,0,1,.38,3.45,9.83,9.83,0,0,1-.38,3.06,24.79,24.79,0,0,1-1.75,4.77c-1.23,2.71-1.4,2.84-1.91,4.21-.6,1.59-.41,1.51-1.15,3.83-.8,2.48-1.06,2.73-2.17,6-.66,2-.57,1.89-.89,2.68a23.11,23.11,0,0,1-2.81,4.85,24.82,24.82,0,0,1-8.43,6.64,32.63,32.63,0,0,1-9.57,3.32,26.48,26.48,0,0,1-9.45.25,17.66,17.66,0,0,1-6.51-2.17,16.2,16.2,0,0,1-3.57-2.8c-4-4.32-4.27-12.91-1-19.28a20.37,20.37,0,0,1,9-8.77,27.22,27.22,0,0,1-2.4,5.66c-.83,1.45-.91,1.26-1.79,2.81a20.42,20.42,0,0,0-2.55,6.13c-.3,1.49-1,5.08,1,8.42a10.56,10.56,0,0,0,5.62,4.34c3.06,1.11,5.69.58,9.19-.12a29.64,29.64,0,0,0,7.91-2.81,32.52,32.52,0,0,0,7.41-5.49,27,27,0,0,0,4.85-5.49,29.5,29.5,0,0,0,2.81-5.87c.86-2.35.68-2.64,1.66-5.36,1.14-3.18,1.37-2.76,2.17-5.24a37.06,37.06,0,0,0,1.4-7.15c.1-1.09.13-2.19.13-2.19,0-.6,0-2,0-2.4C314.6,578.41,317.12,581.45,317.3,582.51Z" transform="translate(-265.83 -564.89)"/><path class="cls-2" d="M277.06,592.54c.22-.74.39-1.41.54-2,.29-1.14.55-2.72,1.08-5.87.36-2.17.73-5.42.92-6.68,0-.07,0-.14,0-.21a7.55,7.55,0,0,0,2.33.76c2.87.58,5.69,1.39,8.55,2.05,3.91.89,4,1.24,6.77,1.66a25.85,25.85,0,0,0,5.87.38,17.89,17.89,0,0,0,8.55-2.43,15.36,15.36,0,0,0,2.78-2.42c0,.39,0,1.8,0,2.4,0,0,0,1.1-.13,2.19a37.06,37.06,0,0,1-1.4,7.15c-.8,2.48-1,2.06-2.17,5.24-1,2.72-.8,3-1.66,5.36a29.5,29.5,0,0,1-2.81,5.87,27,27,0,0,1-4.85,5.49,32.52,32.52,0,0,1-7.41,5.49,29.64,29.64,0,0,1-7.91,2.81c-3.5.7-6.13,1.23-9.19.12a10.56,10.56,0,0,1-5.62-4.34c-2-3.34-1.32-6.93-1-8.42a20.42,20.42,0,0,1,2.55-6.13c.88-1.55,1-1.36,1.79-2.81a27.22,27.22,0,0,0,2.4-5.66Z" transform="translate(-265.83 -564.89)"/><path class="cls-2" d="M313.08,573.94c.39,1.31,1.07,2.94,1.38,3.85a15.36,15.36,0,0,1-2.78,2.42,17.89,17.89,0,0,1-8.55,2.43,25.85,25.85,0,0,1-5.87-.38c-2.76-.42-2.86-.77-6.77-1.66-2.86-.66-5.68-1.47-8.55-2.05a7.55,7.55,0,0,1-2.33-.76c0-.41.08-.93.13-1.48h.06c3.37.81,8,1.78,10.37,2.18a47.63,47.63,0,0,0,8,1,20.75,20.75,0,0,0,8.62-1.22A25,25,0,0,0,313.08,573.94Z" transform="translate(-265.83 -564.89)"/><path class="cls-3" d="M312.87,573.15a7.84,7.84,0,0,0,.21.79,25,25,0,0,1-6.25,4.29,20.75,20.75,0,0,1-8.62,1.22,47.63,47.63,0,0,1-8-1c-2.36-.4-7-1.37-10.37-2.18h-.06a22.71,22.71,0,0,0,.2-2.91c0-.12,0-.26,0-.4,1.53.2,4.8.8,7.56,1.34,5.11,1,6,1.58,9.13,1.72,1.88.09,1-.14,6.83-.32a13.82,13.82,0,0,0,4.78-.63,17.59,17.59,0,0,0,4.43-3C312.75,572.55,312.83,572.93,312.87,573.15Z" transform="translate(-265.83 -564.89)"/><path class="cls-2" d="M311.85,567.7c.08.61.52,2.91.81,4.38a17.59,17.59,0,0,1-4.43,3,13.82,13.82,0,0,1-4.78.63c-5.82.18-4.95.41-6.83.32-3.11-.14-4-.71-9.13-1.72-2.76-.54-6-1.14-7.56-1.34,0-.78.11-1.76.05-2.4,2.4.43,6,1.29,8,1.7a72,72,0,0,0,7.32,1.44,48.77,48.77,0,0,0,6.63.17c4.89-.06,6-.45,6.81-.93a6,6,0,0,0,2.9-3.15A5.32,5.32,0,0,0,311.85,567.7Z" transform="translate(-265.83 -564.89)"/><path class="cls-4" d="M311.85,567.7a5.32,5.32,0,0,1-.25,2.13,6,6,0,0,1-2.9,3.15c-.85.48-1.92.87-6.81.93a48.77,48.77,0,0,1-6.63-.17,72,72,0,0,1-7.32-1.44c-1.95-.41-5.56-1.27-8-1.7.73-.79,2.06-2.9,3.79-3.75a13.32,13.32,0,0,1,3.91-1.19c4.16-.68,5.88-.21,10.89-.43,4.14-.17,5-.57,7.66-.17C308.23,565.37,311.43,565.91,311.85,567.7Z" transform="translate(-265.83 -564.89)"/></g><g id="Layer_8" data-name="Layer 8"><path class="cls-5" d="M305.3,582.89a12.49,12.49,0,0,1-.8,7.5,58.11,58.11,0,0,1-3.73,6.63c-1.32,2.15-2.68,4.28-4.06,6.4a37,37,0,0,1-4.74,6,14.27,14.27,0,0,1-3.08,2.41,12.12,12.12,0,0,1-3.7,1.32,8.16,8.16,0,0,1-9.44-5.45,10.12,10.12,0,0,1-.44-3.84c.09-2.52,0-5,.12-7.57.15,2.52.29,5.05.37,7.57a9.67,9.67,0,0,0,.54,3.62,7.68,7.68,0,0,0,2,3,7.89,7.89,0,0,0,3.13,1.69,7.6,7.6,0,0,0,3.55.1,10.73,10.73,0,0,0,3.39-1.25,13.48,13.48,0,0,0,2.84-2.28c3.58-3.49,6-8,8.86-12.13a59.09,59.09,0,0,0,3.94-6.42,12.1,12.1,0,0,0,1.16-3.53A14.77,14.77,0,0,0,305.3,582.89Z" transform="translate(-265.83 -564.89)"/><path class="cls-5" d="M278.23,596a12.54,12.54,0,0,1,3.84-.81,12.27,12.27,0,0,1,3.95.48,15.34,15.34,0,0,1,6.71,4.24c.91,1,1.66,2.09,2.44,3.09a9.52,9.52,0,0,0,1.25,1.36c.45.41,1,.71,1.54,1.14a14.45,14.45,0,0,1,1.5,1.32,9.26,9.26,0,0,1,1.28,1.55,6,6,0,0,1,.73,3.85,6.11,6.11,0,0,0-1.14-3.58,8.83,8.83,0,0,0-1.31-1.36,14,14,0,0,0-1.5-1.16l-.82-.49a8,8,0,0,1-.84-.6,10.81,10.81,0,0,1-1.43-1.44c-.84-1-1.56-2.09-2.44-3a16.12,16.12,0,0,0-6.2-4.2A13.65,13.65,0,0,0,278.23,596Z" transform="translate(-265.83 -564.89)"/><path class="cls-5" d="M280.28,581.74a39.12,39.12,0,0,1,2.5,3.29c.36.57.8,1.08,1.18,1.65a12.43,12.43,0,0,1,1,1.83,10.48,10.48,0,0,1-1.64-1.33,9.11,9.11,0,0,1-1.4-1.58A9.83,9.83,0,0,1,280.28,581.74Z" transform="translate(-265.83 -564.89)"/><path class="cls-5" d="M295.47,591.32a4.17,4.17,0,0,1,2.5,2.83,3.92,3.92,0,0,1-.84,3.68,8.43,8.43,0,0,0-.13-3.42A10.22,10.22,0,0,0,295.47,591.32Z" transform="translate(-265.83 -564.89)"/><path class="cls-5" d="M383.58,582.89a14.77,14.77,0,0,0,.08,3.76,12.1,12.1,0,0,0,1.16,3.53,59.09,59.09,0,0,0,3.94,6.42c2.86,4.16,5.28,8.64,8.86,12.13a14,14,0,0,0,2.84,2.28,10.82,10.82,0,0,0,3.39,1.25,7.6,7.6,0,0,0,3.55-.1,7.89,7.89,0,0,0,3.13-1.69,7.57,7.57,0,0,0,2-3,9.67,9.67,0,0,0,.54-3.62c.08-2.52.22-5,.38-7.57.07,2.53,0,5.05.11,7.57a10.12,10.12,0,0,1-.44,3.84,8.16,8.16,0,0,1-9.44,5.45,12.12,12.12,0,0,1-3.7-1.32,14.52,14.52,0,0,1-3.08-2.41,37.53,37.53,0,0,1-4.74-6c-1.38-2.12-2.74-4.25-4.06-6.4a58.11,58.11,0,0,1-3.73-6.63A12.49,12.49,0,0,1,383.58,582.89Z" transform="translate(-265.83 -564.89)"/><path class="cls-5" d="M410.65,596a13.65,13.65,0,0,0-7.56.4,16.12,16.12,0,0,0-6.2,4.2c-.88.9-1.6,2-2.44,3a9.73,9.73,0,0,1-1.43,1.44,8,8,0,0,1-.84.6c-.29.17-.55.32-.81.49a13.14,13.14,0,0,0-1.51,1.16,9.32,9.32,0,0,0-1.31,1.36,6.18,6.18,0,0,0-1.14,3.58,6,6,0,0,1,.73-3.85,9.26,9.26,0,0,1,1.28-1.55,14.45,14.45,0,0,1,1.5-1.32c.54-.43,1.09-.73,1.54-1.14a10.2,10.2,0,0,0,1.26-1.36c.77-1,1.52-2.11,2.44-3.09a15.25,15.25,0,0,1,6.7-4.24,12.27,12.27,0,0,1,3.95-.48A12.48,12.48,0,0,1,410.65,596Z" transform="translate(-265.83 -564.89)"/><path class="cls-5" d="M408.61,581.74a10,10,0,0,1-1.69,3.86,9.11,9.11,0,0,1-1.4,1.58,10.48,10.48,0,0,1-1.64,1.33,12.43,12.43,0,0,1,1-1.83c.38-.57.82-1.08,1.18-1.65A37.24,37.24,0,0,1,408.61,581.74Z" transform="translate(-265.83 -564.89)"/><path class="cls-5" d="M398.06,584.72a27.45,27.45,0,0,0-3.18,2.54,12.11,12.11,0,0,0-2.42,3.08,7.18,7.18,0,0,0-.79,3.7,9.4,9.4,0,0,0,1.21,3.79,6.88,6.88,0,0,1-2-3.69,6.77,6.77,0,0,1,.68-4.26,9.74,9.74,0,0,1,2.8-3.21A12.65,12.65,0,0,1,398.06,584.72Z" transform="translate(-265.83 -564.89)"/></g></svg>