<svg xmlns="http://www.w3.org/2000/svg" viewBox="0 0 63.92 90.94"><defs><style>.cls-1{fill:#346fb6;}.cls-2{fill:#f8f7f7;}.cls-3{fill:#fbf6e7;}.cls-4{fill:none;}.cls-5{fill:#d7d8d7;}</style></defs><title>emu gloves</title><g id="Layer_2" data-name="Layer 2"><path class="cls-1" d="M297,411.32a13.24,13.24,0,0,1-.26,3.83,17.65,17.65,0,0,1-1,4.08,6,6,0,0,1-1.91,2.94,3,3,0,0,1-2,.64,2.76,2.76,0,0,1-1.41-.64l-.37-.29,0,0a33.8,33.8,0,0,0,1.62-3.42,40.49,40.49,0,0,0,1.61-5.2,57.89,57.89,0,0,0,1.32-7.14c.15.18.28.35.4.51A10.1,10.1,0,0,1,297,411.32Z" transform="translate(-233.14 -331.88)"/><path class="cls-1" d="M293.94,394.34c.05,1.27-.27,1.66-.39,1.79a2.07,2.07,0,0,1-1.53.51,3.55,3.55,0,0,1-1.79-.64,11,11,0,0,1-1.45-1l0,0a20.32,20.32,0,0,1,4.06-4.35c.19.41.38.84.57,1.28A7.67,7.67,0,0,1,293.94,394.34Z" transform="translate(-233.14 -331.88)"/><path class="cls-2" d="M294.56,406.09a57.89,57.89,0,0,1-1.32,7.14,40.49,40.49,0,0,1-1.61,5.2,33.8,33.8,0,0,1-1.62,3.42l0,0c-1.93-1.48-2-1.1-3.84-3-1.63-1.7-1.32-1.1-4.24-3.74-.52-.47-1.14-1-1.89-1.75-1.73-1.62-3.26-3.06-5.23-5.1-1.27-1.31-2.27-2.43-4.22-4.6-6-6.71-6.72-7.9-7.14-8.68,0,0,0,0-2.43-5.11a13.13,13.13,0,0,1-1.4-3.44A13.41,13.41,0,0,0,259,383a2,2,0,0,0-.1-.21l.1,0c1.64-1.94,4.56-4.49,5.74-5.61a23.33,23.33,0,0,1,4.34-3.58,17.58,17.58,0,0,1,5.75-2.17,30.66,30.66,0,0,1,4.34-.06l.22.14a1.54,1.54,0,0,0-.09.94c.25,1,1.77,1.32,2.42,1.53a5.92,5.92,0,0,1,2.48,2c.69.81,1.49,1.88,2.5,3.24a66.38,66.38,0,0,1,6.2,11.48A20.32,20.32,0,0,0,288.8,395l0,0a4.82,4.82,0,0,0-1-.67,7.24,7.24,0,0,0-3.7-.64c-.76,0-1.9.05-2.05.51-.07.25.17.53.9,1.28,1,1.06,1.55,1.59,1.78,1.79,1.55,1.25,3,2.66,4.47,4A56.26,56.26,0,0,1,294.56,406.09Z" transform="translate(-233.14 -331.88)"/><path class="cls-3" d="M281.68,367a3.18,3.18,0,0,1-.25,2.68c-.58.71-1.4.53-1.92,1.41a1.22,1.22,0,0,0-.16.33l-.22-.14a30.66,30.66,0,0,0-4.34.06,17.58,17.58,0,0,0-5.75,2.17,23.33,23.33,0,0,0-4.34,3.58c-1.18,1.12-4.1,3.67-5.74,5.61l-.1,0a6.78,6.78,0,0,0-.92-1.45,8.94,8.94,0,0,1-2.3-.38,3.36,3.36,0,0,1-1.28-1.15c-1.27-1.79-4.79-4.18-10.47-11.24a122.17,122.17,0,0,1-10.75-14.87l.22-.13a45.65,45.65,0,0,1,5.81-7.46c3.08-3.14,6-4.8,9.7-6.9a57.3,57.3,0,0,1,9.58-4.47,69.28,69.28,0,0,1,11.49-2.81l.16,0c1.22,6.42,3.66,13.48,6.35,16.89a12.51,12.51,0,0,1,2.42,5.23,3.51,3.51,0,0,1,0,2.81c-.46.77-1.13.72-1.53,1.53a3.41,3.41,0,0,0,.13,2.55,9.53,9.53,0,0,0,1.79,3.07C280.72,365.81,281.35,365.86,281.68,367Z" transform="translate(-233.14 -331.88)"/></g><g id="Layer_5" data-name="Layer 5"><path class="cls-4" d="M284.62,347.62" transform="translate(-233.14 -331.88)"/><path class="cls-5" d="M245.21,362.77a42.11,42.11,0,0,1,5.25-3.85,55.42,55.42,0,0,1,5.7-3.13,28,28,0,0,0,5.42-3.32,22.88,22.88,0,0,0,2.38-2.14c.78-.74,1.48-1.55,2.19-2.37a22.09,22.09,0,0,1-1.83,2.7,24.09,24.09,0,0,1-2.24,2.39,21.94,21.94,0,0,1-5.48,3.63c-2,.94-3.86,1.89-5.76,2.9S247.09,361.68,245.21,362.77Z" transform="translate(-233.14 -331.88)"/><path class="cls-5" d="M240.28,356.13a16.73,16.73,0,0,1,2.3-5.57,15,15,0,0,1,4.27-4.35,48.38,48.38,0,0,1,5.26-2.9c1.82-.84,3.67-1.62,5.53-2.33-1.7,1.07-3.41,2.07-5.16,3s-3.46,2-5.07,3.05A20.12,20.12,0,0,0,240.28,356.13Z" transform="translate(-233.14 -331.88)"/><path class="cls-5" d="M266.49,356.47a13.63,13.63,0,0,0-3.13,0,2.18,2.18,0,0,0-1.22.38c-.26.22-.3.52-.24,1s.13,1,.15,1.58a7.19,7.19,0,0,1-.12,1.67,6.43,6.43,0,0,1-1.4,2.94,11.85,11.85,0,0,0,.63-3,15.72,15.72,0,0,0-.26-3.07,3.08,3.08,0,0,1,.05-.94,1.67,1.67,0,0,1,.6-.92,2.72,2.72,0,0,1,1.79-.41A6.89,6.89,0,0,1,266.49,356.47Z" transform="translate(-233.14 -331.88)"/><path class="cls-5" d="M263.94,365a20.8,20.8,0,0,0,4.21-4.54,27.29,27.29,0,0,0,1.57-2.66l.38-.69c.06-.12.13-.24.21-.37a1.3,1.3,0,0,1,.22-.26.72.72,0,0,1,.22-.12.55.55,0,0,1,.66.37l0,.12a1.77,1.77,0,0,1,0,.54c0,.15,0,.29-.07.42s-.13.54-.21.8a4.67,4.67,0,0,1-.31.82l-.07.12a1.3,1.3,0,0,1-.17.2.52.52,0,0,1-.71,0,.5.5,0,0,1-.1-.12.61.61,0,0,1-.09-.25,2.2,2.2,0,0,1,0-.48,14.17,14.17,0,0,1,.08-1.62c.12-1.05.24-2.1.43-3.14A57.49,57.49,0,0,1,271.6,348c-.08,1-.22,2.07-.32,3.12s-.26,2.08-.35,3.12-.2,2.08-.25,3.11c0,.52-.07,1-.06,1.52,0,.12,0,.25,0,.31s0,0,0-.07l-.07-.09a.46.46,0,0,0-.23-.1.38.38,0,0,0-.35.08l-.05,0,0-.05a5.29,5.29,0,0,0,.24-.65c.07-.24.14-.48.19-.72l.07-.35c0-.1,0-.25,0-.24v0a.41.41,0,0,0,.15.21.5.5,0,0,0,.38.06.61.61,0,0,0,.13-.07s0,0,0,0-.12.2-.18.31l-.39.68a20.45,20.45,0,0,1-1.78,2.65,17.9,17.9,0,0,1-2.21,2.31A14.4,14.4,0,0,1,263.94,365Z" transform="translate(-233.14 -331.88)"/><path class="cls-5" d="M267,367.87a10.62,10.62,0,0,0,2-.77,7.6,7.6,0,0,0,1.64-1.22,4.71,4.71,0,0,1,2.05-1.18,3.83,3.83,0,0,1,2.3.11,8.26,8.26,0,0,0-2,.63,6.59,6.59,0,0,0-1.65,1.18,5.16,5.16,0,0,1-2,1.2A4.19,4.19,0,0,1,267,367.87Z" transform="translate(-233.14 -331.88)"/><path class="cls-5" d="M252,374.34a18.67,18.67,0,0,0,3.91-2.29,9.47,9.47,0,0,0,1.55-1.55c.46-.55.83-1.22,1.36-1.86a4.91,4.91,0,0,1,4.54-1.72,3.54,3.54,0,0,1,2.1,1.31,4.33,4.33,0,0,1,.84,2.2,3.54,3.54,0,0,0-5.07-2.37,4.17,4.17,0,0,0-1.65,1.23c-.46.52-.85,1.2-1.39,1.82a9.05,9.05,0,0,1-1.82,1.57A11.54,11.54,0,0,1,252,374.34Z" transform="translate(-233.14 -331.88)"/><path class="cls-5" d="M254.4,368a2.86,2.86,0,0,0-2.71-.21,2.44,2.44,0,0,0-1,.85,3.21,3.21,0,0,0-.55,1.41,2,2,0,0,1-.16-1.75,2.46,2.46,0,0,1,3.15-1.51A2,2,0,0,1,254.4,368Z" transform="translate(-233.14 -331.88)"/><path class="cls-5" d="M245,364.47a3.55,3.55,0,0,1,1.18.36,5.35,5.35,0,0,1,1,.6l-.33-.09a5.05,5.05,0,0,1,1,0,3.58,3.58,0,0,1,1.06.29,3.67,3.67,0,0,1-1,.46,5.16,5.16,0,0,1-1,.2l-.17,0-.16-.11a5.41,5.41,0,0,1-.9-.76A3.63,3.63,0,0,1,245,364.47Z" transform="translate(-233.14 -331.88)"/><path class="cls-5" d="M254.06,354.43a19.88,19.88,0,0,0-4.09,0,14.48,14.48,0,0,0-3.91,1.16,5.5,5.5,0,0,1,3.77-2.15A6.07,6.07,0,0,1,254.06,354.43Z" transform="translate(-233.14 -331.88)"/><path class="cls-5" d="M257,352.38c-1.63-.18-3.14-.47-4.68-.68-.77-.11-1.54-.24-2.32-.29a14.34,14.34,0,0,1-2.36-.39,13.7,13.7,0,0,1,2.39-.39,9.4,9.4,0,0,1,2.43.08A11.09,11.09,0,0,1,257,352.38Z" transform="translate(-233.14 -331.88)"/><path class="cls-5" d="M260.36,349.49a18.29,18.29,0,0,1-4.89-.77c-.39-.13-.79-.25-1.18-.41-.2-.08-.39-.17-.59-.27l-.31-.17-.17-.14a.57.57,0,0,1-.22-.42.47.47,0,0,1,.32-.46.82.82,0,0,1,.22-.06,2.3,2.3,0,0,1,.36,0c.22,0,.43,0,.64.06a9.08,9.08,0,0,1,1.23.28c-.42.09-.83.14-1.23.21a5,5,0,0,0-.58.11,1.38,1.38,0,0,0-.26.07l-.07,0s0,0,.05,0,.11-.16.1-.22c-.05-.23,0-.14-.05-.18l.08,0,.24.1.56.18c.37.12.76.23,1.15.34A27.91,27.91,0,0,1,260.36,349.49Z" transform="translate(-233.14 -331.88)"/><path class="cls-5" d="M265.47,344.21a16.05,16.05,0,0,1-4.39-.42,14.91,14.91,0,0,1-2.13-.65,3.07,3.07,0,0,1-.57-.29l-.06,0a.37.37,0,0,1-.11-.15c0-.12-.07-.16,0-.32s.07-.09.1-.1l.07,0a.56.56,0,0,1,.23,0l.3,0a6.51,6.51,0,0,1,1.09.31c-.37.08-.74.12-1.09.19l-.25,0s-.08,0,0,0l0,0s0,0,.08-.07.06-.17,0-.26-.09-.12-.07-.11h0l.45.09c.7.12,1.41.27,2.12.42A19,19,0,0,1,265.47,344.21Z" transform="translate(-233.14 -331.88)"/><path class="cls-5" d="M268,339.62a13.16,13.16,0,0,1,5.1,5,22.37,22.37,0,0,1,1,2.19c.28.74.54,1.49.79,2.24s.43,1.52.62,2.29c.4,1.52.74,3.07,1,4.62q-1-2.18-1.75-4.39c-.53-1.47-1-3-1.61-4.4-.27-.72-.56-1.44-.89-2.12a15.81,15.81,0,0,0-1.18-1.95A21.94,21.94,0,0,0,268,339.62Z" transform="translate(-233.14 -331.88)"/></g><g id="Layer_9" data-name="Layer 9"><path class="cls-5" d="M295.72,418.6a64.88,64.88,0,0,1-7.44-3.77,26.31,26.31,0,0,1-3.49-2.35c-1.1-.84-2.18-1.75-3.21-2.7-2-1.95-3.95-3.91-5.78-6s-3.5-4.31-5.1-6.59l2.86,3c.93,1,1.86,2.06,2.81,3.05,1.93,2,3.91,3.92,5.9,5.82,1,.95,2,1.83,3.11,2.69a32.8,32.8,0,0,0,3.31,2.44c1.15.76,2.32,1.5,3.49,2.23S294.52,417.9,295.72,418.6Z" transform="translate(-233.14 -331.88)"/></g></svg>