<svg xmlns="http://www.w3.org/2000/svg" viewBox="0 0 33.43 66.85"><defs><style>.cls-1,.cls-4,.cls-6{fill:none;}.cls-1{stroke:#1d1d1b;}.cls-1,.cls-4{stroke-miterlimit:10;}.cls-2{fill:#185694;}.cls-3{fill:#fafafa;}.cls-4{stroke:#000;}.cls-4,.cls-5{opacity:0.33;}</style></defs><title>apollo suit gloves</title><g id="Layer_2" data-name="Layer 2"><path class="cls-1" d="M22,151.58" transform="translate(-198.31 -406.47)"/><path class="cls-2" d="M205.24,470a16,16,0,0,1-2.48-2.42,16.5,16.5,0,0,1-2.11-3.35,30.79,30.79,0,0,0,2.77,2.19,28.63,28.63,0,0,0,1.84,3.56Z" transform="translate(-198.31 -406.47)"/><path class="cls-3" d="M212.05,469.63a21.69,21.69,0,0,1-4.54-1.06,16.54,16.54,0,0,1-4.09-2.14,30.79,30.79,0,0,1-2.77-2.19c-2.16-4.55-2.27-9.79-2.31-13.54q-.15-14.32.56-27.87c.24-5.29.16-9.6,0-14h.05c14.16-3.72,29.89-.7,32.71-.1,0,.73-.08,1.51-.11,2.37-.44,11.76-.82,17.37-.82,17.37-2,12.69-3.32,21.65-3.47,24.79a10.47,10.47,0,0,1-1.11,4.26,16.6,16.6,0,0,1-7.2-1.62c.07-.36.2-1,.41-2a2.12,2.12,0,0,0-1.89-.16c-2.94,1.47-.57,13.81.47,15.71a3.56,3.56,0,0,1,.26.58A45.15,45.15,0,0,1,212.05,469.63Z" transform="translate(-198.31 -406.47)"/><path class="cls-2" d="M226.13,457.49a7.88,7.88,0,0,1-2.37,2.84,3.92,3.92,0,0,1-3,1.11,2.83,2.83,0,0,1-1.73-1.11c-.66-1-.43-2.4-.17-4,0,0,0-.05,0-.07l.06-.36A16.6,16.6,0,0,0,226.13,457.49Z" transform="translate(-198.31 -406.47)"/><path class="cls-2" d="M218.18,470a2.56,2.56,0,0,1,.14,1.08,2.47,2.47,0,0,1-.4,1.1,2.81,2.81,0,0,1-2,1,9.5,9.5,0,0,1-1.76.1,34.17,34.17,0,0,1-2.06-3.67A45.15,45.15,0,0,0,218.18,470Z" transform="translate(-198.31 -406.47)"/><path class="cls-2" d="M212.05,469.63a34.17,34.17,0,0,0,2.06,3.67,15,15,0,0,1-4.94-1l.05-.15a32.33,32.33,0,0,1-1.71-3.57A21.69,21.69,0,0,0,212.05,469.63Z" transform="translate(-198.31 -406.47)"/><path class="cls-2" d="M209.22,472.14l-.05.15a12.54,12.54,0,0,1-1.2-.51,16.9,16.9,0,0,1-2.73-1.77l0,0a28.63,28.63,0,0,1-1.84-3.56,16.54,16.54,0,0,0,4.09,2.14A32.33,32.33,0,0,0,209.22,472.14Z" transform="translate(-198.31 -406.47)"/></g><g id="Layer_5" data-name="Layer 5"><path class="cls-4" d="M198.84,408.16a113.36,113.36,0,0,1,32.83,0" transform="translate(-198.31 -406.47)"/><g class="cls-5"><path d="M214.12,473.32a32.6,32.6,0,0,1-3-9,30.65,30.65,0,0,1-.32-9.46c.37,3.14.72,6.22,1.3,9.28S213.4,470.24,214.12,473.32Z" transform="translate(-198.31 -406.47)"/></g><g class="cls-5"><path d="M210.1,472.62a31.69,31.69,0,0,1-3-8.54,27.24,27.24,0,0,1-.32-9.05c.37,3,.7,6,1.3,8.86S209.42,469.67,210.1,472.62Z" transform="translate(-198.31 -406.47)"/></g><g class="cls-5"><path d="M205.51,470.22a24.2,24.2,0,0,1-2.67-7.43,25.22,25.22,0,0,1,0-7.9c.19,1.31.34,2.61.46,3.9s.26,2.57.49,3.83C204.24,465.15,205,467.64,205.51,470.22Z" transform="translate(-198.31 -406.47)"/></g><g class="cls-5"><path class="cls-6" d="M237.11,471.79" transform="translate(-198.31 -406.47)"/></g></g></svg>