<svg xmlns="http://www.w3.org/2000/svg" xmlns:xlink="http://www.w3.org/1999/xlink" viewBox="0 0 93.47 98.46"><defs><style>.cls-1,.cls-2{fill:none;}.cls-2{stroke:#1d1d1b;stroke-miterlimit:10;}.cls-3{fill:#fafafa;}.cls-4{isolation:isolate;}.cls-5{clip-path:url(#clip-path);}.cls-6{fill:#121212;}.cls-7{fill:#1a1a1a;}.cls-8{fill:#202020;}.cls-9{fill:#252525;}.cls-10{fill:#292929;}.cls-11{fill:#2d2d2d;}.cls-12{fill:#313131;}.cls-13{fill:#343434;}.cls-14{fill:#373737;}.cls-15{fill:#3a3a3a;}.cls-16{fill:#3d3d3d;}.cls-17{fill:#404040;}.cls-18{fill:#424242;}.cls-19{fill:#454545;}.cls-20{fill:#474747;}.cls-21{clip-path:url(#clip-path-2);}</style><clipPath id="clip-path" transform="translate(-256.82 -179.17)"><path class="cls-1" d="M295.14,271.8A40.61,40.61,0,0,1,283,267.38a30.69,30.69,0,0,0,8,3,44.93,44.93,0,0,0,12.18.95,44.93,44.93,0,0,1-12.18-.95,30.69,30.69,0,0,1-8-3,32.12,32.12,0,0,1-8.89-7.38c-1.54-1.81-3.71-4.74-6.9-11.3a51.94,51.94,0,0,1-4.16-12.27,40.54,40.54,0,0,1-.71-11.53,39.86,39.86,0,0,1,1-6A36.51,36.51,0,0,1,265,213.7a36.15,36.15,0,0,1,6.25-10.14c.32-.38,1.05-1.17,1.69-1.81,1-1,2.27-2.1,2.29-2.11a33.08,33.08,0,0,1,4.24-3.11,43,43,0,0,1,11.61-4.93,44.45,44.45,0,0,1,13.44-1.72,46.68,46.68,0,0,1,12.92,2.31,41,41,0,0,1,11.36,5.48c1.15.81,2,1.53,2.26,1.74,1.08.91,2.19,2,2.68,2.46a36.93,36.93,0,0,1,3.69,4.35,36.24,36.24,0,0,1,5.3,10.77,39.37,39.37,0,0,1,1.61,12.16,45.4,45.4,0,0,1-2.12,12.28,62.58,62.58,0,0,1-5.62,12.46,35.92,35.92,0,0,1-7.4,9.44,32,32,0,0,1-4.16,3.15,34.73,34.73,0,0,1-5.38,2.81,44.53,44.53,0,0,1-12.08,3.11A40.26,40.26,0,0,1,295.14,271.8Z"/></clipPath><clipPath id="clip-path-2" transform="translate(-256.82 -179.17)"><path class="cls-1" d="M308.68,272.27A42.05,42.05,0,0,1,283,267.38c-.4-.23-.8-.47-1.2-.73-5.57-3.6-8.17-8.68-10.19-12.72-1.81-3.67-6.91-14.3-4.62-27.59a41,41,0,0,1,3.42-10.92,40.34,40.34,0,0,1,5.4-8.47,37.57,37.57,0,0,1,10.05-8.69c3.75-2.32,10.15-5.85,17.48-6.83-7.33,1-13.73,4.51-17.48,6.83A37.57,37.57,0,0,0,275.81,207a40.34,40.34,0,0,0-5.4,8.47A41,41,0,0,0,267,226.34c-2.29,13.29,2.81,23.92,4.62,27.59,2,4,4.62,9.12,10.19,12.72.4.26.8.5,1.2.73a33.43,33.43,0,0,1-4.82-3.32,31.51,31.51,0,0,1-4.07-4.06,38.45,38.45,0,0,1-3.38-4.73,85.35,85.35,0,0,1-4-7.56,50.42,50.42,0,0,1-4-13,42.35,42.35,0,0,1-.51-5.67,39.89,39.89,0,0,1,.33-6.08,38.81,38.81,0,0,1,3-10.63,36.57,36.57,0,0,1,6.37-9.56,45,45,0,0,1,4.14-3.85,34.3,34.3,0,0,1,4.1-2.82,47.85,47.85,0,0,1,24.31-6.2,43.44,43.44,0,0,1,6.28.66,51.68,51.68,0,0,1,7.29,1.86,40.67,40.67,0,0,1,10.71,5.27c.54.38,1.35,1,2.25,1.73,1.09.92,2.2,2,2.69,2.47a36.43,36.43,0,0,1,9,15.11c.58,1.93.94,3.93.95,3.94h0c.16,1.23.45,2.87.55,4.11a40.15,40.15,0,0,1,.11,4.06,44.93,44.93,0,0,1-2.11,12.32,54.34,54.34,0,0,1-2.49,6.42c-.88,1.95-2.48,4.91-3.14,6.06a40.64,40.64,0,0,1-5,7,31.3,31.3,0,0,1-6.38,5.43A41.52,41.52,0,0,1,308.68,272.27Z"/></clipPath></defs><title>apollo suit helmet</title><g id="Layer_2" data-name="Layer 2"><path class="cls-2" d="M22,151.58" transform="translate(-256.82 -179.17)"/><path class="cls-3" d="M265.14,200.07a52.42,52.42,0,0,1,3.53-4.64c8.82-9.88,12.13-10.11,14.37-11.37a39.41,39.41,0,0,1,11.6-4,47.44,47.44,0,0,1,9.08-.85,46.07,46.07,0,0,1,7.74.62,39.07,39.07,0,0,1,12.63,4.27c2.23,1.26,5.55,1.49,14.37,11.37a67.84,67.84,0,0,1,8.05,12.16A30.08,30.08,0,0,1,349,216c2.16,11.82,1,17.42.31,31.73a24.22,24.22,0,0,1-.65,3.81c-1.35,5.08-7.68,7-11.36,8.51q-.68.94-1.41,1.89a50.4,50.4,0,0,1-4.4,5,37.15,37.15,0,0,1-8.38,6.24c-1,.54-2,1-3.17,1.53s-1.94.78-2.86,1.08c-6.05,2-10.54,1.76-13.56,1.85a37,37,0,0,1-28.16-10.89,51.82,51.82,0,0,1-4.21-4.83c-.49-.63-1-1.26-1.4-1.89h0c-3.68-1.52-10-3.43-11.36-8.51a25.45,25.45,0,0,1-.65-3.81c-.72-14.31-1.85-19.91.32-31.73a29.74,29.74,0,0,1,2.53-8.37A64.23,64.23,0,0,1,265.14,200.07Z" transform="translate(-256.82 -179.17)"/></g><g id="Layer_3" data-name="Layer 3"><g class="cls-4"><g class="cls-4"><g class="cls-5"><g class="cls-4"><path d="M295.14,271.8c13,2.61,30.27-1,39.57-14.86,11.43-17.07,12.76-35.58,3.55-49.5-10-15-28.65-19.31-42.76-16.86C275,194.13,265.28,208.35,263,220.49c-1,5.44-1.82,14.06,3.28,26.11,6.13,14.47,13.15,18.65,16.52,20.65a31.18,31.18,0,0,0,8.24,3.17,44.93,44.93,0,0,0,12.18.95,44.93,44.93,0,0,1-12.18-.95,30.69,30.69,0,0,1-8-3,40.08,40.08,0,0,0,12.14,4.42" transform="translate(-256.82 -179.17)"/><path d="M291,270.42a44.93,44.93,0,0,0,12.18.95l-.4-.05c-14.55-1.59-25.07-2.73-33.88-19.8-12.94-25.07.5-37.2,3.33-39.38,12.23-9.42,56-9.55,50.35,38.07a21.19,21.19,0,0,1-5.08,12.13c-3.95,4.31-9.88,5.49-14.32,9a44.93,44.93,0,0,1-12.18-.95,30.69,30.69,0,0,1-8-3l.74.41.63.33.74.37.81.38.74.33.81.33.72.29.8.29.71.25.78.25.68.21.75.21.63.17.69.18.54.13.58.13.4.08.39.08.94.19,1.31.21.92.13,1.06.11.9.08.94.06.88,0,.89,0h.88l.9,0,.9,0,1-.07.93-.09,1.11-.13.95-.14c.49-.09,1.14-.2,1.62-.3l.38-.07.41-.09.52-.12.6-.14.61-.15.71-.19.65-.18.78-.23.68-.22.81-.28.71-.25.82-.32.72-.3.83-.36.73-.34.82-.4.74-.38.81-.45.72-.43.79-.49,1-.69c.35-.25.81-.58,1.15-.84l.94-.74,1-.84.83-.77.84-.83.73-.79.73-.83.64-.78c.19-.25.45-.57.63-.82l.58-.78.55-.8.5-.77c.15-.23.35-.54.49-.78l.45-.74.43-.75.4-.71.39-.71.36-.67c.1-.2.24-.46.35-.66l.34-.66c.12-.23.28-.53.39-.76l.44-.89.47-1,.49-1.1c.15-.36.36-.83.51-1.19l.5-1.29c.15-.41.36-1,.5-1.38l.48-1.45c.14-.47.33-1.08.46-1.55l.42-1.61c.12-.51.28-1.19.38-1.7l.32-1.75c.08-.55.19-1.29.26-1.84l.18-1.86c0-.59.08-1.38.1-2v-2c0-.62-.05-1.45-.1-2.07l-.21-2c-.11-.65-.23-1.52-.35-2.16l-.06-.3-.07-.33-.08-.38c0-.12-.06-.28-.09-.41l-.1-.44c0-.14-.08-.33-.12-.48l-.13-.5-.14-.53-.16-.56c-.06-.18-.13-.41-.18-.59l-.2-.61c-.07-.19-.15-.44-.22-.63l-.24-.65-.26-.67-.29-.69c-.09-.21-.21-.5-.31-.71l-.34-.72c-.1-.22-.25-.52-.36-.74l-.39-.75-.43-.77-.41-.7c-.12-.2-.29-.48-.42-.68l-.41-.64-.43-.63-.41-.59-.42-.56-.41-.54-.4-.51-.39-.47-.39-.46-.37-.41-.35-.4-.34-.36-.32-.34-.3-.3-.28-.28-.25-.24-.23-.21-.21-.19-.18-.17-.08-.08-.13-.11-.25-.24-.29-.27-.37-.32-.42-.36-.47-.39-.53-.42-.59-.45-.66-.47-.7-.48-.79-.51-.82-.51-.63-.36-.93-.51-1.09-.56-1.05-.5c-.39-.18-.91-.41-1.3-.57l-1.17-.48c-.61-.22-1.43-.52-2.05-.73l-.83-.27c-1.05-.33-2-.63-3.61-1l-1-.24c-1.29-.27-1.34-.28-2-.39l-1-.17-1.36-.19-1-.11-1.07-.09-.92-.06-.94,0H302.7l-.92,0-1,.05-1,.06-1.11.11-1,.12-.16,0-1,.15c-1.34.23-1.42.24-2.22.41l-1,.21-1.39.34-.89.24-1.05.3-.78.24-.82.26-1.2.41-1.59.61-1.1.46-1.31.6-1,.49-1.08.57-.87.49-.9.55-.75.48-.75.51-.63.45-.61.46-.52.41-.49.4-.41.35-.38.33-.29.27-.26.23-.12.11-.09.08-.18.17-.21.19-.23.21-.25.25-.28.27-.3.3-.32.34-.34.36-.36.39-.37.42-.39.45-.39.48-.41.51-.41.53-.42.56-.42.6-.42.61L268,208l-.42.67-.42.71-.42.76-.41.76-.36.73-.34.73-.31.7c-.09.21-.21.49-.29.7l-.27.67c-.07.19-.17.45-.24.65l-.22.63-.2.61-.18.58-.17.56-.15.53-.13.51-.12.47-.1.45-.09.41-.08.37-.07.34-.06.3-.34,2.06c-.08.64-.19,1.5-.24,2.14l-.11,2c0,.61,0,1.42,0,2l.08,1.91c.06.57.12,1.34.18,1.91l.25,1.81c.09.53.21,1.25.32,1.78l.36,1.68c.13.49.29,1.15.42,1.64l.45,1.53c.14.44.33,1,.48,1.47l.49,1.37c.15.39.35.91.51,1.3l.49,1.18.49,1.11.47,1,.43.89.39.77.34.66.35.66.36.67.38.71.4.71.43.75.44.75.48.76c.15.24.35.55.51.78l.54.79.58.8.61.79c.19.25.45.57.66.81l.69.8.76.82.78.79.87.82.89.77,1,.81,1,.74c.36.24.83.57,1.19.8l.73.47,1,.56a30.69,30.69,0,0,0,8,3" transform="translate(-256.82 -179.17)"/><path d="M291,270.42a44.93,44.93,0,0,0,12.18.95h-.45c-37.68.34-47.6-43.52-32.51-58.62,15.57-15.58,54.37-5.66,54.81,26.07.33,23.94-9.7,28.9-21.85,32.55a44.93,44.93,0,0,1-12.18-.95,30.69,30.69,0,0,1-8-3l.74.41.63.33.74.37.81.38.74.33.81.33.72.29.8.29.71.25.78.25.68.21.75.21.63.17.69.18.54.13.58.13.4.08.39.08.94.19,1.31.21.92.13,1.06.11.9.08.94.06.88,0,.89,0h.88l.9,0,.9,0,1-.07.93-.09,1.11-.13.95-.14c.49-.09,1.14-.2,1.62-.3l.38-.07.41-.09.52-.12.6-.14.61-.15.71-.19.65-.18.78-.23.68-.22.81-.28.71-.25.82-.32.72-.3.83-.36.73-.34.82-.4.74-.38.81-.45.72-.43.79-.49,1-.69c.35-.25.81-.58,1.15-.84l.94-.74,1-.84.83-.77.84-.83.73-.79.73-.83.64-.78c.19-.25.45-.57.63-.82l.58-.78.55-.8.5-.77c.15-.23.35-.54.49-.78l.45-.74.43-.75.4-.71.39-.71.36-.67c.1-.2.24-.46.35-.66l.34-.66c.12-.23.28-.53.39-.76l.44-.89.47-1,.49-1.1c.15-.36.36-.83.51-1.19l.5-1.29c.15-.41.36-1,.5-1.38l.48-1.45c.14-.47.33-1.08.46-1.55l.42-1.61c.12-.51.28-1.19.38-1.7l.32-1.75c.08-.55.19-1.29.26-1.84l.18-1.86c0-.59.08-1.38.1-2v-2c0-.62-.05-1.45-.1-2.07l-.21-2c-.11-.65-.23-1.52-.35-2.16l-.06-.3-.07-.33-.08-.38c0-.12-.06-.28-.09-.41l-.1-.44c0-.14-.08-.33-.12-.48l-.13-.5-.14-.53-.16-.56c-.06-.18-.13-.41-.18-.59l-.2-.61c-.07-.19-.15-.44-.22-.63l-.24-.65-.26-.67-.29-.69c-.09-.21-.21-.5-.31-.71l-.34-.72c-.1-.22-.25-.52-.36-.74l-.39-.75-.43-.77-.41-.7c-.12-.2-.29-.48-.42-.68l-.41-.64-.43-.63-.41-.59-.42-.56-.41-.54-.4-.51-.39-.47-.39-.46-.37-.41-.35-.4-.34-.36-.32-.34-.3-.3-.28-.28-.25-.24-.23-.21-.21-.19-.18-.17-.08-.08-.13-.11-.25-.24-.29-.27-.37-.32-.42-.36-.47-.39-.53-.42-.59-.45-.66-.47-.7-.48-.79-.51-.82-.51-.63-.36-.93-.51-1.09-.56-1.05-.5c-.39-.18-.91-.41-1.3-.57l-1.17-.48c-.61-.22-1.43-.52-2.05-.73l-.83-.27c-1.05-.33-2-.63-3.61-1l-1-.24c-1.29-.27-1.34-.28-2-.39l-1-.17-1.36-.19-1-.11-1.07-.09-.92-.06-.94,0H302.7l-.92,0-1,.05-1,.06-1.11.11-1,.12-.16,0-1,.15c-1.34.23-1.42.24-2.22.41l-1,.21-1.39.34-.89.24-1.05.3-.78.24-.82.26-1.2.41-1.59.61-1.1.46-1.31.6-1,.49-1.08.57-.87.49-.9.55-.75.48-.75.51-.63.45-.61.46-.52.41-.49.4-.41.35-.38.33-.29.27-.26.23-.12.11-.09.08-.18.17-.21.19-.23.21-.25.25-.28.27-.3.3-.32.34-.34.36-.36.39-.37.42-.39.45-.39.48-.41.51-.41.53-.42.56-.42.6-.42.61L268,208l-.42.67-.42.71-.42.76-.41.76-.36.73-.34.73-.31.7c-.09.21-.21.49-.29.7l-.27.67c-.07.19-.17.45-.24.65l-.22.63-.2.61-.18.58-.17.56-.15.53-.13.51-.12.47-.1.45-.09.41-.08.37-.07.34-.06.3-.34,2.06c-.08.64-.19,1.5-.24,2.14l-.11,2c0,.61,0,1.42,0,2l.08,1.91c.06.57.12,1.34.18,1.91l.25,1.81c.09.53.21,1.25.32,1.78l.36,1.68c.13.49.29,1.15.42,1.64l.45,1.53c.14.44.33,1,.48,1.47l.49,1.37c.15.39.35.91.51,1.3l.49,1.18.49,1.11.47,1,.43.89.39.77.34.66.35.66.36.67.38.71.4.71.43.75.44.75.48.76c.15.24.35.55.51.78l.54.79.58.8.61.79c.19.25.45.57.66.81l.69.8.76.82.78.79.87.82.89.77,1,.81,1,.74c.36.24.83.57,1.19.8l.73.47,1,.56a30.69,30.69,0,0,0,8,3" transform="translate(-256.82 -179.17)"/><path d="M288.93,269.86c-24.7-8.19-37.55-50-12.81-62.39,22.51-11.28,61,7.58,47.77,49-2.68,8.38-12,13.52-19.52,14.75l-.49.07-.69.09-.29.05c-2.82.44-7.53.53-14-1.56a28,28,0,0,1-5.93-2.48l.74.41.63.33.74.37.81.38.74.33.81.33.72.29.8.29.71.25.78.25.68.21.75.21.63.17.69.18.54.13.58.13.4.08.39.08.94.19,1.31.21.92.13,1.06.11.9.08.94.06.88,0,.89,0h.88l.9,0,.9,0,1-.07.93-.09,1.11-.13.95-.14c.49-.09,1.14-.2,1.62-.3l.38-.07.41-.09.52-.12.6-.14.61-.15.71-.19.65-.18.78-.23.68-.22.81-.28.71-.25.82-.32.72-.3.83-.36.73-.34.82-.4.74-.38.81-.45.72-.43.79-.49,1-.69c.35-.25.81-.58,1.15-.84l.94-.74,1-.84.83-.77.84-.83.73-.79.73-.83.64-.78c.19-.25.45-.57.63-.82l.58-.78.55-.8.5-.77c.15-.23.35-.54.49-.78l.45-.74.43-.75.4-.71.39-.71.36-.67c.1-.2.24-.46.35-.66l.34-.66c.12-.23.28-.53.39-.76l.44-.89.47-1,.49-1.1c.15-.36.36-.83.51-1.19l.5-1.29c.15-.41.36-1,.5-1.38l.48-1.45c.14-.47.33-1.08.46-1.55l.42-1.61c.12-.51.28-1.19.38-1.7l.32-1.75c.08-.55.19-1.29.26-1.84l.18-1.86c0-.59.08-1.38.1-2v-2c0-.62-.05-1.45-.1-2.07l-.21-2c-.11-.65-.23-1.52-.35-2.16l-.06-.3-.07-.33-.08-.38c0-.12-.06-.28-.09-.41l-.1-.44c0-.14-.08-.33-.12-.48l-.13-.5-.14-.53-.16-.56c-.06-.18-.13-.41-.18-.59l-.2-.61c-.07-.19-.15-.44-.22-.63l-.24-.65-.26-.67-.29-.69c-.09-.21-.21-.5-.31-.71l-.34-.72c-.1-.22-.25-.52-.36-.74l-.39-.75-.43-.77-.41-.7c-.12-.2-.29-.48-.42-.68l-.41-.64-.43-.63-.41-.59-.42-.56-.41-.54-.4-.51-.39-.47-.39-.46-.37-.41-.35-.4-.34-.36-.32-.34-.3-.3-.28-.28-.25-.24-.23-.21-.21-.19-.18-.17-.08-.08-.13-.11-.25-.24-.29-.27-.37-.32-.42-.36-.47-.39-.53-.42-.59-.45-.66-.47-.7-.48-.79-.51-.82-.51-.63-.36-.93-.51-1.09-.56-1.05-.5c-.39-.18-.91-.41-1.3-.57l-1.17-.48c-.61-.22-1.43-.52-2.05-.73l-.83-.27c-1.05-.33-2-.63-3.61-1l-1-.24c-1.29-.27-1.34-.28-2-.39l-1-.17-1.36-.19-1-.11-1.07-.09-.92-.06-.94,0H302.7l-.92,0-1,.05-1,.06-1.11.11-1,.12-.16,0-1,.15c-1.34.23-1.42.24-2.22.41l-1,.21-1.39.34-.89.24-1.05.3-.78.24-.82.26-1.2.41-1.59.61-1.1.46-1.31.6-1,.49-1.08.57-.87.49-.9.55-.75.48-.75.51-.63.45-.61.46-.52.41-.49.4-.41.35-.38.33-.29.27-.26.23-.12.11-.09.08-.18.17-.21.19-.23.21-.25.25-.28.27-.3.3-.32.34-.34.36-.36.39-.37.42-.39.45-.39.48-.41.51-.41.53-.42.56-.42.6-.42.61L268,208l-.42.67-.42.71-.42.76-.41.76-.36.73-.34.73-.31.7c-.09.21-.21.49-.29.7l-.27.67c-.07.19-.17.45-.24.65l-.22.63-.2.61-.18.58-.17.56-.15.53-.13.51-.12.47-.1.45-.09.41-.08.37-.07.34-.06.3-.34,2.06c-.08.64-.19,1.5-.24,2.14l-.11,2c0,.61,0,1.42,0,2l.08,1.91c.06.57.12,1.34.18,1.91l.25,1.81c.09.53.21,1.25.32,1.78l.36,1.68c.13.49.29,1.15.42,1.64l.45,1.53c.14.44.33,1,.48,1.47l.49,1.37c.15.39.35.91.51,1.3l.49,1.18.49,1.11.47,1,.43.89.39.77.34.66.35.66.36.67.38.71.4.71.43.75.44.75.48.76c.15.24.35.55.51.78l.54.79.58.8.61.79c.19.25.45.57.66.81l.69.8.76.82.78.79.87.82.89.77,1,.81,1,.74c.36.24.83.57,1.19.8l.73.47,1,.56a28,28,0,0,0,5.93,2.48" transform="translate(-256.82 -179.17)"/><path d="M263.54,238.63c-7.31-30,22.38-44.34,46.56-30.72a34.84,34.84,0,0,1,18.11,28.75c-.18,13.9-1.8,29.12-18.91,33.91a20.38,20.38,0,0,1-6,.81l-.08,0c-1.81,1.07-10.66,1.1-19.61-3.69l-.6-.33.74.41.63.33.74.37.81.38.74.33.81.33.72.29.8.29.71.25.78.25.68.21.75.21.63.17.69.18.54.13.58.13.4.08.39.08.94.19,1.31.21.92.13,1.06.11.9.08.94.06.88,0,.89,0h.88l.9,0,.9,0,1-.07.93-.09,1.11-.13.95-.14c.49-.09,1.14-.2,1.62-.3l.38-.07.41-.09.52-.12.6-.14.61-.15.71-.19.65-.18.78-.23.68-.22.81-.28.71-.25.82-.32.72-.3.83-.36.73-.34.82-.4.74-.38.81-.45.72-.43.79-.49,1-.69c.35-.25.81-.58,1.15-.84l.94-.74,1-.84.83-.77.84-.83.73-.79.73-.83.64-.78c.19-.25.45-.57.63-.82l.58-.78.55-.8.5-.77c.15-.23.35-.54.49-.78l.45-.74.43-.75.4-.71.39-.71.36-.67c.1-.2.24-.46.35-.66l.34-.66c.12-.23.28-.53.39-.76l.44-.89.47-1,.49-1.1c.15-.36.36-.83.51-1.19l.5-1.29c.15-.41.36-1,.5-1.38l.48-1.45c.14-.47.33-1.08.46-1.55l.42-1.61c.12-.51.28-1.19.38-1.7l.32-1.75c.08-.55.19-1.29.26-1.84l.18-1.86c0-.59.08-1.38.1-2v-2c0-.62-.05-1.45-.1-2.07l-.21-2c-.11-.65-.23-1.52-.35-2.16l-.06-.3-.07-.33-.08-.38c0-.12-.06-.28-.09-.41l-.1-.44c0-.14-.08-.33-.12-.48l-.13-.5-.14-.53-.16-.56c-.06-.18-.13-.41-.18-.59l-.2-.61c-.07-.19-.15-.44-.22-.63l-.24-.65-.26-.67-.29-.69c-.09-.21-.21-.5-.31-.71l-.34-.72c-.1-.22-.25-.52-.36-.74l-.39-.75-.43-.77-.41-.7c-.12-.2-.29-.48-.42-.68l-.41-.64-.43-.63-.41-.59-.42-.56-.41-.54-.4-.51-.39-.47-.39-.46-.37-.41-.35-.4-.34-.36-.32-.34-.3-.3-.28-.28-.25-.24-.23-.21-.21-.19-.18-.17-.08-.08-.13-.11-.25-.24-.29-.27-.37-.32-.42-.36-.47-.39-.53-.42-.59-.45-.66-.47-.7-.48-.79-.51-.82-.51-.63-.36-.93-.51-1.09-.56-1.05-.5c-.39-.18-.91-.41-1.3-.57l-1.17-.48c-.61-.22-1.43-.52-2.05-.73l-.83-.27c-1.05-.33-2-.63-3.61-1l-1-.24c-1.29-.27-1.34-.28-2-.39l-1-.17-1.36-.19-1-.11-1.07-.09-.92-.06-.94,0H302.7l-.92,0-1,.05-1,.06-1.11.11-1,.12-.16,0-1,.15c-1.34.23-1.42.24-2.22.41l-1,.21-1.39.34-.89.24-1.05.3-.78.24-.82.26-1.2.41-1.59.61-1.1.46-1.31.6-1,.49-1.08.57-.87.49-.9.55-.75.48-.75.51-.63.45-.61.46-.52.41-.49.4-.41.35-.38.33-.29.27-.26.23-.12.11-.09.08-.18.17-.21.19-.23.21-.25.25-.28.27-.3.3-.32.34-.34.36-.36.39-.37.42-.39.45-.39.48-.41.51-.41.53-.42.56-.42.6-.42.61L268,208l-.42.67-.42.71-.42.76-.41.76-.36.73-.34.73-.31.7c-.09.21-.21.49-.29.7l-.27.67c-.07.19-.17.45-.24.65l-.22.63-.2.61-.18.58-.17.56-.15.53-.13.51-.12.47-.1.45-.09.41-.08.37-.07.34-.06.3-.34,2.06c-.08.64-.19,1.5-.24,2.14l-.11,2c0,.61,0,1.42,0,2l.08,1.91c.06.57.12,1.34.18,1.91l.25,1.81c.09.53.21,1.25.32,1.78l.36,1.68c.13.49.29,1.15.42,1.64l.45,1.53.14.44-.47-1.57c-.12-.46-.29-1.07-.41-1.52" transform="translate(-256.82 -179.17)"/><path d="M283.6,267.71c-.83-.46-.91-.5-1.53-.88l.73.44.2.11.6.33" transform="translate(-256.82 -179.17)"/><path d="M262.27,230.11c-.83-27.15,30.32-37.92,55.55-19.21,15.42,11.44,11.57,32.81,10.13,40.85-2.9,16.1-16.85,19.25-21.05,19.83-5.89.81-9.45,1.31-17.24-1.24l.69.23.13,0,.68.21.75.21.63.17.69.18.54.13.58.13.4.08.39.08.94.19,1.31.21.92.13,1.06.11.9.08.94.06.88,0,.89,0h.88l.9,0,.9,0,1-.07.93-.09,1.11-.13.95-.14c.49-.09,1.14-.2,1.62-.3l.38-.07.41-.09.52-.12.6-.14.61-.15.71-.19.65-.18.78-.23.68-.22.81-.28.71-.25.82-.32.72-.3.83-.36.73-.34.82-.4.74-.38.81-.45.72-.43.79-.49,1-.69c.35-.25.81-.58,1.15-.84l.94-.74,1-.84.83-.77.84-.83.73-.79.73-.83.64-.78c.19-.25.45-.57.63-.82l.58-.78.55-.8.5-.77c.15-.23.35-.54.49-.78l.45-.74.43-.75.4-.71.39-.71.36-.67c.1-.2.24-.46.35-.66l.34-.66c.12-.23.28-.53.39-.76l.44-.89.47-1,.49-1.1c.15-.36.36-.83.51-1.19l.5-1.29c.15-.41.36-1,.5-1.38l.48-1.45c.14-.47.33-1.08.46-1.55l.42-1.61c.12-.51.28-1.19.38-1.7l.32-1.75c.08-.55.19-1.29.26-1.84l.18-1.86c0-.59.08-1.38.1-2v-2c0-.62-.05-1.45-.1-2.07l-.21-2c-.11-.65-.23-1.52-.35-2.16l-.06-.3-.07-.33-.08-.38c0-.12-.06-.28-.09-.41l-.1-.44c0-.14-.08-.33-.12-.48l-.13-.5-.14-.53-.16-.56c-.06-.18-.13-.41-.18-.59l-.2-.61c-.07-.19-.15-.44-.22-.63l-.24-.65-.26-.67-.29-.69c-.09-.21-.21-.5-.31-.71l-.34-.72c-.1-.22-.25-.52-.36-.74l-.39-.75-.43-.77-.41-.7c-.12-.2-.29-.48-.42-.68l-.41-.64-.43-.63-.41-.59-.42-.56-.41-.54-.4-.51-.39-.47-.39-.46-.37-.41-.35-.4-.34-.36-.32-.34-.3-.3-.28-.28-.25-.24-.23-.21-.21-.19-.18-.17-.08-.08-.13-.11-.25-.24-.29-.27-.37-.32-.42-.36-.47-.39-.53-.42-.59-.45-.66-.47-.7-.48-.79-.51-.82-.51-.63-.36-.93-.51-1.09-.56-1.05-.5c-.39-.18-.91-.41-1.3-.57l-1.17-.48c-.61-.22-1.43-.52-2.05-.73l-.83-.27c-1.05-.33-2-.63-3.61-1l-1-.24c-1.29-.27-1.34-.28-2-.39l-1-.17-1.36-.19-1-.11-1.07-.09-.92-.06-.94,0H302.7l-.92,0-1,.05-1,.06-1.11.11-1,.12-.16,0-1,.15c-1.34.23-1.42.24-2.22.41l-1,.21-1.39.34-.89.24-1.05.3-.78.24-.82.26-1.2.41-1.59.61-1.1.46-1.31.6-1,.49-1.08.57-.87.49-.9.55-.75.48-.75.51-.63.45-.61.46-.52.41-.49.4-.41.35-.38.33-.29.27-.26.23-.12.11-.09.08-.18.17-.21.19-.23.21-.25.25-.28.27-.3.3-.32.34-.34.36-.36.39-.37.42-.39.45-.39.48-.41.51-.41.53-.42.56-.42.6-.42.61L268,208l-.42.67-.42.71-.42.76-.41.76-.36.73-.34.73-.31.7c-.09.21-.21.49-.29.7l-.27.67c-.07.19-.17.45-.24.65l-.22.63-.2.61-.18.58-.17.56-.15.53-.13.51-.12.47-.1.45-.09.41-.08.37-.07.34-.06.3-.34,2.06c-.08.64-.19,1.5-.24,2.14l-.11,2c0,.61,0,1.42,0,2l.08,1.91c.06.57.12,1.34.18,1.91l-.16-1.7c0-.31,0-.72-.05-1" transform="translate(-256.82 -179.17)"/><path d="M262.29,225.59c3.7-35.53,48.21-27.93,60.18-12.34,15.33,20,7.91,37.61,5.47,43.41-7.76,18.41-29.39,15.7-30.31,15.57l-1.06-.16,1.74.26,1.06.11.9.08.94.06.88,0,.89,0h.88l.9,0,.9,0,1-.07.93-.09,1.11-.13.95-.14c.49-.09,1.14-.2,1.62-.3l.38-.07.41-.09.52-.12.6-.14.61-.15.71-.19.65-.18.78-.23.68-.22.81-.28.71-.25.82-.32.72-.3.83-.36.73-.34.82-.4.74-.38.81-.45.72-.43.79-.49,1-.69c.35-.25.81-.58,1.15-.84l.94-.74,1-.84.83-.77.84-.83.73-.79.73-.83.64-.78c.19-.25.45-.57.63-.82l.58-.78.55-.8.5-.77c.15-.23.35-.54.49-.78l.45-.74.43-.75.4-.71.39-.71.36-.67c.1-.2.24-.46.35-.66l.34-.66c.12-.23.28-.53.39-.76l.44-.89.47-1,.49-1.1c.15-.36.36-.83.51-1.19l.5-1.29c.15-.41.36-1,.5-1.38l.48-1.45c.14-.47.33-1.08.46-1.55l.42-1.61c.12-.51.28-1.19.38-1.7l.32-1.75c.08-.55.19-1.29.26-1.84l.18-1.86c0-.59.08-1.38.1-2v-2c0-.62-.05-1.45-.1-2.07l-.21-2c-.11-.65-.23-1.52-.35-2.16l-.06-.3-.07-.33-.08-.38c0-.12-.06-.28-.09-.41l-.1-.44c0-.14-.08-.33-.12-.48l-.13-.5-.14-.53-.16-.56c-.06-.18-.13-.41-.18-.59l-.2-.61c-.07-.19-.15-.44-.22-.63l-.24-.65-.26-.67-.29-.69c-.09-.21-.21-.5-.31-.71l-.34-.72c-.1-.22-.25-.52-.36-.74l-.39-.75-.43-.77-.41-.7c-.12-.2-.29-.48-.42-.68l-.41-.64-.43-.63-.41-.59-.42-.56-.41-.54-.4-.51-.39-.47-.39-.46-.37-.41-.35-.4-.34-.36-.32-.34-.3-.3-.28-.28-.25-.24-.23-.21-.21-.19-.18-.17-.08-.08-.13-.11-.25-.24-.29-.27-.37-.32-.42-.36-.47-.39-.53-.42-.59-.45-.66-.47-.7-.48-.79-.51-.82-.51-.63-.36-.93-.51-1.09-.56-1.05-.5c-.39-.18-.91-.41-1.3-.57l-1.17-.48c-.61-.22-1.43-.52-2.05-.73l-.83-.27c-1.05-.33-2-.63-3.61-1l-1-.24c-1.29-.27-1.34-.28-2-.39l-1-.17-1.36-.19-1-.11-1.07-.09-.92-.06-.94,0H302.7l-.92,0-1,.05-1,.06-1.11.11-1,.12-.16,0-1,.15c-1.34.23-1.42.24-2.22.41l-1,.21-1.39.34-.89.24-1.05.3-.78.24-.82.26-1.2.41-1.59.61-1.1.46-1.31.6-1,.49-1.08.57-.87.49-.9.55-.75.48-.75.51-.63.45-.61.46-.52.41-.49.4-.41.35-.38.33-.29.27-.26.23-.12.11-.09.08-.18.17-.21.19-.23.21-.25.25-.28.27-.3.3-.32.34-.34.36-.36.39-.37.42-.39.45-.39.48-.41.51-.41.53-.42.56-.42.6-.42.61L268,208l-.42.67-.42.71-.42.76-.41.76-.36.73-.34.73-.31.7c-.09.21-.21.49-.29.7l-.27.67c-.07.19-.17.45-.24.65l-.22.63-.2.61-.18.58-.17.56-.15.53-.13.51-.12.47-.1.45-.09.41-.08.37-.07.34-.06.3-.34,2.06c-.08.64-.19,1.5-.24,2.14l-.09,1.59c0-.3,0-.69.05-1" transform="translate(-256.82 -179.17)"/><path d="M263.12,219.82c6.72-28.51,49.41-26.33,64.87-2.9,11.83,17.94,5.89,56.38-25.59,55.7h1.46l.9,0,.9,0,1-.07.93-.09,1.11-.13.95-.14c.49-.09,1.14-.2,1.62-.3l.38-.07.41-.09.52-.12.6-.14.61-.15.71-.19.65-.18.78-.23.68-.22.81-.28.71-.25.82-.32.72-.3.83-.36.73-.34.82-.4.74-.38.81-.45.72-.43.79-.49,1-.69c.35-.25.81-.58,1.15-.84l.94-.74,1-.84.83-.77.84-.83.73-.79.73-.83.64-.78c.19-.25.45-.57.63-.82l.58-.78.55-.8.5-.77c.15-.23.35-.54.49-.78l.45-.74.43-.75.4-.71.39-.71.36-.67c.1-.2.24-.46.35-.66l.34-.66c.12-.23.28-.53.39-.76l.44-.89.47-1,.49-1.1c.15-.36.36-.83.51-1.19l.5-1.29c.15-.41.36-1,.5-1.38l.48-1.45c.14-.47.33-1.08.46-1.55l.42-1.61c.12-.51.28-1.19.38-1.7l.32-1.75c.08-.55.19-1.29.26-1.84l.18-1.86c0-.59.08-1.38.1-2v-2c0-.62-.05-1.45-.1-2.07l-.21-2c-.11-.65-.23-1.52-.35-2.16l-.06-.3-.07-.33-.08-.38c0-.12-.06-.28-.09-.41l-.1-.44c0-.14-.08-.33-.12-.48l-.13-.5-.14-.53-.16-.56c-.06-.18-.13-.41-.18-.59l-.2-.61c-.07-.19-.15-.44-.22-.63l-.24-.65-.26-.67-.29-.69c-.09-.21-.21-.5-.31-.71l-.34-.72c-.1-.22-.25-.52-.36-.74l-.39-.75-.43-.77-.41-.7c-.12-.2-.29-.48-.42-.68l-.41-.64-.43-.63-.41-.59-.42-.56-.41-.54-.4-.51-.39-.47-.39-.46-.37-.41-.35-.4-.34-.36-.32-.34-.3-.3-.28-.28-.25-.24-.23-.21-.21-.19-.18-.17-.08-.08-.13-.11-.25-.24-.29-.27-.37-.32-.42-.36-.47-.39-.53-.42-.59-.45-.66-.47-.7-.48-.79-.51-.82-.51-.63-.36-.93-.51-1.09-.56-1.05-.5c-.39-.18-.91-.41-1.3-.57l-1.17-.48c-.61-.22-1.43-.52-2.05-.73l-.83-.27c-1.05-.33-2-.63-3.61-1l-1-.24c-1.29-.27-1.34-.28-2-.39l-1-.17-1.36-.19-1-.11-1.07-.09-.92-.06-.94,0H302.7l-.92,0-1,.05-1,.06-1.11.11-1,.12-.16,0-1,.15c-1.34.23-1.42.24-2.22.41l-1,.21-1.39.34-.89.24-1.05.3-.78.24-.82.26-1.2.41-1.59.61-1.1.46-1.31.6-1,.49-1.08.57-.87.49-.9.55-.75.48-.75.51-.63.45-.61.46-.52.41-.49.4-.41.35-.38.33-.29.27-.26.23-.12.11-.09.08-.18.17-.21.19-.23.21-.25.25-.28.27-.3.3-.32.34-.34.36-.36.39-.37.42-.39.45-.39.48-.41.51-.41.53-.42.56-.42.6-.42.61L268,208l-.42.67-.42.71-.42.76-.41.76-.36.73-.34.73-.31.7c-.09.21-.21.49-.29.7l-.27.67c-.07.19-.17.45-.24.65l-.22.63-.2.61-.18.58-.17.56-.15.53-.13.51-.12.47-.1.45-.09.41-.08.37,0-.23,0-.1" transform="translate(-256.82 -179.17)"/><path d="M264.47,215.07c11.28-28.61,56-19,66.61,2.57,3.85,7.87,8.63,17.65.26,38.42-4.77,11.84-16,15.2-22.25,16.15l1-.15c.37-.07.85-.15,1.21-.23l.38-.07.41-.09.52-.12.6-.14.61-.15.71-.19.65-.18.78-.23.68-.22.81-.28.71-.25.82-.32.72-.3.83-.36.73-.34.82-.4.74-.38.81-.45.72-.43.79-.49,1-.69c.35-.25.81-.58,1.15-.84l.94-.74,1-.84.83-.77.84-.83.73-.79.73-.83.64-.78c.19-.25.45-.57.63-.82l.58-.78.55-.8.5-.77c.15-.23.35-.54.49-.78l.45-.74.43-.75.4-.71.39-.71.36-.67c.1-.2.24-.46.35-.66l.34-.66c.12-.23.28-.53.39-.76l.44-.89.47-1,.49-1.1c.15-.36.36-.83.51-1.19l.5-1.29c.15-.41.36-1,.5-1.38l.48-1.45c.14-.47.33-1.08.46-1.55l.42-1.61c.12-.51.28-1.19.38-1.7l.32-1.75c.08-.55.19-1.29.26-1.84l.18-1.86c0-.59.08-1.38.1-2v-2c0-.62-.05-1.45-.1-2.07l-.21-2c-.11-.65-.23-1.52-.35-2.16l-.06-.3-.07-.33-.08-.38c0-.12-.06-.28-.09-.41l-.1-.44c0-.14-.08-.33-.12-.48l-.13-.5-.14-.53-.16-.56c-.06-.18-.13-.41-.18-.59l-.2-.61c-.07-.19-.15-.44-.22-.63l-.24-.65-.26-.67-.29-.69c-.09-.21-.21-.5-.31-.71l-.34-.72c-.1-.22-.25-.52-.36-.74l-.39-.75-.43-.77-.41-.7c-.12-.2-.29-.48-.42-.68l-.41-.64-.43-.63-.41-.59-.42-.56-.41-.54-.4-.51-.39-.47-.39-.46-.37-.41-.35-.4-.34-.36-.32-.34-.3-.3-.28-.28-.25-.24-.23-.21-.21-.19-.18-.17-.08-.08-.13-.11-.25-.24-.29-.27-.37-.32-.42-.36-.47-.39-.53-.42-.59-.45-.66-.47-.7-.48-.79-.51-.82-.51-.63-.36-.93-.51-1.09-.56-1.05-.5c-.39-.18-.91-.41-1.3-.57l-1.17-.48c-.61-.22-1.43-.52-2.05-.73l-.83-.27c-1.05-.33-2-.63-3.61-1l-1-.24c-1.29-.27-1.34-.28-2-.39l-1-.17-1.36-.19-1-.11-1.07-.09-.92-.06-.94,0H302.7l-.92,0-1,.05-1,.06-1.11.11-1,.12-.16,0-1,.15c-1.34.23-1.42.24-2.22.41l-1,.21-1.39.34-.89.24-1.05.3-.78.24-.82.26-1.2.41-1.59.61-1.1.46-1.31.6-1,.49-1.08.57-.87.49-.9.55-.75.48-.75.51-.63.45-.61.46-.52.41-.49.4-.41.35-.38.33-.29.27-.26.23-.12.11-.09.08-.18.17-.21.19-.23.21-.25.25-.28.27-.3.3-.32.34-.34.36-.36.39-.37.42-.39.45-.39.48-.41.51-.41.53-.42.56-.42.6-.42.61L268,208l-.42.67-.42.71-.42.76-.41.76-.36.73-.34.73-.31.7c-.09.21-.21.49-.29.7l-.27.67c-.07.19-.17.45-.24.65l-.18.52.17-.48" transform="translate(-256.82 -179.17)"/><path d="M267.75,208.29c14-21.58,60.1-15.36,69.61,15.72.11.36,5.58,37.61-20.8,46.44l.7-.24.14,0,.71-.25.82-.32.72-.3.83-.36.73-.34.82-.4.74-.38.81-.45.72-.43.79-.49,1-.69c.35-.25.81-.58,1.15-.84l.94-.74,1-.84.83-.77.84-.83.73-.79.73-.83.64-.78c.19-.25.45-.57.63-.82l.58-.78.55-.8.5-.77c.15-.23.35-.54.49-.78l.45-.74.43-.75.4-.71.39-.71.36-.67c.1-.2.24-.46.35-.66l.34-.66c.12-.23.28-.53.39-.76l.44-.89.47-1,.49-1.1c.15-.36.36-.83.51-1.19l.5-1.29c.15-.41.36-1,.5-1.38l.48-1.45c.14-.47.33-1.08.46-1.55l.42-1.61c.12-.51.28-1.19.38-1.7l.32-1.75c.08-.55.19-1.29.26-1.84l.18-1.86c0-.59.08-1.38.1-2v-2c0-.62-.05-1.45-.1-2.07l-.21-2c-.11-.65-.23-1.52-.35-2.16l-.06-.3-.07-.33-.08-.38c0-.12-.06-.28-.09-.41l-.1-.44c0-.14-.08-.33-.12-.48l-.13-.5-.14-.53-.16-.56c-.06-.18-.13-.41-.18-.59l-.2-.61c-.07-.19-.15-.44-.22-.63l-.24-.65-.26-.67-.29-.69c-.09-.21-.21-.5-.31-.71l-.34-.72c-.1-.22-.25-.52-.36-.74l-.39-.75-.43-.77-.41-.7c-.12-.2-.29-.48-.42-.68l-.41-.64-.43-.63-.41-.59-.42-.56-.41-.54-.4-.51-.39-.47-.39-.46-.37-.41-.35-.4-.34-.36-.32-.34-.3-.3-.28-.28-.25-.24-.23-.21-.21-.19-.18-.17-.08-.08-.13-.11-.25-.24-.29-.27-.37-.32-.42-.36-.47-.39-.53-.42-.59-.45-.66-.47-.7-.48-.79-.51-.82-.51-.63-.36-.93-.51-1.09-.56-1.05-.5c-.39-.18-.91-.41-1.3-.57l-1.17-.48c-.61-.22-1.43-.52-2.05-.73l-.83-.27c-1.05-.33-2-.63-3.61-1l-1-.24c-1.29-.27-1.34-.28-2-.39l-1-.17-1.36-.19-1-.11-1.07-.09-.92-.06-.94,0H302.7l-.92,0-1,.05-1,.06-1.11.11-1,.12-.16,0-1,.15c-1.34.23-1.42.24-2.22.41l-1,.21-1.39.34-.89.24-1.05.3-.78.24-.82.26-1.2.41-1.59.61-1.1.46-1.31.6-1,.49-1.08.57-.87.49-.9.55-.75.48-.75.51-.63.45-.61.46-.52.41-.49.4-.41.35-.38.33-.29.27-.26.23-.12.11-.09.08-.18.17-.21.19-.23.21-.25.25-.28.27-.3.3-.32.34-.34.36-.36.39-.37.42-.39.45-.39.48-.41.51-.41.53-.42.56-.42.6-.42.61L268,208l-.42.67-.42.71.5-.84.13-.2" transform="translate(-256.82 -179.17)"/><path d="M285,267.5c1.38.58,17.64,3.63,17.7,3.62s9.21-4.25,13.8-9.39c7.95-8.89,5.29-29.55,3.71-33.61-8-20.4-43.26-31.11-54.6-5.3C260.47,234.45,268,260.4,285,267.5" transform="translate(-256.82 -179.17)"/><path d="M282.18,265.76c17.77,9.45,27,1.12,31.49-2.89,10.4-9.34,6.34-30.87,6.29-31.08-5.55-21.42-39.69-32.46-52-11.65-9.31,15.68,2.14,39.17,14.26,45.62" transform="translate(-256.82 -179.17)"/><path d="M280.78,264.49c7.86,4.75,19.68,8.28,31.38-1.88,10.71-9.31,6.51-30.79,6.45-31-3.18-10.24-14.07-19.08-25.88-21-4.08-.67-18-1.74-25.39,12.6-6.48,12.53,2.36,34.59,13.44,41.29" transform="translate(-256.82 -179.17)"/><path d="M279.47,263.1c20.51,14.37,43.65-2.52,38.68-28.23-3.79-19.57-35.55-32.4-48.1-14.26-11.52,16.64,3.33,38.23,9.42,42.49" transform="translate(-256.82 -179.17)"/><path d="M279.7,262.63c21.43,14.65,42.44-5.49,37.21-27.9-3.84-16.49-19.93-20.11-26-21.47-4.92-1.11-17.1,1.66-21.87,10.69-7.17,13.55,2.62,33.19,10.65,38.68" transform="translate(-256.82 -179.17)"/><path d="M278,260.55c14.86,12.69,41.72,4.39,38.26-23.08-.9-7.13-7.13-17.18-13.8-19.44-7.29-2.46-20.87-7.06-31.07,4.26-8.56,9.51-2.12,30.8,6.61,38.26" transform="translate(-256.82 -179.17)"/><path d="M278.4,260.09c.12.1,12.39,9.61,24.45,2.91,11.59-6.43,12.72-15.87,12.41-23.38-.85-20.71-27.85-31.52-42.48-17-9.07,9-3,30.24,5.62,37.48" transform="translate(-256.82 -179.17)"/><path d="M277.11,257.92c10.2,10.83,36.61,8.4,37-16.64.41-24-27.38-28.92-38.51-19.52-14.31,12.09-.85,33.68,1.48,36.16" transform="translate(-256.82 -179.17)"/><path d="M276.3,255.76c10.93,13.92,33.85,6,36.41-8.79,4.87-28.1-25.06-32.56-34.18-25.82-17.55,13-2.39,34.4-2.23,34.61" transform="translate(-256.82 -179.17)"/><path d="M278.55,257c8.9,8.52,20.77,3.3,24.19,1.5,9.59-5.05,9.44-13.53,9.34-19.15-.23-12.46-9.57-16.7-9.66-16.73-2.37-.83-11.24-3.39-11.57-3.35-10.87,1.44-12.92,2.7-16.3,7-7.35,9.41-.75,26.15,4,30.69" transform="translate(-256.82 -179.17)"/><path d="M277.85,254.74c6.38,8,16.09,5.86,18.91,5,6.06-1.8,13.47-5.86,14.39-14.93.48-4.83,1.5-14.88-8.73-21.2-.61-.37-11-3.49-11.55-3.47-.08,0-8.23.56-12.73,4.28-12.73,10.53-.44,30.12-.29,30.3" transform="translate(-256.82 -179.17)"/><path d="M278.82,254.31c7.88,9.29,30.11,4.75,31.67-9.52.39-3.53,1.56-14.28-8.07-20.18A77.28,77.28,0,0,0,290.89,221c-.08,0-9.33,1.57-12.17,4.31-11.83,11.39,0,28.82.1,29" transform="translate(-256.82 -179.17)"/><path d="M278.51,252c7.08,11.11,28.24,5.61,31-5.3,1.28-5.06,2.05-14.54-7.08-21.18a69.72,69.72,0,0,0-11.5-3.68c-.37,0-9.27,2.58-10.65,3.6-11.77,8.66-1.87,26.38-1.76,26.56" transform="translate(-256.82 -179.17)"/><path d="M279.54,251.67c2.1,3.2,6.63,6.68,16.22,5.05.05,0,7.58-3.1,8.57-3.86a11.86,11.86,0,0,0,4.48-6.16c.15-.54,3.56-13.21-6.38-20.19A102.66,102.66,0,0,0,291,222.73c-1.27,0-9,2.85-10.55,4-9.59,7.08-2.63,22.22-.86,24.91" transform="translate(-256.82 -179.17)"/><path d="M279.27,249.52c3.89,7.51,11.92,6.72,16.23,6.29l7.14-2.6c2.19-1.59,4.45-3.23,5.47-6.54,1.64-5.33.58-15-5.68-19.2-1.09-.74-11.35-3.89-11.4-3.89A81.63,81.63,0,0,0,280.58,228c-5.91,4.23-5.09,14.25-1.31,21.53" transform="translate(-256.82 -179.17)"/><path d="M280.06,249.27a10.92,10.92,0,0,0,6.32,5.13c2.49.95,8.85.63,8.91.63l7.34-2.61c1.11-.77,3.81-2.88,4.78-5.78,0-.12,3.27-11.71-5-18.19-1.76-1.39-10.78-4.11-11.41-4.14,0,0-4.6,1.87-7.68,3.41-9.12,4.54-6.14,16.48-3.28,21.55" transform="translate(-256.82 -179.17)"/><path class="cls-6" d="M280.89,249a11.84,11.84,0,0,0,6.39,4.75c.37.14,7.18.65,7.84.59l7.5-2.71a11.15,11.15,0,0,0,4.09-5.06c0-.1,3.37-10.1-4.27-17.2-.92-.86-9-4-11.38-4.36-1.68-.22-3.65,1.51-5.18,2.21-13.75,6.28-5.08,21.63-5,21.78" transform="translate(-256.82 -179.17)"/><path class="cls-7" d="M280.8,247c2.17,5,6.14,6.9,14.15,6.79l7.66-2.81a10.41,10.41,0,0,0,3.4-4.34c0-.09,2.92-10.22-3.57-16.24-.86-.8-8.85-4.21-11.34-4.57-1.66-.24-3.62,1.5-5.16,2.19-5.59,2.49-9.35,9.33-5.14,19" transform="translate(-256.82 -179.17)"/><path class="cls-8" d="M281.64,246.74a10.08,10.08,0,0,0,4.73,4.91c1.46.7,8.38,1.46,8.43,1.46l7.8-3a8.35,8.35,0,0,0,2.7-3.58c.52-1.25,2.21-9.39-2.85-15.14a41.66,41.66,0,0,0-11.3-4.93c-.81-.22-1.82.74-2.6,1.06a15.18,15.18,0,0,0-8.27,8.56c-1.08,3,.35,8.4,1.36,10.62" transform="translate(-256.82 -179.17)"/><path class="cls-9" d="M282.51,246.54a8.24,8.24,0,0,0,3.41,3.93,22.41,22.41,0,0,0,8.75,2.1l7.84-3.18a8.64,8.64,0,0,0,2.08-2.83c1.12-2.52,1.06-9.45-1.1-12.57-3.18-4.59-12.22-6.78-12.3-6.78-1.09.06-7.78,4.95-7.84,5a38.49,38.49,0,0,0-2,3.69c-1.17,2.62-.13,8,1.14,10.64" transform="translate(-256.82 -179.17)"/><path class="cls-10" d="M283.41,246.35a7.84,7.84,0,0,0,3.18,3.59c.44.23,5.33,2.07,8,2.1a77.86,77.86,0,0,0,8-3.43s1.36-2,1.37-2.06c1.05-2.25,1.26-8.94-1.2-12.56-1.59-2.33-10.37-6.13-11.43-6-.16,0-6.12,3.74-6.45,4-.06.05-2.28,3.59-2.33,3.71-1.5,3.51,0,8.79.94,10.66" transform="translate(-256.82 -179.17)"/><path class="cls-11" d="M284.34,246.17a8.12,8.12,0,0,0,3.48,3.57,40.42,40.42,0,0,0,6.61,1.76c.16,0,6-2.54,6.54-2.87,1.63-.91,1.89-1.47,2.15-2,1.64-3.41.53-9.59-.65-11.38-2.63-4-11.1-6.53-11.17-6.52-.45,0-6.17,2.88-7.73,6.78-2,5,.75,10.61.77,10.67" transform="translate(-256.82 -179.17)"/><path class="cls-12" d="M285.25,246c.72,1.35,1.08,2,3.85,3.54l5.14,1.4,5.19-2.27c3.32-2.39,3.32-2.39,3.67-4.11a18.53,18.53,0,0,0-.62-7.75,20.37,20.37,0,0,0-11.12-7.34c-1.26.11-6,4.07-6.65,5.84a12.77,12.77,0,0,0,.54,10.69" transform="translate(-256.82 -179.17)"/><path class="cls-13" d="M286.17,245.84c2.26,4,8,4.58,8,4.57s6.74-2.4,8.12-5.86c.32-.81.73-5.26-1.17-7.75a18.59,18.59,0,0,0-9.73-6.59c-1,.09-2.91,1.75-5.55,4.93l-1,3c-.36,1.06.1,5.55,1.33,7.7" transform="translate(-256.82 -179.17)"/><path class="cls-14" d="M287.11,245.69c2.09,3.47,6.94,4.18,7,4.18s5.6-2.08,7-5.31a10,10,0,0,0-1.2-7.74c-2.74-3.9-8.31-5.9-8.35-5.89-.54,0-4.39,4-4.43,4l-1.2,3c-.5,1.69.19,6,1.25,7.71" transform="translate(-256.82 -179.17)"/><path class="cls-15" d="M287.29,243.7a7.3,7.3,0,0,0,2.41,3.67s3.38,1.89,4.29,1.95c.41,0,4.26-2.64,4.29-2.67l1.48-2.06a9.05,9.05,0,0,0-1.24-7.73c-1.18-1.85-6.13-5.15-6.95-5.06l-3.3,3-1.36,3a11.49,11.49,0,0,0,.38,5.87" transform="translate(-256.82 -179.17)"/><path class="cls-16" d="M288.26,243.56c.51,1.56.63,1.93,2.53,3.67l3.08,1.48,3.05-2c1.65-2,1.87-2.24,1.94-4,.14-3.31-1.33-6.15-4.38-8.43-.77-.57-1.87-1.62-2.82-1.51-.44.05-5.73,3.72-3.4,10.81" transform="translate(-256.82 -179.17)"/><path class="cls-17" d="M289.24,243.43a6.93,6.93,0,0,0,4.5,4.57c.32,0,4-2.39,3.86-5.26-.1-2.23-.25-5.29-4.5-8.38-.37-.27-.89-.75-1.34-.7-.83.1-2.57,3.37-2.71,3.9a10.7,10.7,0,0,0,.19,5.87" transform="translate(-256.82 -179.17)"/><path class="cls-18" d="M290.23,243.32c.71,2.15,2.83,4,3.39,4s2.29-2.51,2.31-2.54l.42-2a9.1,9.1,0,0,0-1.76-5.74l-2.73-2.46-1.72,2.84a10.26,10.26,0,0,0,.09,5.88" transform="translate(-256.82 -179.17)"/><path class="cls-19" d="M291.22,243.21l.87,1.86c.32.45.81,1.3,1.36,1.26a4.82,4.82,0,0,0,1.65-3.45,9.12,9.12,0,0,0-1.82-5.73c-.31-.38-.76-1.14-1.25-1.07-.67.09-1.94,3.76-.81,7.13" transform="translate(-256.82 -179.17)"/><path class="cls-20" d="M292.22,243.11a10.31,10.31,0,0,0,1,2c.23,0,.59-2.12.59-2.14l-.13-1.84s-.47-1.72-.48-1.73a18.2,18.2,0,0,0-1-1.7,10.61,10.61,0,0,0-.41,1.82,11.67,11.67,0,0,0,.41,3.59" transform="translate(-256.82 -179.17)"/></g></g></g><g class="cls-4"><g class="cls-21"><g class="cls-4"><path d="M308.68,272.27A42,42,0,0,1,283,267.38c-.4-.23-.8-.47-1.2-.73-5.57-3.6-8.17-8.68-10.19-12.72-1.81-3.67-6.91-14.3-4.62-27.59a41,41,0,0,1,3.42-10.92,40.34,40.34,0,0,1,5.4-8.47,37.57,37.57,0,0,1,10.05-8.69c3.75-2.32,10.15-5.85,17.48-6.83-7.33,1-13.73,4.51-17.48,6.83A37.57,37.57,0,0,0,275.81,207a40.34,40.34,0,0,0-5.4,8.47A41,41,0,0,0,267,226.34c-2.29,13.29,2.81,23.92,4.62,27.59,2,4,4.62,9.12,10.19,12.72.4.26.8.5,1.2.73-7.18-4.2-11.59-9.53-16.25-19.67-5.64-12.26-4.56-21.67-4.2-24.77.67-5.78,4.76-25.15,29.23-31.54a44.12,44.12,0,0,1,26.3,1,37.47,37.47,0,0,1,19.75,14.41c5.39,7.67,12.34,24.1-1.67,47.82-6,10.08-15.19,16-27.48,17.64" transform="translate(-256.82 -179.17)"/><path d="M285.86,198.26A37.57,37.57,0,0,0,275.81,207a40.34,40.34,0,0,0-5.4,8.47A41,41,0,0,0,267,226.34c-2.29,13.29,2.81,23.92,4.62,27.59,2,4,4.62,9.12,10.19,12.72.4.26.8.5,1.2.73l-.73-.43c-.29-.18-.68-.41-1-.6l-1.05-.7c-.35-.25-.81-.58-1.14-.84l-.94-.75-1-.83-.82-.78-.83-.83-.73-.79c-.22-.25-.51-.57-.72-.83l-.65-.79-.62-.81-.57-.79-.55-.8-.5-.77-.49-.77-.44-.75-.43-.75-.4-.71c-.11-.21-.27-.49-.38-.71l-.36-.67c-.1-.2-.24-.47-.35-.66l-.34-.66-.39-.77-.43-.89-.47-1-.48-1.1c-.15-.36-.36-.83-.5-1.19l-.5-1.29-.5-1.38-.47-1.45c-.14-.47-.33-1.09-.46-1.55l-.41-1.61c-.11-.51-.27-1.19-.37-1.71l-.32-1.74c-.07-.56-.18-1.29-.25-1.85l-.17-1.86c0-.59-.08-1.37-.09-2v-2c0-.62.06-1.44.11-2.06l.22-2.05c.11-.64.24-1.51.36-2.15l.06-.3.07-.34.08-.37c0-.13.06-.29.09-.41l.1-.45c0-.14.08-.33.12-.47l.13-.5c.05-.16.11-.38.15-.54l.16-.56c.06-.17.13-.41.19-.58l.2-.61c.06-.19.15-.44.22-.63l.24-.65.27-.67.28-.69c.1-.21.22-.5.32-.71l.34-.72.36-.74.4-.75.43-.77.41-.7L268,208l.42-.64c.12-.19.29-.44.42-.62l.42-.59.42-.57.41-.53c.12-.15.28-.36.41-.51l.39-.47.39-.46.37-.42.36-.39.34-.36.32-.34.3-.3.28-.27.25-.24.23-.22.21-.19.18-.17.09-.07.12-.12.25-.23.3-.27.37-.33.42-.35.47-.39.54-.42.58-.44.66-.47.7-.48.8-.51.82-.5.95-.54.94-.5,1.13-.56,1.06-.49,1.35-.57,1.17-.45,1.62-.57.75-.24.85-.26.88-.25,1.06-.29,1-.25,1.38-.3,1.06-.21c1.41-.24,1.41-.24,2.18-.35l1-.12.15,0,1-.1,1.07-.07.94-.05.94,0h1.81l.91,0,.95.06.94.08,1.1.12,1,.13c.43.07,1,.15,1.41.23l1,.18c1.27.27,1.35.28,2.05.45l.86.22c1.23.33,2.08.57,3.58,1.07l1.2.41c.61.24,1.42.55,2,.8l1.09.47c.38.18.89.41,1.26.6l1,.5c.32.17.74.39,1.05.57l.86.5.59.37.75.48.74.51.64.45.61.47.52.41.48.4.41.35.38.33.29.27.25.24.13.11.08.08.18.16.21.2.23.21.25.24.28.28.3.3.32.34.34.36.35.39.37.42.38.45.4.48.4.51c.12.16.29.37.41.54l.41.56c.13.18.3.41.42.59l.42.62c.13.2.3.45.42.65l.42.67.41.71.42.76.4.76.36.73.34.73.31.7.29.7.26.67.24.65.22.63.2.61.18.58c0,.17.11.4.16.57l.14.53c0,.15.1.35.13.5l.12.48.1.44.09.41.08.38.07.33.06.3L344,223c.07.64.18,1.49.23,2.13l.1,2c0,.61,0,1.42,0,2l-.1,1.91c-.05.58-.11,1.35-.18,1.92l-.25,1.8c-.1.54-.22,1.25-.33,1.79l-.37,1.67c-.13.49-.29,1.15-.43,1.64l-.45,1.53c-.15.44-.34,1-.49,1.47l-.49,1.37c-.16.39-.36.91-.51,1.3l-.51,1.18c-.14.33-.34.78-.49,1.11l-.47,1c-.13.27-.3.63-.44.9l-.39.76-.34.66-.35.66-.36.67-.39.71-.4.71-.43.74c-.13.23-.31.53-.45.75l-.48.77-.51.78-.54.78-.59.8-.61.79-.66.81-.7.8-.76.82-.79.78c-.26.25-.61.58-.88.82l-.89.77-1,.81-1,.73c-.36.24-.83.57-1.19.8l-.73.46-.78.46-.74.41-.81.42-.74.37-.81.37-.73.32-.82.34-.72.28-.81.29-.7.24-.79.26-.67.2-.76.21-.62.17-.7.17-.54.13-.58.13-.4.08-.39.08-1,.19-1.6.25-1,.12-1.07.1-.93.07-.95,0-.89,0H303l-.88,0-.89,0-.88-.06-1-.08-.9-.09-1.08-.15-.91-.14c-.4-.08-.94-.17-1.34-.26l-.38-.07-.41-.09-.52-.12-.6-.14-.6-.16-.72-.19-.65-.18-.78-.24-.68-.22-.81-.28-.7-.26-.82-.32-.73-.3-.82-.36-.73-.34-.82-.41-.74-.39-.63-.35c-.4-.23-.8-.47-1.2-.73-5.57-3.6-8.17-8.68-10.19-12.72-1.81-3.67-6.91-14.3-4.62-27.59a41,41,0,0,1,3.42-10.92,40.34,40.34,0,0,1,5.4-8.47,37.57,37.57,0,0,1,10.05-8.69,56.41,56.41,0,0,1,7.3-3.87l-.79.43c-33.3,19.63,1.23,58.37,22.11,60.73,22.54,2.54,39.81-28.43,21.79-50.83-9.09-11.32-28.16-18.48-43.11-10.33a56.41,56.41,0,0,0-7.3,3.87" transform="translate(-256.82 -179.17)"/><path d="M342.88,217.55c.09.34.19.69.27,1l.12.48.1.44.09.41.08.38.07.33.06.3L344,223c.07.64.18,1.49.23,2.13l.1,2c0,.61,0,1.42,0,2l-.1,1.91c-.05.58-.11,1.35-.18,1.92l-.25,1.8c-.1.54-.22,1.25-.33,1.79l-.37,1.67c-.13.49-.29,1.15-.43,1.64l-.45,1.53c-.15.44-.34,1-.49,1.47l-.49,1.37c-.16.39-.36.91-.51,1.3l-.51,1.18c-.14.33-.34.78-.49,1.11l-.47,1c-.13.27-.3.63-.44.9l-.39.76-.34.66-.35.66-.36.67-.39.71-.4.71-.43.74c-.13.23-.31.53-.45.75l-.48.77-.51.78-.54.78-.59.8-.61.79-.66.81-.7.8-.76.82-.79.78c-.26.25-.61.58-.88.82l-.89.77-1,.81-1,.73c-.36.24-.83.57-1.19.8l-.73.46-.78.46-.74.41-.81.42-.74.37-.81.37-.73.32-.82.34-.72.28-.81.29-.7.24-.79.26-.67.2-.76.21-.62.17-.7.17-.54.13-.58.13-.4.08-.39.08-1,.19-1.6.25-1,.12-1.07.1-.93.07-.95,0-.89,0H303l-.88,0-.89,0-.88-.06-1-.08-.9-.09-1.08-.15-.91-.14c-.4-.08-.94-.17-1.34-.26l-.38-.07-.41-.09-.52-.12-.6-.14-.6-.16-.72-.19-.65-.18-.78-.24-.68-.22-.81-.28-.7-.26-.82-.32-.73-.3-.82-.36-.73-.34-.82-.41-.74-.39-.63-.35c-.4-.23-.8-.47-1.2-.73-5.57-3.6-8.17-8.68-10.19-12.72-1.81-3.67-6.91-14.3-4.62-27.59a41,41,0,0,1,3.42-10.92,40.34,40.34,0,0,1,5.4-8.47,37.21,37.21,0,0,1,9.11-8.11l-.13.11c-22.23,21,7.73,56.13,29.32,58.9,15.67,2,35.67-17.6,28.5-41.2l.18.57.09.33" transform="translate(-256.82 -179.17)"/><path d="M275.81,207a40.34,40.34,0,0,0-5.4,8.47A41,41,0,0,0,267,226.34c-2.29,13.29,2.81,23.92,4.62,27.59,2,4,4.62,9.12,10.19,12.72.4.26.8.5,1.2.73l-.73-.43c-.29-.18-.68-.41-1-.6l-1.05-.7c-.35-.25-.81-.58-1.14-.84l-.94-.75-1-.83-.82-.78-.83-.83-.73-.79c-.22-.25-.51-.57-.72-.83l-.65-.79-.62-.81-.57-.79-.55-.8-.5-.77-.49-.77-.44-.75-.43-.75-.4-.71c-.11-.21-.27-.49-.38-.71l-.36-.67c-.1-.2-.24-.47-.35-.66l-.34-.66-.39-.77-.43-.89-.47-1-.48-1.1c-.15-.36-.36-.83-.5-1.19l-.5-1.29-.5-1.38-.47-1.45c-.14-.47-.33-1.09-.46-1.55l-.41-1.61c-.11-.51-.27-1.19-.37-1.71l-.32-1.74c-.07-.56-.18-1.29-.25-1.85l-.17-1.86c0-.59-.08-1.37-.09-2v-2c0-.62.06-1.44.11-2.06l.22-2.05c.11-.64.24-1.51.36-2.15l.06-.3.07-.34.08-.37c0-.13.06-.29.09-.41l.1-.45c0-.14.08-.33.12-.47l.13-.5c.05-.16.11-.38.15-.54l.16-.56c.06-.17.13-.41.19-.58l.2-.61c.06-.19.15-.44.22-.63l.24-.65.27-.67.28-.69c.1-.21.22-.5.32-.71l.34-.72.36-.74.4-.75.43-.77.41-.7L268,208l.42-.64c.12-.19.29-.44.42-.62l.42-.59.42-.57.41-.53c.12-.15.28-.36.41-.51l.39-.47.39-.46.37-.42.36-.39.34-.36.32-.34.3-.3.28-.27.25-.24.23-.22.21-.19.18-.17.09-.07.12-.12.25-.23.3-.27.37-.33.42-.35.47-.39.54-.42.58-.44.66-.47.7-.48.8-.51.82-.5.95-.54.94-.5,1.13-.56,1.06-.49,1.35-.57,1.17-.45,1.62-.57.75-.24.85-.26.88-.25,1.06-.29,1-.25,1.38-.3,1.06-.21c1.41-.24,1.41-.24,2.18-.35l1-.12.15,0,1-.1,1.07-.07.94-.05.94,0h1.81l.91,0,.95.06.94.08,1.1.12,1,.13c.43.07,1,.15,1.41.23l1,.18c1.27.27,1.35.28,2.05.45l.86.22c1.23.33,2.08.57,3.58,1.07l1.2.41c.61.24,1.42.55,2,.8l1.09.47c.38.18.89.41,1.26.6l1,.5c.32.17.74.39,1.05.57h0c-6.84-3.83-24.53-11.21-40.93,3a37.21,37.21,0,0,0-9.11,8.11" transform="translate(-256.82 -179.17)"/><path d="M344.23,225.12c.1,1.33.13,2.65.1,4l-.1,1.91c-.05.58-.11,1.35-.18,1.92l-.25,1.8c-.1.54-.22,1.25-.33,1.79l-.37,1.67c-.13.49-.29,1.15-.43,1.64l-.45,1.53c-.15.44-.34,1-.49,1.47l-.49,1.37c-.16.39-.36.91-.51,1.3l-.51,1.18c-.14.33-.34.78-.49,1.11l-.47,1c-.13.27-.3.63-.44.9l-.39.76-.34.66-.35.66-.36.67-.39.71-.4.71-.43.74c-.13.23-.31.53-.45.75l-.48.77-.51.78-.54.78-.59.8-.61.79-.66.81-.7.8-.76.82-.79.78c-.26.25-.61.58-.88.82l-.89.77-1,.81-1,.73c-.36.24-.83.57-1.19.8l-.73.46-.78.46-.74.41-.81.42-.74.37-.81.37-.73.32-.82.34-.72.28-.81.29-.7.24-.79.26-.67.2-.76.21-.62.17-.7.17-.54.13-.58.13-.4.08-.39.08-1,.19-1.6.25-1,.12-1.07.1-.93.07-.95,0-.89,0H303l-.88,0-.89,0-.88-.06-1-.08-.9-.09-1.08-.15-.91-.14c-.4-.08-.94-.17-1.34-.26l-.38-.07-.41-.09-.52-.12-.6-.14-.6-.16-.72-.19-.65-.18-.78-.24-.68-.22-.81-.28-.7-.26-.82-.32-.73-.3-.82-.36-.73-.34-.82-.41-.74-.39-.63-.35c-.4-.23-.8-.47-1.2-.73-5.57-3.6-8.17-8.68-10.19-12.72-1.81-3.67-6.91-14.3-4.62-27.59a41,41,0,0,1,3.42-10.92,40.34,40.34,0,0,1,5.4-8.47,35.08,35.08,0,0,1,4.75-4.88l-.43.62c-5,7.87-8.31,20.79,4.08,37.64.19.25,19.71,24.91,38.18,19.81,3.14-.87,24.48-12.92,21.63-37,.07.59.16,1.38.21,2" transform="translate(-256.82 -179.17)"/><path d="M275.81,207a40.34,40.34,0,0,0-5.4,8.47A41,41,0,0,0,267,226.34c-2.29,13.29,2.81,23.92,4.62,27.59,2,4,4.62,9.12,10.19,12.72.4.26.8.5,1.2.73l-.73-.43c-.29-.18-.68-.41-1-.6l-1.05-.7c-.35-.25-.81-.58-1.14-.84l-.94-.75-1-.83-.82-.78-.83-.83-.73-.79c-.22-.25-.51-.57-.72-.83l-.65-.79-.62-.81-.57-.79-.55-.8-.5-.77-.49-.77-.44-.75-.43-.75-.4-.71c-.11-.21-.27-.49-.38-.71l-.36-.67c-.1-.2-.24-.47-.35-.66l-.34-.66-.39-.77-.43-.89-.47-1-.48-1.1c-.15-.36-.36-.83-.5-1.19l-.5-1.29-.5-1.38-.47-1.45c-.14-.47-.33-1.09-.46-1.55l-.41-1.61c-.11-.51-.27-1.19-.37-1.71l-.32-1.74c-.07-.56-.18-1.29-.25-1.85l-.17-1.86c0-.59-.08-1.37-.09-2v-2c0-.62.06-1.44.11-2.06l.22-2.05c.11-.64.24-1.51.36-2.15l.06-.3.07-.34.08-.37c0-.13.06-.29.09-.41l.1-.45c0-.14.08-.33.12-.47l.13-.5c.05-.16.11-.38.15-.54l.16-.56c.06-.17.13-.41.19-.58l.2-.61c.06-.19.15-.44.22-.63l.24-.65.27-.67.28-.69c.1-.21.22-.5.32-.71l.34-.72.36-.74.4-.75.43-.77.41-.7L268,208l.42-.64c.12-.19.29-.44.42-.62l.42-.59.42-.57.41-.53c.12-.15.28-.36.41-.51l.39-.47.39-.46.37-.42.36-.39.34-.36.32-.34.3-.3.28-.27.25-.24.23-.22.21-.19.18-.17.09-.07.12-.12.25-.23.3-.27.37-.33.42-.35.47-.39.54-.42.58-.44.66-.47.7-.48.8-.51.82-.5.95-.54.94-.5,1.13-.56,1.06-.49,1.35-.57,1.17-.45,1.62-.57.75-.24.85-.26.88-.25,1.06-.29,1-.25,1.38-.3,1.06-.21c1.41-.24,1.41-.24,2.18-.35l1-.12.15,0,1-.1,1.07-.07.94-.05.94,0h1.81l.91,0,.95.06.94.08,1.1.12,1,.13c.43.07,1,.15,1.41.23l1,.18c1.27.27,1.35.28,2.05.45l.86.22c1.23.33,2.08.57,3.58,1.07l.48.16-.8-.27c-24.9-8.06-37.27,9.54-37.38,9.72a35.08,35.08,0,0,0-4.75,4.88" transform="translate(-256.82 -179.17)"/><path d="M344.05,233c-.34,2.38-.34,2.38-.58,3.59l-.37,1.67c-.13.49-.29,1.15-.43,1.64l-.45,1.53c-.15.44-.34,1-.49,1.47l-.49,1.37c-.16.39-.36.91-.51,1.3l-.51,1.18c-.14.33-.34.78-.49,1.11l-.47,1c-.13.27-.3.63-.44.9l-.39.76-.34.66-.35.66-.36.67-.39.71-.4.71-.43.74c-.13.23-.31.53-.45.75l-.48.77-.51.78-.54.78-.59.8-.61.79-.66.81-.7.8-.76.82-.79.78c-.26.25-.61.58-.88.82l-.89.77-1,.81-1,.73c-.36.24-.83.57-1.19.8l-.73.46-.78.46-.74.41-.81.42-.74.37-.81.37-.73.32-.82.34-.72.28-.81.29-.7.24-.79.26-.67.2-.76.21-.62.17-.7.17-.54.13-.58.13-.4.08-.39.08-1,.19-1.6.25-1,.12-1.07.1-.93.07-.95,0-.89,0H303l-.88,0-.89,0-.88-.06-1-.08-.9-.09-1.08-.15-.91-.14c-.4-.08-.94-.17-1.34-.26l-.38-.07-.41-.09-.52-.12-.6-.14-.6-.16-.72-.19-.65-.18-.78-.24-.68-.22-.81-.28-.7-.26-.82-.32-.73-.3-.82-.36-.73-.34-.82-.41-.74-.39-.63-.35c-.4-.23-.8-.47-1.2-.73-5.57-3.6-8.17-8.68-10.19-12.72-1.81-3.67-6.91-14.3-4.62-27.59a41,41,0,0,1,3.42-10.92,40.34,40.34,0,0,1,5.4-8.47c.29-.33.86-1.07,1.79-2.06l-.06.14c-8,16.4.22,29.86,4.09,34.88,21,27.22,35.31,23.46,40,22.22,11.08-2.93,21.88-18.18,22.66-32l-.14,1.88-.1,1" transform="translate(-256.82 -179.17)"/><path d="M275.81,207a40.34,40.34,0,0,0-5.4,8.47A41,41,0,0,0,267,226.34c-2.29,13.29,2.81,23.92,4.62,27.59,2,4,4.62,9.12,10.19,12.72.4.26.8.5,1.2.73l-.73-.43c-.29-.18-.68-.41-1-.6l-1.05-.7c-.35-.25-.81-.58-1.14-.84l-.94-.75-1-.83-.82-.78-.83-.83-.73-.79c-.22-.25-.51-.57-.72-.83l-.65-.79-.62-.81-.57-.79-.55-.8-.5-.77-.49-.77-.44-.75-.43-.75-.4-.71c-.11-.21-.27-.49-.38-.71l-.36-.67c-.1-.2-.24-.47-.35-.66l-.34-.66-.39-.77-.43-.89-.47-1-.48-1.1c-.15-.36-.36-.83-.5-1.19l-.5-1.29-.5-1.38-.47-1.45c-.14-.47-.33-1.09-.46-1.55l-.41-1.61c-.11-.51-.27-1.19-.37-1.71l-.32-1.74c-.07-.56-.18-1.29-.25-1.85l-.17-1.86c0-.59-.08-1.37-.09-2v-2c0-.62.06-1.44.11-2.06l.22-2.05c.11-.64.24-1.51.36-2.15l.06-.3.07-.34.08-.37c0-.13.06-.29.09-.41l.1-.45c0-.14.08-.33.12-.47l.13-.5c.05-.16.11-.38.15-.54l.16-.56c.06-.17.13-.41.19-.58l.2-.61c.06-.19.15-.44.22-.63l.24-.65.27-.67.28-.69c.1-.21.22-.5.32-.71l.34-.72.36-.74.4-.75.43-.77.41-.7L268,208l.42-.64c.12-.19.29-.44.42-.62l.42-.59.42-.57.41-.53c.12-.15.28-.36.41-.51l.39-.47.39-.46.37-.42.36-.39.34-.36.32-.34.3-.3.28-.27.25-.24.23-.22.21-.19.18-.17.09-.07.12-.12.25-.23.3-.27.37-.33.42-.35.47-.39.54-.42.58-.44.66-.47.7-.48.8-.51.82-.5.95-.54.94-.5,1.13-.56,1.06-.49,1.35-.57,1.17-.45,1.62-.57.75-.24.85-.26.88-.25,1.06-.29,1-.25,1.38-.3,1.06-.21c1.41-.24,1.41-.24,2.18-.35l1-.12.15,0,1-.1,1.07-.07.94-.05.94,0h1.81l.91,0,.95.06.94.08,1.1.12,1,.13,1.21.19-.24,0c-16.82-2.6-31.3,7.81-32.75,14.43-.93,1-1.5,1.73-1.79,2.06" transform="translate(-256.82 -179.17)"/><path d="M343.47,236.57c-.17.81-.38,1.82-.8,3.31l-.45,1.53c-.15.44-.34,1-.49,1.47l-.49,1.37c-.16.39-.36.91-.51,1.3l-.51,1.18c-.14.33-.34.78-.49,1.11l-.47,1c-.13.27-.3.63-.44.9l-.39.76-.34.66-.35.66-.36.67-.39.71-.4.71-.43.74c-.13.23-.31.53-.45.75l-.48.77-.51.78-.54.78-.59.8-.61.79-.66.81-.7.8-.76.82-.79.78c-.26.25-.61.58-.88.82l-.89.77-1,.81-1,.73c-.36.24-.83.57-1.19.8l-.73.46-.78.46-.74.41-.81.42-.74.37-.81.37-.73.32-.82.34-.72.28-.81.29-.7.24-.79.26-.67.2-.76.21-.62.17-.7.17-.54.13-.58.13-.4.08-.39.08-1,.19-1.6.25-1,.12-1.07.1-.93.07-.95,0-.89,0H303l-.88,0-.89,0-.88-.06-1-.08-.9-.09-1.08-.15-.91-.14c-.4-.08-.94-.17-1.34-.26l-.38-.07-.41-.09-.52-.12-.6-.14-.6-.16-.72-.19-.65-.18-.78-.24-.68-.22-.81-.28-.7-.26-.82-.32-.73-.3-.82-.36-.73-.34-.82-.41-.74-.39-.63-.35c-.4-.23-.8-.47-1.2-.73-5.57-3.6-8.17-8.68-10.19-12.72-1.81-3.67-6.91-14.3-4.62-27.59a40.9,40.9,0,0,1,7.52-17.74h0c-3.51,9.53-4.05,24.57,13.24,42.06,8.41,8.5,19.92,20.15,39,10.78,6.08-3,14.23-13.49,16.79-25.27,0,.12-.05.27-.08.39" transform="translate(-256.82 -179.17)"/><path d="M270.41,215.42A41,41,0,0,0,267,226.34c-2.29,13.29,2.81,23.92,4.62,27.59,2,4,4.62,9.12,10.19,12.72.4.26.8.5,1.2.73l-.73-.43c-.29-.18-.68-.41-1-.6l-1.05-.7c-.35-.25-.81-.58-1.14-.84l-.94-.75-1-.83-.82-.78-.83-.83-.73-.79c-.22-.25-.51-.57-.72-.83l-.65-.79-.62-.81-.57-.79-.55-.8-.5-.77-.49-.77-.44-.75-.43-.75-.4-.71c-.11-.21-.27-.49-.38-.71l-.36-.67c-.1-.2-.24-.47-.35-.66l-.34-.66-.39-.77-.43-.89-.47-1-.48-1.1c-.15-.36-.36-.83-.5-1.19l-.5-1.29-.5-1.38-.47-1.45c-.14-.47-.33-1.09-.46-1.55l-.41-1.61c-.11-.51-.27-1.19-.37-1.71l-.32-1.74c-.07-.56-.18-1.29-.25-1.85l-.17-1.86c0-.59-.08-1.37-.09-2v-2c0-.62.06-1.44.11-2.06l.22-2.05c.11-.64.24-1.51.36-2.15l.06-.3.07-.34.08-.37c0-.13.06-.29.09-.41l.1-.45c0-.14.08-.33.12-.47l.13-.5c.05-.16.11-.38.15-.54l.16-.56c.06-.17.13-.41.19-.58l.2-.61c.06-.19.15-.44.22-.63l.24-.65.27-.67.28-.69c.1-.21.22-.5.32-.71l.34-.72.36-.74.4-.75.43-.77.41-.7L268,208l.42-.64c.12-.19.29-.44.42-.62l.42-.59.42-.57.41-.53c.12-.15.28-.36.41-.51l.39-.47.39-.46.37-.42.36-.39.34-.36.32-.34.3-.3.28-.27.25-.24.23-.22.21-.19.18-.17.09-.07.12-.12.25-.23.3-.27.37-.33.42-.35.47-.39.54-.42.58-.44.66-.47.7-.48.8-.51.82-.5.95-.54.94-.5,1.13-.56,1.06-.49,1.35-.57,1.17-.45,1.62-.57.75-.24.85-.26.88-.25,1.06-.29,1-.25,1.38-.3,1.06-.21c1.41-.24,1.41-.24,2.18-.35l1-.12.15,0,1-.1,1.07-.07.94-.05.94,0h.45a36,36,0,0,0-16.61,4.4c-4.23,2.22-5.08,2.93-7.56,5.57-1.78,1.89-2.58,4.39-4.1,6.45a17.7,17.7,0,0,0-.37,2.31,41.21,41.21,0,0,0-4.1,6.82" transform="translate(-256.82 -179.17)"/><path d="M340.73,245.55c-.66,1.54-.66,1.54-1,2.29l-.47,1c-.13.27-.3.63-.44.9l-.39.76-.34.66-.35.66-.36.67-.39.71-.4.71-.43.74c-.13.23-.31.53-.45.75l-.48.77-.51.78-.54.78-.59.8-.61.79-.66.81-.7.8-.76.82-.79.78c-.26.25-.61.58-.88.82l-.89.77-1,.81-1,.73c-.36.24-.83.57-1.19.8l-.73.46-.78.46-.74.41-.81.42-.74.37-.81.37-.73.32-.82.34-.72.28-.81.29-.7.24-.79.26-.67.2-.76.21-.62.17-.7.17-.54.13-.58.13-.4.08-.39.08-1,.19-1.6.25-1,.12-1.07.1-.93.07-.95,0-.89,0H303l-.88,0-.89,0-.88-.06-1-.08-.9-.09-1.08-.15-.91-.14c-.4-.08-.94-.17-1.34-.26l-.38-.07-.41-.09-.52-.12-.6-.14-.6-.16-.72-.19-.65-.18-.78-.24-.68-.22-.81-.28-.7-.26-.82-.32-.73-.3-.82-.36-.73-.34-.82-.41-.74-.39-.63-.35c-.4-.23-.8-.47-1.2-.73-5.57-3.6-8.17-8.68-10.19-12.72-1.81-3.67-6.91-14.3-4.62-27.59a41,41,0,0,1,3.42-10.92c.47-1,1-1.9,1.44-2.74l-.14.5c-3.53,14,2.92,29.56,17.68,42.75,9.39,8.4,9.39,8.4,16.4,9.64,7.19,1.28,15.53.12,21.25-2.95,7.62-4.09,12.15-12.87,14.61-19.51l-.5,1.36-.42,1.08" transform="translate(-256.82 -179.17)"/><path d="M270.41,215.42A41,41,0,0,0,267,226.34c-2.29,13.29,2.81,23.92,4.62,27.59,2,4,4.62,9.12,10.19,12.72.4.26.8.5,1.2.73l-.73-.43c-.29-.18-.68-.41-1-.6l-1.05-.7c-.35-.25-.81-.58-1.14-.84l-.94-.75-1-.83-.82-.78-.83-.83-.73-.79c-.22-.25-.51-.57-.72-.83l-.65-.79-.62-.81-.57-.79-.55-.8-.5-.77-.49-.77-.44-.75-.43-.75-.4-.71c-.11-.21-.27-.49-.38-.71l-.36-.67c-.1-.2-.24-.47-.35-.66l-.34-.66-.39-.77-.43-.89-.47-1-.48-1.1c-.15-.36-.36-.83-.5-1.19l-.5-1.29-.5-1.38-.47-1.45c-.14-.47-.33-1.09-.46-1.55l-.41-1.61c-.11-.51-.27-1.19-.37-1.71l-.32-1.74c-.07-.56-.18-1.29-.25-1.85l-.17-1.86c0-.59-.08-1.37-.09-2v-2c0-.62.06-1.44.11-2.06l.22-2.05c.11-.64.24-1.51.36-2.15l.06-.3.07-.34.08-.37c0-.13.06-.29.09-.41l.1-.45c0-.14.08-.33.12-.47l.13-.5c.05-.16.11-.38.15-.54l.16-.56c.06-.17.13-.41.19-.58l.2-.61c.06-.19.15-.44.22-.63l.24-.65.27-.67.28-.69c.1-.21.22-.5.32-.71l.34-.72.36-.74.4-.75.43-.77.41-.7L268,208l.42-.64c.12-.19.29-.44.42-.62l.42-.59.42-.57.41-.53c.12-.15.28-.36.41-.51l.39-.47.39-.46.37-.42.36-.39.34-.36.32-.34.3-.3.28-.27.25-.24.23-.22.21-.19.18-.17.09-.07.12-.12.25-.23.3-.27.37-.33.42-.35.47-.39.54-.42.58-.44.66-.47.7-.48.8-.51.82-.5.95-.54.94-.5,1.13-.56,1.06-.49,1.35-.57,1.17-.45,1.62-.57.75-.24.85-.26.88-.25,1.06-.29,1-.25,1.38-.3,1.06-.21,1.82-.3-.92.15c-24.51,4.45-24.44,22.05-24.43,22.23-.48.84-1,1.75-1.44,2.74" transform="translate(-256.82 -179.17)"/><path d="M336.59,253.89c-.21.36-.49.86-.88,1.49l-.48.77-.51.78-.54.78-.59.8-.61.79-.66.81-.7.8-.76.82-.79.78c-.26.25-.61.58-.88.82l-.89.77-1,.81-1,.73c-.36.24-.83.57-1.19.8l-.73.46-.78.46-.74.41-.81.42-.74.37-.81.37-.73.32-.82.34-.72.28-.81.29-.7.24-.79.26-.67.2-.76.21-.62.17-.7.17-.54.13-.58.13-.4.08-.39.08-1,.19-1.6.25-1,.12-1.07.1-.93.07-.95,0-.89,0H303l-.88,0-.89,0-.88-.06-1-.08-.9-.09-1.08-.15-.91-.14c-.4-.08-.94-.17-1.34-.26l-.38-.07-.41-.09-.52-.12-.6-.14-.6-.16-.72-.19-.65-.18-.78-.24-.68-.22-.81-.28-.7-.26-.82-.32-.73-.3-.82-.36-.73-.34-.82-.41-.74-.39-.63-.35c-.4-.23-.8-.47-1.2-.73-5.57-3.6-8.17-8.68-10.19-12.72-1.81-3.67-6.91-14.3-4.62-27.59a41.06,41.06,0,0,1,2.34-8.44V218c-1.63,10.39-.64,12.47,4.88,24,4.89,10.24,16.13,20.1,16.23,20.18,6.74,5,26,9.55,38.65.32a25,25,0,0,0,7.6-8.73l-.09.16" transform="translate(-256.82 -179.17)"/><path d="M267,226.34c-2.29,13.29,2.81,23.92,4.62,27.59,2,4,4.62,9.12,10.19,12.72.4.26.8.5,1.2.73l-.73-.43c-.29-.18-.68-.41-1-.6l-1.05-.7c-.35-.25-.81-.58-1.14-.84l-.94-.75-1-.83-.82-.78-.83-.83-.73-.79c-.22-.25-.51-.57-.72-.83l-.65-.79-.62-.81-.57-.79-.55-.8-.5-.77-.49-.77-.44-.75-.43-.75-.4-.71c-.11-.21-.27-.49-.38-.71l-.36-.67c-.1-.2-.24-.47-.35-.66l-.34-.66-.39-.77-.43-.89-.47-1-.48-1.1c-.15-.36-.36-.83-.5-1.19l-.5-1.29-.5-1.38-.47-1.45c-.14-.47-.33-1.09-.46-1.55l-.41-1.61c-.11-.51-.27-1.19-.37-1.71l-.32-1.74c-.07-.56-.18-1.29-.25-1.85l-.17-1.86c0-.59-.08-1.37-.09-2v-2c0-.62.06-1.44.11-2.06l.22-2.05c.11-.64.24-1.51.36-2.15l.06-.3.07-.34.08-.37c0-.13.06-.29.09-.41l.1-.45c0-.14.08-.33.12-.47l.13-.5c.05-.16.11-.38.15-.54l.16-.56c.06-.17.13-.41.19-.58l.2-.61c.06-.19.15-.44.22-.63l.24-.65.27-.67.28-.69c.1-.21.22-.5.32-.71l.34-.72.36-.74.4-.75.43-.77.41-.7L268,208l.42-.64c.12-.19.29-.44.42-.62l.42-.59.42-.57.41-.53c.12-.15.28-.36.41-.51l.39-.47.39-.46.37-.42.36-.39.34-.36.32-.34.3-.3.28-.27.25-.24.23-.22.21-.19.18-.17.09-.07.12-.12.25-.23.3-.27.37-.33.42-.35.47-.39.54-.42.58-.44.66-.47.7-.48.8-.51.82-.5.95-.54.94-.5,1.13-.56,1.06-.49,1.35-.57,1.17-.45,1.62-.57.53-.17-.52.17c-18.09,6.32-20.36,21.11-19.1,25.5a41.06,41.06,0,0,0-2.34,8.44" transform="translate(-256.82 -179.17)"/><path d="M313.25,191.77c33.32,6,38,41.21,20.38,55.66-22.53,18.46-55.35-10.84-53.3-32.5,1.61-17.11,18.33-25.78,32.92-23.16" transform="translate(-256.82 -179.17)"/><path d="M321.56,194.44c31.15,11.69,24.88,49.73,3.67,56.14-25.16,7.6-49.24-24.83-42.49-41,1.1-2.63,11.51-25.39,38.82-15.14" transform="translate(-256.82 -179.17)"/><path d="M327.9,197.83c22.16,13.46,17.6,44.44-2.15,50.86-15.15,4.93-30.16-8.09-33-10.75-11.83-11-9.74-25.12-8.59-28,6.08-15.32,24.11-24,43.75-12.09" transform="translate(-256.82 -179.17)"/><path d="M329.66,199.39c19.41,13.62,14.25,42-3.77,47.54-14.42,4.42-29.12-6.81-32-9.83-6.72-7.08-13.32-18.16-6.6-30.79,7.83-14.71,26.83-17.82,42.36-6.92" transform="translate(-256.82 -179.17)"/><path d="M331,200.9c19.48,15.61,8.85,42.79-7.62,44.72-18,2.1-27.33-8.16-29-10.24-7.6-9.35-7.6-9.35-8.16-13.4-.71-5.08.4-12.66,3.88-17.32,16.91-22.59,40.68-3.95,40.92-3.76" transform="translate(-256.82 -179.17)"/><path d="M332,202.32c18.42,16.68,7.53,44.75-16.42,42.31-.6-.06-11-3.21-11.43-3.47-2-1.15-5.93-3.69-6.2-3.91-2.08-1.71-3.37-4.17-5.56-5.76a23.34,23.34,0,0,1-4.35-6.81c-.86-2.16-4.46-13.56,9.49-25.37,14.89-12.61,34.28,2.84,34.47,3" transform="translate(-256.82 -179.17)"/><path d="M332.57,203.61c16,15.95,4.95,41.85-16.94,39.6a37.61,37.61,0,0,1-15.62-5.9c-.08-.05-8.26-6.52-10.73-12.48-1.83-4.42-2.37-15.13,8.72-24.08,16.74-13.52,34.4,2.69,34.57,2.86" transform="translate(-256.82 -179.17)"/><path d="M333.56,205.51c7.67,8.51,6.35,18.77,5.29,20.91-1.28,2.58-1.85,5.5-3.65,7.84a47,47,0,0,1-5.81,4.47c-5.52,3.65-13.64,3-13.72,3l-11.54-3.11c-3.46-1.7-5.8-4.83-8.95-6.93,0,0-4.1-5.59-4.63-6.73-3.52-7.57.92-16.77,7.13-22,5.13-4.29,8.52-7.12,16.84-6.54.11,0,12.05,1.29,19,9" transform="translate(-256.82 -179.17)"/><path d="M333.56,206.55c11.4,13.52,3,35.4-17.86,34-1.68-.12-16.62-1.52-23.86-15.45-5.16-9.92,5.43-19.69,5.54-19.79,3.3-2.76,9.43-7.9,14.83-7.71,4.27.14,14.9,1.31,21.35,9" transform="translate(-256.82 -179.17)"/><path d="M333.57,207.75c10,13.06,1.68,32.9-17.86,31.75-15.48-.92-33.76-18.2-17.77-32.67,20.05-18.13,35.48.73,35.63.92" transform="translate(-256.82 -179.17)"/><path d="M333.56,209.12c6.56,9.6,1.87,18.22,1.82,18.3s-6.89,7.89-8.79,9a108.64,108.64,0,0,1-10.88,2.07A117.35,117.35,0,0,1,304.13,235c-.07,0-7-4.12-9.35-8.15-5.44-9.53,1.43-16.69,3.67-18.66,9-7.91,15.89-7.83,16-7.83,5,.13,14.16,1.44,19.15,8.73" transform="translate(-256.82 -179.17)"/><path d="M333.42,210.69a16.6,16.6,0,0,1,.49,17.23,5.16,5.16,0,0,1-.63.69L326.56,235a83,83,0,0,1-10.86,2.37c-.79,0-10.62-3-11.57-3.52-.06,0-6.42-3.53-8.46-6.92-3.82-6.35-1.2-13.76,3.2-17.51,14.5-12.36,29.38-7.2,34.55,1.27" transform="translate(-256.82 -179.17)"/><path d="M333.21,212.41a15.79,15.79,0,0,1-1,16.16,11.43,11.43,0,0,1-1.38,1c-.11.07-.25.15-.35.23a12.86,12.86,0,0,0-1.72,1.74c-2,2-2,2-5,2.89-7.79,2.19-7.79,2.19-13.56.34-6.68-2.14-13.59-4.36-15.18-11.16-2.14-9.15,5.4-14.47,8.74-16.33,10.06-5.6,23.79-5.71,29.45,5.11" transform="translate(-256.82 -179.17)"/><path d="M332.88,214.27c.47,1.15,4.29,11.45-6.49,17.9a91.23,91.23,0,0,1-10.72,3.41c-.1,0-12.16-3.58-12.3-3.65-2.46-1.22-8.17-4.82-8-11.89a11,11,0,0,1,1.88-5.56c1-1.34,3.4-3.87,3.42-3.88a32.18,32.18,0,0,1,3.24-2.15c10.65-5.3,24.25-5.73,29,5.82" transform="translate(-256.82 -179.17)"/><path d="M331.79,214.71c2.56,6.18-.14,13-3.05,14.75-3.79,2.31-12.84,5.25-13.1,5.27l-11.51-3.15c-1.69-.81-7.24-3.93-8-9.68a10.07,10.07,0,0,1,1.34-6.22c.92-1.73,2.89-2.37,4-3.88.08-.11,0-.33,0-.47.54-2.07,21.83-11.87,29.59,2,.08.14.64,1.28.69,1.4" transform="translate(-256.82 -179.17)"/><path d="M331.27,216.68a11.07,11.07,0,0,1-5.07,13.51c-.13.07-10.52,3.68-10.59,3.68l-11.49-3.07c-2.16-1-7-4.55-7.27-8.86a9,9,0,0,1,1.53-6.22,11.21,11.21,0,0,1,3.75-3.45c.37-.19.8-.45.8-.45s0-.33,0-.47c.3-1.32,8.64-3.56,8.73-3.57,4-.42,11.46-1.2,13.22,1.28,1,1.35,2.77,1.59,3.81,2.84a14.21,14.21,0,0,1,2.59,4.78" transform="translate(-256.82 -179.17)"/><path d="M330.48,216.94c2.69,8.17-4.1,12.32-6.24,13.39-.2.1-8.55,2.67-8.67,2.67l-11.37-2.87c-8.65-4-8.79-14.47-.24-18.12a7.49,7.49,0,0,1,1-.25c-.11-.12-.36-.26-.33-.41.33-1.62,15.07-4.95,18.15-2,1.25,1.18,3.05,1.42,4.33,2.53a11.85,11.85,0,0,1,3.33,5.1" transform="translate(-256.82 -179.17)"/><path d="M330.11,219c.81,5-2.7,9.63-8.92,11.82-9.92,3.5-18.27-2.15-18.35-2.21-7.91-5.81-5.38-14.49,4.93-16.9-.14-.11-.47-.21-.45-.39.21-1.72,11.87-3,13.42-1.53.1.09.06.34.16.43a14.39,14.39,0,0,0,1.59.44,10.4,10.4,0,0,1,7.62,8.34" transform="translate(-256.82 -179.17)"/><path class="cls-6" d="M329.26,219.21c1.17,7.79-8.18,10.94-11.26,12-5.7,1.92-14.84-3.11-14.91-3.17-5.63-4.25-4-8.59-3.68-9.41,2.21-4.89,4.82-5.52,11.12-7.06-.17-.11-.4-.26-.56-.38,1.78-1,1.78-1,6.9-.77a4.49,4.49,0,0,1-.38.51c6.42.54,6.42.54,8.08,1.62a9.63,9.63,0,0,1,4.69,6.69" transform="translate(-256.82 -179.17)"/><path class="cls-7" d="M328.37,219.44c1,7.39-8.05,10.31-12.41,11.71-1.35.44-10.53-2.05-12.63-3.66-2.63-2-5.18-5.46-2.34-10.34a12.42,12.42,0,0,1,2.94-2.94c.64-.3,8.11-2.65,8.69-2.73,5.79-.74,14.75.77,15.75,8" transform="translate(-256.82 -179.17)"/><path class="cls-8" d="M327.46,219.67c.86,6.76-7.84,9.63-12,11-.71.24-9.82-2.41-11.33-3.3-3-1.75-4.59-6.16-3.14-8.74,1.55-2.76,2.8-3.56,3-3.69.52-.3,8.2-2.9,8.75-3,2.22-.27,13.72,0,14.71,7.68" transform="translate(-256.82 -179.17)"/><path class="cls-9" d="M326.51,219.88c.36,3-1.28,7.28-11.11,10.25-.61.19-9.47-2.25-11.29-3.49-.05,0-5-3.72-2-8.63a6.81,6.81,0,0,1,1.78-2.18,81.42,81.42,0,0,1,8.94-3.32c.12,0,12.75-.19,13.64,7.37" transform="translate(-256.82 -179.17)"/><path class="cls-10" d="M325.53,220.09c.68,6.39-9,9.2-10.16,9.5-.58.16-9.31-2.33-11.27-3.72-.18-.13-4.37-3.21-.57-8.7,1-1.45,9.39-4.13,9.46-4.14s11.82.35,12.54,7.06" transform="translate(-256.82 -179.17)"/><path class="cls-11" d="M324.49,220.76c-.42,6.15-9.07,8.29-9.16,8.31-.57.12-9.21-2.17-11.23-4.15a5.62,5.62,0,0,1-.07-7.31c.58-.72,8.05-3.94,9.07-4.05.79-.08,11.79,1.25,11.39,7.2" transform="translate(-256.82 -179.17)"/><path class="cls-12" d="M323.37,222.34c-1.24,4-8,6.21-8.08,6.22-.89.07-9.59-2.63-11.15-4.66-1-1.29-.84-4.31,0-5.24,1.3-1.4,8.24-4.46,9.06-4.55,1.41-.14,12.08,2,10.15,8.23" transform="translate(-256.82 -179.17)"/><path class="cls-13" d="M322.34,222.51c-1.2,3.35-7,5.52-7.1,5.52s-9.91-2.08-11-5.92c-.91-3.35,4.86-5.72,9.07-7.45a27.86,27.86,0,0,1,5.32,1.53c4.61,2.11,4.11,5.12,3.68,6.32" transform="translate(-256.82 -179.17)"/><path class="cls-14" d="M321.28,222.67c-1.11,2.73-6,4.83-6.08,4.83-.43,0-8.7-2.08-9.57-5.41-1-3.82,7.73-6.83,7.82-6.86a19.07,19.07,0,0,1,6.09,2.36,4.3,4.3,0,0,1,1.74,5.08" transform="translate(-256.82 -179.17)"/><path class="cls-15" d="M320.19,222.83c-.86,1.89-4.68,4.14-5,4.12a40.14,40.14,0,0,1-4.41-1.55c-1.89-1.13-2.52-1.57-2.52-1.58S307,222.1,307,222.06c-.85-3.39,6.28-6.13,6.59-6.25a19,19,0,0,1,4.77,1.95c2.34,1.61,2.49,3.67,1.85,5.07" transform="translate(-256.82 -179.17)"/><path class="cls-16" d="M319.09,223a10.63,10.63,0,0,1-4,3.4,17.61,17.61,0,0,1-5.51-2.6c-.06-.05-1.23-1.71-1.25-1.75s.24-1.81.25-1.82c.44-.92,4.21-3.71,5.1-3.78a11.35,11.35,0,0,1,5.13,2.94s.69,1.7.69,1.74-.38,1.8-.41,1.87" transform="translate(-256.82 -179.17)"/><path class="cls-17" d="M318,223.11a9.52,9.52,0,0,1-2.9,2.61,14.45,14.45,0,0,1-4.14-2c-.08-.09-1.23-1.7-1.24-1.74s.28-1.81.29-1.82a11.93,11.93,0,0,1,3.83-3.06,11,11,0,0,1,3.9,2.41s.72,1.71.73,1.74S318,223,318,223.11" transform="translate(-256.82 -179.17)"/><path class="cls-18" d="M316.85,223.23c-.07.11-1.83,1.86-1.89,1.87s-2.55-1.38-2.67-1.48-1.25-1.69-1.26-1.73.34-1.82.35-1.83a11.91,11.91,0,0,1,2.55-2.25,9.7,9.7,0,0,1,2.67,1.81c.07.13.76,1.71.76,1.74s-.47,1.8-.51,1.87" transform="translate(-256.82 -179.17)"/><path class="cls-19" d="M315.72,223.34c-.19.31-.5.82-.86.87s-.92-.4-1.22-.69c-.06-.05-1.25-1.68-1.26-1.71l.39-1.84c.27-.48.77-1.24,1.31-1.28s1.08.64,1.4,1.05c0,0,.76,1.61.8,1.74s-.52,1.8-.56,1.86" transform="translate(-256.82 -179.17)"/><path class="cls-20" d="M314.72,223.07c-.3-.41-.9-.86-1-1.36a7.78,7.78,0,0,1,.54-2,10.15,10.15,0,0,1,.94,1.82c.07.47-.33,1-.48,1.49" transform="translate(-256.82 -179.17)"/><path class="cls-7" d="M312.48,210.89h0" transform="translate(-256.82 -179.17)"/></g></g></g></g></g></svg>