<svg id="Layer_2" data-name="Layer 2" xmlns="http://www.w3.org/2000/svg" viewBox="0 0 142.23 76.6"><defs><style>.cls-1{fill:none;stroke:#1d1d1b;stroke-miterlimit:10;}.cls-2{fill:#444;}.cls-3{fill:#fafafa;}.cls-4{fill:#cdcccc;}.cls-5{fill:#a8a7a7;}</style></defs><title>apollo suit boots</title><path class="cls-1" d="M22,151.58" transform="translate(-232.48 -602.47)"/><path class="cls-2" d="M374.71,609.29v.15l-.46.23c-9.27,4.59-31.86,6-44.33,2.24l-.09,0a.77.77,0,0,1,0-.15l.11,0c1.4-2.11,9.17-6.39,13.83-7a69.07,69.07,0,0,1,18.51-.44C365.15,604.53,371.2,606.33,374.71,609.29Z" transform="translate(-232.48 -602.47)"/><path class="cls-3" d="M374.62,615.59c0,1.93,0,3.86,0,5.8H331.05a86.74,86.74,0,0,0-1.22-9.47l.09,0c12.47,3.77,35.06,2.35,44.33-2.24l.26.51C374.54,611.83,374.57,613.62,374.62,615.59Z" transform="translate(-232.48 -602.47)"/><path class="cls-4" d="M331.2,621.39h43.42c0,2.13-.1,4.26-.18,6.39h-42.9c-.17-2.36-.32-4.47-.49-6.38Z" transform="translate(-232.48 -602.47)"/><path class="cls-3" d="M331.54,627.78h42.9c-.1,2.61-.21,5.22-.29,7.82h-42q-.17-1.87-.3-3.75C331.73,630.41,331.63,629.06,331.54,627.78Z" transform="translate(-232.48 -602.47)"/><path class="cls-3" d="M374.3,650.32a51.6,51.6,0,0,1,0,7.17h-.07a16.42,16.42,0,0,0-6-4.72,17.53,17.53,0,0,0-4.74-1.3A55.75,55.75,0,0,0,346.2,651c-3.88.5-5,.71-5.92,1.07a15.64,15.64,0,0,0-6.56,5.24,150.51,150.51,0,0,0-1-15.29l.18,0H374C374,644.77,374.1,647.55,374.3,650.32Z" transform="translate(-232.48 -602.47)"/><path class="cls-4" d="M374.2,657.49h.07a59.39,59.39,0,0,1-.93,7.36h-.06c-1,1.66-4.45,4.8-8.84,7a20.57,20.57,0,0,1-9.35,2,23.59,23.59,0,0,1-12.91-3.08,26.62,26.62,0,0,1-8.14-7.21,29.61,29.61,0,0,1-.32-5.5v-.76a15.64,15.64,0,0,1,6.56-5.24c.88-.36,2-.57,5.92-1.07a55.75,55.75,0,0,1,17.29.48,17.53,17.53,0,0,1,4.74,1.3A16.42,16.42,0,0,1,374.2,657.49Z" transform="translate(-232.48 -602.47)"/><path class="cls-4" d="M332.13,635.6h42c-.07,2.13-.12,4.26-.12,6.39H332.92l-.18,0C332.54,639.87,332.32,637.74,332.13,635.6Z" transform="translate(-232.48 -602.47)"/><path class="cls-5" d="M373.28,664.84h.06c-.13.72-.29,1.46-.46,2.21a16.1,16.1,0,0,1-.95,3.16c-3,6.34-11.34,8.65-16.89,8.84a22.27,22.27,0,0,1-10.9-2.37,19.75,19.75,0,0,1-8.37-8.05,17.48,17.48,0,0,1-1.73-5.08,26.62,26.62,0,0,0,8.14,7.21,23.59,23.59,0,0,0,12.91,3.08,20.57,20.57,0,0,0,9.35-2C368.83,669.64,372.25,666.5,373.28,664.84Z" transform="translate(-232.48 -602.47)"/><path class="cls-3" d="M277.65,610.34a74.71,74.71,0,0,0-1.57,11.06H232.51c0-1.94,0-3.87,0-5.8.07-2.93.11-5.45.14-7.72h.2C241.81,612.64,265,614.17,277.65,610.34Z" transform="translate(-232.48 -602.47)"/><path class="cls-4" d="M276,621.39h.09c-.16,1.91-.32,4-.49,6.38h-42.9c-.08-2.13-.15-4.26-.18-6.39Z" transform="translate(-232.48 -602.47)"/><path class="cls-3" d="M232.69,627.78h42.9c-.09,1.28-.19,2.63-.29,4.07-.09,1.27-.19,2.54-.3,3.8l-.62,0H233C232.9,633,232.79,630.39,232.69,627.78Z" transform="translate(-232.48 -602.47)"/><path class="cls-4" d="M274.38,635.6l.62,0c-.19,2.11-.41,4.23-.62,6.34H233.1c0-2.13,0-4.26-.12-6.39h41.4Z" transform="translate(-232.48 -602.47)"/><path class="cls-3" d="M233.1,642h41.28a152.67,152.67,0,0,0-1,15.4,15.7,15.7,0,0,0-6.63-5.33c-.88-.36-2-.57-5.92-1.07a55.78,55.78,0,0,0-17.29.48,17.44,17.44,0,0,0-4.73,1.3,16.5,16.5,0,0,0-6,4.71,51.44,51.44,0,0,1,0-7.16C233,647.55,233.11,644.77,233.1,642Z" transform="translate(-232.48 -602.47)"/><path class="cls-4" d="M273.4,658.06a28,28,0,0,1-.3,5.37,26.38,26.38,0,0,1-8.22,7.34A23.59,23.59,0,0,1,252,673.85a20.55,20.55,0,0,1-9.35-2c-4.39-2.2-7.8-5.33-8.83-7h0a61.19,61.19,0,0,1-.92-7.36,16.5,16.5,0,0,1,6-4.71,17.44,17.44,0,0,1,4.73-1.3,55.78,55.78,0,0,1,17.29-.48c3.89.5,5,.71,5.92,1.07a15.7,15.7,0,0,1,6.63,5.33Z" transform="translate(-232.48 -602.47)"/><path class="cls-2" d="M263.81,603.32c4.66.64,12.44,4.91,13.84,7-12.69,3.83-35.84,2.3-44.8-2.47,3.51-3,9.57-4.76,12.45-5A69.05,69.05,0,0,1,263.81,603.32Z" transform="translate(-232.48 -602.47)"/><path class="cls-5" d="M273.1,663.43a16.94,16.94,0,0,1-1.75,5.21,19.7,19.7,0,0,1-8.37,8.05,22.22,22.22,0,0,1-10.89,2.37c-5.55-.19-13.92-2.5-16.9-8.84a15.73,15.73,0,0,1-.94-3.16c-.17-.75-.33-1.49-.46-2.21,1,1.66,4.44,4.79,8.83,7a20.55,20.55,0,0,0,9.35,2,23.59,23.59,0,0,0,12.91-3.08A26.38,26.38,0,0,0,273.1,663.43Z" transform="translate(-232.48 -602.47)"/></svg>