<svg xmlns="http://www.w3.org/2000/svg" viewBox="0 0 196.94 119.28"><defs><style>.cls-1{fill:none;}.cls-1,.cls-2{stroke:#ffeede;stroke-linecap:round;stroke-miterlimit:10;stroke-width:2px;}.cls-2{fill:#ffeede;}</style></defs><title>meet us</title><g id="Layer_2" data-name="Layer 2"><g id="Layer_5" data-name="Layer 5"><line class="cls-1" x1="30.11" y1="94.42" x2="30.11" y2="118.21"/><path class="cls-1" d="M67.72,33.75S53.93,3.24,83,1h48V22.51a11.41,11.41,0,0,1,0,11.24s.6,31.63-29.46,34.24S69.35,48.06,69.35,48.06Z"/><path class="cls-1" d="M77.66,62.46l-.42,10.41-5.88,5.49-.21,1.13L50.07,86.54s-5.55,2.4-6.35,10.53v18.75s2.24,5.37,5.7,0V97.07s.89-5.87,6.17-7.51l18.53-5.75c24.58,15.9,48.77,0,48.77,0l18.53,5.75c7.25,3.27,6.16,7.51,6.16,7.51v18.75c3.47,5,5.71,0,5.71,0s-.77-15.14,0-18.75-4.23-8.9-4.23-8.9l5.45-3"/><path class="cls-1" d="M119.58,61.24V72.87l7.75,8,15,3.77,8.1-2.73V78.42a23,23,0,0,1-9.16-19.37S131.38,45.36,149,36.54h37.27l.37,13.65s.8,4.1-3.05,8.87c0,0,3.76,10-9.16,19.52v3.35s15.36,4.23,17.26,6,4.44,1.07,4.27,16v11.88s-2.11,4.51-5.71,0V95.67s-.51-3.88-3-4.64-14.53-3.81-14.53-3.81l-3.58-.82"/><path class="cls-1" d="M49.62,86.35l-2.28-1s10.6-4.9,10.76-7.32c0,0,.79-.82,0-2.71,0,0-2.68-4.78-2.56-19,0,0-.66-7.14-3.53-10.63,0,0-18.61-23.93-41.48,0A24.36,24.36,0,0,0,6.88,59.1S6.63,70.19,5.12,73.83c0,0-2.57,3.53,0,5.07a26.2,26.2,0,0,0,10.15,6.44l-9.06,4s-4.74,2.82-5.19,8l0,18.54s2.49,5.53,5.71,0v-18s-.13-4.07,5.18-5.53L19.76,89s6.4,5.69,10.35,5.47c0,0,5.28,1.63,12.78-5.47l2.64,1.13"/><polyline class="cls-1" points="161.89 118.21 161.64 90.87 150.39 81.93"/><line class="cls-1" x1="174.4" y1="81.93" x2="161.64" y2="90.87"/><polyline class="cls-1" points="119.58 72.87 98.45 90.87 98.45 118.28"/><polyline class="cls-2" points="77.24 72.87 98.45 90.87 84.42 95.57 71.36 78.36"/><polyline class="cls-2" points="119.66 72.87 98.45 90.87 112.48 95.57 125.53 78.36"/></g></g></svg>