<svg xmlns="http://www.w3.org/2000/svg" viewBox="0 0 127.6 192.56"><defs><style>.cls-1{fill:#b7b7b7;}.cls-1,.cls-2,.cls-3,.cls-4{stroke:#1d1d1b;stroke-miterlimit:10;stroke-width:2px;}.cls-2{fill:#fff;}.cls-3{fill:none;}.cls-4{fill:#e52421;}.cls-5{fill:#1d1d1b;}</style></defs><title> erik-no-hand</title><g id="Layer_2" data-name="Layer 2"><g id="Vrstva_1" data-name="Vrstva 1"><path class="cls-1" d="M8.7,40.06s-18.57,11.08,2,24.12"/><path class="cls-1" d="M118.9,40.06s18.57,11.08-2,24.12"/><path class="cls-2" d="M25.67,171.59c0-3.92,4.26-24.61,4.26-24.61L59,142l36.81,4.86,4.55,26.29-26.89,1.7s-.17-10.21-9.7-11.74a11.82,11.82,0,0,0-1.28-.13c-8.47-.28-10.64,11-10.64,11Z"/><rect class="cls-2" x="20.39" y="96.55" width="84.26" height="50.42" rx="10.47"/><path class="cls-3" d="M88.31,125.29s6.13-18.6,16.34-13.89"/><path class="cls-3" d="M44.39,96.55c2,20.29-3.59,27.14-3.59,27.14s0-19.11-9.94-27.14"/><path class="cls-3" d="M40.8,123.69s-9.68-15-20.41-16.67"/><path class="cls-3" d="M79.12,125.29s-14.3,2-30.64,21.69"/><path class="cls-4" d="M79.34,121.56v.3a10.4,10.4,0,0,1-.43,3l-1-.07c-9.67-3.94-21.69-3.46-30.67-2.18,0-.23,0-.48,0-.72v-.3a10.47,10.47,0,0,1,10.47-10.47H68.88A10.46,10.46,0,0,1,79.34,121.56Z"/><rect class="cls-4" x="96.48" y="119.53" width="7.83" height="12.94" rx="3.83"/><line class="cls-3" x1="63.03" y1="162.22" x2="63.03" y2="146.97"/><path class="cls-4" d="M53.38,169.6a27.87,27.87,0,0,0-26.67-5.78"/><path class="cls-4" d="M72.25,169.6s10.68-12.43,26.64-5.14"/><path class="cls-1" d="M55.86,182.14c0,7.43-8.42,8.51-18.81,8.51s-18.81-1.08-18.81-8.51,8.43-13.44,18.81-13.44S55.86,174.72,55.86,182.14Z"/><path class="cls-1" d="M106.2,183c0,7.43-8.42,8.52-18.81,8.52S68.58,190.47,68.58,183,77,169.6,87.39,169.6,106.2,175.62,106.2,183Z"/><path class="cls-2" d="M119,48.49c0,24.53-24.92,57.19-55.66,57.19S7.72,73,7.72,48.49,32.64,1,63.38,1,119,24,119,48.49Z"/><path class="cls-5" d="M91.83,86.74H40.55C30.85,86.74,19,73.62,19,63.81V41.88A17.67,17.67,0,0,1,36.62,24.12H87.9a17.67,17.67,0,0,1,17.58,17.76V63.81C105.48,73.62,101.54,86.74,91.83,86.74Z"/><rect class="cls-2" x="16.14" y="47.98" width="38.81" height="10.72" rx="5.36" transform="translate(-17.79 88.89) rotate(-90)"/><path class="cls-3" d="M54.9,24.12S56,10,43.07,4.49"/><path class="cls-3" d="M73.16,24.12S72.11,10,85,4.49"/><path class="cls-3" d="M98.52,97.5c-14.3,8.47-10.21,27.79-10.21,27.79h-9.2c-.41-.19-.82-.36-1.24-.53-9.67-3.94-21.69-3.46-30.67-2.18a96.28,96.28,0,0,0-13,2.71"/></g></g></svg>