<svg xmlns="http://www.w3.org/2000/svg" viewBox="0 0 133.64 782.63"><defs><style>.cls-1{fill:#b8b5a7;stroke:#504f4e;}.cls-1,.cls-13,.cls-15{stroke-miterlimit:10;}.cls-2{fill:#1d1d1b;}.cls-3{fill:#58637c;}.cls-4{fill:#a19d9a;}.cls-5{fill:#bdbabd;}.cls-6{fill:#b5aca0;}.cls-7{fill:#cbbdab;}.cls-8{fill:#e6d2a3;}.cls-9{fill:#919199;}.cls-10{fill:#3e3e3d;}.cls-11{fill:#987f6b;}.cls-12{fill:#a8a599;}.cls-13,.cls-15{fill:none;}.cls-13{stroke:#873e1e;stroke-width:0.75px;}.cls-14{fill:#d1b186;}.cls-15{stroke:#d1b186;}.cls-16{fill:#989491;}.cls-17{fill:#a9a5a2;}.cls-18{fill:#4a5368;}.cls-19{fill:#fff;}.cls-20{fill:#58627b;}.cls-21{fill:#bcad87;}.cls-22{fill:#2b2827;}.cls-23{fill:#615144;}.cls-24{fill:#2b2b2a;}.cls-25{fill:#e0e0e0;}.cls-26{fill:#474746;}.cls-27{fill:#c9caca;}.cls-28{fill:#aca8a5;}.cls-29{fill:#bfb5a9;}.cls-30{fill:#bfbbad;}</style></defs><title>Apollo 11</title><g id="Layer_2" data-name="Layer 2"><g id="shadows"><polygon class="cls-1" points="66.44 45.12 66.44 5.86 68.17 1.54 69.9 7.58 69.9 45.12 72.48 47.28 72.48 63.67 81.55 75.32 81.55 107.25 90.17 165.5 92.33 256.1 104.84 293.21 104.84 486.93 102.69 488.66 108.73 708.27 132.03 724.24 92.33 724.24 95.5 733.44 57.24 733.44 61.84 725.39 48.9 725.39 52.92 738.9 16.97 738.9 24.79 704.98 30.49 680.23 31.5 488.23 30.2 485.64 30.63 463.2 30.2 444.22 32.79 436.45 28.91 424.8 28.05 394.6 31.07 384.68 31.5 291.92 44.01 255.24 44.87 164.63 54.8 107.25 54.8 77.05 62.56 62.38 62.56 47.71 66.44 45.12"/><polygon class="cls-2" points="0 719.06 24.79 704.98 18.96 730.27 0 730.27 0 719.06"/><polygon class="cls-2" points="47.46 724.24 20.35 724.24 17.24 737.75 52.92 738.9 47.46 724.24"/><polygon class="cls-2" points="61.84 725.39 65.58 720.5 89.46 720.5 95.5 733.44 57.24 733.44 61.84 725.39"/><polygon class="cls-2" points="49.19 627.88 76.37 627.88 77.66 720.5 65.58 720.5 63.42 723.32 49.19 723.32 49.19 627.88"/><polygon class="cls-2" points="98.66 630.18 103.26 630.18 105.28 724.24 98.66 724.24 98.66 630.18"/><path class="cls-2" d="M75.94,480.71c-5.76-1.33-26.47,0-26.47,0v-64a24.85,24.85,0,0,0-10.35,0V411s41.71-10.07,65.72,2.59v6.32S96.65,414.16,78,415Z"/><polygon class="cls-2" points="98.08 419.34 98.08 483.77 104.84 486.93 104.84 419.91 98.08 417.05 98.08 419.34"/><path class="cls-2" d="M90.17,165.5c-22.86-14.24-45.3-.87-45.3-.87l-.17,18s23.42-12.08,45.88,0Z"/><path class="cls-3" d="M81.55,97.47c-11.65-4.6-26.75,0-26.75,0V77.05l7.76-14.67V47.71l3.88-2.59H69.9l2.58,2.16V63.67l9.07,11.65Z"/><path class="cls-4" d="M104.84,292.31C67.31,274.62,31.5,291,31.5,291L44,254.34s26.53-15.53,48.32.86Z"/><path class="cls-5" d="M44.16,239.71s29.49-11.87,47.78,0l-1.36-49.4c-28.5-9.5-45.88,1.07-45.88,1.07Z"/><polygon class="cls-2" points="108.73 708.27 104.79 701.56 105.28 724.24 132.03 724.24 108.73 708.27"/><path class="cls-6" d="M34.52,413.59c43.43-15.54,70.32,0,70.32,0V310.25c-49.4-15.53-73.34,1.3-73.34,1.3l-.44,73.13Z"/><path class="cls-2" d="M38.09,272.59s6.49-4.55,13.68-4l-2.58,18.69a30.28,30.28,0,0,0-17.69,4.6l6.12-18Z"/><path class="cls-2" d="M92.33,256.1l-5.46-4.45,11.21,38.54c6,.86,6.76,3,6.76,3Z"/><polygon class="cls-7" points="75.65 377.06 78.24 377.06 79.68 386.55 80.83 455.01 79.68 459.89 78.24 459.89 75.65 386.55 75.65 377.06"/><path class="cls-8" d="M49.19,680.23c-8.85-4.1-18.7,0-18.7,0l-10.14,44H49.19Z"/><path class="cls-8" d="M77.66,720.5l14.67,3.73-8.41-44s-4.32-3-6.26,0Z"/><path class="cls-9" d="M72.48,63.67c-3.39-4.37-9.92-1.29-9.92-1.29L54.8,77.05s9.34-8.34,26.75-1.73Z"/><polygon class="cls-2" points="66.44 5.86 69.9 7.58 68.17 1.54 66.44 5.86"/><polygon class="cls-2" points="62.56 47.71 72.48 47.28 69.9 45.12 66.44 45.12 62.56 47.71"/><path class="cls-3" d="M81.55,107.25c-12.52-8.63-26.75,0-26.75,0V97.47h2.44v7.19c6.33-7.48,24.31-1.15,24.31-1.15l.17,4.89"/><polygon class="cls-10" points="70.72 767.5 68.14 737.58 61.81 723.78 52.31 723.78 44.26 738.73 41.89 762.99 41.89 767.5 70.72 767.5"/><polygon class="cls-10" points="110.85 768.41 108.26 738.5 101.93 724.69 92.44 724.69 84.39 739.65 82.01 763.91 82.01 768.41 110.85 768.41"/><polygon class="cls-11" points="88.92 777.16 86.33 747.25 80 733.44 70.51 733.44 62.45 748.4 60.08 772.65 60.08 777.16 88.92 777.16"/><polygon class="cls-11" points="49.19 782.63 46.6 752.71 40.27 738.9 30.78 738.9 22.72 753.86 20.35 778.12 20.35 782.63 49.19 782.63"/><path class="cls-12" d="M31.91,678.86l13.53-1.27c1.28-.13,3.15.34,2.89,1.6l.26-14.12,0,3,.59-22.84a10.4,10.4,0,0,0,2.06,2.94,9.05,9.05,0,0,0-.49-5.32,37.68,37.68,0,0,1-2.9,14.7c1.18-6.37.26-13.87-4.93-17.73,4.74-11.55,9.53-23.32,10.62-35.76.42-4.86.27-9.75.41-14.63.22-7.44,1.11-14.91.26-22.31-.58-5.08-2-10-2.65-15.09a108.27,108.27,0,0,1-.69-14l-.31-42.77c0-2.79.81-6.53,3.61-6.59,2.62,0,3.74,3.28,4,5.89a212.64,212.64,0,0,1,.45,42.21c1.84-3.72,1.86-8,1.83-12.19L60.26,485A53.38,53.38,0,0,0,46.6,485c-3.54.47-9.86,1-12.75,3.34-1.93,1.53-1.09,6-1.11,8.56l-.11,15.92-.31,47.79-.37,55L31.65,661l-.13,18.87"/><path class="cls-13" d="M39.84,634.78V643c-2.88,6-4.76,0-4.76,0v-8.2"/><path class="cls-13" d="M36.24,660.09H39c3-2.16.29-4.74.29-4.74H36.39a2.67,2.67,0,0,1,0-4.18h3.45"/><line class="cls-13" x1="36.87" y1="671.61" x2="39.11" y2="671.74"/><path class="cls-13" d="M92.33,634.78v6.76c-3.31,6.47-6,0-6,0v-6.76"/><path class="cls-13" d="M92.33,652.25V650.6a1.39,1.39,0,0,0-1.58-1c-1.37.07-3.31,0-3.31,0s-1.36.29-1.15,2.16.79,2,.79,2l3.09.79s2.45.51,2.16,1.73V658S92,659.88,91,659.52l-2.88,0a2.2,2.2,0,0,1-1.87-2.27"/><polyline class="cls-13" points="86.29 674.76 88.52 664.84 89.67 664.84 92.33 674.76"/><line class="cls-13" x1="86.97" y1="671.74" x2="91.52" y2="671.74"/><polyline class="cls-13" points="35.81 675.6 36.87 666.42 37.99 666.42 39.84 675.6"/><path class="cls-12" d="M31.52,485.31v-16.5l-.46-23.73L33.87,436,30.56,424.8l-1.65-29.34,2.48-8.07a47.21,47.21,0,0,1,1.31,12.49,26.86,26.86,0,0,0,.1,4.21,20.9,20.9,0,0,0,.89,3.48l2.09,6.58A7.14,7.14,0,0,0,37,416.74c2,2.3,5.76,1,8.82,1.31,1.09.11,2.45,1.14,1.79,2-2,.12-4.06-.26-6.1-.32a8.63,8.63,0,0,0-5.77,1.53c-1.58,1.29-2.29,3.78-1.09,5.43,1.89,2.58,6.19,1.15,8.93,2.8a8.27,8.27,0,0,1-5.11,1c-.49.95,1,1.66,2,1.82s2.4,1.21,1.66,2-2.14.11-2.32,1c1.21,1.1,3.08.78,4.71.73s3.7.79,3.61,2.42L38.54,438a2,2,0,0,0-1.33.27,2,2,0,0,0-.54,1.22l-1.23,6.8,7.7,0a4.85,4.85,0,0,1,2.77.59,1.65,1.65,0,0,1,.38,2.46A13.12,13.12,0,0,0,40.5,448c-2,.14-4,1.5-4.3,3.48a5.7,5.7,0,0,0,0,1.37c.32,2.75,1.68,5.85,4.4,6.37,1.37.26,2.76-.21,4.16-.29s3.05.49,3.37,1.85a59.06,59.06,0,0,0-8.2.06c-1,.07-2.07.28-2.49,1.14a2.93,2.93,0,0,0-.18,1.25l0,4.85,7.17.12a2.9,2.9,0,0,1,1.65.34c1.08.72.7,2.57-.41,3.25A4.93,4.93,0,0,1,42,472a10,10,0,0,0-3.81-.6,1.11,1.11,0,0,0-.76.37,1.16,1.16,0,0,0-.12.9,18.89,18.89,0,0,0,1.23,4.68c1.7.19,3.38-.43,5.08-.5s3.72.76,4,2.45l-4.83.14a3.79,3.79,0,0,0-2.06.45,1.34,1.34,0,0,0-.44,1.85,2.67,2.67,0,0,0,2.55-.28,2.33,2.33,0,0,1,.4,1.79C39.36,483.75,35.36,485.31,31.52,485.31Z"/><path class="cls-14" d="M102.69,488.66c-30.64-10.57-71.19-.43-71.19-.43l-1.3-2.59s44.87-11.87,74.64,1.29Z"/><path class="cls-15" d="M28.91,424.8s42.42-14.95,75.93,0"/><path class="cls-15" d="M30.63,466.54s41.47-15,74.21,0"/><path class="cls-12" d="M31.06,384.68l.44-73.13s1.58-6.75,35.38-7.87c0,.63.37,1,.34,1.64-3.22,2.36-8.07,1.18-11.3,3.52-3.67,2.64-3.33,8.15-2.2,12.53s2.6,9.32.17,13.13c-1.21,1.9-3.39,3.66-2.89,5.85.76,3.27,6,2.57,8.23,5.09-2.58.41-5.23.84-7.45,2.21s-3.93,3.91-3.5,6.49c.5,3,3.71,4.94,6.76,5.41s6.18,0,9.25.36a15.66,15.66,0,0,1,7.15,2.84,44.84,44.84,0,0,0-18.62,5.88c-2,1.17-4.14,2.94-4,5.25q10.93.53,21.88.27a1.32,1.32,0,0,1-.19,1.87,3.73,3.73,0,0,1-2,.74l-9.89,1.77c-2.15.39-4.5.88-5.87,2.59s-1.36,3.86-1.35,5.93a2.23,2.23,0,0,0,.51,1.76,2.19,2.19,0,0,0,1.51.35l7.8-.08a3.19,3.19,0,0,1,1.89.39,3.13,3.13,0,0,1,.91,2.62l.37,13.36a1.93,1.93,0,0,1-.3,1.36,2,2,0,0,1-1.47.46A225.87,225.87,0,0,0,36,409.56c-.51-2.36-.16-4.81-.13-7.22C35.88,396.17,33.15,390.48,31.06,384.68Z"/><path class="cls-13" d="M64.66,311.17v3.61c-1.51,3.35-3.12,0-3.12,0v-3.61"/><polyline class="cls-13" points="65.04 317.53 65.04 317.96 65.04 322.76 64.02 322.71 62.08 317.96 61.1 317.96 61.1 323.09 61.1 323.41"/><line class="cls-13" x1="63.07" y1="323.95" x2="63.07" y2="329.02"/><polyline class="cls-13" points="60.57 330.75 63.1 330.75 65.37 330.75"/><line class="cls-13" x1="63.1" y1="335.33" x2="63.1" y2="330.75"/><polyline class="cls-13" points="64.83 336.84 61.48 336.84 61.48 339.02 61.48 341.21 64.83 341.21"/><line class="cls-13" x1="63.07" y1="339.32" x2="61.48" y2="339.32"/><path class="cls-13" d="M61.48,343.85v4.26h2.11s1,.38,1.24-1a12.42,12.42,0,0,0,0-3,1.69,1.69,0,0,0-.92-.75,8.63,8.63,0,0,0-2.43,0Z"/><path class="cls-13" d="M64.17,355.05v-.73a.63.63,0,0,0-.7-.45c-.61,0-1.47,0-1.47,0s-.6.13-.51,1,.35.89.35.89l1.37.35s1.09.23,1,.77v.76s-.13.83-.57.67l-1.28,0a1,1,0,0,1-.83-1"/><line class="cls-13" x1="64.83" y1="361.27" x2="61.11" y2="361.27"/><line class="cls-13" x1="63.07" y1="365.75" x2="62.97" y2="361.49"/><line class="cls-13" x1="64.88" y1="373.42" x2="61.16" y2="373.42"/><line class="cls-13" x1="63.13" y1="377.9" x2="63.02" y2="373.64"/><path class="cls-13" d="M64.17,387.31v-.74a.62.62,0,0,0-.7-.44c-.61,0-1.47,0-1.47,0s-.6.13-.51.95.35.9.35.9l1.37.35s1.09.22,1,.76v.77s-.13.82-.57.66l-1.28,0a1,1,0,0,1-.83-1"/><polyline class="cls-13" points="64.84 379.58 61.5 379.58 61.5 381.77 61.5 383.95 64.84 383.95"/><line class="cls-13" x1="63.09" y1="382.06" x2="61.5" y2="382.06"/><polyline class="cls-13" points="61.79 371.52 62.81 366.97 63.34 366.97 64.56 371.52"/><line class="cls-13" x1="62.1" y1="370.14" x2="64.19" y2="370.14"/><path class="cls-16" d="M39.42,271a17.87,17.87,0,0,1,6-2.51,9.82,9.82,0,0,0,2.62-.74,7.79,7.79,0,0,0,1.48-1.08l12.61-10.91a36.7,36.7,0,0,0,7.45-8.05C58.15,246,44,254.34,44,254.34L31.5,291.91"/><path class="cls-17" d="M44.16,239.71l.54-48.33s6.07-5.32,23.25-5A24.89,24.89,0,0,0,65.85,203,36,36,0,0,1,67,208.85c.21,5.22-3.54,9.94-3.57,15.16,0,2.09.58,4.13.64,6.21s-.59,4.4-2.38,5.46a9.35,9.35,0,0,1-4.41.8c-4.4.22-8.64,1.67-12.82,3.09C44.4,240.14,44.24,239.14,44.16,239.71Z"/><path class="cls-17" d="M69.61,247.69C55.41,245,44,254.34,44,254.34l.69-71.73"/><path class="cls-17" d="M44.87,164.63l9.93-57.38s2.5-2.81,12.84-3.79c-2.51,2.63-3.61,6.83-3.75,10.47s.33,7.29,0,10.92c-.55,6.58-3.61,13.24-1.67,19.56,1.46,4.75,5.54,8.36,7,13.11a1.49,1.49,0,0,1-.06,1.38,1.58,1.58,0,0,1-1.14.44C59.86,160.1,51.68,160,44.87,164.63Z"/><path class="cls-18" d="M53.65,97.47l14.61-2c-.11-3.32,0-6.92-.11-10.23a9.77,9.77,0,0,0-.28-2.36c-.17-.59-.45-1.15-.64-1.74-.87-2.77.5-5.74.33-8.64a8.14,8.14,0,0,0-4.86,1Q59,75.13,55.38,77a1.44,1.44,0,0,0-.84,1.57C54.2,84.69,54,91.38,53.65,97.47Z"/><path class="cls-19" d="M61.7,74.6l.43,3.82a5.43,5.43,0,0,0-4.6.86l-.29-3.74S59.4,73.74,61.7,74.6Z"/><path class="cls-19" d="M67.74,73.81l.43,3.81a5.46,5.46,0,0,0-4.6.87l-.29-3.74S65.44,73,67.74,73.81Z"/><path class="cls-20" d="M54.92,77.35l7.64-15c1.48,0,2.86-1.19,4.3-1.54a3.33,3.33,0,0,1-.59,3.62c-.81,1-1.9,1.78-2.73,2.79-1.59,2-2,4.58-2.32,7.07a.88.88,0,0,1-.22.57,1,1,0,0,1-.73.13C58.31,74.9,55.88,75.63,54.92,77.35Z"/><path class="cls-21" d="M49.19,680.23v44H34.77a2.57,2.57,0,0,1-1.23-2.8c.2-1,.76-2,1-3,.54-2.2-.38-4.51-.13-6.76.36-3.26,3-5.71,4.6-8.58a13.54,13.54,0,0,0,1.56-4.8,39.42,39.42,0,0,1,.56-5c.89-3.34,4-6.31,3.15-9.68-.27-1.13-1-2.31-.48-3.37a2.27,2.27,0,0,1,2.51-1A7,7,0,0,1,49.19,680.23Z"/><path class="cls-22" d="M24.79,705,19,730.27H0c1.86-1.28,3.94-3,4.24-5.24a11.82,11.82,0,0,1,.13-1.18c.36-1.55,2.1-2.34,3.68-2.57s3.26-.16,4.64-1a7.94,7.94,0,0,0,1.3-1l2.45-2.17A16.54,16.54,0,0,0,20,713.28a33.38,33.38,0,0,0,1.8-4.61A6.67,6.67,0,0,1,24.79,705Z"/><path class="cls-22" d="M66.91,627.88H74.5c0,8.25.1,17.08.07,25.33,0,11.12-.1,22.27-1.43,33.3-.32,2.68-.72,5.36-.93,8-.22,3-.21,6-.2,9l.08,16.05c0,.86-.1,1.92-.89,2.29-.94-.31-1.12-1.54-1.14-2.53q-.81-40.17.29-80.35c.06-1.93.05-4-1.18-5.55C68,638.38,68,643.48,68,648.53l.1,19.85c0,7.14,0,14.57-3.13,21-2-18.72,2.48-37.66.75-56.4a2.47,2.47,0,0,0-.25-1c-.45-.75-1.51-.78-2.39-.71-1,.08-2.26.27-2.74,1.2a3.11,3.11,0,0,0-.19,1.66l.49,6.66a2.78,2.78,0,0,1-1.67.42,72.07,72.07,0,0,1-.14-13.54A8.11,8.11,0,0,0,66.91,627.88Z"/><path class="cls-22" d="M100.53,630.18h2.73l1.5,70.1,4,8,23.3,16H98.66a58.56,58.56,0,0,0,3.23-9.8,56.31,56.31,0,0,0,.83-10.7q.42-34-1.68-68C100.93,633.92,100.68,632,100.53,630.18Z"/><path class="cls-23" d="M30.78,738.9l-8.06,15-1.64,16.77c2.35,0,5.81.23,6.85-1.87a5.58,5.58,0,0,0,.39-2.6l-.11-8.78a10.19,10.19,0,0,1,.25-2.92,14.22,14.22,0,0,1,2.34-4,19,19,0,0,0,3.3-11.12A19.65,19.65,0,0,0,30.78,738.9Z"/><path class="cls-23" d="M70.51,733.44l-8.06,15-2,20s17.88-9.33,27.66,0L87,760.77a23.9,23.9,0,0,1-5.42-2.31l-1.28-.63a4.09,4.09,0,0,1-1.86-1.46,4.7,4.7,0,0,1-.38-1.79,14.11,14.11,0,0,0-2-5.9,13.06,13.06,0,0,1-1.85-3.47,11.72,11.72,0,0,1-.19-2.58C73.92,739.53,72.24,736,70.51,733.44Z"/><path class="cls-24" d="M52.32,723.78l-8.06,15-.71,7.32,3.05,6.66c1.79-2.1,2.19-5,2.24-7.77a33,33,0,0,1,2.35-11.66,8.1,8.1,0,0,1,3-4.17c1.53-.9,3.44-.83,5.12-1.42s3.22-2.5,2.32-4c-.79-1.36-2.76-1.26-4.32-1S54,723.78,52.32,723.78Z"/><path class="cls-24" d="M84.38,739.65l8.06-15,9.53.08c-2.3.84-1.11,5.16-2.8,6.92A14.15,14.15,0,0,1,97.35,733c-1.79,1.41-2.31,3.87-2.63,6.12A96.4,96.4,0,0,0,94,759l9.69-.78c1.7-.14,3.65-.19,4.86,1s1.16,3,1.11,4.56a4.5,4.5,0,0,1-.62,2.59c-.87,1.15-2.55,1.18-4,1.1l-15.29-.87a1.43,1.43,0,0,1-.79-.19,1.52,1.52,0,0,1-.46-1.1,123.39,123.39,0,0,1-.84-16.08c0-2,0-4.18-1.28-5.66C85.6,742.7,83.8,740.7,84.38,739.65Z"/><path class="cls-21" d="M92.44,724.69l-8.42-44c-1.32-.67-3.35-.83-4.66-1.5-.21,3.08,1.73,5.88,2.36,8.91a28.72,28.72,0,0,1,.25,5.72,85.32,85.32,0,0,0,1,11.28l1.84,13.77c.25,1.86,1,4.23,2.91,4.23.72,0,1.48-.38,2.11,0a2.17,2.17,0,0,1,.84,1.51,2,2,0,0,0,.9,1.47C92.11,726.32,92.83,725.15,92.44,724.69Z"/><path class="cls-25" d="M69.62,66a44.89,44.89,0,0,1-.86-8.43l-.33-8.42a3.69,3.69,0,0,1,.18-1.59,1.24,1.24,0,0,1,1.25-.82c.93.15,1,1.43,1,2.38a41.36,41.36,0,0,0,.82,9.91l.8,4.92c.24,1.46,3.4,9.08,2.66,9.54C72.44,75.11,69.92,67.35,69.62,66Z"/><path class="cls-25" d="M72.87,95.22l-1.72.28c-.42.32.3.82.81,1a2.86,2.86,0,0,1,1.46,4.23,7.16,7.16,0,0,0-3.22-.26,4.57,4.57,0,0,0-.34,2.31,3.91,3.91,0,0,1,3.47,2.56,11.53,11.53,0,0,1,.62,4.5l.17,43.31c0,3-.59,6.75-3.47,7.42,1.28,1.5,3.55-.82,5.52-.71a4.37,4.37,0,0,1,1.56.49l2.88,1.29c.73-.62.42-1.86-.23-2.57s-1.54-1.2-2.06-2a5.42,5.42,0,0,1-.61-2.73c-.68-16.48,1.38-33.16-1.5-49.4a1.32,1.32,0,0,0,1.8-1.19l-2.77-.39a15.07,15.07,0,0,1,.12-5.6A4.52,4.52,0,0,0,79,97.09c-1.7.22-3.26-1.22-3.79-2.85a11.26,11.26,0,0,1,0-5.1L77,77.56A3.53,3.53,0,0,0,76.71,75c-2.52-3.65-3.51,6.7-3.59,7.5C73,83.58,72.68,95.25,72.87,95.22Z"/><path class="cls-26" d="M80.56,169.9c.24,1.13,1.19,2.35.51,3.28a3,3,0,0,1-1.68.82c-.61.18-1.28.64-1.22,1.27s.68,1.17.31,1.6a.9.9,0,0,1-.43.23,28.12,28.12,0,0,1-3.83.93.91.91,0,0,1-.65-.05.77.77,0,0,1-.29-.62c-.2-2.35,2.4-5.29,2.78-7.78.33-2.09-.24-5,1-6.88,1-1.5,2.77-2.39,4.34-.67C83.64,164.47,80,167.26,80.56,169.9Z"/><path class="cls-27" d="M78.12,196.39,78.05,228a65.63,65.63,0,0,0,.82,12.92c.32,1.66.77,3.41.2,5s-2.69,2.73-4,1.65c0,.53.6.82,1.1,1l11,4,.29-3.39c-3-.69-4.88-3.78-5.26-6.8s.4-6.07,1-9.07a69.34,69.34,0,0,0,.24-24.88A79.12,79.12,0,0,1,82,199.63c-.21-3.77.42-7.65-.66-11.27-.88-3-2.84-6.34-1.05-8.88-1.35-.59-2.88-1.5-4.27-1.2A73.91,73.91,0,0,1,78.12,196.39Z"/><path class="cls-28" d="M83.42,284.68a6.61,6.61,0,0,0-2.61.32c1.17,1.53,3.42,1.51,5.35,1.54A28.17,28.17,0,0,1,95,288.11c.83-2.47-1.61-4.66-3.35-6.59-3-3.32-4.38-7.77-5.18-12.17s-1.1-8.88-2.32-13.18a5.73,5.73,0,0,1-.28-3.57c.45-1.13,2.21-1.73,2.88-.71.53-.25.45-1.11,0-1.47a2.61,2.61,0,0,0-1.68-.36c-2,0-6.3-.76-7.16,1.59-.71,1.95,2.31,8.18,2.78,10.42A177.15,177.15,0,0,1,83.42,284.68Z"/><path class="cls-29" d="M84.34,290.66c3.31,2.77,3.67,7.64,3.78,12,.07,2.85.11,5.85-1.25,8.35-.52.95-1.24,1.9-1.15,3a5,5,0,0,0,.87,2c2.53,4.27,2.51,9.52,2.42,14.48L87.68,402c0,2.25-.71,5.21-3,5.33A26.68,26.68,0,0,1,98,411.7a2.86,2.86,0,0,0-.81-3.78,9,9,0,0,1-1.7-1,3.38,3.38,0,0,1-.67-2.19,134.15,134.15,0,0,1,0-16.29,11.36,11.36,0,0,1,.74-4c.77-1.72,2.32-3,3.17-4.66a13.21,13.21,0,0,0,1-5.86c.29-21.92.53-44.2-5.36-65.31C93.3,304.8,92,301,91.14,297.17a8.66,8.66,0,0,1-.19-4.51,3.27,3.27,0,0,1,3.39-2.44c.82-.53.44-1.93-.42-2.39a5.18,5.18,0,0,0-2.88-.2,15.06,15.06,0,0,1-5-.26c-.76-.19-2.76-1.53-3.46-1.35C79.59,286.8,83.07,289.6,84.34,290.66Z"/><path class="cls-30" d="M79.29,499.87c2.07,7.57,2.08,15.54,2.08,23.39V600a31.3,31.3,0,0,0,.81,8.65,25.2,25.2,0,0,0,2.71,5.87,63.56,63.56,0,0,0,7.17,9.77,15.7,15.7,0,0,1,2.57,3.36c1.08,2.12,1.28,5,3.39,6.11-.46-2,1.13-3.71,1.86-5.57a13.3,13.3,0,0,0,.57-5.15l-.8-39.9c-.11-5.16-.21-10.32-.65-15.46-.4-4.83-1.1-9.62-1.53-14.44-1.87-21.19,1.45-42.88-3.36-63.59-1.26-5.47-9.29-6.13-14.15-4.88C73.36,486.47,78.12,495.59,79.29,499.87Z"/></g></g></svg>