<svg xmlns="http://www.w3.org/2000/svg" xmlns:xlink="http://www.w3.org/1999/xlink" viewBox="0 0 241.81 511.11"><defs><style>.cls-1{fill:#e41213;}.cls-2{fill:#e8e8e8;}.cls-3{fill:#f8f7f7;}.cls-4{fill:#346fb6;}.cls-5{fill:#fbf6e7;}.cls-6{fill:#eaeaea;}.cls-7{fill:#efefef;}.cls-8{fill:#d7d7d7;}.cls-9{fill:#1d1d1b;}.cls-10,.cls-11,.cls-12{fill:none;stroke-miterlimit:10;}.cls-10{stroke:#d7d8d7;}.cls-11{stroke:#000;opacity:0.5;}.cls-12{stroke:#a0a09f;stroke-width:0.25px;}.cls-13{fill:#a0a09f;}.cls-14{fill:#a8a8aa;}.cls-15{fill:#def0f9;}.cls-16{fill:#cdac83;}.cls-17{fill:#5a5a5a;}.cls-18{fill:#fff;}.cls-19{fill:#ccbdac;}.cls-20{fill:url(#radial-gradient);}.cls-21{fill:url(#radial-gradient-2);}.cls-22{fill:url(#radial-gradient-3);}.cls-23{fill:url(#radial-gradient-4);}.cls-24{fill:url(#radial-gradient-5);}.cls-25{fill:#d7d8d7;}.cls-26{fill:#d8d8d8;}.cls-27{opacity:0.51;}.cls-28{fill:#9e8455;}</style><radialGradient id="radial-gradient" cx="134.49" cy="55.65" r="13.28" gradientUnits="userSpaceOnUse"><stop offset="0" stop-color="#fff"/><stop offset="0.85"/></radialGradient><radialGradient id="radial-gradient-2" cx="166.97" cy="38.24" r="1.92" xlink:href="#radial-gradient"/><radialGradient id="radial-gradient-3" cx="167.31" cy="28.9" r="1.59" xlink:href="#radial-gradient"/><radialGradient id="radial-gradient-4" cx="74.41" cy="28.71" r="1.39" xlink:href="#radial-gradient"/><radialGradient id="radial-gradient-5" cx="74.57" cy="37.76" r="1.55" xlink:href="#radial-gradient"/></defs><title>emu space suit</title><g id="Layer_2" data-name="Layer 2"><path class="cls-1" d="M337.7,469.07h0c-.17,1.5-.31,2.66-.39,3.21a1.16,1.16,0,0,1-.28.7c-.64.68-2.55.57-2.89.53H334c-16.71-1.44-39.38-2.19-55.81-4.48l-.24,0c.11-1.55.19-2.83.29-4.27Z" transform="translate(-223.75 -114.78)"/><path class="cls-2" d="M407.49,415.21c.13,3.39.36,10.06.77,16.41.66,10.2,1.27,15.35,2.17,25.66.29,3.41.46,5.57.59,7.45h0l-59.41,4.34c-.65-5.91-1.8-17.11-1.8-17.11-.06-.52,0,.1-.85-5.79-1.27-8.71-1.9-13.06-1.88-13.62.11-2.41.52-5-.85-8.17a8.24,8.24,0,0,0-.41-.84,0,0,0,0,0,0,0,1.33,1.33,0,0,0-1.16-1.32,1.36,1.36,0,0,0-1.17,1.4c-.12.23-.25.49-.37.77-1.37,3.13-1,5.76-.86,8.17,0,.56-.6,4.91-1.87,13.62-.85,5.89-.8,5.27-.85,5.79,0,0-1.15,11.2-1.8,17.11h0l-59.42-4.34c.13-1.88.3-4,.59-7.45.9-10.31,1.51-15.46,2.17-25.66.41-6.35.64-13,.77-16.41l.09-.1h0c2.92,2.64,2.61,2,4.24,3.74,1.85,1.93,1.91,1.55,3.84,3l.37.29a2.76,2.76,0,0,0,1.41.64,3,3,0,0,0,2-.64,6,6,0,0,0,1.91-2.94,17.65,17.65,0,0,0,1-4.08,13.24,13.24,0,0,0,.26-3.83,10.1,10.1,0,0,0-2-4.72c-.12-.16-.25-.33-.4-.51a56.26,56.26,0,0,0-5.35-4.86c-1.51-1.29-2.92-2.7-4.47-4-.23-.2-.75-.73-1.78-1.79-.73-.75-1-1-.9-1.28.15-.46,1.29-.49,2.05-.51a7.24,7.24,0,0,1,3.7.64,4.82,4.82,0,0,1,1,.67,11,11,0,0,0,1.45,1,3.55,3.55,0,0,0,1.79.64,2.07,2.07,0,0,0,1.53-.51c.12-.13.44-.52.39-1.79a7.67,7.67,0,0,0-.51-2.43c-.19-.44-.38-.87-.57-1.28a66.38,66.38,0,0,0-6.2-11.48c-.9-1.22-1.64-2.2-2.28-3l.11-.09,0-2.18h0a126.24,126.24,0,0,0,13.24,13.79c4.26,3.66,6.94,5.94,11.23,7.92,4.14,1.91,7.43,2.47,13.15,3.44A115.71,115.71,0,0,0,338,400.47c2.46.09,4.57.12,6.19.12h1c1.62,0,3.73,0,6.19-.12a115.71,115.71,0,0,0,15.83-1.41c5.72-1,9-1.53,13.15-3.44s7-4.26,11.23-7.92a128.15,128.15,0,0,0,13.24-13.79h0l0,2.18.11.09a2.75,2.75,0,0,0-.22.26c-.58.73-1.25,1.63-2.06,2.71a66.65,66.65,0,0,0-6.19,11.45l-.58,1.31a7.67,7.67,0,0,0-.51,2.43c-.05,1.27.27,1.66.39,1.79a2.06,2.06,0,0,0,1.53.51,3.49,3.49,0,0,0,1.78-.64,10.75,10.75,0,0,0,1.49-1,4.52,4.52,0,0,1,.94-.64,7.24,7.24,0,0,1,3.7-.64c.75,0,1.9.05,2.05.51.07.25-.17.53-.9,1.28-1,1.06-1.55,1.59-1.79,1.79-1.54,1.25-2.95,2.66-4.46,4a58,58,0,0,0-5.3,4.8q-.26.3-.45.57a10.1,10.1,0,0,0-2,4.72,13.54,13.54,0,0,0,.25,3.83,18,18,0,0,0,1,4.08,6,6,0,0,0,1.91,2.94,3,3,0,0,0,2,.64,2.76,2.76,0,0,0,1.41-.64l.4-.31c1.9-1.46,2-1.09,3.81-3,1.63-1.71,1.32-1.1,4.24-3.75Z" transform="translate(-223.75 -114.78)"/><path class="cls-3" d="M279.13,371.3l.22.14a1.54,1.54,0,0,0-.09.94c.25,1,1.77,1.32,2.42,1.53a5.92,5.92,0,0,1,2.48,2c.07.09.15.17.22.27.64.77,1.38,1.75,2.28,3a66.38,66.38,0,0,1,6.2,11.48A20.32,20.32,0,0,0,288.8,395l0,0a4.82,4.82,0,0,0-1-.67,7.24,7.24,0,0,0-3.7-.64c-.76,0-1.9.05-2.05.51-.07.25.17.53.9,1.28,1,1.06,1.55,1.59,1.78,1.79,1.55,1.25,3,2.66,4.47,4a56.26,56.26,0,0,1,5.35,4.86,57.89,57.89,0,0,1-1.32,7.14,40.49,40.49,0,0,1-1.61,5.2,33.8,33.8,0,0,1-1.62,3.42l0,0c-1.93-1.48-2-1.1-3.84-3-1.63-1.7-1.32-1.1-4.24-3.74h0c-.52-.48-1.13-1-1.88-1.75-1.73-1.62-3.26-3.06-5.23-5.1-1.27-1.31-2.27-2.43-4.22-4.6-6-6.71-6.72-7.9-7.14-8.68,0,0,0,0-2.43-5.11a13.13,13.13,0,0,1-1.4-3.44A13.41,13.41,0,0,0,259,383a2,2,0,0,0-.1-.21l.1,0c1.64-1.94,4.56-4.49,5.74-5.61a23.33,23.33,0,0,1,4.34-3.58,17.58,17.58,0,0,1,5.75-2.17A30.66,30.66,0,0,1,279.13,371.3Z" transform="translate(-223.75 -114.78)"/><path class="cls-4" d="M400.55,395a10.75,10.75,0,0,1-1.49,1,3.49,3.49,0,0,1-1.78.64,2.06,2.06,0,0,1-1.53-.51c-.12-.13-.44-.52-.39-1.79a7.67,7.67,0,0,1,.51-2.43l.58-1.31a19.53,19.53,0,0,1,2.29,2.12A20.77,20.77,0,0,1,400.55,395Z" transform="translate(-223.75 -114.78)"/><path class="cls-1" d="M411,469.15c-16.32,2.28-38.78,3-55.45,4.45a.5.5,0,0,0-.4-.09c-.35,0-2.25.15-2.89-.53a1.16,1.16,0,0,1-.28-.7c-.08-.55-.22-1.71-.39-3.21L411,464.73h0c.11,1.48.19,2.79.29,4.4Z" transform="translate(-223.75 -114.78)"/><path class="cls-5" d="M414.51,371.36a30.68,30.68,0,0,0-4.34-.06l-.27,0a1.65,1.65,0,0,0-.11-.21c-.52-.88-1.34-.7-1.92-1.41a2.24,2.24,0,0,1-.44-1.43,4.5,4.5,0,0,1,.19-1.25c.33-1.16,1-1.21,2.42-3.06a9.53,9.53,0,0,0,1.79-3.07,3.41,3.41,0,0,0,.13-2.55c-.4-.81-1.07-.76-1.53-1.53a3.47,3.47,0,0,1,0-2.81,12.39,12.39,0,0,1,2.42-5.23c2.69-3.41,5.13-10.47,6.35-16.89l.16,0a69.28,69.28,0,0,1,11.49,2.81,57.3,57.3,0,0,1,9.58,4.47c3.7,2.1,6.62,3.76,9.7,6.9a45.65,45.65,0,0,1,5.81,7.46l.22.13a122.17,122.17,0,0,1-10.75,14.87c-5.68,7.06-9.2,9.45-10.47,11.24a3.36,3.36,0,0,1-1.28,1.15,8.94,8.94,0,0,1-2.3.38,6.78,6.78,0,0,0-.92,1.45l-.1,0c-1.64-1.94-4.56-4.49-5.74-5.61a23.33,23.33,0,0,0-4.34-3.58A17.58,17.58,0,0,0,414.51,371.36Z" transform="translate(-223.75 -114.78)"/><path class="cls-4" d="M397.72,418.43a33.8,33.8,0,0,0,1.62,3.42h0l-.4.31a2.76,2.76,0,0,1-1.41.64,3,3,0,0,1-2-.64,6,6,0,0,1-1.91-2.94,18,18,0,0,1-1-4.08,13.54,13.54,0,0,1-.25-3.83,10.1,10.1,0,0,1,2-4.72q.2-.27.45-.57a56.6,56.6,0,0,0,1.32,7.2A40.49,40.49,0,0,0,397.72,418.43Z" transform="translate(-223.75 -114.78)"/><path class="cls-3" d="M385.53,155.81a86.2,86.2,0,0,0-4.59-7.85,38.46,38.46,0,0,0-6.3-7.75,34,34,0,0,0-10.3-6,53,53,0,0,0-9.62-3,43.6,43.6,0,0,0-20.15,0,53.08,53.08,0,0,0-9.61,3,34,34,0,0,0-10.3,6,38.46,38.46,0,0,0-6.3,7.75,81.74,81.74,0,0,0-4.59,7.85h0c.14-1.1.33-2.24.56-3.42a44.15,44.15,0,0,1,5.27-14.47,34.08,34.08,0,0,1,9.54-11.06c4.7-3.42,9.14-4.6,12.93-5.62a47.77,47.77,0,0,1,25.26,0c3.79,1,8.23,2.2,12.93,5.62a34.08,34.08,0,0,1,9.54,11.06A44.15,44.15,0,0,1,385,152.38c.23,1.18.42,2.32.56,3.42Z" transform="translate(-223.75 -114.78)"/><path class="cls-3" d="M430.34,382.72l.1,0a2,2,0,0,0-.1.21,13.41,13.41,0,0,0-.64,3.45,13.13,13.13,0,0,1-1.4,3.44c-2.42,5.1-2.42,5.09-2.43,5.11-.42.78-1.13,2-7.15,8.68-1.94,2.17-2.94,3.29-4.21,4.6-2,2-3.5,3.48-5.23,5.1-.72.67-1.31,1.22-1.82,1.68l-.07.06c-2.92,2.65-2.61,2-4.24,3.75-1.84,1.92-1.91,1.55-3.81,3h0a33.8,33.8,0,0,1-1.62-3.42,40.49,40.49,0,0,1-1.61-5.2,56.6,56.6,0,0,1-1.32-7.2,58,58,0,0,1,5.3-4.8c1.51-1.29,2.92-2.7,4.46-4,.24-.2.76-.73,1.79-1.79.73-.75,1-1,.9-1.28-.15-.46-1.3-.49-2.05-.51a7.24,7.24,0,0,0-3.7.64,4.52,4.52,0,0,0-.94.64,20.77,20.77,0,0,0-1.81-2.26,19.53,19.53,0,0,0-2.29-2.12,66.65,66.65,0,0,1,6.19-11.45c.81-1.08,1.48-2,2.06-2.71a2.75,2.75,0,0,1,.22-.26,6.32,6.32,0,0,1,2.7-2.27c.65-.21,2.16-.55,2.42-1.53a1.64,1.64,0,0,0-.14-1.06l.27,0a30.68,30.68,0,0,1,4.34.06,17.58,17.58,0,0,1,5.75,2.17,23.33,23.33,0,0,1,4.34,3.58C425.78,378.23,428.7,380.78,430.34,382.72Z" transform="translate(-223.75 -114.78)"/><path class="cls-4" d="M297,411.32a13.24,13.24,0,0,1-.26,3.83,17.65,17.65,0,0,1-1,4.08,6,6,0,0,1-1.91,2.94,3,3,0,0,1-2,.64,2.76,2.76,0,0,1-1.41-.64l-.37-.29,0,0a33.8,33.8,0,0,0,1.62-3.42,40.49,40.49,0,0,0,1.61-5.2,57.89,57.89,0,0,0,1.32-7.14c.15.18.28.35.4.51A10.1,10.1,0,0,1,297,411.32Z" transform="translate(-223.75 -114.78)"/><path class="cls-4" d="M293.94,394.34c.05,1.27-.27,1.66-.39,1.79a2.07,2.07,0,0,1-1.53.51,3.55,3.55,0,0,1-1.79-.64,11,11,0,0,1-1.45-1l0,0a20.32,20.32,0,0,1,4.06-4.35c.19.41.38.84.57,1.28A7.67,7.67,0,0,1,293.94,394.34Z" transform="translate(-223.75 -114.78)"/><path class="cls-6" d="M303.34,153.41v-11a4.6,4.6,0,0,0-9.19,0v13.37a4.6,4.6,0,0,0,9.19,0Zm-6.71,53.75a19.14,19.14,0,0,1-4.23.29,47.79,47.79,0,0,0-8.8,1.4,35,35,0,0,0-12.39,6l-1.25.89-.28-.38A178.26,178.26,0,0,1,271,180.77c.58-4.24,1.13-7,1.27-7.66a93.22,93.22,0,0,1,9.83-27.83c4.2-7.55,8.2-12,14.68-19.15,5.56-6.15,6.32-7.76,12.23-9.42,1.88-.53,7.12-1.28,7.75-1.37,5.45-.73,14.46-.46,27.93-.56,13.47.1,22.48-.17,27.93.56.63.09,5.87.84,7.75,1.37,5.91,1.66,6.67,3.27,12.22,9.42,6.49,7.17,10.48,11.6,14.69,19.15a93.13,93.13,0,0,1,9.82,27.83c.14.68.69,3.42,1.28,7.66a178.26,178.26,0,0,1,1.28,34.59l-.28.38-1.25-.89a35.07,35.07,0,0,0-12.39-6,47.8,47.8,0,0,0-8.81-1.4,19.09,19.09,0,0,1-4.22-.29l-.19,0a22.77,22.77,0,0,0-1.78-6.57,17.54,17.54,0,0,0-3.57-5.27A23,23,0,0,0,381.6,191l-.16-.05a92.32,92.32,0,0,0,3.75-18.16c.24-2.18.46-4.26.61-6.34a52.69,52.69,0,0,0-.22-10.67c-.14-1.1-.33-2.24-.56-3.42a44.15,44.15,0,0,0-5.27-14.47,34.08,34.08,0,0,0-9.54-11.06c-4.7-3.42-9.14-4.6-12.93-5.62a47.77,47.77,0,0,0-25.26,0c-3.79,1-8.23,2.2-12.93,5.62a34.08,34.08,0,0,0-9.54,11.06,44.15,44.15,0,0,0-5.27,14.47c-.23,1.18-.42,2.32-.56,3.42a52.69,52.69,0,0,0-.22,10.67c.15,2.08.37,4.16.61,6.34A92.31,92.31,0,0,0,307.85,191l-.17.06a22.79,22.79,0,0,0-5.53,4.26,17.62,17.62,0,0,0-3.58,5.27,22.2,22.2,0,0,0-1.77,6.58ZM386,144.48v11.29a4.6,4.6,0,0,0,9.19,0V142.4a4.6,4.6,0,0,0-9.19,0Z" transform="translate(-223.75 -114.78)"/><path class="cls-3" d="M392.49,207.24h0v0l.18-.05a19.09,19.09,0,0,0,4.22.29,47.8,47.8,0,0,1,8.81,1.4,35.07,35.07,0,0,1,12.39,6l1.25.89c11.92,8.72,22.25,23.08,24.53,26.3,4.39,6.2,11.13,15.85,16,28.73a79.32,79.32,0,0,1,4.85,19.78c.09.86.18,1.87.38,8.05.53,15.62.77,23.55,0,29.1a72.37,72.37,0,0,1-4.08,16,66.67,66.67,0,0,1-4.82,10l-.22-.13a45.65,45.65,0,0,0-5.81-7.46c-3.08-3.14-6-4.8-9.7-6.9a57.3,57.3,0,0,0-9.58-4.47,69.28,69.28,0,0,0-11.49-2.81l-.16,0c.3-1.58.53-3.12.67-4.56a44.92,44.92,0,0,0-.63-12.38,54.5,54.5,0,0,0-3.34-11.51c-.16-.42-.33-.85-.51-1.28a2.92,2.92,0,0,0,.48-1.59v-33a2.91,2.91,0,0,0-2.92-2.91h-6.24a3,3,0,0,0-.67-.08h-9a42.54,42.54,0,0,1-8.54-8.76,40.94,40.94,0,0,1-6-15.06c-1.35-6.18-1-10.71-.38-19.79a13.67,13.67,0,0,1,1.78-6.64C385.8,211.18,390.71,207.94,392.49,207.24Z" transform="translate(-223.75 -114.78)"/><path class="cls-2" d="M421.24,601.32c3.24,6.37,3,15-1,19.28a16.2,16.2,0,0,1-3.57,2.8,17.66,17.66,0,0,1-6.51,2.17,26.48,26.48,0,0,1-9.45-.25,32.63,32.63,0,0,1-9.57-3.32,24.82,24.82,0,0,1-8.43-6.64,23.11,23.11,0,0,1-2.81-4.85c-.32-.79-.23-.72-.89-2.68-1.11-3.27-1.38-3.52-2.17-6-.74-2.32-.55-2.24-1.15-3.83-.51-1.37-.68-1.5-1.91-4.21A24.79,24.79,0,0,1,372,589a9.83,9.83,0,0,1-.38-3.06,15.35,15.35,0,0,1,.38-3.45c.18-1.06,2.7-4.1,2.84-4.72,0,.39,0,1.8,0,2.4,0,0,0,1.1.13,2.19a37.06,37.06,0,0,0,1.4,7.15c.8,2.48,1,2.06,2.17,5.24,1,2.72.8,3,1.66,5.36A28.41,28.41,0,0,0,383,606a26.71,26.71,0,0,0,4.85,5.49,32.52,32.52,0,0,0,7.41,5.49,29.64,29.64,0,0,0,7.91,2.81c3.5.7,6.13,1.23,9.19.12a10.56,10.56,0,0,0,5.62-4.34c2-3.34,1.32-6.93,1-8.42a20.68,20.68,0,0,0-2.55-6.13c-.88-1.55-1-1.36-1.79-2.81a26.68,26.68,0,0,1-2.4-5.66A20.37,20.37,0,0,1,421.24,601.32Z" transform="translate(-223.75 -114.78)"/><path class="cls-7" d="M412.24,592.54h0a26.68,26.68,0,0,0,2.4,5.66c.83,1.45.91,1.26,1.79,2.81a20.68,20.68,0,0,1,2.55,6.13c.3,1.49,1,5.08-1,8.42a10.56,10.56,0,0,1-5.62,4.34c-3.06,1.11-5.69.58-9.19-.12a29.64,29.64,0,0,1-7.91-2.81,32.52,32.52,0,0,1-7.41-5.49A26.71,26.71,0,0,1,383,606a28.41,28.41,0,0,1-2.81-5.87c-.86-2.35-.68-2.64-1.66-5.36-1.14-3.18-1.37-2.76-2.17-5.24a37.06,37.06,0,0,1-1.4-7.15c-.1-1.09-.13-2.19-.13-2.19,0-.6,0-2,0-2.4a15.36,15.36,0,0,0,2.78,2.42,17.89,17.89,0,0,0,8.55,2.43,25.89,25.89,0,0,0,5.87-.38c2.76-.42,2.86-.77,6.77-1.66,2.86-.66,5.68-1.47,8.55-2.05a8.07,8.07,0,0,0,2.06-.61l.28.06c.19,1.26.55,4.51.92,6.68.53,3.15.79,4.73,1.08,5.87C411.85,591.13,412,591.8,412.24,592.54Z" transform="translate(-223.75 -114.78)"/><path class="cls-6" d="M415.79,316.21c0,4.61.29,4.69.25,8.05,0,3.69-.19,11.87-3.83,15.44a9.59,9.59,0,0,1-3.83,2.3,22.19,22.19,0,0,1-3.93.38V342c0-.74,0-1.46,0-2.17,0,0-.15-17.75.08-32.72,0-1,0-2.24.07-3.63H413a2.91,2.91,0,0,0,2.44-1.33c.18.43.35.86.51,1.28C415.73,305.87,415.78,312.31,415.79,316.21Z" transform="translate(-223.75 -114.78)"/><path class="cls-3" d="M415.87,267.58v33a2.92,2.92,0,0,1-.48,1.59c-.4-1-.82-2-1.26-3s-2.07-4.41-5.17-10.77V267.5a2.91,2.91,0,0,0-2.25-2.83H413A2.91,2.91,0,0,1,415.87,267.58Z" transform="translate(-223.75 -114.78)"/><path class="cls-8" d="M415.39,302.15a2.91,2.91,0,0,1-2.44,1.33h-8.37v-.09H406a2.91,2.91,0,0,0,2.92-2.91V288.34c3.1,6.36,4.72,9.69,5.17,10.77S415,301.17,415.39,302.15Z" transform="translate(-223.75 -114.78)"/><path class="cls-3" d="M414.51,514.21c0,3-.29,9.62-.89,22.85-1,22.43-1.34,20.31-1.15,22.09,0,.27-.32,5.46-1,15.83a3.67,3.67,0,0,1-.51,1.66,3.57,3.57,0,0,1-1.52,1.3,8.07,8.07,0,0,1-2.06.61c-2.87.58-5.69,1.39-8.55,2.05-3.91.89-4,1.24-6.77,1.66a25.89,25.89,0,0,1-5.87.38,17.89,17.89,0,0,1-8.55-2.43,15.36,15.36,0,0,1-2.78-2.42,17.56,17.56,0,0,1-2.46-3.32c-5.73-10-4-34.62-8.68-56.94-1.91-9-5.39-20.11-6.12-27.83-.1-1-.64-7.05-1.79-15.19a5.49,5.49,0,0,0-.09-.6c0-.16-.07-.25-.15-.31,16.67-1.42,39.13-2.17,55.45-4.45l.31,0c.19,2.89.45,6.75,1,14.32C414.06,505.65,414.48,506.65,414.51,514.21Z" transform="translate(-223.75 -114.78)"/><path class="cls-8" d="M409,288.34v12.14a2.91,2.91,0,0,1-2.92,2.91h-1.46c.05-2.3.13-5.08.27-8.28.19-4.45.67-10.31.85-13l.17-.09c.49,1,1,2.1,1.62,3.32S408.5,287.4,409,288.34Z" transform="translate(-223.75 -114.78)"/><path class="cls-3" d="M409,267.5v20.84c-.46-.94-.95-1.94-1.47-3s-1.13-2.31-1.62-3.32c-1.3-2.66-2.29-4.69-3.24-6.66-.74-1.55-1.46-3.06-2.29-4.83-1-2.25-2-4.23-2.69-5.84h9.06A2.91,2.91,0,0,1,409,267.5Z" transform="translate(-223.75 -114.78)"/><path class="cls-3" d="M406.71,264.67h-9.06l0-.08H406A3,3,0,0,1,406.71,264.67Z" transform="translate(-223.75 -114.78)"/><path class="cls-8" d="M405.87,282l-.17.09c-.18,2.71-.66,8.57-.85,13-.14,3.2-.22,6-.27,8.28h-9.64a2.92,2.92,0,0,1-2.21-2.83V267.87l1.36,1.24a49.09,49.09,0,0,0,8.49,6.25l.05,0C403.58,277.31,404.57,279.34,405.87,282Z" transform="translate(-223.75 -114.78)"/><path class="cls-3" d="M404.45,342.38c.06,7.7.15,16.71.26,25.92,0,1.86.05,3.74.07,5.61h0a128.15,128.15,0,0,1-13.24,13.79c-4.26,3.66-6.94,5.94-11.23,7.92s-7.43,2.47-13.15,3.44a115.71,115.71,0,0,1-15.83,1.41c-2.46.09-4.57.12-6.19.12h-1c-1.62,0-3.73,0-6.19-.12a115.71,115.71,0,0,1-15.83-1.41c-5.72-1-9-1.53-13.15-3.44-4.29-2-7-4.26-11.23-7.92a126.24,126.24,0,0,1-13.24-13.79h0c0-1.87.05-3.75.07-5.61.11-9.21.2-18.22.26-25.92v-.51h2.45V342c4.55,1.33,16.75,5,22.72,6.26,2.3.47,9.05,1.84,18,2.93,4.84.59,10.41,1.11,16.6,1.41h.06c6.19-.3,11.76-.82,16.6-1.41,9-1.09,15.7-2.46,18-2.93,6-1.25,18.12-4.91,22.69-6.25h2.48Z" transform="translate(-223.75 -114.78)"/><path class="cls-3" d="M404.58,303.39v.09h-8.94a2.69,2.69,0,0,1-.7-.09Z" transform="translate(-223.75 -114.78)"/><path class="cls-3" d="M402,342c-21.3,0-89,0-95.52,0l-14.55-.08-4.6,0h-2.45c0-.69,0-1.37,0-2,0,0,.15-17.75-.08-32.72-.05-2.72-.12-6.8-.34-12-.19-4.45-.67-10.31-.85-13l-.17-.09c1.3-2.66,2.29-4.69,3.24-6.66l.05,0a49.09,49.09,0,0,0,8.49-6.25,55.37,55.37,0,0,0,5-4.85,37.6,37.6,0,0,0,4.21-5c4-5.43,3.46-5.29,3.71-5.7,1.75-2.95,2.26-5.47,3.06-9.44a68.53,68.53,0,0,0,1.15-11.62c.24-5,.35-7.61-.13-10-.52-2.57-1.28-6.37-4.47-9.57-2.8-2.83-9-5.25-10.93-5.74,0,0,0,0,0-.07l.71-.19a17.74,17.74,0,0,0,4.47-2.3,32.5,32.5,0,0,1,10.21-3.14,22,22,0,0,0,6,7.73,28.91,28.91,0,0,0,11.41,5.28,39.1,39.1,0,0,0,7.49.85c3,.11,5.3.19,7.51.19,2,0,4.55-.08,7.53-.19a39.1,39.1,0,0,0,7.49-.85,28.83,28.83,0,0,0,11.4-5.28,22,22,0,0,0,6.05-7.73,32.41,32.41,0,0,1,10.21,3.14,17.74,17.74,0,0,0,4.47,2.3l.69.18a.28.28,0,0,0,0,.09c-2,.48-8.12,2.91-10.91,5.73-3.19,3.2-3.95,7-4.47,9.57-.48,2.35-.37,4.92-.13,10a68.53,68.53,0,0,0,1.15,11.62c.8,4,1.31,6.49,3.06,9.44.24.41-.25.27,3.7,5.7a38.11,38.11,0,0,0,4.22,5l.29.33h-.67a2.91,2.91,0,0,0-2.91,2.91v33a2.91,2.91,0,0,0,2.91,2.91h6.21a2.69,2.69,0,0,0,.7.09h8.94c0,1.39-.05,2.61-.07,3.63-.23,15-.08,32.72-.08,32.72,0,.71,0,1.43,0,2.17H402Z" transform="translate(-223.75 -114.78)"/><path class="cls-8" d="M397.11,264.67h.54c.73,1.61,1.64,3.59,2.69,5.84.83,1.77,1.55,3.28,2.29,4.83l-.05,0a49.09,49.09,0,0,1-8.49-6.25l-1.36-1.24v-.29a2.91,2.91,0,0,1,2.91-2.91Z" transform="translate(-223.75 -114.78)"/><path class="cls-3" d="M397.62,264.59l0,.08h-.54l-.1-.08Z" transform="translate(-223.75 -114.78)"/><path class="cls-6" d="M397.11,264.67h-1.47a2.91,2.91,0,0,0-2.91,2.91v.29a45.79,45.79,0,0,1-3.33-3.28H397Z" transform="translate(-223.75 -114.78)"/><path class="cls-8" d="M397,264.59H389.4l-.29-.33a38.11,38.11,0,0,1-4.22-5c-3.95-5.43-3.46-5.29-3.7-5.7-1.75-2.95-2.26-5.47-3.06-9.44A68.53,68.53,0,0,1,377,232.47c-.24-5-.35-7.61.13-10,.52-2.57,1.28-6.37,4.47-9.57,2.79-2.82,8.93-5.25,10.91-5.73v0h0c-1.78.7-6.69,3.94-8.62,7.1a13.67,13.67,0,0,0-1.78,6.64c-.65,9.08-1,13.61.38,19.79a40.94,40.94,0,0,0,6,15.06A42.54,42.54,0,0,0,397,264.59Z" transform="translate(-223.75 -114.78)"/><path class="cls-3" d="M395.15,153.41v2.36a4.6,4.6,0,0,1-9.19,0v-2.36h.84a3.7,3.7,0,1,0,7.4,0Z" transform="translate(-223.75 -114.78)"/><path class="cls-3" d="M395.15,144.48v8.93h-.95a3.7,3.7,0,0,0-7.4,0H386v-8.93h.84a3.7,3.7,0,1,0,7.4,0Z" transform="translate(-223.75 -114.78)"/><path class="cls-3" d="M395.15,142.4v2.08h-.95a3.7,3.7,0,0,0-7.4,0H386V142.4a4.6,4.6,0,0,1,9.19,0Z" transform="translate(-223.75 -114.78)"/><path class="cls-6" d="M394.94,303.39h-6.21a2.91,2.91,0,0,1-2.91-2.91v-33a2.91,2.91,0,0,1,2.91-2.91h.67a45.79,45.79,0,0,0,3.33,3.28v32.69A2.92,2.92,0,0,0,394.94,303.39Z" transform="translate(-223.75 -114.78)"/><path class="cls-6" d="M306.45,342c6.5,0,74.22.05,95.52,0-4.57,1.34-16.73,5-22.69,6.25-2.3.47-9,1.84-18,2.93-4.84.59-10.41,1.11-16.6,1.41h-.06c-6.19-.3-11.76-.82-16.6-1.41-8.95-1.09-15.7-2.46-18-2.93-6-1.25-18.17-4.93-22.72-6.26v-.12l4.6,0Z" transform="translate(-223.75 -114.78)"/><circle class="cls-9" cx="166.75" cy="29.7" r="3.7"/><path class="cls-9" d="M390.5,149.71a3.71,3.71,0,1,1-3.7,3.7A3.7,3.7,0,0,1,390.5,149.71Z" transform="translate(-223.75 -114.78)"/><path class="cls-3" d="M392.48,207.12l.19,0-.18.05A.28.28,0,0,1,392.48,207.12Z" transform="translate(-223.75 -114.78)"/><path class="cls-3" d="M392.48,207.12l-.69-.18a17.74,17.74,0,0,1-4.47-2.3,32.41,32.41,0,0,0-10.21-3.14c.79-1.54,1.51-3.2,2.3-5,.33-.79,1.12-2.66,2-5.5l.16.05a23,23,0,0,1,5.53,4.26,17.54,17.54,0,0,1,3.57,5.27A22.77,22.77,0,0,1,392.48,207.12Z" transform="translate(-223.75 -114.78)"/><path class="cls-2" d="M385.58,155.8a52.69,52.69,0,0,1,.22,10.67h0a41.46,41.46,0,0,0-4.41-5.43,32,32,0,0,0-9.95-6.38,45.45,45.45,0,0,0-8.68-2.87,58.5,58.5,0,0,0-9.77-1.22c-3.3-.22-6.14-.27-8.32-.26s-5,0-8.34.26a58.5,58.5,0,0,0-9.77,1.22,45.45,45.45,0,0,0-8.68,2.87,32,32,0,0,0-10,6.38,42.16,42.16,0,0,0-4.4,5.43h0a52.69,52.69,0,0,1,.22-10.67h0a81.74,81.74,0,0,1,4.59-7.85,38.46,38.46,0,0,1,6.3-7.75,34,34,0,0,1,10.3-6,53.08,53.08,0,0,1,9.61-3,43.6,43.6,0,0,1,20.15,0,53,53,0,0,1,9.62,3,34,34,0,0,1,10.3,6,38.46,38.46,0,0,1,6.3,7.75,86.2,86.2,0,0,1,4.59,7.85Z" transform="translate(-223.75 -114.78)"/><path d="M377.11,201.5a22,22,0,0,1-6.05,7.73,28.83,28.83,0,0,1-11.4,5.28,39.1,39.1,0,0,1-7.49.85c-3,.11-5.49.19-7.53.19-2.21,0-4.53-.08-7.51-.19a39.1,39.1,0,0,1-7.49-.85,28.91,28.91,0,0,1-11.41-5.28,22,22,0,0,1-6-7.73c-.79-1.54-1.51-3.2-2.3-5-.34-.79-1.12-2.66-2-5.51a92.31,92.31,0,0,1-3.74-18.15c-.24-2.18-.46-4.26-.61-6.34h0a42.16,42.16,0,0,1,4.4-5.43,32,32,0,0,1,10-6.38,45.45,45.45,0,0,1,8.68-2.87,58.5,58.5,0,0,1,9.77-1.22c3.31-.23,6.15-.27,8.34-.26s5,0,8.32.26a58.5,58.5,0,0,1,9.77,1.22,45.45,45.45,0,0,1,8.68,2.87,32,32,0,0,1,9.95,6.38,41.46,41.46,0,0,1,4.41,5.43h0c-.15,2.08-.37,4.16-.61,6.34A92.32,92.32,0,0,1,381.44,191c-.91,2.84-1.7,4.71-2,5.5C378.62,198.3,377.9,200,377.11,201.5Z" transform="translate(-223.75 -114.78)"/><path class="cls-3" d="M334,473.5a.45.45,0,0,0-.3.1.56.56,0,0,0-.14.31,3.81,3.81,0,0,0-.09.6c-1.15,8.14-1.69,14.18-1.79,15.19-.73,7.72-4.21,18.78-6.12,27.83-4.72,22.32-3,46.94-8.69,56.94a17.54,17.54,0,0,1-2.45,3.32,15.36,15.36,0,0,1-2.78,2.42,17.89,17.89,0,0,1-8.55,2.43,25.85,25.85,0,0,1-5.87-.38c-2.76-.42-2.86-.77-6.77-1.66-2.86-.66-5.68-1.47-8.55-2.05a7.62,7.62,0,0,1-2.31-.74,3.45,3.45,0,0,1-1.27-1.17,3.55,3.55,0,0,1-.51-1.66c-.7-10.37-1.05-15.56-1-15.83.19-1.78-.13.34-1.15-22.09-.6-13.23-.9-19.85-.89-22.85,0-7.56.45-8.56,2.17-30.76.59-7.69.85-11.55,1-14.45l.24,0C294.66,471.31,317.33,472.06,334,473.5Z" transform="translate(-223.75 -114.78)"/><path class="cls-2" d="M317.3,582.51a15.35,15.35,0,0,1,.38,3.45,9.83,9.83,0,0,1-.38,3.06,24.79,24.79,0,0,1-1.75,4.77c-1.23,2.71-1.4,2.84-1.91,4.21-.6,1.59-.41,1.51-1.15,3.83-.8,2.48-1.06,2.73-2.17,6-.66,2-.57,1.89-.89,2.68a23.11,23.11,0,0,1-2.81,4.85,24.82,24.82,0,0,1-8.43,6.64,32.63,32.63,0,0,1-9.57,3.32,26.48,26.48,0,0,1-9.45.25,17.66,17.66,0,0,1-6.51-2.17,16.2,16.2,0,0,1-3.57-2.8c-4-4.32-4.27-12.91-1-19.28a20.37,20.37,0,0,1,9-8.77,27.22,27.22,0,0,1-2.4,5.66c-.83,1.45-.91,1.26-1.79,2.81a20.42,20.42,0,0,0-2.55,6.13c-.3,1.49-1,5.08,1,8.42a10.56,10.56,0,0,0,5.62,4.34c3.06,1.11,5.69.58,9.19-.12a29.64,29.64,0,0,0,7.91-2.81,32.52,32.52,0,0,0,7.41-5.49,27,27,0,0,0,4.85-5.49,29.5,29.5,0,0,0,2.81-5.87c.86-2.35.68-2.64,1.66-5.36,1.14-3.18,1.37-2.76,2.17-5.24a37.06,37.06,0,0,0,1.4-7.15c.1-1.09.13-2.19.13-2.19,0-.6,0-2,0-2.4C314.6,578.41,317.12,581.45,317.3,582.51Z" transform="translate(-223.75 -114.78)"/><path class="cls-7" d="M277.06,592.54c.22-.74.39-1.41.54-2,.29-1.14.55-2.72,1.08-5.87.36-2.17.73-5.42.92-6.68l0-.19a7.62,7.62,0,0,0,2.31.74c2.87.58,5.69,1.39,8.55,2.05,3.91.89,4,1.24,6.77,1.66a25.85,25.85,0,0,0,5.87.38,17.89,17.89,0,0,0,8.55-2.43,15.36,15.36,0,0,0,2.78-2.42c0,.39,0,1.8,0,2.4,0,0,0,1.1-.13,2.19a37.06,37.06,0,0,1-1.4,7.15c-.8,2.48-1,2.06-2.17,5.24-1,2.72-.8,3-1.66,5.36a29.5,29.5,0,0,1-2.81,5.87,27,27,0,0,1-4.85,5.49,32.52,32.52,0,0,1-7.41,5.49,29.64,29.64,0,0,1-7.91,2.81c-3.5.7-6.13,1.23-9.19.12a10.56,10.56,0,0,1-5.62-4.34c-2-3.34-1.32-6.93-1-8.42a20.42,20.42,0,0,1,2.55-6.13c.88-1.55,1-1.36,1.79-2.81a27.22,27.22,0,0,0,2.4-5.66Z" transform="translate(-223.75 -114.78)"/><path class="cls-8" d="M312.19,222.51c.48,2.35.37,4.92.13,10a68.53,68.53,0,0,1-1.15,11.62c-.8,4-1.31,6.49-3.06,9.44-.25.41.25.27-3.71,5.7a37.6,37.6,0,0,1-4.21,5,55.37,55.37,0,0,1-5,4.85,49.09,49.09,0,0,1-8.49,6.25l-.05,0c.74-1.55,1.46-3.06,2.29-4.83.94-2,1.77-3.83,2.46-5.34l.09,0c2.23-1.76,6.57-5.28,9.32-9.38a40.94,40.94,0,0,0,6-15.06c1.35-6.18,1-10.71.38-19.79a13.67,13.67,0,0,0-1.78-6.64c-1.94-3.17-6.87-6.42-8.64-7.11v0c2,.49,8.13,2.91,10.93,5.74C310.91,216.14,311.67,219.94,312.19,222.51Z" transform="translate(-223.75 -114.78)"/><path class="cls-3" d="M309.89,196.47c.79,1.83,1.51,3.49,2.3,5A32.5,32.5,0,0,0,302,204.64a17.74,17.74,0,0,1-4.47,2.3l-.71.19a22.2,22.2,0,0,1,1.77-6.58,17.62,17.62,0,0,1,3.58-5.27,22.79,22.79,0,0,1,5.53-4.26l.17-.06C308.77,193.81,309.55,195.68,309.89,196.47Z" transform="translate(-223.75 -114.78)"/><path class="cls-3" d="M273.4,303.43a53.92,53.92,0,0,0-3.34,11.51,44.92,44.92,0,0,0-.63,12.38c.14,1.44.37,3,.67,4.56l-.16,0a69.28,69.28,0,0,0-11.49,2.81,57.3,57.3,0,0,0-9.58,4.47c-3.7,2.1-6.62,3.76-9.7,6.9a45.65,45.65,0,0,0-5.81,7.46l-.22.13a66.67,66.67,0,0,1-4.82-10,72.81,72.81,0,0,1-4.09-16c-.76-5.55-.52-13.48,0-29.1.21-6.18.3-7.19.39-8.05a78.84,78.84,0,0,1,4.85-19.78c4.82-12.88,11.57-22.53,16-28.73,2.27-3.22,12.61-17.58,24.53-26.3l1.25-.89a35,35,0,0,1,12.39-6,47.79,47.79,0,0,1,8.8-1.4,19.14,19.14,0,0,0,4.23-.29l.16,0v0c1.77.69,6.7,3.94,8.64,7.11a13.67,13.67,0,0,1,1.78,6.64c.65,9.08,1,13.61-.38,19.79a40.94,40.94,0,0,1-6,15.06c-2.75,4.1-7.09,7.62-9.32,9.38l-.09,0c-.69,1.51-1.52,3.32-2.46,5.34-.83,1.77-1.55,3.28-2.29,4.83-.95,2-1.94,4-3.24,6.66-.49,1-1,2.1-1.62,3.32-4.07,8.35-6.12,12.55-6.64,13.79C274.53,300.63,273.94,302.05,273.4,303.43Z" transform="translate(-223.75 -114.78)"/><path class="cls-3" d="M303.34,153.41v2.36a4.6,4.6,0,0,1-9.19,0v-2.36h1a3.7,3.7,0,1,0,7.4,0Z" transform="translate(-223.75 -114.78)"/><path class="cls-3" d="M303.34,144.48v8.93h-.84a3.7,3.7,0,1,0-7.4,0h-1v-8.93h1a3.7,3.7,0,1,0,7.4,0Z" transform="translate(-223.75 -114.78)"/><path class="cls-3" d="M303.34,142.4v2.08h-.84a3.7,3.7,0,1,0-7.4,0h-1V142.4a4.6,4.6,0,0,1,9.19,0Z" transform="translate(-223.75 -114.78)"/><circle class="cls-9" cx="75.05" cy="29.7" r="3.7"/><path class="cls-9" d="M298.8,149.71a3.71,3.71,0,1,1-3.7,3.7A3.7,3.7,0,0,1,298.8,149.71Z" transform="translate(-223.75 -114.78)"/><path class="cls-3" d="M296.8,207.13s0,.05,0,.07l-.16,0Z" transform="translate(-223.75 -114.78)"/><path class="cls-6" d="M284.79,307.11c.23,15,.08,32.72.08,32.72,0,.67,0,1.35,0,2v.51a22.21,22.21,0,0,1-3.94-.38,9.59,9.59,0,0,1-3.82-2.3c-3.64-3.57-3.8-11.75-3.83-15.44,0-3.36.24-3.44.25-8.05,0-3.9.06-10.34-.11-12.78.54-1.38,1.13-2.8,1.77-4.32.52-1.24,2.57-5.44,6.64-13.79.59-1.22,1.13-2.31,1.62-3.32l.17.09c.18,2.71.66,8.57.85,13C284.67,300.31,284.74,304.39,284.79,307.11Z" transform="translate(-223.75 -114.78)"/><path class="cls-5" d="M281.68,367a4.5,4.5,0,0,1,.19,1.25,2.24,2.24,0,0,1-.44,1.43c-.58.71-1.4.53-1.92,1.41a1.22,1.22,0,0,0-.16.33l-.22-.14a30.66,30.66,0,0,0-4.34.06,17.58,17.58,0,0,0-5.75,2.17,23.33,23.33,0,0,0-4.34,3.58c-1.18,1.12-4.1,3.67-5.74,5.61l-.1,0a6.78,6.78,0,0,0-.92-1.45,8.94,8.94,0,0,1-2.3-.38,3.36,3.36,0,0,1-1.28-1.15c-1.27-1.79-4.79-4.18-10.47-11.24a120.07,120.07,0,0,1-10.75-14.87l.22-.13a45.65,45.65,0,0,1,5.81-7.46c3.08-3.14,6-4.8,9.7-6.9a57.3,57.3,0,0,1,9.58-4.47,69.28,69.28,0,0,1,11.49-2.81l.16,0c1.22,6.42,3.66,13.48,6.35,16.89a12.51,12.51,0,0,1,2.42,5.23,3.51,3.51,0,0,1,0,2.81c-.46.77-1.13.72-1.53,1.53a3.41,3.41,0,0,0,.13,2.55,9.53,9.53,0,0,0,1.79,3.07C280.72,365.81,281.35,365.86,281.68,367Z" transform="translate(-223.75 -114.78)"/><path class="cls-10" d="M284.94,341.87h2.36l4.6,0,14.55.08c6.5,0,74.22.05,95.52,0h2.46" transform="translate(-223.75 -114.78)"/><path class="cls-10" d="M287.3,342c4.55,1.33,16.75,5,22.72,6.26,2.3.47,9.05,1.84,18,2.93,4.84.59,10.41,1.11,16.6,1.41" transform="translate(-223.75 -114.78)"/><path class="cls-10" d="M402,342h0c-4.57,1.34-16.73,5-22.69,6.25-2.3.47-9,1.84-18,2.93-4.84.59-10.41,1.11-16.6,1.41" transform="translate(-223.75 -114.78)"/><path class="cls-1" d="M310.79,203a29.36,29.36,0,0,0,14.91,11.21,31.87,31.87,0,0,0,4.57,1c.78.13,1.56.23,2.36.33s1.54.17,2.33.2c3.15.15,6.38.13,9.59.16s6.41.1,9.55-.13a37.74,37.74,0,0,0,9.27-1.5,27.55,27.55,0,0,0,14.57-11.57,25.68,25.68,0,0,1-5.7,7.84,26,26,0,0,1-8.34,5.2,22.88,22.88,0,0,1-4.8,1.3c-1.64.26-3.21.44-4.84.62-3.27.3-6.52.25-9.73.24s-6.42-.06-9.69-.27c-.81-.06-1.66-.16-2.46-.29s-1.61-.25-2.41-.4a28,28,0,0,1-4.78-1.31A27,27,0,0,1,310.79,203Z" transform="translate(-223.75 -114.78)"/><line class="cls-11" x1="168.98" y1="165.6" x2="181.3" y2="165.6"/><line class="cls-12" x1="180.85" y1="188.58" x2="165.15" y2="188.58"/><polygon class="cls-13" points="165.18 188.71 162.51 188.58 165.18 188.46 165.18 188.71"/></g><g id="Layer_3" data-name="Layer 3"><image width="2547" height="1938" transform="translate(92.18 121.72) scale(0.01)" xlink:href="../../../../Downloads/Sts-81-patch.png"/><path d="M383,309.26a3.64,3.64,0,1,1-3.63,3.63A3.63,3.63,0,0,1,383,309.26Z" transform="translate(-223.75 -114.78)"/><path d="M307.09,309.26a3.64,3.64,0,1,1-3.64,3.63A3.63,3.63,0,0,1,307.09,309.26Z" transform="translate(-223.75 -114.78)"/><path class="cls-14" d="M371,267.67a10.66,10.66,0,1,1-9.82,6.51A10.66,10.66,0,0,1,371,267.67Zm8.43,10.66a8.43,8.43,0,1,0-8.43,8.43A8.44,8.44,0,0,0,379.44,278.33Z" transform="translate(-223.75 -114.78)"/><path class="cls-15" d="M371,269.9a8.43,8.43,0,1,1-8.42,8.43A8.44,8.44,0,0,1,371,269.9Z" transform="translate(-223.75 -114.78)"/><rect class="cls-16" x="114.65" y="152.75" width="20.6" height="5.62"/><path class="cls-13" d="M356.62,293v.74a1.18,1.18,0,0,1-1.18,1.18H341.59a1.18,1.18,0,0,1-1.19-1.18v-3a1.18,1.18,0,0,1,1.19-1.18h13.85a1.18,1.18,0,0,1,1.18,1.18v.75a2.38,2.38,0,0,0-2.24-1.61h-7.15a2.36,2.36,0,0,0,0,4.72h7.15a2.37,2.37,0,0,0,2.24-1.6Z" transform="translate(-223.75 -114.78)"/><path class="cls-17" d="M356.62,291.46V293a2.37,2.37,0,0,1-2.24,1.6h-7.15a2.36,2.36,0,0,1,0-4.72h7.15A2.38,2.38,0,0,1,356.62,291.46Z" transform="translate(-223.75 -114.78)"/><path class="cls-13" d="M356.55,299.46v.89a1.18,1.18,0,0,1-1.18,1.18H324.1a1.18,1.18,0,0,1-1.19-1.18v-3a1.18,1.18,0,0,1,1.19-1.18h31.27a1.18,1.18,0,0,1,1.18,1.18v1a2.38,2.38,0,0,0-2.29-1.81h-7.15a2.36,2.36,0,0,0-1.67.7,2.33,2.33,0,0,0-.66,1.28,2.38,2.38,0,0,0-2.33-2H335.3a2.36,2.36,0,0,0-1.67.7,2.33,2.33,0,0,0-.69,1.66,2.37,2.37,0,0,0,2.36,2.37h7.15a2.38,2.38,0,0,0,2.33-2,2.37,2.37,0,0,0,2.33,2h7.15a2.39,2.39,0,0,0,2.29-1.82Z" transform="translate(-223.75 -114.78)"/><path class="cls-17" d="M356.55,298.36v1.1a2.39,2.39,0,0,1-2.29,1.82h-7.15a2.37,2.37,0,0,1-2.33-2,2.42,2.42,0,0,0,0-.76,2.33,2.33,0,0,1,.66-1.28,2.36,2.36,0,0,1,1.67-.7h7.15A2.38,2.38,0,0,1,356.55,298.36Z" transform="translate(-223.75 -114.78)"/><path class="cls-17" d="M344.78,298.53a1.83,1.83,0,0,0,0,.76,2.38,2.38,0,0,1-2.33,2H335.3a2.37,2.37,0,0,1-2.36-2.37,2.33,2.33,0,0,1,.69-1.66,2.36,2.36,0,0,1,1.67-.7h7.15A2.38,2.38,0,0,1,344.78,298.53Z" transform="translate(-223.75 -114.78)"/><path class="cls-13" d="M339.13,290.71v3a1.18,1.18,0,0,1-1.18,1.18H324.1a1.18,1.18,0,0,1-1.19-1.18v-3a1.18,1.18,0,0,1,1.19-1.18H338A1.18,1.18,0,0,1,339.13,290.71Zm-.26,1.5a2.36,2.36,0,0,0-2.36-2.36h-7.15a2.39,2.39,0,0,0-1.67.69,2.36,2.36,0,0,0,1.67,4h7.15a2.36,2.36,0,0,0,2.36-2.36Z" transform="translate(-223.75 -114.78)"/><path class="cls-17" d="M336.51,289.85a2.36,2.36,0,0,1,2.36,2.36,2.36,2.36,0,0,1-2.36,2.36h-7.15a2.36,2.36,0,0,1-1.67-4,2.39,2.39,0,0,1,1.67-.69Z" transform="translate(-223.75 -114.78)"/><path class="cls-10" d="M383.65,278.33v23a2.08,2.08,0,0,1-2.09,2.08h-75a2.08,2.08,0,0,1-2.09-2.08V266.84a2.08,2.08,0,0,1,2.09-2.08h75a2.08,2.08,0,0,1,2.09,2.08Z" transform="translate(-223.75 -114.78)"/><path class="cls-10" d="M372,264.59H316.45a2.1,2.1,0,0,1-2.09-2.09V230.21a2.09,2.09,0,0,1,2.09-2.08H372a2.09,2.09,0,0,1,2.09,2.08V262.5A2.1,2.1,0,0,1,372,264.59Z" transform="translate(-223.75 -114.78)"/><path class="cls-10" d="M336.87,273.15V280a1.61,1.61,0,0,1-1.61,1.61h-26.9a1.62,1.62,0,0,1-1.62-1.61V268.55a1.62,1.62,0,0,1,1.62-1.61h26.9a1.61,1.61,0,0,1,1.61,1.61Z" transform="translate(-223.75 -114.78)"/><path class="cls-10" d="M381.67,278.33A10.66,10.66,0,1,0,371,289,10.66,10.66,0,0,0,381.67,278.33Z" transform="translate(-223.75 -114.78)"/><path class="cls-10" d="M316,228.47h26.64a1.49,1.49,0,0,1,1.49,1.49v32.76a1.49,1.49,0,0,1-1.49,1.49H316a1.49,1.49,0,0,1-1.49-1.49V230A1.49,1.49,0,0,1,316,228.47Z" transform="translate(-223.75 -114.78)"/><path class="cls-10" d="M284.74,308.68a13.87,13.87,0,0,1,4.47-.38,8.38,8.38,0,0,1,2.81.89c2.21,1.24,2,3,4.47,6a9.88,9.88,0,0,0,3.32,3.07c.42.2,1.21.54,6.51.89,2.48.16,3.34.15,4.72.64a6.09,6.09,0,0,1,3.07,1.91c.66.86.85,1.77,1,3.7.26,3,.06,3.94.13,6.9.08,3.7.45,4.94-.52,6.38a7,7,0,0,1-1.65,1.66A19.13,19.13,0,0,1,308,342" transform="translate(-223.75 -114.78)"/><path class="cls-10" d="M404.46,308.43a9.39,9.39,0,0,0-3.57-.13,8.38,8.38,0,0,0-2.81.89c-2.21,1.24-2,3-4.47,6a9.88,9.88,0,0,1-3.32,3.07c-.42.2-1.21.54-6.51.89-2.48.16-3.34.15-4.72.64A6.09,6.09,0,0,0,376,321.7c-.66.86-.85,1.77-1,3.7-.26,3-.06,3.94-.13,6.9-.08,3.7-.46,4.94.51,6.38a7.19,7.19,0,0,0,1.66,1.66,19.13,19.13,0,0,0,5.07,1.66" transform="translate(-223.75 -114.78)"/><circle class="cls-18" cx="147.2" cy="163.48" r="3.83"/><circle cx="138.01" cy="163.42" r="0.38"/><circle cx="138.55" cy="160.6" r="0.38"/><circle cx="139.97" cy="158.06" r="0.38"/><circle cx="142.19" cy="155.81" r="0.38"/><circle cx="144.87" cy="154.5" r="0.38"/><circle cx="148.27" cy="154.13" r="0.38"/><circle cx="138.57" cy="166.53" r="0.38"/><circle cx="139.81" cy="169.04" r="0.38"/><circle cx="141.62" cy="171" r="0.38"/><circle cx="143.95" cy="172.34" r="0.38"/><path class="cls-19" d="M343,273.11a7.79,7.79,0,0,1,0-5.49,7.79,7.79,0,0,1,0,5.49Z" transform="translate(-223.75 -114.78)"/><path class="cls-19" d="M348.15,273.11a7,7,0,0,1-.5-2.75,6.81,6.81,0,0,1,.5-2.74,7,7,0,0,1,.5,2.74A7.22,7.22,0,0,1,348.15,273.11Z" transform="translate(-223.75 -114.78)"/><path class="cls-19" d="M353.38,273.19a7.79,7.79,0,0,1,0-5.49,7.79,7.79,0,0,1,0,5.49Z" transform="translate(-223.75 -114.78)"/><path d="M298.28,325.91" transform="translate(-223.75 -114.78)"/></g><g id="Layer_4" data-name="Layer 4"><circle class="cls-20" cx="134.49" cy="55.65" r="13.28"/><circle class="cls-21" cx="166.97" cy="38.24" r="1.92"/><circle class="cls-22" cx="167.31" cy="28.9" r="1.59"/><circle class="cls-23" cx="74.41" cy="28.71" r="1.39"/><circle class="cls-24" cx="74.57" cy="37.76" r="1.55"/></g><g id="Layer_5" data-name="Layer 5"><path class="cls-25" d="M284.62,347.62c2.34,1.14,4.66,2.29,7,3.36s4.74,2.09,7.14,3,4.83,1.84,7.28,2.7c1.22.43,2.45.83,3.69,1.21s2.48.78,3.72,1.18c-1.29-.18-2.57-.45-3.85-.7s-2.53-.61-3.79-1a74.33,74.33,0,0,1-7.42-2.5,71.33,71.33,0,0,1-7.1-3.29c-1.15-.62-2.3-1.25-3.42-1.91S285.68,348.37,284.62,347.62Z" transform="translate(-223.75 -114.78)"/><path class="cls-25" d="M285.89,360.38a57.69,57.69,0,0,0,11.08,9,64.94,64.94,0,0,0,13,5.82c4.49,1.62,9.05,3,13.64,4.34,2.29.67,4.6,1.29,6.91,1.87s4.64,1.16,7,1.73c-2.37-.35-4.72-.8-7.08-1.25s-4.68-1-7-1.6c-4.65-1.17-9.24-2.59-13.77-4.15A61.17,61.17,0,0,1,296.56,370a53,53,0,0,1-5.71-4.41A48.82,48.82,0,0,1,285.89,360.38Z" transform="translate(-223.75 -114.78)"/><path class="cls-25" d="M399.26,359.11c-1.25,1-2.55,1.91-3.87,2.82s-2.69,1.72-4.07,2.53a73.15,73.15,0,0,1-17.66,7.34c-1.54.41-3.1.78-4.66,1.1s-3.14.58-4.72.76c1.54-.4,3.08-.78,4.61-1.23s3.05-.87,4.55-1.37c3-1,6-2.05,8.91-3.28s5.79-2.56,8.61-4S396.52,360.75,399.26,359.11Z" transform="translate(-223.75 -114.78)"/><path class="cls-25" d="M391.34,371.11a57.39,57.39,0,0,1-6.92,4.23,64.9,64.9,0,0,1-7.43,3.31,63.81,63.81,0,0,1-7.77,2.36c-1.33.3-2.65.58-4,.81s-2.68.41-4,.52c1.31-.33,2.63-.63,3.92-1s2.6-.69,3.89-1.08c2.57-.78,5.12-1.6,7.62-2.55s5-2,7.44-3.06S388.93,372.34,391.34,371.11Z" transform="translate(-223.75 -114.78)"/><path class="cls-25" d="M366.57,389.23c-2.42.69-4.87,1.22-7.35,1.68s-5,.82-7.46,1.11-5,.48-7.52.56c-1.25,0-2.51.07-3.77.08s-2.51,0-3.77-.11l7.49-.74,7.46-.78c2.49-.27,5-.58,7.46-.87Z" transform="translate(-223.75 -114.78)"/><path class="cls-25" d="M323.43,403A39.18,39.18,0,0,0,338,416a21.69,21.69,0,0,1-8.77-4.85A22,22,0,0,1,323.43,403Z" transform="translate(-223.75 -114.78)"/><path class="cls-25" d="M343.6,405.32a7.79,7.79,0,0,1,3.42,1.19,7.37,7.37,0,0,1,2.58,2.68,7,7,0,0,1,.89,3.62,6.9,6.9,0,0,1-1,3.49,11.36,11.36,0,0,0,.24-3.46,8.05,8.05,0,0,0-1-3.16,8.6,8.6,0,0,0-2.16-2.54A14.31,14.31,0,0,0,343.6,405.32Z" transform="translate(-223.75 -114.78)"/><path class="cls-25" d="M353.55,418.34a15.48,15.48,0,0,0,3.39-4.46,15,15,0,0,0,.93-2.62,6.31,6.31,0,0,1,1.57-2.61A7.62,7.62,0,0,1,362,407a7.19,7.19,0,0,0,2.25-1.45,10.13,10.13,0,0,0,2.6-4.86,8.56,8.56,0,0,1-2,5.4,7.49,7.49,0,0,1-2.42,1.77,7,7,0,0,0-2.23,1.46,5.61,5.61,0,0,0-1.39,2.21,12.55,12.55,0,0,1-1.14,2.69A11.81,11.81,0,0,1,353.55,418.34Z" transform="translate(-223.75 -114.78)"/><path class="cls-25" d="M388,396.64a21.19,21.19,0,0,0-3.43,1.13,16.26,16.26,0,0,0-3.13,1.69,15.41,15.41,0,0,0-2.64,2.32,29.49,29.49,0,0,0-2.13,2.86,28,28,0,0,1-10.88,9.62c1-.73,1.95-1.44,2.87-2.23a32.11,32.11,0,0,0,2.66-2.41,36.6,36.6,0,0,0,4.53-5.55,25.67,25.67,0,0,1,2.26-2.92,13.6,13.6,0,0,1,2.92-2.33A15.73,15.73,0,0,1,388,396.64Z" transform="translate(-223.75 -114.78)"/><path class="cls-25" d="M225.3,296.89a64.5,64.5,0,0,1,10.35,3.95c3.32,1.64,6.48,3.53,9.74,5.23s6.47,3.52,9.66,5.35l4.89,2.56c1.61.89,3.24,1.74,4.85,2.66-3.39-1.44-6.75-3-10.09-4.54s-6.54-3.41-9.79-5.16-6.42-3.64-9.61-5.42c-1.61-.88-3.26-1.68-4.93-2.44S227,297.6,225.3,296.89Z" transform="translate(-223.75 -114.78)"/><path class="cls-25" d="M228.19,313.74a19.14,19.14,0,0,1,6.91-.78,21.74,21.74,0,0,1,3.49.5,25,25,0,0,1,3.3,1.14,26,26,0,0,0,6.65,1.19c2.28.17,4.57,0,6.89,0-1.14.21-2.29.37-3.44.56s-2.3.19-3.47.21a21.14,21.14,0,0,1-7-1,30,30,0,0,0-3.21-1.17,31.09,31.09,0,0,0-3.33-.65,21.48,21.48,0,0,0-3.4-.2A26.49,26.49,0,0,0,228.19,313.74Z" transform="translate(-223.75 -114.78)"/><path class="cls-25" d="M280.79,283.62c-.9-.4-1.78-.84-2.67-1.26s-1.74-.88-2.62-1.33l0,0-.06-.07a16.38,16.38,0,0,0-3.62-3.2,8.65,8.65,0,0,0-4.5-1.3c-.8,0-1.67,0-2.53-.09a9.8,9.8,0,0,1-2.51-.67,10.62,10.62,0,0,1-4.09-3,13.38,13.38,0,0,0,4.31,2.36,13.17,13.17,0,0,0,4.83.4,9,9,0,0,1,5,1.44A13.75,13.75,0,0,1,276,280.5l-.1-.09c.83.52,1.66,1,2.48,1.57S280,283.05,280.79,283.62Z" transform="translate(-223.75 -114.78)"/><path class="cls-25" d="M240.11,274.77A29.12,29.12,0,0,1,259,279.19a80.9,80.9,0,0,0-9.3-2.86A77.92,77.92,0,0,0,240.11,274.77Z" transform="translate(-223.75 -114.78)"/><path class="cls-25" d="M233.47,289.91a17.86,17.86,0,0,0,4.08,3.06,12.46,12.46,0,0,0,4.77,1.38c1.7.22,3.43.41,5.13.74s3.4.69,5.08,1.12c-1.74,0-3.46-.16-5.18-.34s-3.43-.32-5.16-.53a15.34,15.34,0,0,1-2.61-.54,10.58,10.58,0,0,1-2.42-1.16A12.16,12.16,0,0,1,233.47,289.91Z" transform="translate(-223.75 -114.78)"/><path class="cls-25" d="M247.6,300.64a15.5,15.5,0,0,1,5.27,1.62,14.51,14.51,0,0,1,2.37,1.53c.74.59,1.36,1.26,2.05,1.75a12.46,12.46,0,0,0,2.28,1.3c.78.38,1.67.64,2.52,1.1a9.93,9.93,0,0,1,3.89,3.93,12.77,12.77,0,0,0-4.23-3.23c-.8-.34-1.68-.57-2.56-.93a13.12,13.12,0,0,1-2.49-1.36c-.78-.59-1.4-1.28-2.07-1.84a17.57,17.57,0,0,0-2.14-1.57A25.44,25.44,0,0,0,247.6,300.64Z" transform="translate(-223.75 -114.78)"/><path class="cls-25" d="M257.81,248.89c2.33,1.7,4.58,3.48,6.83,5.27s4.45,3.64,6.66,5.47c1.09.91,2.19,1.82,3.35,2.62a38.24,38.24,0,0,0,3.64,2.2,35.76,35.76,0,0,0,3.88,1.77c1.32.54,2.69,1,4.06,1.4a30.92,30.92,0,0,1-4.22-.94,33.25,33.25,0,0,1-4.06-1.55,28.5,28.5,0,0,1-3.83-2.1,41,41,0,0,1-3.46-2.64c-2.2-1.85-4.38-3.72-6.52-5.64S259.87,250.9,257.81,248.89Z" transform="translate(-223.75 -114.78)"/><path class="cls-25" d="M241.64,255.19a18.36,18.36,0,0,1,7.13.68,16.65,16.65,0,0,1,3.35,1.41,30.69,30.69,0,0,1,3,2,14,14,0,0,0,6.41,2.3,30.76,30.76,0,0,0,7-.12,25.62,25.62,0,0,1-3.5.75,22.86,22.86,0,0,1-3.61.14,13.22,13.22,0,0,1-6.9-2.25c-1-.72-1.87-1.46-2.87-2a20,20,0,0,0-3.13-1.5,18.5,18.5,0,0,0-3.37-.94A25.75,25.75,0,0,0,241.64,255.19Z" transform="translate(-223.75 -114.78)"/><path class="cls-25" d="M273.81,245.15A7.72,7.72,0,0,1,275,240a6.86,6.86,0,0,1,2-1.9,21.86,21.86,0,0,1,2.36-1.2,37.34,37.34,0,0,0,4.54-2.33q2.17-1.34,4.26-2.91a21.51,21.51,0,0,1-3.82,3.56,24.79,24.79,0,0,1-4.56,2.59,9.76,9.76,0,0,0-4.12,2.65A9.33,9.33,0,0,0,273.81,245.15Z" transform="translate(-223.75 -114.78)"/><path class="cls-25" d="M305.81,241.4a37.27,37.27,0,0,0-2.34-9.35,36.76,36.76,0,0,0-4.81-8.35,20.69,20.69,0,0,1,7.15,17.7Z" transform="translate(-223.75 -114.78)"/><path class="cls-25" d="M304.62,228.64a22.06,22.06,0,0,1-1.28-3.94,27.51,27.51,0,0,1-.77-4.06,10.87,10.87,0,0,1,1.74,3.81,10.37,10.37,0,0,1,.33,2.08A11.45,11.45,0,0,1,304.62,228.64Z" transform="translate(-223.75 -114.78)"/><path class="cls-25" d="M245.21,362.77a42.11,42.11,0,0,1,5.25-3.85,55.42,55.42,0,0,1,5.7-3.13,28,28,0,0,0,5.42-3.32,22.88,22.88,0,0,0,2.38-2.14c.78-.74,1.48-1.55,2.19-2.37a22.09,22.09,0,0,1-1.83,2.7,24.09,24.09,0,0,1-2.24,2.39,21.94,21.94,0,0,1-5.48,3.63c-2,.94-3.86,1.89-5.76,2.9S247.09,361.68,245.21,362.77Z" transform="translate(-223.75 -114.78)"/><path class="cls-25" d="M240.28,356.13a16.73,16.73,0,0,1,2.3-5.57,15,15,0,0,1,4.27-4.35,48.38,48.38,0,0,1,5.26-2.9c1.82-.84,3.67-1.62,5.53-2.33-1.7,1.07-3.41,2.07-5.16,3s-3.46,2-5.07,3.05A20.12,20.12,0,0,0,240.28,356.13Z" transform="translate(-223.75 -114.78)"/><path class="cls-25" d="M266.49,356.47a13.63,13.63,0,0,0-3.13,0,2.18,2.18,0,0,0-1.22.38c-.26.22-.3.52-.24,1s.13,1,.15,1.58a7.19,7.19,0,0,1-.12,1.67,6.43,6.43,0,0,1-1.4,2.94,11.85,11.85,0,0,0,.63-3,15.72,15.72,0,0,0-.26-3.07,3.08,3.08,0,0,1,.05-.94,1.67,1.67,0,0,1,.6-.92,2.72,2.72,0,0,1,1.79-.41A6.89,6.89,0,0,1,266.49,356.47Z" transform="translate(-223.75 -114.78)"/><path class="cls-25" d="M263.94,365a20.8,20.8,0,0,0,4.21-4.54,27.29,27.29,0,0,0,1.57-2.66l.38-.69c.06-.12.13-.24.21-.37a1.3,1.3,0,0,1,.22-.26.72.72,0,0,1,.22-.12.55.55,0,0,1,.66.37l0,.12a1.77,1.77,0,0,1,0,.54c0,.15,0,.29-.07.42s-.13.54-.21.8a4.67,4.67,0,0,1-.31.82l-.07.12a1.3,1.3,0,0,1-.17.2.52.52,0,0,1-.71,0,.5.5,0,0,1-.1-.12.61.61,0,0,1-.09-.25,2.2,2.2,0,0,1,0-.48,14.17,14.17,0,0,1,.08-1.62c.12-1.05.24-2.1.43-3.14A57.49,57.49,0,0,1,271.6,348c-.08,1-.22,2.07-.32,3.12s-.26,2.08-.35,3.12-.2,2.08-.25,3.11c0,.52-.07,1-.06,1.52,0,.12,0,.25,0,.31s0,0,0-.07l-.07-.09a.46.46,0,0,0-.23-.1.38.38,0,0,0-.35.08l-.05,0,0-.05a5.29,5.29,0,0,0,.24-.65c.07-.24.14-.48.19-.72l.07-.35c0-.1,0-.25,0-.24v0a.41.41,0,0,0,.15.21.5.5,0,0,0,.38.06.61.61,0,0,0,.13-.07s0,0,0,0-.12.2-.18.31l-.39.68a20.45,20.45,0,0,1-1.78,2.65,17.9,17.9,0,0,1-2.21,2.31A14.4,14.4,0,0,1,263.94,365Z" transform="translate(-223.75 -114.78)"/><path class="cls-25" d="M267,367.87a10.62,10.62,0,0,0,2-.77,7.6,7.6,0,0,0,1.64-1.22,4.71,4.71,0,0,1,2.05-1.18,3.83,3.83,0,0,1,2.3.11,8.26,8.26,0,0,0-2,.63,6.59,6.59,0,0,0-1.65,1.18,5.16,5.16,0,0,1-2,1.2A4.19,4.19,0,0,1,267,367.87Z" transform="translate(-223.75 -114.78)"/><path class="cls-25" d="M252,374.34a18.67,18.67,0,0,0,3.91-2.29,9.47,9.47,0,0,0,1.55-1.55c.46-.55.83-1.22,1.36-1.86a4.91,4.91,0,0,1,4.54-1.72,3.54,3.54,0,0,1,2.1,1.31,4.33,4.33,0,0,1,.84,2.2,3.54,3.54,0,0,0-5.07-2.37,4.17,4.17,0,0,0-1.65,1.23c-.46.52-.85,1.2-1.39,1.82a9.05,9.05,0,0,1-1.82,1.57A11.54,11.54,0,0,1,252,374.34Z" transform="translate(-223.75 -114.78)"/><path class="cls-25" d="M254.4,368a2.86,2.86,0,0,0-2.71-.21,2.44,2.44,0,0,0-1,.85,3.21,3.21,0,0,0-.55,1.41,2,2,0,0,1-.16-1.75,2.46,2.46,0,0,1,3.15-1.51A2,2,0,0,1,254.4,368Z" transform="translate(-223.75 -114.78)"/><path class="cls-25" d="M245,364.47a3.55,3.55,0,0,1,1.18.36,5.35,5.35,0,0,1,1,.6l-.33-.09a5.05,5.05,0,0,1,1,0,3.58,3.58,0,0,1,1.06.29,3.67,3.67,0,0,1-1,.46,5.16,5.16,0,0,1-1,.2l-.17,0-.16-.11a5.41,5.41,0,0,1-.9-.76A3.63,3.63,0,0,1,245,364.47Z" transform="translate(-223.75 -114.78)"/><path class="cls-25" d="M254.06,354.43a19.88,19.88,0,0,0-4.09,0,14.48,14.48,0,0,0-3.91,1.16,5.5,5.5,0,0,1,3.77-2.15A6.07,6.07,0,0,1,254.06,354.43Z" transform="translate(-223.75 -114.78)"/><path class="cls-25" d="M257,352.38c-1.63-.18-3.14-.47-4.68-.68-.77-.11-1.54-.24-2.32-.29a14.34,14.34,0,0,1-2.36-.39,13.7,13.7,0,0,1,2.39-.39,9.4,9.4,0,0,1,2.43.08A11.09,11.09,0,0,1,257,352.38Z" transform="translate(-223.75 -114.78)"/><path class="cls-25" d="M260.36,349.49a18.29,18.29,0,0,1-4.89-.77c-.39-.13-.79-.25-1.18-.41-.2-.08-.39-.17-.59-.27l-.31-.17-.17-.14a.57.57,0,0,1-.22-.42.47.47,0,0,1,.32-.46.82.82,0,0,1,.22-.06,2.3,2.3,0,0,1,.36,0c.22,0,.43,0,.64.06a9.08,9.08,0,0,1,1.23.28c-.42.09-.83.14-1.23.21a5,5,0,0,0-.58.11,1.38,1.38,0,0,0-.26.07l-.07,0s0,0,.05,0,.11-.16.1-.22c-.05-.23,0-.14-.05-.18l.08,0,.24.1.56.18c.37.12.76.23,1.15.34A27.91,27.91,0,0,1,260.36,349.49Z" transform="translate(-223.75 -114.78)"/><path class="cls-25" d="M265.47,344.21a16.05,16.05,0,0,1-4.39-.42,14.91,14.91,0,0,1-2.13-.65,3.07,3.07,0,0,1-.57-.29l-.06,0a.37.37,0,0,1-.11-.15c0-.12-.07-.16,0-.32s.07-.09.1-.1l.07,0a.56.56,0,0,1,.23,0l.3,0a6.51,6.51,0,0,1,1.09.31c-.37.08-.74.12-1.09.19l-.25,0s-.08,0,0,0l0,0s0,0,.08-.07.06-.17,0-.26-.09-.12-.07-.11h0l.45.09c.7.12,1.41.27,2.12.42A19,19,0,0,1,265.47,344.21Z" transform="translate(-223.75 -114.78)"/><path class="cls-25" d="M268,339.62a13.16,13.16,0,0,1,5.1,5,22.37,22.37,0,0,1,1,2.19c.28.74.54,1.49.79,2.24s.43,1.52.62,2.29c.4,1.52.74,3.07,1,4.62q-1-2.18-1.75-4.39c-.53-1.47-1-3-1.61-4.4-.27-.72-.56-1.44-.89-2.12a15.81,15.81,0,0,0-1.18-1.95A21.94,21.94,0,0,0,268,339.62Z" transform="translate(-223.75 -114.78)"/><path class="cls-25" d="M230.91,339.28a91.11,91.11,0,0,1,7.1-6.51c2.48-2,5-4,7.64-5.87a31.4,31.4,0,0,1,4.19-2.48,36.17,36.17,0,0,1,4.52-1.77,50.77,50.77,0,0,1,9.41-2.1c-1.56.42-3.11.8-4.63,1.3s-3,.95-4.52,1.52-3,1.18-4.36,1.89a32.75,32.75,0,0,0-4,2.46c-1.31.9-2.59,1.86-3.88,2.81l-3.86,2.84C235.93,335.29,233.43,337.28,230.91,339.28Z" transform="translate(-223.75 -114.78)"/><path class="cls-25" d="M464.45,296.38c-1.71.71-3.41,1.41-5.07,2.19s-3.33,1.56-4.93,2.44c-3.2,1.78-6.36,3.7-9.62,5.42s-6.5,3.49-9.78,5.16-6.7,3.1-10.09,4.54c1.6-.92,3.23-1.77,4.85-2.66l4.88-2.56c3.2-1.83,6.43-3.6,9.66-5.35s6.42-3.59,9.75-5.23A64.14,64.14,0,0,1,464.45,296.38Z" transform="translate(-223.75 -114.78)"/><path class="cls-25" d="M461.55,313.23a26.45,26.45,0,0,0-3.43-.22,21.41,21.41,0,0,0-3.4.2,30.15,30.15,0,0,0-3.33.65,29.22,29.22,0,0,0-3.21,1.17,21.41,21.41,0,0,1-6.95,1c-1.17,0-2.33-.09-3.48-.22s-2.3-.34-3.43-.55c2.32,0,4.61.17,6.89,0a26.16,26.16,0,0,0,6.65-1.19,24.54,24.54,0,0,1,3.3-1.14,20.56,20.56,0,0,1,3.48-.5A18.92,18.92,0,0,1,461.55,313.23Z" transform="translate(-223.75 -114.78)"/><path class="cls-25" d="M409,283.11c.8-.57,1.63-1.1,2.44-1.64s1.66-1.05,2.49-1.57l-.11.09a13.64,13.64,0,0,1,3.68-3.58,9,9,0,0,1,5-1.44,13.2,13.2,0,0,0,4.84-.4,13.49,13.49,0,0,0,4.31-2.36,10.72,10.72,0,0,1-4.09,3,9.8,9.8,0,0,1-2.51.67c-.87.1-1.73.06-2.54.09a8.59,8.59,0,0,0-4.49,1.3,16.66,16.66,0,0,0-3.63,3.2l0,.07-.05,0c-.87.45-1.74.91-2.62,1.33S409.86,282.71,409,283.11Z" transform="translate(-223.75 -114.78)"/><path class="cls-25" d="M449.64,274.26a77.78,77.78,0,0,0-9.6,1.56,80.9,80.9,0,0,0-9.3,2.86,29.13,29.13,0,0,1,18.9-4.42Z" transform="translate(-223.75 -114.78)"/><path class="cls-25" d="M456.28,289.4a12.38,12.38,0,0,1-3.69,3.73,10.58,10.58,0,0,1-2.42,1.16,15.45,15.45,0,0,1-2.62.54c-1.73.21-3.44.35-5.16.53s-3.44.29-5.18.34c1.68-.43,3.38-.81,5.08-1.12s3.43-.52,5.13-.74a12.56,12.56,0,0,0,4.78-1.38A18.08,18.08,0,0,0,456.28,289.4Z" transform="translate(-223.75 -114.78)"/><path class="cls-25" d="M442.15,300.13a24.89,24.89,0,0,0-4.89,2.3,17.68,17.68,0,0,0-2.15,1.57c-.66.56-1.28,1.25-2.07,1.84a13,13,0,0,1-2.48,1.36c-.89.36-1.77.59-2.56.93a12.67,12.67,0,0,0-4.23,3.23,9.8,9.8,0,0,1,3.89-3.93c.84-.46,1.73-.72,2.52-1.1a12.05,12.05,0,0,0,2.27-1.3c.7-.49,1.31-1.16,2.06-1.76a15.06,15.06,0,0,1,2.36-1.52A15.56,15.56,0,0,1,442.15,300.13Z" transform="translate(-223.75 -114.78)"/><path class="cls-25" d="M431.94,248.38c-2.06,2-4.2,3.94-6.34,5.86s-4.31,3.79-6.51,5.64a43.37,43.37,0,0,1-3.47,2.64,28.39,28.39,0,0,1-3.82,2.1,33.25,33.25,0,0,1-4.06,1.55,31.06,31.06,0,0,1-4.23.94c1.38-.42,2.74-.86,4.07-1.4a34,34,0,0,0,3.88-1.78,36,36,0,0,0,3.63-2.19c1.16-.8,2.26-1.71,3.36-2.63,2.2-1.82,4.4-3.68,6.66-5.46S429.61,250.08,431.94,248.38Z" transform="translate(-223.75 -114.78)"/><path class="cls-25" d="M411.34,255.36a50.55,50.55,0,0,1-4.48,6.07c-.42.47-.83.95-1.3,1.41A10.45,10.45,0,0,1,404,264a8.71,8.71,0,0,1-3.57,1.36,16,16,0,0,0,3.11-2,17.59,17.59,0,0,0,2.54-2.63A50.55,50.55,0,0,1,411.34,255.36Z" transform="translate(-223.75 -114.78)"/><path class="cls-25" d="M411,241.91c-1.07,4-2.43,7.92-3.85,11.8a39.68,39.68,0,0,1-2.51,5.73,12.21,12.21,0,0,1-4.19,4.6,15.31,15.31,0,0,0,3.5-5c.89-1.82,1.53-3.77,2.26-5.71C407.67,249.49,409.19,245.65,411,241.91Z" transform="translate(-223.75 -114.78)"/><path class="cls-25" d="M448.11,254.68a25.68,25.68,0,0,0-3.52.47,18.72,18.72,0,0,0-3.37.94,19,19,0,0,0-3.12,1.5,32.14,32.14,0,0,0-2.87,2,13.16,13.16,0,0,1-6.91,2.24,21.72,21.72,0,0,1-3.61-.13,29.86,29.86,0,0,1-3.5-.75,30.76,30.76,0,0,0,7,.12,14,14,0,0,0,6.41-2.3,30.3,30.3,0,0,1,3-2,16.41,16.41,0,0,1,3.35-1.41A18.36,18.36,0,0,1,448.11,254.68Z" transform="translate(-223.75 -114.78)"/><path class="cls-25" d="M423.26,234.09a9.3,9.3,0,0,0-1.81-4.65,9.73,9.73,0,0,0-4.11-2.65,24.79,24.79,0,0,1-4.56-2.59,21.51,21.51,0,0,1-3.82-3.56q2.07,1.58,4.25,2.91a39.63,39.63,0,0,0,4.54,2.33,19.42,19.42,0,0,1,2.36,1.2,6.61,6.61,0,0,1,2,1.9A7.78,7.78,0,0,1,423.26,234.09Z" transform="translate(-223.75 -114.78)"/><path class="cls-25" d="M384.79,250.28a20.7,20.7,0,0,1,12.59-14.35,36.55,36.55,0,0,0-7.3,6.3A37,37,0,0,0,384.79,250.28Z" transform="translate(-223.75 -114.78)"/><path class="cls-25" d="M385,246a20.11,20.11,0,0,1,1.57-6.7,21.26,21.26,0,0,1,3.56-5.9c-.85,2.15-1.79,4.19-2.64,6.28S385.9,243.86,385,246Z" transform="translate(-223.75 -114.78)"/><path class="cls-25" d="M383.68,243.79q.18-2.94.56-5.86c.12-1,.24-2,.41-2.92s.39-1.93.61-2.89A57.58,57.58,0,0,1,389,221c-.93,3.82-1.93,7.57-2.81,11.37-.47,1.89-.86,3.8-1.23,5.71S384.19,241.88,383.68,243.79Z" transform="translate(-223.75 -114.78)"/><path class="cls-25" d="M444.53,362.26c-1.87-1.09-3.73-2.18-5.63-3.19s-3.81-2-5.76-2.9a21.89,21.89,0,0,1-5.47-3.63,23.06,23.06,0,0,1-2.25-2.39,22,22,0,0,1-1.82-2.7c.71.82,1.41,1.63,2.19,2.37a24.08,24.08,0,0,0,2.38,2.14,27.21,27.21,0,0,0,5.42,3.31,59.83,59.83,0,0,1,5.7,3.14A42,42,0,0,1,444.53,362.26Z" transform="translate(-223.75 -114.78)"/><path class="cls-25" d="M413.06,359.08c2,.76,4.05,1.52,6.08,2.21s4.09,1.29,6.17,1.89a22.07,22.07,0,0,1,6,2.67,24.19,24.19,0,0,1,2.61,2,22.87,22.87,0,0,1,2.25,2.37c-.84-.69-1.66-1.38-2.55-2a23.26,23.26,0,0,0-2.71-1.71,27.7,27.7,0,0,0-5.89-2.37,57.41,57.41,0,0,1-6.15-2.14A42.08,42.08,0,0,1,413.06,359.08Z" transform="translate(-223.75 -114.78)"/><path class="cls-25" d="M449.47,355.62a20.19,20.19,0,0,0-7.13-9.09c-1.61-1.09-3.37-2-5.08-3s-3.45-2-5.15-3q2.79,1.06,5.52,2.33a48.51,48.51,0,0,1,5.27,2.9,15.12,15.12,0,0,1,4.27,4.35A16.94,16.94,0,0,1,449.47,355.62Z" transform="translate(-223.75 -114.78)"/><path class="cls-25" d="M423.26,356a7,7,0,0,1,3.15-.73,2.8,2.8,0,0,1,1.79.42,1.63,1.63,0,0,1,.59.92,2.79,2.79,0,0,1,0,.94,15.68,15.68,0,0,0-.25,3.07,11.5,11.5,0,0,0,.62,3,6.43,6.43,0,0,1-1.4-2.94,7.78,7.78,0,0,1-.12-1.67c0-.55.12-1.1.15-1.58s0-.82-.23-1a2.24,2.24,0,0,0-1.23-.38A13.54,13.54,0,0,0,423.26,356Z" transform="translate(-223.75 -114.78)"/><path class="cls-25" d="M422.74,367.36a4.15,4.15,0,0,1-2.29-.05,5.28,5.28,0,0,1-2-1.2,6.3,6.3,0,0,0-1.64-1.18,8.34,8.34,0,0,0-2.05-.63,3.86,3.86,0,0,1,2.31-.11,4.82,4.82,0,0,1,2,1.17,7.7,7.7,0,0,0,1.65,1.23A10.27,10.27,0,0,0,422.74,367.36Z" transform="translate(-223.75 -114.78)"/><path class="cls-25" d="M437.72,373.83a11.5,11.5,0,0,1-4.36-1.66,9.05,9.05,0,0,1-1.82-1.57c-.55-.62-.93-1.3-1.4-1.82a4.26,4.26,0,0,0-1.64-1.24,4,4,0,0,0-2-.36,3.84,3.84,0,0,0-3.06,2.73,4.24,4.24,0,0,1,.84-2.19,3.51,3.51,0,0,1,2.1-1.31,4.89,4.89,0,0,1,4.53,1.72c.53.64.91,1.31,1.36,1.86a9.88,9.88,0,0,0,1.55,1.55A18.93,18.93,0,0,0,437.72,373.83Z" transform="translate(-223.75 -114.78)"/><path class="cls-25" d="M435.34,367.53a2,2,0,0,1,1.27-1.21,2.46,2.46,0,0,1,3.14,1.5,2,2,0,0,1-.15,1.75,3.48,3.48,0,0,0-.55-1.4,2.51,2.51,0,0,0-1-.85A2.88,2.88,0,0,0,435.34,367.53Z" transform="translate(-223.75 -114.78)"/><path class="cls-25" d="M444.7,364a3.56,3.56,0,0,1-.69,1,5.34,5.34,0,0,1-.89.76l-.16.11-.17,0a5,5,0,0,1-1-.2,3.69,3.69,0,0,1-1-.46,3.44,3.44,0,0,1,1-.29,5.09,5.09,0,0,1,1,0l-.33.09a5.71,5.71,0,0,1,1-.6A3.62,3.62,0,0,1,444.7,364Z" transform="translate(-223.75 -114.78)"/><path class="cls-25" d="M435.68,353.91a6.13,6.13,0,0,1,4.23-1,5.5,5.5,0,0,1,3.77,2.15,14.31,14.31,0,0,0-3.9-1.16A20.69,20.69,0,0,0,435.68,353.91Z" transform="translate(-223.75 -114.78)"/><path class="cls-25" d="M433.27,346.5a6.08,6.08,0,0,1,2.17,3.75,5.51,5.51,0,0,1-.92,4.24,14.52,14.52,0,0,0-.06-4.07A20.56,20.56,0,0,0,433.27,346.5Z" transform="translate(-223.75 -114.78)"/><path class="cls-25" d="M435,355.2a11,11,0,0,1,1.65-4.55,9.51,9.51,0,0,1,1.5-1.9,13.8,13.8,0,0,1,1.85-1.58,16.49,16.49,0,0,1-1.23,2.06c-.47.62-.87,1.29-1.28,1.95C436.65,352.49,435.9,353.84,435,355.2Z" transform="translate(-223.75 -114.78)"/><path class="cls-25" d="M424.28,343.7a18.78,18.78,0,0,1,4.17-1.4c.7-.15,1.42-.3,2.12-.42l.44-.09h0s0,0-.07.1a.31.31,0,0,0,0,.26.24.24,0,0,0,.08.08l0,0,0,0-.24-.05c-.35-.06-.73-.1-1.1-.18a7.09,7.09,0,0,1,1.09-.31l.31,0a.5.5,0,0,1,.22,0l.08,0s0,0,.1.1a.33.33,0,0,1,0,.32.36.36,0,0,1-.11.15l-.05,0a3.46,3.46,0,0,1-.58.29,15.18,15.18,0,0,1-2.12.65A16.05,16.05,0,0,1,424.28,343.7Z" transform="translate(-223.75 -114.78)"/><path class="cls-25" d="M421.72,339.11a22.45,22.45,0,0,0-3.08,3.48,18.73,18.73,0,0,0-1.18,2c-.32.68-.62,1.4-.89,2.12-.59,1.44-1.08,2.93-1.6,4.4s-1.11,2.94-1.76,4.39c.28-1.55.62-3.1,1-4.63.19-.76.4-1.52.62-2.28s.51-1.5.79-2.24a21.35,21.35,0,0,1,1-2.19,11.83,11.83,0,0,1,1.4-2A12.82,12.82,0,0,1,421.72,339.11Z" transform="translate(-223.75 -114.78)"/><path class="cls-25" d="M458.83,338.77c-2.51-2-5-4-7.57-5.91L447.4,330c-1.29-.94-2.57-1.9-3.88-2.8a32.63,32.63,0,0,0-4-2.46c-1.41-.71-2.88-1.31-4.36-1.89s-3-1.07-4.53-1.52-3.07-.88-4.62-1.3a50.67,50.67,0,0,1,9.4,2.1,35.71,35.71,0,0,1,4.53,1.77,29.68,29.68,0,0,1,4.18,2.48c2.63,1.88,5.17,3.82,7.65,5.87A89,89,0,0,1,458.83,338.77Z" transform="translate(-223.75 -114.78)"/><path class="cls-25" d="M349.21,422.17a33.31,33.31,0,0,0,10-.08,37.59,37.59,0,0,0,9.41-3.13,53.83,53.83,0,0,0,8.94-4.41,20.18,20.18,0,0,0,3.69-3.29,24.08,24.08,0,0,0,3-4,20.49,20.49,0,0,1-6.21,7.95c-2.74,2.09-5.94,3.33-9,4.7-1.55.65-3.1,1.32-4.71,1.86a23.83,23.83,0,0,1-5,1.11,28.88,28.88,0,0,1-5.09.14A27.07,27.07,0,0,1,349.21,422.17Z" transform="translate(-223.75 -114.78)"/><path class="cls-25" d="M383.3,414c1.21-.68,2.4-1.17,3.59-1.7l1.8-.77a13.09,13.09,0,0,1,1.88-.72,8.65,8.65,0,0,1-1.5,1.4,10,10,0,0,1-1.78,1A8.8,8.8,0,0,1,383.3,414Z" transform="translate(-223.75 -114.78)"/><path class="cls-25" d="M341.68,422.68c-2.88-.72-5.75-1.44-8.64-2.07s-5.77-1.19-8.7-1.69a41.22,41.22,0,0,1-8.57-2.62c-1.37-.6-2.71-1.25-4-2s-2.56-1.51-3.77-2.37c1.33.67,2.64,1.34,4,1.93s2.69,1.19,4.08,1.69a50.9,50.9,0,0,0,8.47,2.35c2.91.53,5.84,1.14,8.7,1.94,1.43.4,2.85.82,4.27,1.28S340.31,422.11,341.68,422.68Z" transform="translate(-223.75 -114.78)"/><path class="cls-25" d="M294.45,389.74c2.92,3,5.85,6,8.85,8.84s6,5.75,9.18,8.47a55.27,55.27,0,0,0,9.94,7.39,40.5,40.5,0,0,0,5.64,2.58,45.13,45.13,0,0,0,6,1.83,38.09,38.09,0,0,1-12-3.73,51.3,51.3,0,0,1-10.24-7.32c-3.11-2.8-6.17-5.66-9.06-8.68S297.06,393,294.45,389.74Z" transform="translate(-223.75 -114.78)"/><path class="cls-25" d="M305.3,419.36c1.21.07,2.42.23,3.63.4s2.4.48,3.58.8a30.33,30.33,0,0,1,6.83,2.75,40.23,40.23,0,0,0,6.4,3.27,24.41,24.41,0,0,0,3.44,1.06c1.16.33,2.37.4,3.56.66l-1.82,0a16.1,16.1,0,0,1-1.84-.14,24.81,24.81,0,0,1-3.59-.81,23.58,23.58,0,0,1-3.43-1.37c-1.11-.53-2.17-1.18-3.21-1.76a39.59,39.59,0,0,0-6.56-2.89A68.71,68.71,0,0,0,305.3,419.36Z" transform="translate(-223.75 -114.78)"/><path class="cls-25" d="M352.15,437.11a14.15,14.15,0,0,1,1.72-4.89,10.32,10.32,0,0,1,3.78-3.67,13.87,13.87,0,0,1,2.44-1c.8-.29,1.59-.58,2.36-.94a29.65,29.65,0,0,0,4.42-2.48c1.44-.93,2.9-1.88,4.44-2.7a39.57,39.57,0,0,1,4.74-2.15,45.79,45.79,0,0,1,5-1.53,44.32,44.32,0,0,1,5.1-.92,60.58,60.58,0,0,0-9.77,3.17,52.76,52.76,0,0,0-8.93,5,29.52,29.52,0,0,1-4.59,2.51c-.8.34-1.63.63-2.46.9a16.57,16.57,0,0,0-2.36.87C355,430.68,353.07,433.82,352.15,437.11Z" transform="translate(-223.75 -114.78)"/><path class="cls-25" d="M389.55,417.7c-.5,1.11-1.06,2.19-1.58,3.29s-1.13,2.14-1.66,3.23l-1.6,3.26c-.27.54-.55,1.1-.89,1.64a12.45,12.45,0,0,1-1.16,1.5,15,15,0,0,1-2.88,2.38c-1,.67-2,1.39-2.92,2.11s-1.88,1.52-2.77,2.33-1.79,1.63-2.66,2.47a32.65,32.65,0,0,1,2.31-2.82c.84-.89,1.71-1.75,2.62-2.57a33.1,33.1,0,0,1,2.87-2.29,15.29,15.29,0,0,0,2.69-2.28,11.5,11.5,0,0,0,1.08-1.36c.31-.47.58-1,.87-1.54.57-1.07,1.14-2.15,1.77-3.19Q387.5,420.71,389.55,417.7Z" transform="translate(-223.75 -114.78)"/><path class="cls-25" d="M371.68,450.81a23.44,23.44,0,0,1,7-8.55c1.54-1.09,3.12-1.95,4.59-3s2.95-2.17,4.34-3.33a35.62,35.62,0,0,0,3.94-3.73c1.23-1.32,2.24-2.85,3.41-4.29s2.34-2.84,3.59-4.2,2.56-2.65,3.93-3.88c-2.43,2.76-4.77,5.58-6.91,8.55-1.06,1.48-2.07,3-3.31,4.45a35.75,35.75,0,0,1-4,3.87c-1.45,1.17-2.92,2.26-4.44,3.33s-3.17,2-4.69,2.9a21.91,21.91,0,0,0-4.08,3.56A30.26,30.26,0,0,0,371.68,450.81Z" transform="translate(-223.75 -114.78)"/><path class="cls-25" d="M374.23,454.6c.74-1.43,1.58-2.8,2.45-4.15s1.83-2.63,2.81-3.92a35.18,35.18,0,0,1,6.92-6.76c1.29-.95,2.58-1.9,3.92-2.8s2.7-1.73,4.06-2.57,2.66-1.76,4-2.64,2.68-1.74,4.06-2.57c-2.5,2-5.05,3.95-7.63,5.85-1.3.94-2.66,1.8-4,2.71s-2.58,1.86-3.85,2.82a41.53,41.53,0,0,0-6.93,6.45C378,449.45,376.06,452,374.23,454.6Z" transform="translate(-223.75 -114.78)"/><path class="cls-25" d="M386.74,454c1.25-2.19,2.59-4.3,3.93-6.41.66-1.06,1.36-2.09,2.05-3.14s1.43-2.05,2-3.12a48.58,48.58,0,0,1,4.07-6.36c.78-1,1.6-1.95,2.45-2.87a35.25,35.25,0,0,1,2.72-2.61c-.8,1-1.61,1.92-2.35,2.92s-1.51,2-2.2,3c-1.42,2-2.58,4.2-3.82,6.4s-2.83,4.15-4.31,6.19S388.33,452,386.74,454Z" transform="translate(-223.75 -114.78)"/><path class="cls-25" d="M355.09,456.89a13.23,13.23,0,0,0,3.11,1.74,9.76,9.76,0,0,0,3.39.76c1.17.05,2.36,0,3.55,0s2.4-.09,3.58-.19a41.85,41.85,0,0,0,7-1.16,52.1,52.1,0,0,0,6.8-2.26,28.76,28.76,0,0,1-3.2,1.7c-1.1.49-2.24.92-3.39,1.3a31,31,0,0,1-7.14,1.41c-1.22.09-2.43.13-3.63.14a24.92,24.92,0,0,1-3.65-.14A10.67,10.67,0,0,1,355.09,456.89Z" transform="translate(-223.75 -114.78)"/><path class="cls-25" d="M396.19,462.77a9.78,9.78,0,0,1,.42-4.48,9.27,9.27,0,0,1,2.54-3.81,27.79,27.79,0,0,0,3-3.13,28.34,28.34,0,0,0,2.45-3.65,13.33,13.33,0,0,1-1.82,4.1,17.54,17.54,0,0,1-3,3.39,10.77,10.77,0,0,0-2.51,3.38A15,15,0,0,0,396.19,462.77Z" transform="translate(-223.75 -114.78)"/><path class="cls-25" d="M338.74,440.94A25.74,25.74,0,0,1,337,445.7a41.34,41.34,0,0,1-2.52,4.43,11.27,11.27,0,0,1-1.67,2,5.83,5.83,0,0,1-2.36,1.3,7.33,7.33,0,0,1-5.08-.51,8.79,8.79,0,0,0,4.84-.23,7.2,7.2,0,0,0,3.44-3.14c.91-1.38,1.81-2.82,2.67-4.24S338,442.43,338.74,440.94Z" transform="translate(-223.75 -114.78)"/><path class="cls-25" d="M281.43,449.23a25.23,25.23,0,0,0,8.45,4.77,11.9,11.9,0,0,0,4.65.84,7.22,7.22,0,0,0,2.23-.48,23.36,23.36,0,0,0,2.12-1.14,16.75,16.75,0,0,1,4.73-1.75c1.63-.35,3.25-.61,4.88-.84s3.26-.44,4.9-.61,3.28-.25,4.93-.28c-3.26.49-6.49,1-9.7,1.65s-6.5,1.06-9.26,2.71a23.18,23.18,0,0,1-2.23,1.16,7.64,7.64,0,0,1-2.56.52,11.83,11.83,0,0,1-4.95-1.06,22.86,22.86,0,0,1-4.43-2.27A22.28,22.28,0,0,1,281.43,449.23Z" transform="translate(-223.75 -114.78)"/><path class="cls-25" d="M326.74,445.15c-1.13-.07-2.25-.17-3.38-.22s-2.25-.13-3.38-.15c-2.25,0-4.49-.07-6.74,0s-4.48.25-6.72.47c-1.12.11-2.23.25-3.35.41s-2.24.32-3.36.48c1.07-.38,2.17-.66,3.27-1s2.22-.49,3.34-.69a51.41,51.41,0,0,1,6.79-.71,50.09,50.09,0,0,1,6.82.2A44.79,44.79,0,0,1,326.74,445.15Z" transform="translate(-223.75 -114.78)"/><path class="cls-25" d="M281.68,439.4c1.39,1.41,2.69,2.78,4.13,4s3,2.35,4.55,3.53a12.46,12.46,0,0,1-5.2-2.78A12.61,12.61,0,0,1,281.68,439.4Z" transform="translate(-223.75 -114.78)"/><path class="cls-25" d="M282.83,434.3a17.53,17.53,0,0,1,3.5,3.75,17.29,17.29,0,0,1,2.37,4.55,18,18,0,0,1-1.68-2c-.52-.66-1-1.34-1.51-2A34.48,34.48,0,0,1,282.83,434.3Z" transform="translate(-223.75 -114.78)"/><path class="cls-25" d="M287.68,424.85a25.19,25.19,0,0,1,4.51,2.73,21.67,21.67,0,0,1,2,1.68,17.5,17.5,0,0,1,1.77,2,17.64,17.64,0,0,1-2.26-1.37c-.72-.49-1.45-1-2.14-1.49A24.39,24.39,0,0,1,287.68,424.85Z" transform="translate(-223.75 -114.78)"/><path class="cls-25" d="M281.68,452.94a4,4,0,0,1,2.64,1.52,3.71,3.71,0,0,1,.81,2.94c-.58-.87-1-1.61-1.6-2.32S282.36,453.73,281.68,452.94Z" transform="translate(-223.75 -114.78)"/><path class="cls-25" d="M306.7,457.4a30.76,30.76,0,0,1,11.72-3.78,30.44,30.44,0,0,1,12.28,1,54.93,54.93,0,0,0-12.16,0A55.67,55.67,0,0,0,306.7,457.4Z" transform="translate(-223.75 -114.78)"/><path class="cls-25" d="M322.53,459.7a17.09,17.09,0,0,1,5.62-2.49,16.88,16.88,0,0,1,6.13-.44c-2,.52-3.95.91-5.89,1.41S324.54,459.23,322.53,459.7Z" transform="translate(-223.75 -114.78)"/><path class="cls-25" d="M276.19,497.4a31.16,31.16,0,0,0,3.11,3.71,30.44,30.44,0,0,0,3.6,3.14,14.53,14.53,0,0,0,9,2.69,10.69,10.69,0,0,1-4.94.14,11.81,11.81,0,0,1-4.59-2,20.93,20.93,0,0,1-3.6-3.43A16.32,16.32,0,0,1,276.19,497.4Z" transform="translate(-223.75 -114.78)"/><path class="cls-25" d="M283.51,510.17c1.56.22,3.12.45,4.69.58s3.12.3,4.69.36,3.15.13,4.7.14a18.35,18.35,0,0,0,4.58-.4,12.93,12.93,0,0,0,4.19-1.74,47.19,47.19,0,0,1,4.08-2.43,42.63,42.63,0,0,1,8.82-3.49c-1.46.61-2.91,1.23-4.31,1.94s-2.79,1.42-4.14,2.23-2.63,1.65-3.95,2.55a13.35,13.35,0,0,1-4.47,1.91,18.69,18.69,0,0,1-4.82.38c-1.59-.07-3.16-.18-4.73-.33A52.48,52.48,0,0,1,283.51,510.17Z" transform="translate(-223.75 -114.78)"/><path class="cls-25" d="M328.79,492.81a20.15,20.15,0,0,1-1.3,5.16,22.2,22.2,0,0,1-2.51,4.74,19,19,0,0,1-8.28,6.61,28.25,28.25,0,0,0,10.07-11.67A41.42,41.42,0,0,0,328.79,492.81Z" transform="translate(-223.75 -114.78)"/><path class="cls-25" d="M323.68,509a22.7,22.7,0,0,1-7.2,2.81c-1.26.31-2.6.35-3.71.73a5.63,5.63,0,0,0-1.55.82,6.54,6.54,0,0,0-1.22,1.32,22,22,0,0,1-2.84,2.71,15.33,15.33,0,0,1-3.31,2.13,40.34,40.34,0,0,1-7.4,2.24c1.19-.5,2.39-.93,3.58-1.4a25.12,25.12,0,0,0,3.47-1.52,18.73,18.73,0,0,0,3.05-2.17,22.24,22.24,0,0,0,2.68-2.63,7.15,7.15,0,0,1,1.41-1.46,6.21,6.21,0,0,1,1.85-.94,29.37,29.37,0,0,1,3.86-.58A33,33,0,0,0,323.68,509Z" transform="translate(-223.75 -114.78)"/><path class="cls-25" d="M278.06,510c.88,1,1.76,2.06,2.72,3a34.43,34.43,0,0,0,3,2.72A34.82,34.82,0,0,0,287,518l3.41,2.17,3.4,2.19a34.76,34.76,0,0,0,3.43,2,25.13,25.13,0,0,0,7.73,2.07,19.85,19.85,0,0,1-4.07-.26,21.2,21.2,0,0,1-4-1.11,57.11,57.11,0,0,1-7.07-4.09,46.8,46.8,0,0,1-6.63-4.76A29.14,29.14,0,0,1,278.06,510Z" transform="translate(-223.75 -114.78)"/><path class="cls-25" d="M307.85,528.55a7.77,7.77,0,0,1,1.77-2.64,9.1,9.1,0,0,1,2.67-1.82,9,9,0,0,1,3.14-.75,7.59,7.59,0,0,1,3.14.45,15.29,15.29,0,0,0-5.88,1.21A15,15,0,0,0,307.85,528.55Z" transform="translate(-223.75 -114.78)"/><path class="cls-25" d="M276.36,522.77a40.27,40.27,0,0,0,5.69,5,35.47,35.47,0,0,0,6.54,3.7,38.11,38.11,0,0,0,7.17,2.28c2.48.56,5,.92,7.5,1.43-1.28,0-2.55-.14-3.83-.21s-2.54-.28-3.81-.47a29.26,29.26,0,0,1-7.42-2.12,28.16,28.16,0,0,1-6.61-4,29.37,29.37,0,0,1-2.83-2.63A27.56,27.56,0,0,1,276.36,522.77Z" transform="translate(-223.75 -114.78)"/><path class="cls-25" d="M279.09,530.09a42.07,42.07,0,0,0,3.06,5.19c1.14,1.67,2.26,3.31,4,4.19a16.76,16.76,0,0,0,2.74,1c1,.33,1.9.59,2.88.86a12.49,12.49,0,0,1,2.9,1.06,12.28,12.28,0,0,1,2.5,1.77,14.64,14.64,0,0,0-5.58-2.07,27.51,27.51,0,0,1-3-.72,15.82,15.82,0,0,1-2.94-1.07,8.4,8.4,0,0,1-2.44-2.07,20.77,20.77,0,0,1-1.69-2.58A23,23,0,0,1,279.09,530.09Z" transform="translate(-223.75 -114.78)"/><path class="cls-25" d="M295.94,548a10.38,10.38,0,0,0,5.21-.31,5.92,5.92,0,0,0,1.13-.55,4.13,4.13,0,0,0,.93-.81,14.62,14.62,0,0,1,2.07-1.85,21.79,21.79,0,0,1,4.83-2.63c.84-.34,1.71-.63,2.58-.89s1.76-.45,2.65-.62c-1.65.75-3.32,1.42-4.92,2.22a31.09,31.09,0,0,0-4.55,2.72,17,17,0,0,0-2,1.71,5.25,5.25,0,0,1-1.15.91,6.33,6.33,0,0,1-1.34.53A8.59,8.59,0,0,1,295.94,548Z" transform="translate(-223.75 -114.78)"/><path class="cls-25" d="M309.55,538.6a20.39,20.39,0,0,1,2-3.91,23.89,23.89,0,0,1,2.73-3.48,16.71,16.71,0,0,1,7.51-4.53,31.57,31.57,0,0,0-6.79,5.23c-1,1-1.9,2.12-2.82,3.24S310.42,537.41,309.55,538.6Z" transform="translate(-223.75 -114.78)"/><path class="cls-25" d="M278.06,541.49a19.59,19.59,0,0,0,6.36,5.66,14.28,14.28,0,0,1,3.7,2.5,9.92,9.92,0,0,1,2.37,3.75,15.44,15.44,0,0,0-2.9-3.17,18.92,18.92,0,0,0-3.65-2.2,12.7,12.7,0,0,1-3.53-2.78A13.8,13.8,0,0,1,278.06,541.49Z" transform="translate(-223.75 -114.78)"/><path class="cls-25" d="M280.28,552.38c2.2.52,4.38,1.13,6.56,1.8a29.3,29.3,0,0,0,3.17,1,7.75,7.75,0,0,0,1.57.16,15.92,15.92,0,0,0,1.63-.18c2.21-.31,4.41-.75,6.64-1.15a22.57,22.57,0,0,1,6.81-.24c-1.13.09-2.25.17-3.36.35a27.71,27.71,0,0,0-3.29.64,61.63,61.63,0,0,1-6.67,1.39,13.71,13.71,0,0,1-1.74.16,7.5,7.5,0,0,1-1.79-.21,20.38,20.38,0,0,1-3.24-1.18l-3.16-1.2C282.37,553.25,281.32,552.85,280.28,552.38Z" transform="translate(-223.75 -114.78)"/><path class="cls-25" d="M305.47,559.19c1.45-.47,2.88-1,4.28-1.49a36.68,36.68,0,0,0,4.09-1.8,14.58,14.58,0,0,0,3.47-2.66,36.1,36.1,0,0,0,3-3.41,15.38,15.38,0,0,1-2.39,3.93,12,12,0,0,1-3.58,3,22,22,0,0,1-4.32,1.66A21.67,21.67,0,0,1,305.47,559.19Z" transform="translate(-223.75 -114.78)"/><path class="cls-25" d="M279.6,561.57a21.14,21.14,0,0,0,5.7,4.78,17.43,17.43,0,0,0,1.65.77c.57.2,1.18.39,1.78.57l3.6,1.12,3.6,1.12c1.2.39,2.39.79,3.59,1.14,2.41.7,4.86,1.3,7.31,1.91-1.26-.09-2.51-.27-3.77-.44s-2.49-.45-3.73-.72c-2.47-.56-4.87-1.35-7.3-2.06l-3.6-1.17c-.59-.21-1.19-.42-1.8-.66a10.49,10.49,0,0,1-1.72-.92,16.66,16.66,0,0,1-3-2.43A18.22,18.22,0,0,1,279.6,561.57Z" transform="translate(-223.75 -114.78)"/><path class="cls-25" d="M298.66,565.83c2.78,1,5.55,2.14,8.29,3.28l.06,0a19.75,19.75,0,0,1,4,2.38c.31.24.62.48.93.77a2.53,2.53,0,0,1,.46.53.81.81,0,0,1,.11.59.94.94,0,0,1-.32.49,3,3,0,0,1-1.32.42c-.4.06-.79.1-1.18.14l-4.63.43c-1.52.15-3.1.34-4.67.36-3.15,0-6.23-.24-9.33-.47s-6.18-.47-9.28-.78c3.1,0,6.21,0,9.31.12l4.65.14c1.55.06,3.1.11,4.62.06.77,0,1.53-.09,2.3-.16s1.54-.2,2.31-.26l4.64-.36c.38,0,.76-.06,1.13-.11a2.94,2.94,0,0,0,.9-.23s0,0,0,0,0,.09,0,0a2.09,2.09,0,0,0-.3-.35c-.26-.25-.56-.49-.85-.72a20.13,20.13,0,0,0-3.87-2.52l.06,0Q302.65,567.83,298.66,565.83Z" transform="translate(-223.75 -114.78)"/><path class="cls-25" d="M364.74,501.83a69.72,69.72,0,0,0,2,7c.43,1.12.84,2.27,1.3,3.37a8.17,8.17,0,0,0,1.75,2.93,5.19,5.19,0,0,0,1.33,1,8.25,8.25,0,0,0,1.63.57c1.15.32,2.35.59,3.51,1s2.33.74,3.47,1.16,2.26.91,3.36,1.45c-1.18-.33-2.33-.69-3.51-1s-2.34-.63-3.51-.89l-3.56-.78a8.66,8.66,0,0,1-1.82-.61,6.33,6.33,0,0,1-1.6-1.15,9.06,9.06,0,0,1-1.93-3.29c-.42-1.16-.81-2.3-1.14-3.48s-.62-2.37-.86-3.57S364.82,503.05,364.74,501.83Z" transform="translate(-223.75 -114.78)"/><path class="cls-25" d="M384.49,507.28a22,22,0,0,0,4,.13,12.89,12.89,0,0,0,3.81-.75,14.22,14.22,0,0,0,3.4-1.85,16.45,16.45,0,0,1,3.54-2.07,12.18,12.18,0,0,1,4.06-.71,12.69,12.69,0,0,0,3.74-.86,16.91,16.91,0,0,0,3.47-1.82,19.74,19.74,0,0,0,3.12-2.46,17,17,0,0,1-6.3,5,11.88,11.88,0,0,1-4,1.09,11.52,11.52,0,0,0-3.77.71,15.54,15.54,0,0,0-3.36,1.91,13.31,13.31,0,0,1-3.69,1.8A14.66,14.66,0,0,1,384.49,507.28Z" transform="translate(-223.75 -114.78)"/><path class="cls-25" d="M365.09,490.94a43.07,43.07,0,0,1,8.86.28,34.71,34.71,0,0,1,4.39.85l4.25,1.2a37.91,37.91,0,0,0,8.55,1.61,20,20,0,0,0,8.5-1.73,18.49,18.49,0,0,1-4.06,1.81,17.5,17.5,0,0,1-4.44.69,31.76,31.76,0,0,1-8.81-1.41L378.09,493c-1.4-.41-2.83-.72-4.26-1s-2.89-.48-4.35-.64S366.56,491.05,365.09,490.94Z" transform="translate(-223.75 -114.78)"/><path class="cls-25" d="M366.45,494l5.75,2A49.86,49.86,0,0,0,378,497.6a22,22,0,0,0,2.95.41c1,.11,2,.21,3,.38a40.61,40.61,0,0,1,6,1.4c-2-.24-4-.44-6.05-.62s-4-.16-6.1-.59a32.53,32.53,0,0,1-5.86-1.87A44.27,44.27,0,0,1,366.45,494Z" transform="translate(-223.75 -114.78)"/><path class="cls-25" d="M363,480.21c3.34.83,6.63,1.65,10,2.26s6.7,1,10.12,1.49A38.29,38.29,0,0,1,363,480.21Z" transform="translate(-223.75 -114.78)"/><path class="cls-25" d="M362.53,475.45a45.23,45.23,0,0,0,5.69,2.78,41.75,41.75,0,0,0,6.06,1.81,13,13,0,0,1-6.43-.88A13.46,13.46,0,0,1,362.53,475.45Z" transform="translate(-223.75 -114.78)"/><path class="cls-25" d="M375,476a58.31,58.31,0,0,0,6.49-.49,33.93,33.93,0,0,0,6.28-1.36,26.1,26.1,0,0,1,3.21-.83,20,20,0,0,1,3.3-.45,13.64,13.64,0,0,1,3.32.29,12.39,12.39,0,0,1,3.1,1.14,15.37,15.37,0,0,0-6.36-.66,25.14,25.14,0,0,0-3.16.61,27.29,27.29,0,0,0-3.1.85,25.11,25.11,0,0,1-6.52,1.17A29.37,29.37,0,0,1,375,476Z" transform="translate(-223.75 -114.78)"/><path class="cls-25" d="M396.81,476.64a6.13,6.13,0,0,0,5.08-1.18,13.06,13.06,0,0,1,4.88-2.7,25.78,25.78,0,0,1,2.69-.61c.08,0,.23-.09.12,0a.42.42,0,0,0-.11.29.25.25,0,0,0,0,.13l0,.05s0,0,0,0a1.12,1.12,0,0,0-.47-.1.6.6,0,0,0-.66.42,5,5,0,0,0-.12,2.43,9.1,9.1,0,0,0,.71,2.5,3,3,0,0,0,.29.5c.09.15.24.2.14.17s.05,0,.14-.18a4.19,4.19,0,0,0,.29-.52,6.36,6.36,0,0,0,.4-1.21c0-.09.05-.22.05-.24s0-.05,0,0a.49.49,0,0,0,.11.23l.1.07a.62.62,0,0,0,.23.07.49.49,0,0,0,.32-.11l0,0,0-.06h0l-.06.13-.27.64a8.53,8.53,0,0,1-1.56,2.43,5.08,5.08,0,0,1-1.19.91,3.5,3.5,0,0,1-.72.29,2,2,0,0,1-.82,0c-1.84-.21-3.64-.39-5.47-.5a17.73,17.73,0,0,0-5.43.36,16.44,16.44,0,0,1,5.45-.85c1.83,0,3.69.1,5.5.23a1.71,1.71,0,0,0,.54,0,4.43,4.43,0,0,0,.54-.26,4.21,4.21,0,0,0,1-.78,7.49,7.49,0,0,0,1.33-2.21l.26-.63.08-.19,0-.08.07-.09.05,0a.5.5,0,0,1,.34-.12c.18,0,.23.06.24.08a.31.31,0,0,1,.11.09.5.5,0,0,1,.12.27.28.28,0,0,1,0,.12,2,2,0,0,1-.07.44,7.62,7.62,0,0,1-.45,1.4,4.55,4.55,0,0,1-.37.68,1.27,1.27,0,0,1-.92.61,1.19,1.19,0,0,1-1-.56,3.73,3.73,0,0,1-.41-.68,10.29,10.29,0,0,1-.77-2.78,5.71,5.71,0,0,1,.24-3,1.55,1.55,0,0,1,1.54-.92,2.11,2.11,0,0,1,.86.22.88.88,0,0,1,.26.21,1,1,0,0,1,.08.11.74.74,0,0,1,.07.21.55.55,0,0,1-.18.44,1,1,0,0,1-.52.22c-1,.18-1.81.27-2.69.5a12.62,12.62,0,0,0-4.79,2.35A6.16,6.16,0,0,1,396.81,476.64Z" transform="translate(-223.75 -114.78)"/><path class="cls-25" d="M408,489.91a5.94,5.94,0,0,1,1.44,4.45,5.5,5.5,0,0,1-2.29,4.07,11,11,0,0,0,1.29-4.16A13.54,13.54,0,0,0,408,489.91Z" transform="translate(-223.75 -114.78)"/><path class="cls-25" d="M392,536.55a45.21,45.21,0,0,0,6.55-2.68,59.58,59.58,0,0,0,5.93-3.81c1.94-1.36,4-2.64,5.75-4.11a9.5,9.5,0,0,0,2.15-2.67,14.65,14.65,0,0,0,1.41-3.24,11.15,11.15,0,0,1-3,6.48,51.23,51.23,0,0,1-5.7,4.36,38.53,38.53,0,0,1-6.17,3.68,35.08,35.08,0,0,1-3.38,1.23A28.38,28.38,0,0,1,392,536.55Z" transform="translate(-223.75 -114.78)"/><path class="cls-25" d="M412.91,511.87a11.91,11.91,0,0,1-.32,4,9.1,9.1,0,0,1-1.9,3.59,14.42,14.42,0,0,1-3.21,2.47,25.76,25.76,0,0,1-3.56,1.88c-2.42,1-4.77,2.17-7.19,3.26a11.85,11.85,0,0,1-3.86,1.17,10.57,10.57,0,0,1-4-.52,11.88,11.88,0,0,0,3.9,0,11.51,11.51,0,0,0,3.59-1.38c2.31-1.24,4.7-2.43,7.12-3.49a25.55,25.55,0,0,0,3.46-1.76,16.47,16.47,0,0,0,3.15-2.19,8.51,8.51,0,0,0,2-3.22A13,13,0,0,0,412.91,511.87Z" transform="translate(-223.75 -114.78)"/><path class="cls-25" d="M366.28,517.15a28.85,28.85,0,0,0,9.53,9.87,13.81,13.81,0,0,1-9.53-9.87Z" transform="translate(-223.75 -114.78)"/><path class="cls-25" d="M377.34,525.15a12.41,12.41,0,0,1-3.47-1.26,12.17,12.17,0,0,1-3-2.15,13.54,13.54,0,0,1,6.47,3.41Z" transform="translate(-223.75 -114.78)"/><path class="cls-25" d="M379,533.15a71.47,71.47,0,0,1-7.16-2.9c-1.18-.53-2.32-1.14-3.46-1.77a16.53,16.53,0,0,0-1.64-.88,1.85,1.85,0,0,0-.69-.19c-.07,0,.06,0,.05-.07a.71.71,0,0,0,0,.22,7,7,0,0,0,.65,1.65,11.2,11.2,0,0,0,1,1.55c.74,1,1.68,1.89,2.52,2.85a13,13,0,0,0,2.8,2.5,10.7,10.7,0,0,0,3.56,1.29,9.68,9.68,0,0,1-3.79-.85,13.43,13.43,0,0,1-3.12-2.4,32.85,32.85,0,0,1-2.71-2.81,10,10,0,0,1-1.1-1.69,7.62,7.62,0,0,1-.77-1.92,1.57,1.57,0,0,1,0-.73.79.79,0,0,1,.34-.43.92.92,0,0,1,.46-.15,2.67,2.67,0,0,1,1.16.28,14.18,14.18,0,0,1,1.73,1c1.08.67,2.21,1.27,3.32,1.9s2.26,1.21,3.4,1.79Z" transform="translate(-223.75 -114.78)"/><path class="cls-25" d="M369.51,536.21c1.82,1.56,3.51,3.16,5.3,4.66q1.33,1.14,2.7,2.25a32.2,32.2,0,0,1,2.72,2.28,29.07,29.07,0,0,1-3.18-1.65,23.71,23.71,0,0,1-2.88-2.12A21.78,21.78,0,0,1,369.51,536.21Z" transform="translate(-223.75 -114.78)"/><path class="cls-25" d="M369.17,540a16.47,16.47,0,0,1,2.54,1.86,17.3,17.3,0,0,1,2.23,2.22,6.22,6.22,0,0,1-2.88-1.46A6.36,6.36,0,0,1,369.17,540Z" transform="translate(-223.75 -114.78)"/><path class="cls-25" d="M369.17,544.21a6.36,6.36,0,0,1,2.31.55,7.94,7.94,0,0,1,2,1.29,7.73,7.73,0,0,0,1.72,1.29,7,7,0,0,0,2.13.62,3.74,3.74,0,0,1-2.41.11,5.5,5.5,0,0,1-2.09-1.26,17.76,17.76,0,0,0-1.74-1.37C370.49,545,369.85,544.63,369.17,544.21Z" transform="translate(-223.75 -114.78)"/><path class="cls-25" d="M369.34,549a29.07,29.07,0,0,1,3.76,1.14c1.22.49,2.41,1,3.58,1.66a37.47,37.47,0,0,1,3.37,2.06l.4.27.2.14.09.06,0,0,0,0a.42.42,0,0,0-.28,0,.44.44,0,0,0-.24.16.56.56,0,0,0-.11.19.46.46,0,0,0,.1.42h0l0,0-.09-.07-.17-.15-.38-.3a13.88,13.88,0,0,0-1.51-1.09l-.05,0h0a.54.54,0,0,0,.16,0,.38.38,0,0,0,.24-.13.44.44,0,0,0,.14-.38h0s0,0,0,0a3.59,3.59,0,0,0,.21.35,6.23,6.23,0,0,0,.56.71,7.38,7.38,0,0,0,1.4,1.16,4.72,4.72,0,0,0,1.64.68,5.44,5.44,0,0,0,1.8,0,24.52,24.52,0,0,1,3.93-.33A18.28,18.28,0,0,1,392,556a24.63,24.63,0,0,0-7.71.6,5.54,5.54,0,0,1-2.08.11,5.43,5.43,0,0,1-2-.73,7.33,7.33,0,0,1-1.62-1.31,7.59,7.59,0,0,1-.67-.81,3.17,3.17,0,0,1-.29-.49,1.36,1.36,0,0,1-.07-.18l0-.12a.63.63,0,0,1,.15-.49.56.56,0,0,1,.31-.14.51.51,0,0,1,.22,0l.12,0a.54.54,0,0,1,.17.08,15.64,15.64,0,0,1,1.65,1.21l.38.32.19.16.1.09.06.06,0,0a.54.54,0,0,1,.14.47.38.38,0,0,1-.11.21.49.49,0,0,1-.27.15.6.6,0,0,1-.31,0l-.07,0-.06,0-.12-.08-.2-.14-.39-.29c-1.05-.77-2.13-1.47-3.22-2.16A43.34,43.34,0,0,0,369.34,549Z" transform="translate(-223.75 -114.78)"/><path class="cls-25" d="M394.7,552c1.26,0,2.51,0,3.77.06.63,0,1.26.07,1.89.13.32,0,.63.07,1,.13l.26.06.15.06s.08,0,.12.06l.06,0a.5.5,0,0,1,.1.17.39.39,0,0,1-.05.4.54.54,0,0,1-.14.12,1,1,0,0,1-.18.09l-.27.09a5.78,5.78,0,0,1-1,.16,2.57,2.57,0,0,1-.55,0,.78.78,0,0,1-.45-.19.47.47,0,0,1-.16-.29.66.66,0,0,1,.07-.35.62.62,0,0,1,.2-.2,6.41,6.41,0,0,1,.9-.49l.83-.42a15.15,15.15,0,0,0,3-2A16.38,16.38,0,0,0,406.7,547c.69-1,1.25-2.11,1.89-3.18l3.64-6.58a71.77,71.77,0,0,1-3,6.93,31.26,31.26,0,0,1-1.79,3.37,16.51,16.51,0,0,1-2.59,2.88,15.82,15.82,0,0,1-3.25,2.1l-.87.39c-.28.13-.61.27-.77.36s0,0,0,0a.33.33,0,0,0,.05-.24.32.32,0,0,0-.1-.2c-.12-.09-.06,0,0,0a3.89,3.89,0,0,0,.39,0,6.11,6.11,0,0,0,.86-.08l.18,0h0s0,0-.05.06a.3.3,0,0,0,0,.29.21.21,0,0,0,.08.11v0h0l-.07,0-.19-.06c-.29-.07-.59-.13-.89-.18-.61-.11-1.23-.19-1.85-.28Z" transform="translate(-223.75 -114.78)"/><path class="cls-25" d="M384,543.87c3.25-.49,6.47-.91,9.66-1.52a32.5,32.5,0,0,0,4.67-1.15,29.33,29.33,0,0,0,4.39-2.09,15.5,15.5,0,0,1-4.09,2.81,20.94,20.94,0,0,1-4.78,1.41A37,37,0,0,1,384,543.87Z" transform="translate(-223.75 -114.78)"/><path class="cls-25" d="M399.64,544.72c1.23-.75,2.41-1.55,3.55-2.38a40.31,40.31,0,0,0,3.34-2.57,9.43,9.43,0,0,0,2.2-3.43,7.08,7.08,0,0,1,3.16-3,9.33,9.33,0,0,0-2.45,3.35,14.49,14.49,0,0,1-.83,2,7.21,7.21,0,0,1-1.4,1.8,20.8,20.8,0,0,1-3.59,2.49A16.73,16.73,0,0,1,399.64,544.72Z" transform="translate(-223.75 -114.78)"/><path class="cls-25" d="M376.15,562.26a21.9,21.9,0,0,1,6.81-.08,22.44,22.44,0,0,1,3.33.78l3.25.88h-.11c2.58.62,5.16,1.33,7.66,2.17-2.62-.29-5.14-.72-7.66-1.23l-.12,0c-1.1-.25-2.2-.52-3.29-.84a32.5,32.5,0,0,0-3.21-.86A43.27,43.27,0,0,0,376.15,562.26Z" transform="translate(-223.75 -114.78)"/><path class="cls-25" d="M397.77,563.11a11.68,11.68,0,0,0,4.77-1.06,7.36,7.36,0,0,0,1.92-1.37,12,12,0,0,0,1.46-1.92,41.7,41.7,0,0,1,3-4.09A31.87,31.87,0,0,1,412.4,551l-2.89,4.12c-.95,1.37-1.85,2.75-2.76,4.18a11.93,11.93,0,0,1-1.64,2,7.14,7.14,0,0,1-2.25,1.4A9.06,9.06,0,0,1,397.77,563.11Z" transform="translate(-223.75 -114.78)"/><path class="cls-25" d="M369.51,553.23a6.23,6.23,0,0,1,2,1.64,6,6,0,0,1,1.23,2.28,6.1,6.1,0,0,1-2-1.64A6.19,6.19,0,0,1,369.51,553.23Z" transform="translate(-223.75 -114.78)"/><path class="cls-25" d="M371.89,559.53a17.14,17.14,0,0,0,4.59,6.3,22.07,22.07,0,0,0,3.2,2.23c.57.32,1.14.64,1.73.93l.89.45.47.26a1.85,1.85,0,0,1,.27.2.76.76,0,0,1,.21.3.59.59,0,0,1,0,.42.77.77,0,0,1-.24.27.87.87,0,0,1-.32.11h-.48l-.54-.08c-.34-.06-.68-.14-1-.23l-.5-.14-.26-.09-.16-.07-.05,0a.55.55,0,0,1-.26-.33.44.44,0,0,1,.15-.47.46.46,0,0,1,.26-.13h.09a5.43,5.43,0,0,1,.58.07l.49.08c1.3.24,2.61.43,3.92.63s2.62.33,3.94.44,2.64.21,4,.3a46.46,46.46,0,0,1-8,0c-1.33-.08-2.66-.27-4-.45l-.49-.07-.41-.05H380a.43.43,0,0,0,.23-.12.47.47,0,0,0,.13-.44c0-.17-.24-.33-.2-.3h0l.07,0,.21.07.46.13c.31.08.62.14.93.2l.46.06h.25l-.08,0a.32.32,0,0,0-.15.19.41.41,0,0,0,0,.29.39.39,0,0,0,.06.11.56.56,0,0,0-.13-.09,3.81,3.81,0,0,0-.4-.23l-.88-.46c-.59-.31-1.19-.63-1.76-1A18.43,18.43,0,0,1,376,566.4a15.34,15.34,0,0,1-2.53-3.16A15.6,15.6,0,0,1,371.89,559.53Z" transform="translate(-223.75 -114.78)"/><path class="cls-25" d="M391.81,573.66c1.87-.37,3.74-.66,5.61-.9.93-.16,1.87-.29,2.79-.46.46-.09.92-.17,1.36-.28a7.87,7.87,0,0,0,1.26-.44,15.81,15.81,0,0,0,4.58-3A21,21,0,0,0,411,564.3a14.14,14.14,0,0,1-3.09,4.83,13.91,13.91,0,0,1-4.73,3.37,9.21,9.21,0,0,1-1.43.47c-.48.11-1,.19-1.43.26-.95.12-1.9.23-2.85.3C395.61,573.64,393.71,573.68,391.81,573.66Z" transform="translate(-223.75 -114.78)"/><path class="cls-25" d="M374.62,577.23a26.39,26.39,0,0,1,7.89-1.34,26,26,0,0,1,7.94,1c-2.68,0-5.3-.07-7.92,0S377.29,577.12,374.62,577.23Z" transform="translate(-223.75 -114.78)"/><path class="cls-25" d="M328.79,474.77a43.14,43.14,0,0,0-9.42,7.26c-1.48,1.37-3,2.62-4.59,3.89a23.6,23.6,0,0,1-5.21,3.14,19.08,19.08,0,0,1-5.91,1.57,14.42,14.42,0,0,1-3.08,0,23,23,0,0,1-3-.67,82.45,82.45,0,0,0-11.72-2.24c2,0,4,.2,6,.43s4,.62,5.92,1.06a16,16,0,0,0,11.37-1c3.67-1.44,6.59-4.21,9.69-6.69l2.26-2c.78-.64,1.59-1.24,2.42-1.81A35.9,35.9,0,0,1,328.79,474.77Z" transform="translate(-223.75 -114.78)"/><path class="cls-25" d="M306.49,496.72a60.61,60.61,0,0,0,7.23-1.65,56.06,56.06,0,0,0,6.9-2.58,42.44,42.44,0,0,0,6.37-3.65,48.24,48.24,0,0,0,5.71-4.71,29.74,29.74,0,0,1-2.45,2.83,37,37,0,0,1-2.8,2.5A32.44,32.44,0,0,1,321,493.4a38.18,38.18,0,0,1-7.11,2.41c-1.23.28-2.46.51-3.7.67A33.21,33.21,0,0,1,306.49,496.72Z" transform="translate(-223.75 -114.78)"/><path class="cls-25" d="M323.68,484.81a14.93,14.93,0,0,1-5.77,4.65,23.66,23.66,0,0,1-2.36.83,74.46,74.46,0,0,1-9.57,2.18,95.48,95.48,0,0,1,9.28-3.13,19.7,19.7,0,0,0,4.44-1.77A26.48,26.48,0,0,0,323.68,484.81Z" transform="translate(-223.75 -114.78)"/><path class="cls-25" d="M280.79,473.23c2.84.42,5.67.9,8.49,1.35s5.65.9,8.48,1.23c1.42.17,2.83.3,4.25.36s2.87.17,4.3.33,2.86.33,4.28.54,2.83.5,4.24.79c-2.87-.18-5.72-.45-8.58-.56-1.42,0-2.85-.13-4.28-.15s-2.89-.16-4.32-.32c-2.87-.36-5.7-.85-8.51-1.47S283.54,474.05,280.79,473.23Z" transform="translate(-223.75 -114.78)"/><path class="cls-25" d="M279.94,484.81a1.86,1.86,0,0,1,2,1.53,1.89,1.89,0,0,1-2-1.53Z" transform="translate(-223.75 -114.78)"/><path class="cls-25" d="M279.6,491.62q3,.7,6,1.59c2,.54,4,1.1,6,1.59a119.73,119.73,0,0,0,12.17,2.26,43.25,43.25,0,0,1-12.41-1.29c-2-.51-4-1.12-6-1.81S281.5,492.45,279.6,491.62Z" transform="translate(-223.75 -114.78)"/><path class="cls-25" d="M275.09,178.85a21.43,21.43,0,0,1,2.45,3.15,22.93,22.93,0,0,1,1.82,3.6,26.57,26.57,0,0,1,1.65,7.88c0,.7,0,1.38,0,2s0,1.29.08,1.94c.08,1.31.27,2.6.44,3.92s.35,2.64.4,4a37.8,37.8,0,0,1-.17,4,45.69,45.69,0,0,0-1-7.84c-.28-1.3-.48-2.63-.63-4-.06-.67-.11-1.35-.11-2s.06-1.33,0-2a32.17,32.17,0,0,0-1.37-7.66A27.54,27.54,0,0,0,275.09,178.85Z" transform="translate(-223.75 -114.78)"/><path class="cls-25" d="M287.68,207.62c-.79-.86-1.57-1.69-2.38-2.48s-1.63-1.51-2.53-2.27a10.46,10.46,0,0,1-2.23-2.77,10.59,10.59,0,0,1-1.2-3.29,20.08,20.08,0,0,0,4.1,5.31,17,17,0,0,1,2.44,2.5A12.71,12.71,0,0,1,287.68,207.62Z" transform="translate(-223.75 -114.78)"/><path class="cls-25" d="M283.6,156.47a38.77,38.77,0,0,0,4.25,5.45,47.78,47.78,0,0,0,5.19,4.59,15.16,15.16,0,0,1-5.91-3.9A14.38,14.38,0,0,1,283.6,156.47Z" transform="translate(-223.75 -114.78)"/><path class="cls-25" d="M277.21,172.85a82,82,0,0,1,8.72,4.8,23.69,23.69,0,0,1,2.06,1.48,9.87,9.87,0,0,1,1.72,1.93,10.93,10.93,0,0,1,1.8,4.68,15.86,15.86,0,0,0-2.43-4.22,14,14,0,0,0-3.69-3A93.63,93.63,0,0,1,277.21,172.85Z" transform="translate(-223.75 -114.78)"/><path class="cls-25" d="M282.06,170.3a28.83,28.83,0,0,1,2.75,2.27c.88.79,1.71,1.63,2.56,2.45a45,45,0,0,1,4.65,5.36,44.2,44.2,0,0,1-5.37-4.66c-.83-.83-1.63-1.71-2.4-2.61A33.52,33.52,0,0,1,282.06,170.3Z" transform="translate(-223.75 -114.78)"/><path class="cls-25" d="M308.87,132.64a20.28,20.28,0,0,0-2.07-5.11,18.91,18.91,0,0,0-3.54-4.21,8.43,8.43,0,0,1,4.4,3.7A8.78,8.78,0,0,1,308.87,132.64Z" transform="translate(-223.75 -114.78)"/><path class="cls-25" d="M328.91,121.79a22.42,22.42,0,0,0-6.32-3.67,15.55,15.55,0,0,0-3.51-.8,19.88,19.88,0,0,0-3.7,0,9.66,9.66,0,0,1,3.73-.78,11,11,0,0,1,3.81.64A12.24,12.24,0,0,1,328.91,121.79Z" transform="translate(-223.75 -114.78)"/><path class="cls-25" d="M311.94,129.45a5.29,5.29,0,0,1-1.81-1.55,5.19,5.19,0,0,1-1-2.16,5.25,5.25,0,0,1,1.8,1.55A5.33,5.33,0,0,1,311.94,129.45Z" transform="translate(-223.75 -114.78)"/><path class="cls-25" d="M315.64,127.28a29.67,29.67,0,0,0-2.3-2.14,30.59,30.59,0,0,0-2.55-1.82,4.4,4.4,0,0,1,3.19,1A4.48,4.48,0,0,1,315.64,127.28Z" transform="translate(-223.75 -114.78)"/><path class="cls-25" d="M318.57,125.36a22.47,22.47,0,0,0-2-2.23,14.8,14.8,0,0,0-2.44-1.73,3.73,3.73,0,0,1,3.11,1A4,4,0,0,1,318.57,125.36Z" transform="translate(-223.75 -114.78)"/><path class="cls-25" d="M307.34,136.21c-.45-.74-.85-1.49-1.25-2.22l-1.2-2.19a16.41,16.41,0,0,0-3-3.89,6.37,6.37,0,0,1,2.26,1.32,8.27,8.27,0,0,1,1.65,2.08,14.69,14.69,0,0,1,1,2.37A9.84,9.84,0,0,1,307.34,136.21Z" transform="translate(-223.75 -114.78)"/><path class="cls-25" d="M306.7,138.38a18.42,18.42,0,0,0-3.87-3.64,17.13,17.13,0,0,0-2.3-1.28c-.8-.4-1.66-.66-2.51-1.08a9.69,9.69,0,0,1,2.78.35,9,9,0,0,1,2.58,1.18A8.13,8.13,0,0,1,306.7,138.38Z" transform="translate(-223.75 -114.78)"/><path class="cls-25" d="M291.77,156.89a8.17,8.17,0,0,1-2,.42,6,6,0,0,1-2.06,0,3.07,3.07,0,0,1,.91-.66,2.87,2.87,0,0,1,1.06-.31A3,3,0,0,1,291.77,156.89Z" transform="translate(-223.75 -114.78)"/><path class="cls-25" d="M291.51,154.72c-.25-.85-.39-1.54-.6-2.24s-.44-1.37-.68-2.22a2.9,2.9,0,0,1,1.65,1.94A3,3,0,0,1,291.51,154.72Z" transform="translate(-223.75 -114.78)"/><path class="cls-25" d="M275,164.55a13.57,13.57,0,0,1,.93-5,16.58,16.58,0,0,1,1.11-2.33,14.82,14.82,0,0,1,1.54-2.07,20.09,20.09,0,0,1-.83,2.41l-.88,2.34C276.31,161.41,275.76,163,275,164.55Z" transform="translate(-223.75 -114.78)"/><path class="cls-25" d="M317.3,135.79c1-.92,2-1.67,3-2.5s1.89-1.67,3-2.52a8,8,0,0,1-6,5Z" transform="translate(-223.75 -114.78)"/><path class="cls-25" d="M333.81,130.85a5.11,5.11,0,0,1-.63-2.26,6.27,6.27,0,0,1,.2-2.33,3.84,3.84,0,0,1,.56,1.08c.08.19.11.38.17.57l.06.59A5.07,5.07,0,0,1,333.81,130.85Z" transform="translate(-223.75 -114.78)"/><path class="cls-25" d="M341.47,130.43a4.09,4.09,0,0,1-.18-2.92,4,4,0,0,1,1.71-2.36c-.23,1-.52,1.79-.75,2.64S341.81,129.47,341.47,130.43Z" transform="translate(-223.75 -114.78)"/><path class="cls-25" d="M346.15,128.72a2.08,2.08,0,0,1-.5-1.12,2.67,2.67,0,0,1,.1-1.25,2.21,2.21,0,0,1,.74-1.06,1.7,1.7,0,0,1,1.19-.4,5.7,5.7,0,0,0-1,1.78C346.49,127.27,346.38,127.92,346.15,128.72Z" transform="translate(-223.75 -114.78)"/><path class="cls-25" d="M350.83,130.34a28.44,28.44,0,0,0-.62-3,24.48,24.48,0,0,0-1.08-2.86,4.11,4.11,0,0,1,2,2.59A4.21,4.21,0,0,1,350.83,130.34Z" transform="translate(-223.75 -114.78)"/><path class="cls-25" d="M353.38,129.91a2.65,2.65,0,0,1-.21-2.59,2.54,2.54,0,0,1,2.09-1.58,11.56,11.56,0,0,0-1.17,2A14.47,14.47,0,0,0,353.38,129.91Z" transform="translate(-223.75 -114.78)"/><path class="cls-25" d="M357.3,131.28a8.5,8.5,0,0,1,.65-2.37,7.13,7.13,0,0,1,1.22-2.14,4,4,0,0,1,0,1.29,4.28,4.28,0,0,1-.31,1.23A4.37,4.37,0,0,1,357.3,131.28Z" transform="translate(-223.75 -114.78)"/><path class="cls-25" d="M360.53,131.53a31.82,31.82,0,0,1,2.84-1.76c.47-.27.95-.53,1.4-.82a8.24,8.24,0,0,1,1.55-.74,7.58,7.58,0,0,1-1.08,1.37,5.7,5.7,0,0,1-1.38,1.06A6.35,6.35,0,0,1,360.53,131.53Z" transform="translate(-223.75 -114.78)"/><path class="cls-25" d="M367.51,134.26a5.48,5.48,0,0,1,2.77-2,5.63,5.63,0,0,1,1.72-.32,7.06,7.06,0,0,1,1.72.23,7.66,7.66,0,0,1-1.59.54c-.52.15-1,.32-1.52.5C369.6,133.5,368.64,133.91,367.51,134.26Z" transform="translate(-223.75 -114.78)"/><path class="cls-25" d="M395.68,196.47a35.89,35.89,0,0,1,.75-9.35,42,42,0,0,1,3-8.93,24.82,24.82,0,0,1,5.49-7.69,26,26,0,0,1,3.73-2.91,25,25,0,0,1,4.2-2.1,29.9,29.9,0,0,0-7.39,5.55,27.87,27.87,0,0,0-5.13,7.57,55.66,55.66,0,0,0-3.18,8.68,41.56,41.56,0,0,0-.94,4.54C396,193.36,395.81,194.91,395.68,196.47Z" transform="translate(-223.75 -114.78)"/><path class="cls-25" d="M403.51,184A52.5,52.5,0,0,0,405,177a40.75,40.75,0,0,0,.29-7.15,38.33,38.33,0,0,0-1.05-7.06,42,42,0,0,0-2.4-6.8,28.16,28.16,0,0,1,1.8,3.17,33.68,33.68,0,0,1,1.34,3.42,29,29,0,0,1,1.31,7.22,31.45,31.45,0,0,1-.53,7.32,35.46,35.46,0,0,1-.9,3.55A29.16,29.16,0,0,1,403.51,184Z" transform="translate(-223.75 -114.78)"/><path class="cls-25" d="M409,171.62a27,27,0,0,1,.85-7.38,27.68,27.68,0,0,1,1.14-3.55,32.28,32.28,0,0,1,1.58-3.37,35.12,35.12,0,0,1-.84,3.61c-.32,1.18-.61,2.36-.91,3.55C410.18,166.85,409.65,169.22,409,171.62Z" transform="translate(-223.75 -114.78)"/><path class="cls-25" d="M404.87,199a8.59,8.59,0,0,1-.59-5.81,8.44,8.44,0,0,1,3.15-4.91,17.83,17.83,0,0,0-2.18,5.14A18.41,18.41,0,0,0,404.87,199Z" transform="translate(-223.75 -114.78)"/><path class="cls-25" d="M398.91,166.17a37.41,37.41,0,0,1-.49-4.09,38,38,0,0,1,0-4.13,30.08,30.08,0,0,1,1.66-8.12c.93-2.58,1.88-5.11,1.61-7.77a13.4,13.4,0,0,0-3.31-7.21,13.27,13.27,0,0,1,2.65,3.17,11.69,11.69,0,0,1,1.42,3.95,11.16,11.16,0,0,1-.19,4.23,37.87,37.87,0,0,1-1.24,4,37,37,0,0,0-1.83,7.87A54,54,0,0,0,398.91,166.17Z" transform="translate(-223.75 -114.78)"/><path class="cls-25" d="M382.57,134.85a6.83,6.83,0,0,1-.26-4.7,5.87,5.87,0,0,1,3-3.64,13.16,13.16,0,0,0-2,3.93A19.83,19.83,0,0,0,382.57,134.85Z" transform="translate(-223.75 -114.78)"/><path class="cls-25" d="M371.85,122.6a15.71,15.71,0,0,1,7.49-2.39,13.75,13.75,0,0,1-3.59,1.67A14.46,14.46,0,0,1,371.85,122.6Z" transform="translate(-223.75 -114.78)"/><path class="cls-25" d="M361,120.55a5,5,0,0,1,1.46-2.17,5.52,5.52,0,0,1,2.4-1.24,12.65,12.65,0,0,1,2.58-.32,8.35,8.35,0,0,1,2.58.33l-2.5.45c-.8.16-1.65.32-2.42.51A8.46,8.46,0,0,0,361,120.55Z" transform="translate(-223.75 -114.78)"/><path class="cls-25" d="M337.21,119c-.45-.63-.71-1.16-1-1.68s-.6-1-.93-1.72a2.32,2.32,0,0,1,1.8,1.23A2.41,2.41,0,0,1,337.21,119Z" transform="translate(-223.75 -114.78)"/><path class="cls-25" d="M344.28,118.43a3,3,0,0,1,.06-1.7l.13-.36.07-.15s0,0,0,0a.19.19,0,0,0,0,.07.46.46,0,0,0,.15.18.38.38,0,0,0,.3.05c.08,0,.08,0,.1-.05s-.16.07-.26.13a2.37,2.37,0,0,1-.42.22,1.52,1.52,0,0,1,0-.48.84.84,0,0,1,.24-.52.58.58,0,0,1,.14-.07.44.44,0,0,1,.36.06.53.53,0,0,1,.17.23s0,.09,0,.12a.58.58,0,0,1,0,.19v.26a2.83,2.83,0,0,1-1.11,1.83Z" transform="translate(-223.75 -114.78)"/><path class="cls-25" d="M346,118.17a4.17,4.17,0,0,1,1.95-1.7,4,4,0,0,1,1.24-.36,4.18,4.18,0,0,1,1.32,0,4.57,4.57,0,0,1-1.07.72l-1.08.53A10.22,10.22,0,0,1,346,118.17Z" transform="translate(-223.75 -114.78)"/><path class="cls-25" d="M350.49,117.83a.83.83,0,1,1,.86-.29A.92.92,0,0,1,350.49,117.83Z" transform="translate(-223.75 -114.78)"/><path class="cls-25" d="M354.06,119.28a3.3,3.3,0,0,1,.5-2.1,3.73,3.73,0,0,1,1.71-1.45,4.24,4.24,0,0,1,4.18.48,13.39,13.39,0,0,0-2,0,6.18,6.18,0,0,0-1.79.44,4.53,4.53,0,0,0-1.48,1A7.1,7.1,0,0,0,354.06,119.28Z" transform="translate(-223.75 -114.78)"/><path class="cls-25" d="M335.94,119.7a20.66,20.66,0,0,0-4.56-2.46,21.07,21.07,0,0,0-5.06-1.11,8.5,8.5,0,0,1,9.62,3.57Z" transform="translate(-223.75 -114.78)"/><path class="cls-25" d="M341.47,118.94a3,3,0,0,1-1-1.07,5.5,5.5,0,0,1-.28-.6,2.15,2.15,0,0,1-.09-.8,1.61,1.61,0,0,1,.73.35,2,2,0,0,1,.52.57A1.77,1.77,0,0,1,341.47,118.94Z" transform="translate(-223.75 -114.78)"/><path class="cls-25" d="M342.6,118.57a1.82,1.82,0,0,1-.19-1.51,1.88,1.88,0,0,1,1-1.17,2.44,2.44,0,0,1,0,1.45A2.56,2.56,0,0,1,342.6,118.57Z" transform="translate(-223.75 -114.78)"/><path class="cls-25" d="M378.83,131.23a6.38,6.38,0,0,1-.16-2.95,7.46,7.46,0,0,1,1.07-2.82,7.62,7.62,0,0,1,2.1-2.17,6.79,6.79,0,0,1,2.73-1.12,12.84,12.84,0,0,0-4,3.83A12.34,12.34,0,0,0,378.83,131.23Z" transform="translate(-223.75 -114.78)"/><path class="cls-25" d="M366.45,122.17a11.12,11.12,0,0,1,5.67-4.48,10.09,10.09,0,0,1,7.22.14,20.74,20.74,0,0,0-3.53,0,15.9,15.9,0,0,0-3.36.76A20.19,20.19,0,0,0,366.45,122.17Z" transform="translate(-223.75 -114.78)"/><path class="cls-25" d="M308,340.72a7.81,7.81,0,0,0,3.32-4.37,17.73,17.73,0,0,0,.35-2.79,24.43,24.43,0,0,0,.11-2.83c0-.94-.09-1.88-.18-2.84a17,17,0,0,0-.46-2.77,13.35,13.35,0,0,0-2.63-5,10.56,10.56,0,0,1,3.37,4.76,14,14,0,0,1,.66,2.89,25.9,25.9,0,0,1,.24,2.94,22.2,22.2,0,0,1-.17,2.94,15.16,15.16,0,0,1-.54,2.91A7.09,7.09,0,0,1,308,340.72Z" transform="translate(-223.75 -114.78)"/><path class="cls-25" d="M305.81,340a18,18,0,0,0,2.36-4.67,16.12,16.12,0,0,0,.77-5.07,21.13,21.13,0,0,0-.71-5.11,24.87,24.87,0,0,0-1.91-4.9,15,15,0,0,1,2.65,4.67,16.69,16.69,0,0,1,1,5.34,13.82,13.82,0,0,1-1,5.35A12.63,12.63,0,0,1,305.81,340Z" transform="translate(-223.75 -114.78)"/><path class="cls-25" d="M303.43,339.87a15,15,0,0,0,2-4.57,16.9,16.9,0,0,0,.35-4.92,20,20,0,0,0-3.14-9.4,14,14,0,0,1,2.91,4.26,15.31,15.31,0,0,1,1.23,5.08,14.07,14.07,0,0,1-.61,5.19A10.66,10.66,0,0,1,303.43,339.87Z" transform="translate(-223.75 -114.78)"/><path class="cls-25" d="M384.13,340.72a7.08,7.08,0,0,1-4.06-4.15,14.46,14.46,0,0,1-.55-2.91,24,24,0,0,1-.17-2.94,25.9,25.9,0,0,1,.25-2.94,14,14,0,0,1,.65-2.89,10.64,10.64,0,0,1,3.37-4.76,13.47,13.47,0,0,0-2.62,5,16,16,0,0,0-.46,2.77,27.45,27.45,0,0,0-.19,2.84,26.88,26.88,0,0,0,.11,2.83,19,19,0,0,0,.35,2.79A7.9,7.9,0,0,0,384.13,340.72Z" transform="translate(-223.75 -114.78)"/><path class="cls-25" d="M386.35,340a12.66,12.66,0,0,1-3.1-4.39,13.82,13.82,0,0,1-1-5.35,16.69,16.69,0,0,1,1-5.34,15,15,0,0,1,2.66-4.67,23.69,23.69,0,0,0-1.91,4.9,20.66,20.66,0,0,0-.72,5.11,16.12,16.12,0,0,0,.77,5.07A18,18,0,0,0,386.35,340Z" transform="translate(-223.75 -114.78)"/><path class="cls-25" d="M388.73,339.87a10.79,10.79,0,0,1-2.77-4.36,14.07,14.07,0,0,1-.61-5.19,15.09,15.09,0,0,1,1.24-5.08A13.61,13.61,0,0,1,389.5,321a20,20,0,0,0-3.15,9.4,17.26,17.26,0,0,0,.36,4.92A14.76,14.76,0,0,0,388.73,339.87Z" transform="translate(-223.75 -114.78)"/><path class="cls-26" d="M290,313.66A44.79,44.79,0,0,0,294.7,322a45.32,45.32,0,0,0,6.51,7.08A22.71,22.71,0,0,1,290,313.66Z" transform="translate(-223.75 -114.78)"/><path class="cls-26" d="M288.32,316.85a19.89,19.89,0,0,0,12.25,19.28,15.75,15.75,0,0,1-5.67-2.58,16.6,16.6,0,0,1-6.65-10.46A15.79,15.79,0,0,1,288.32,316.85Z" transform="translate(-223.75 -114.78)"/><path class="cls-26" d="M400.57,313.66a22.71,22.71,0,0,1-11.23,15.45,44.83,44.83,0,0,0,6.51-7.08A44.23,44.23,0,0,0,400.57,313.66Z" transform="translate(-223.75 -114.78)"/><path class="cls-26" d="M402.23,316.85a15.79,15.79,0,0,1,.07,6.24,16.6,16.6,0,0,1-6.65,10.46,15.75,15.75,0,0,1-5.67,2.58,19.89,19.89,0,0,0,12.25-19.28Z" transform="translate(-223.75 -114.78)"/><path class="cls-26" d="M378.49,316.47a34.9,34.9,0,0,1-8.66,3.28,39.52,39.52,0,0,1-4.58.8c-1.54.14-3.09.18-4.63.17,1.51-.38,3-.67,4.51-.94s3-.64,4.47-1C372.57,318.08,375.49,317.24,378.49,316.47Z" transform="translate(-223.75 -114.78)"/><path class="cls-26" d="M377.3,313.23a105.85,105.85,0,0,1-11,1.06c-.91,0-1.83.09-2.75.1s-1.83,0-2.75,0c-1.83,0-3.67-.13-5.5-.28,1.83-.24,3.66-.4,5.48-.5l5.48-.3A109,109,0,0,1,377.3,313.23Z" transform="translate(-223.75 -114.78)"/><path class="cls-26" d="M311.09,317.15a43.73,43.73,0,0,0,16.85,2.72,20.77,20.77,0,0,1-16.85-2.72Z" transform="translate(-223.75 -114.78)"/><path class="cls-26" d="M312.11,313.23c1.07-.11,2.12-.22,3.13-.39s2-.51,3-.81,2-.59,3.05-.86l1.54-.38.78-.18.2,0s0,0,0,0,0,0,0,.05.15.16.12.13h-.05l-.1,0-.4.06.35-.21.09-.05,0,0h0s.16,0,.12.13,0,0,0,.06l0,0-.18.1-.71.38c-.48.23-1,.46-1.46.66a28.5,28.5,0,0,1-3,1.08,15.14,15.14,0,0,1-3.19.62A10.53,10.53,0,0,1,312.11,313.23Z" transform="translate(-223.75 -114.78)"/><path class="cls-26" d="M330,334c2.67-.19,5.33-.27,8-.34s5.33-.08,8-.07,5.33.05,8,.15l4,.16c1.33.09,2.67.15,4,.27-1.34.11-2.67.15-4,.22l-4,.12c-2.67.08-5.34.08-8,.07s-5.34-.05-8-.15S332.64,334.22,330,334Z" transform="translate(-223.75 -114.78)"/></g><g id="Layer_9" data-name="Layer 9"><path class="cls-25" d="M295.72,418.6a64.88,64.88,0,0,1-7.44-3.77,26.31,26.31,0,0,1-3.49-2.35c-1.1-.84-2.18-1.75-3.21-2.7-2-1.95-3.95-3.91-5.78-6s-3.5-4.31-5.1-6.59l2.86,3c.93,1,1.86,2.06,2.81,3.05,1.93,2,3.91,3.92,5.9,5.82,1,.95,2,1.83,3.11,2.69a32.8,32.8,0,0,0,3.31,2.44c1.15.76,2.32,1.5,3.49,2.23S294.52,417.9,295.72,418.6Z" transform="translate(-223.75 -114.78)"/><path class="cls-25" d="M393.47,418.72c1.2-.69,2.37-1.43,3.54-2.18s2.34-1.47,3.49-2.24a32,32,0,0,0,3.31-2.43c1.08-.87,2.13-1.74,3.12-2.69,2-1.9,4-3.86,5.89-5.82,1-1,1.88-2,2.82-3.05l2.85-3c-1.6,2.28-3.31,4.45-5.1,6.59s-3.77,4.09-5.78,6c-1,1-2.11,1.86-3.21,2.71a25.31,25.31,0,0,1-3.49,2.34A61.81,61.81,0,0,1,393.47,418.72Z" transform="translate(-223.75 -114.78)"/></g><g id="Layer_6" data-name="Layer 6"><g class="cls-27"><path class="cls-9" d="M385.57,155.91a25.57,25.57,0,0,0-1.81-2.59l-1.92-2.52c-1.3-1.68-2.49-3.43-3.8-5.07a27.63,27.63,0,0,0-9.44-7.86,50.62,50.62,0,0,0-47.92,0,27.42,27.42,0,0,0-9.47,7.83c-1.3,1.63-2.51,3.38-3.79,5.06l-1.9,2.54c-.62.85-1.25,1.7-1.79,2.61a50,50,0,0,1,3.24-5.46c1.15-1.77,2.22-3.59,3.44-5.35a27.5,27.5,0,0,1,9.53-8.62,59.29,59.29,0,0,1,5.83-2.73,54.77,54.77,0,0,1,6.11-2.05,49.8,49.8,0,0,1,31.64,2.09,58,58,0,0,1,5.82,2.74,27.59,27.59,0,0,1,9.5,8.65c1.22,1.76,2.28,3.59,3.45,5.34A49.87,49.87,0,0,1,385.57,155.91Z" transform="translate(-223.75 -114.78)"/></g><path class="cls-28" d="M385.82,167.08a56.15,56.15,0,0,0-3.76-4.37,25.72,25.72,0,0,0-4.44-3.55,32.6,32.6,0,0,0-5-2.65,49.78,49.78,0,0,0-5.32-2,47.3,47.3,0,0,0-11.12-2.11l-2.87-.19c-1,0-1.91-.06-2.87-.09l-5.73-.16-5.73.16c-1,0-1.91,0-2.87.09l-2.87.2a46.87,46.87,0,0,0-11.12,2.1,49.78,49.78,0,0,0-5.32,2,33.49,33.49,0,0,0-5,2.65,26.11,26.11,0,0,0-4.44,3.55c-1.32,1.38-2.57,2.85-3.76,4.37a39.85,39.85,0,0,1,3.37-4.73,27,27,0,0,1,4.27-4,34.79,34.79,0,0,1,5-3,47.71,47.71,0,0,1,5.38-2.33,45.43,45.43,0,0,1,11.46-2.51c1.94-.19,3.86-.3,5.81-.35l5.82-.2,5.82.2c1.95.05,3.87.15,5.81.35A45,45,0,0,1,367.77,153a44.33,44.33,0,0,1,5.38,2.33,33.08,33.08,0,0,1,5,3,26.47,26.47,0,0,1,4.27,4A39.85,39.85,0,0,1,385.82,167.08Z" transform="translate(-223.75 -114.78)"/></g><g id="Layer_8" data-name="Layer 8"><path class="cls-25" d="M305.3,582.89a12.49,12.49,0,0,1-.8,7.5,58.11,58.11,0,0,1-3.73,6.63c-1.32,2.15-2.68,4.28-4.06,6.4a37,37,0,0,1-4.74,6,14.27,14.27,0,0,1-3.08,2.41,12.12,12.12,0,0,1-3.7,1.32,8.16,8.16,0,0,1-9.44-5.45,10.12,10.12,0,0,1-.44-3.84c.09-2.52,0-5,.12-7.57.15,2.52.29,5.05.37,7.57a9.67,9.67,0,0,0,.54,3.62,7.68,7.68,0,0,0,2,3,7.89,7.89,0,0,0,3.13,1.69,7.6,7.6,0,0,0,3.55.1,10.73,10.73,0,0,0,3.39-1.25,13.48,13.48,0,0,0,2.84-2.28c3.58-3.49,6-8,8.86-12.13a59.09,59.09,0,0,0,3.94-6.42,12.1,12.1,0,0,0,1.16-3.53A14.77,14.77,0,0,0,305.3,582.89Z" transform="translate(-223.75 -114.78)"/><path class="cls-25" d="M278.23,596a12.54,12.54,0,0,1,3.84-.81,12.27,12.27,0,0,1,3.95.48,15.34,15.34,0,0,1,6.71,4.24c.91,1,1.66,2.09,2.44,3.09a9.52,9.52,0,0,0,1.25,1.36c.45.41,1,.71,1.54,1.14a14.45,14.45,0,0,1,1.5,1.32,9.26,9.26,0,0,1,1.28,1.55,6,6,0,0,1,.73,3.85,6.11,6.11,0,0,0-1.14-3.58,8.83,8.83,0,0,0-1.31-1.36,14,14,0,0,0-1.5-1.16l-.82-.49a8,8,0,0,1-.84-.6,10.81,10.81,0,0,1-1.43-1.44c-.84-1-1.56-2.09-2.44-3a16.12,16.12,0,0,0-6.2-4.2A13.65,13.65,0,0,0,278.23,596Z" transform="translate(-223.75 -114.78)"/><path class="cls-25" d="M280.28,581.74a39.12,39.12,0,0,1,2.5,3.29c.36.57.8,1.08,1.18,1.65a12.43,12.43,0,0,1,1,1.83,10.48,10.48,0,0,1-1.64-1.33,9.11,9.11,0,0,1-1.4-1.58A9.83,9.83,0,0,1,280.28,581.74Z" transform="translate(-223.75 -114.78)"/><path class="cls-25" d="M295.47,591.32a4.17,4.17,0,0,1,2.5,2.83,3.92,3.92,0,0,1-.84,3.68,8.43,8.43,0,0,0-.13-3.42A10.22,10.22,0,0,0,295.47,591.32Z" transform="translate(-223.75 -114.78)"/><path class="cls-25" d="M383.58,582.89a14.77,14.77,0,0,0,.08,3.76,12.1,12.1,0,0,0,1.16,3.53,59.09,59.09,0,0,0,3.94,6.42c2.86,4.16,5.28,8.64,8.86,12.13a14,14,0,0,0,2.84,2.28,10.82,10.82,0,0,0,3.39,1.25,7.6,7.6,0,0,0,3.55-.1,7.89,7.89,0,0,0,3.13-1.69,7.57,7.57,0,0,0,2-3,9.67,9.67,0,0,0,.54-3.62c.08-2.52.22-5,.38-7.57.07,2.53,0,5.05.11,7.57a10.12,10.12,0,0,1-.44,3.84,8.16,8.16,0,0,1-9.44,5.45,12.12,12.12,0,0,1-3.7-1.32,14.52,14.52,0,0,1-3.08-2.41,37.53,37.53,0,0,1-4.74-6c-1.38-2.12-2.74-4.25-4.06-6.4a58.11,58.11,0,0,1-3.73-6.63A12.49,12.49,0,0,1,383.58,582.89Z" transform="translate(-223.75 -114.78)"/><path class="cls-25" d="M410.65,596a13.65,13.65,0,0,0-7.56.4,16.12,16.12,0,0,0-6.2,4.2c-.88.9-1.6,2-2.44,3a9.73,9.73,0,0,1-1.43,1.44,8,8,0,0,1-.84.6c-.29.17-.55.32-.81.49a13.14,13.14,0,0,0-1.51,1.16,9.32,9.32,0,0,0-1.31,1.36,6.18,6.18,0,0,0-1.14,3.58,6,6,0,0,1,.73-3.85,9.26,9.26,0,0,1,1.28-1.55,14.45,14.45,0,0,1,1.5-1.32c.54-.43,1.09-.73,1.54-1.14a10.2,10.2,0,0,0,1.26-1.36c.77-1,1.52-2.11,2.44-3.09a15.25,15.25,0,0,1,6.7-4.24,12.27,12.27,0,0,1,3.95-.48A12.48,12.48,0,0,1,410.65,596Z" transform="translate(-223.75 -114.78)"/><path class="cls-25" d="M408.61,581.74a10,10,0,0,1-1.69,3.86,9.11,9.11,0,0,1-1.4,1.58,10.48,10.48,0,0,1-1.64,1.33,12.43,12.43,0,0,1,1-1.83c.38-.57.82-1.08,1.18-1.65A37.24,37.24,0,0,1,408.61,581.74Z" transform="translate(-223.75 -114.78)"/><path class="cls-25" d="M398.06,584.72a27.45,27.45,0,0,0-3.18,2.54,12.11,12.11,0,0,0-2.42,3.08,7.18,7.18,0,0,0-.79,3.7,9.4,9.4,0,0,0,1.21,3.79,6.88,6.88,0,0,1-2-3.69,6.77,6.77,0,0,1,.68-4.26,9.74,9.74,0,0,1,2.8-3.21A12.65,12.65,0,0,1,398.06,584.72Z" transform="translate(-223.75 -114.78)"/></g></svg>