<svg xmlns="http://www.w3.org/2000/svg" viewBox="0 0 160.45 192.56"><defs><style>.cls-1,.cls-2,.cls-7{fill:#fff;}.cls-1,.cls-3,.cls-4,.cls-5{stroke:#1d1d1b;}.cls-1,.cls-2,.cls-3,.cls-4,.cls-5,.cls-7{stroke-miterlimit:10;stroke-width:2px;}.cls-2,.cls-7{stroke:#000;}.cls-2{opacity:0.99;}.cls-3{fill:#b7b7b7;}.cls-4{fill:none;}.cls-5{fill:#e52421;}.cls-6{fill:#1d1d1b;}</style></defs><title>erik left-hand</title><g id="Layer_2" data-name="Layer 2"><g id="Vrstva_1" data-name="Vrstva 1"><path class="cls-1" d="M58.53,171.59c0-3.92,4.25-24.61,4.25-24.61l29.11-5,36.81,4.86,4.55,26.29-26.89,1.7s-.17-10.21-9.7-11.74a12.07,12.07,0,0,0-1.28-.13c-8.47-.28-10.64,11-10.64,11Z"/><path class="cls-2" d="M138.57,104.64c-.57-10-5.81-9.13-5.81-9.13l-8.89-.27-47.27.21-49-17.91V76.33c0-5.61-1.49-10.15-3.32-10.15s-3.11,3.9-3.29,8.95l-.5-.18h0c-4.19-5.62-10.23-8.28-14.67-6C.47,71.59-.56,80.18,3.44,88.11S15,100.3,20.27,97.62l3.84-1.94A184.27,184.27,0,0,0,47.22,106C62,111.59,58,118.49,58,118.49s.93,18.14,1,22.44,3.21,5,3.21,5,58.83-1.08,65.92-.14,10.36-5.13,10.36-5.13S139.14,114.67,138.57,104.64Z"/><path class="cls-3" d="M41.56,40.06S23,51.14,43.53,64.18"/><path class="cls-3" d="M151.76,40.06s18.56,11.08-2,24.12"/><path class="cls-4" d="M136.59,98c-10.21-4.7-16.34,13.89-16.34,13.89V128l-14.25.71s-21.77,2.16-30.07,16.05"/><rect class="cls-5" x="127.84" y="115.02" width="7.83" height="12.94" rx="3.83"/><line class="cls-4" x1="95.89" y1="162.22" x2="95.89" y2="146.97"/><path class="cls-5" d="M86.24,169.6a27.87,27.87,0,0,0-26.67-5.78"/><path class="cls-5" d="M105.11,169.6s10.67-12.43,26.64-5.14"/><path class="cls-3" d="M88.72,182.14c0,7.43-8.42,8.51-18.81,8.51s-18.81-1.08-18.81-8.51,8.42-13.44,18.81-13.44S88.72,174.72,88.72,182.14Z"/><path class="cls-3" d="M139.06,183c0,7.43-8.42,8.52-18.81,8.52s-18.81-1.09-18.81-8.52,8.42-13.44,18.81-13.44S139.06,175.62,139.06,183Z"/><path class="cls-1" d="M151.9,48.49c0,24.53-24.92,57.19-55.66,57.19S40.58,73,40.58,48.49,65.5,1,96.24,1,151.9,24,151.9,48.49Z"/><path class="cls-6" d="M124.69,86.74H73.41c-9.71,0-21.51-13.12-21.51-22.93V41.88A17.67,17.67,0,0,1,69.48,24.12h51.28a17.67,17.67,0,0,1,17.57,17.76V63.81C138.33,73.62,134.4,86.74,124.69,86.74Z"/><rect class="cls-1" x="49" y="47.98" width="38.81" height="10.72" rx="5.36" transform="translate(15.07 121.75) rotate(-90)"/><path class="cls-4" d="M87.76,24.12s1-14.1-11.83-19.63"/><path class="cls-4" d="M106,24.12S105,10,117.85,4.49"/><rect class="cls-5" x="81.44" y="112.08" width="34.19" height="16.6" rx="7.18"/><path class="cls-4" d="M78.63,103c-9.74,17.91-18.25,20.4-18.25,20.4s10.77-15.78,7.07-28"/><line class="cls-4" x1="27.55" y1="77.54" x2="24.11" y2="95.68"/><path class="cls-7" d="M60.38,123.37s3.76-19-.63-34.07"/></g></g></svg>