<svg xmlns="http://www.w3.org/2000/svg" viewBox="0 0 160.45 192.56"><defs><style>.cls-1,.cls-2{fill:#fff;}.cls-1,.cls-3,.cls-4,.cls-5{stroke:#1d1d1b;}.cls-1,.cls-2,.cls-3,.cls-4,.cls-5{stroke-miterlimit:10;stroke-width:2px;}.cls-2{stroke:#000;}.cls-3{fill:#b7b7b7;}.cls-4{fill:none;}.cls-5{fill:#e52421;}.cls-6{fill:#1d1d1b;}</style></defs><title>erik-right-hand</title><g id="Layer_2" data-name="Layer 2"><g id="Vrstva_1" data-name="Vrstva 1"><path class="cls-1" d="M101.93,171.59c0-3.92-4.26-24.61-4.26-24.61l-29.11-5-36.8,4.86L27.2,173.12l26.9,1.7s.17-10.21,9.7-11.74a11.82,11.82,0,0,1,1.28-.13c8.47-.28,10.63,11,10.63,11Z"/><path class="cls-2" d="M21.88,104.64c.57-10,5.81-9.13,5.81-9.13l8.89-.27,47.28.21,49.05-17.91V76.33c0-5.61,1.49-10.15,3.32-10.15s3.1,3.9,3.29,8.95L140,75h0c4.19-5.62,10.23-8.28,14.67-6C160,71.59,161,80.18,157,88.11s-11.55,12.19-16.83,9.51l-3.84-1.94A185,185,0,0,1,113.23,106c-14.81,5.61-10.82,12.51-10.82,12.51s-.92,18.14-1,22.44-3.21,5-3.21,5-58.83-1.08-65.91-.14-10.37-5.13-10.37-5.13S21.32,114.67,21.88,104.64Z"/><path class="cls-3" d="M118.9,40.06s18.57,11.08-2,24.12"/><path class="cls-3" d="M8.7,40.06s-18.57,11.08,2,24.12"/><path class="cls-4" d="M23.86,98c10.21-4.7,16.34,13.89,16.34,13.89V128l14.25.71s21.78,2.16,30.08,16.05"/><rect class="cls-5" x="24.79" y="115.02" width="7.83" height="12.94" rx="3.83" transform="translate(57.4 242.98) rotate(-180)"/><line class="cls-4" x1="64.56" y1="162.22" x2="64.56" y2="146.97"/><path class="cls-5" d="M74.21,169.6a27.87,27.87,0,0,1,26.67-5.78"/><path class="cls-5" d="M55.34,169.6s-10.67-12.43-26.64-5.14"/><path class="cls-3" d="M71.73,182.14c0,7.43,8.42,8.51,18.81,8.51s18.81-1.08,18.81-8.51-8.42-13.44-18.81-13.44S71.73,174.72,71.73,182.14Z"/><path class="cls-3" d="M21.39,183c0,7.43,8.42,8.52,18.81,8.52S59,190.47,59,183,50.59,169.6,40.2,169.6,21.39,175.62,21.39,183Z"/><path class="cls-1" d="M8.56,48.49c0,24.53,24.92,57.19,55.66,57.19S119.88,73,119.88,48.49,95,1,64.22,1,8.56,24,8.56,48.49Z"/><path class="cls-6" d="M35.77,86.74H87c9.71,0,21.51-13.12,21.51-22.93V41.88A17.67,17.67,0,0,0,91,24.12H39.7A17.67,17.67,0,0,0,22.12,41.88V63.81C22.12,73.62,26.06,86.74,35.77,86.74Z"/><rect class="cls-1" x="18.72" y="48.48" width="38.81" height="10.72" rx="5.36" transform="translate(-15.72 91.96) rotate(-90)"/><path class="cls-4" d="M72.69,24.12S71.64,10,84.53,4.49"/><path class="cls-4" d="M54.43,24.12S55.48,10,42.6,4.49"/><rect class="cls-5" x="44.83" y="112.08" width="34.19" height="16.6" rx="7.18" transform="translate(123.84 240.75) rotate(-180)"/><path class="cls-4" d="M81.83,103c9.74,17.91,18.25,20.4,18.25,20.4S89.3,107.59,93,95.35"/><line class="cls-4" x1="132.91" y1="77.54" x2="136.35" y2="95.68"/><path class="cls-2" d="M102.37,122.71s-3.77-19,.62-34.06"/></g></g></svg>