<svg xmlns="http://www.w3.org/2000/svg" viewBox="0 0 127.94 767.49"><defs><style>.cls-1{fill:#bf6667;stroke:#787678;}.cls-1,.cls-10,.cls-19,.cls-2,.cls-20,.cls-21,.cls-22,.cls-23,.cls-24,.cls-27,.cls-28,.cls-3,.cls-4,.cls-5,.cls-9{stroke-miterlimit:10;}.cls-19,.cls-2,.cls-20,.cls-21,.cls-22,.cls-23,.cls-24,.cls-27,.cls-28,.cls-3{fill:none;}.cls-2{stroke:#874948;}.cls-3{stroke:#1d1d1b;}.cls-11,.cls-4{fill:#383c52;}.cls-4{stroke:#454544;}.cls-5{fill:#afb9bb;stroke:#616062;}.cls-6{fill:#363635;}.cls-7{fill:#2b2c2a;}.cls-8{fill:#21211f;}.cls-9{fill:#c4c9c5;}.cls-10,.cls-9{stroke:#939393;}.cls-10{fill:#c4c7c5;}.cls-12{fill:#2c2f40;}.cls-13{fill:#cdd0cd;}.cls-14{fill:#a3adaf;}.cls-15{fill:#a3a3a3;}.cls-16{fill:silver;}.cls-17{fill:#97a1a2;}.cls-18{fill:#874948;}.cls-19{stroke:#363635;}.cls-20{stroke:silver;}.cls-21,.cls-24{stroke:#a0aaab;}.cls-22{stroke:#ca392e;}.cls-23{stroke:#383c52;}.cls-24{stroke-width:0.5px;}.cls-25{fill:#fff;}.cls-26{fill:#1a1f55;}.cls-27{stroke:#941914;stroke-width:0.25px;}.cls-28{stroke:#463a42;}.cls-29{fill:#aad0bb;}.cls-30{fill:#ccc;}.cls-31{fill:#e3e3e3;}</style></defs><title>frienship 7</title><g id="Layer_2" data-name="Layer 2"><g id="text"><polygon class="cls-1" points="63.88 51.66 74.01 51.66 74.01 18.74 68.94 18.74 63.88 18.74 63.88 51.66"/><line class="cls-2" x1="68.95" x2="68.95" y2="18.74"/><polyline class="cls-3" points="74.01 94.7 63.88 94.7 74.01 113.44 68.94 126.1 60.34 126.1 63.88 51.66 74.01 74.44 63.88 74.44 74.01 51.66 74.01 113.44 79.07 126.1"/><polyline class="cls-3" points="63.88 74.44 74.01 94.7 74.01 74.44 63.88 94.7"/><line class="cls-3" x1="60.34" y1="112.43" x2="74.01" y2="94.7"/><path class="cls-4" d="M79.07,127.37s5.7,3,0,5.31v13.68l12.66,34.43s3,5.57,0,8.11v26.84c-18.73-8.11-48.11,0-48.11,0V189.91s-5.57-9.62,3-11.65l11.14-31.9,2.54-14.18s-6.08-2,0-6.08Z"/><path class="cls-5" d="M91.73,215.74l19.76,94.95,5.31,153.45L113,645.69l14.44,60.77v44.06l-25.07-3.79L88.85,734.57,31,736.09,22.1,746.73H.58l6.83-48.62,8.36-56.21V497.56c0-39.5,4.56-34.94,4.56-34.94s6.84-38.74,4.56-94.95,5.31-79,5.31-79l13.42-72.92S75,208.14,91.73,215.74Z"/><path class="cls-6" d="M4.38,765.72l5.06-19H22.1L31,736.09l9.63,29.63S15,763.69,4.38,765.72Z"/><path class="cls-6" d="M124.43,767.49l-2.79-17-16.71-3.79L91.42,734.57l-8,31.15S105.19,762.43,124.43,767.49Z"/><path class="cls-7" d="M91.42,734.57l-8,28.61c-12.41-3.79-30.13,0-30.13,0l9.87-27.09Z"/><path class="cls-8" d="M52.07,759.47c-5.74-4.47-13.51,0-13.51,0L31,736.09H60.59Z"/><path class="cls-9" d="M20.33,462.62s5.06,6.33,5.57,12.91,0,149.4,0,149.4L23.23,630v12.67L31,736.09,22.1,746.73H.58L15.77,641.9V475S16.9,457,20.33,462.62Z"/><polygon class="cls-10" points="102.37 746.73 104.9 644.17 101.36 566.18 107.94 536.31 114.97 551.54 113 645.69 127.44 706.47 127.44 750.52 102.37 746.73"/><polygon class="cls-11" points="74.01 113.44 69.7 107.87 63.88 113.44 63.88 126.1 68.94 126.1 74.01 113.44"/><path class="cls-12" d="M91.73,188.9s-18.73-9.63-48.11,1c0,0-5.06-12.66,3-11.65,0,0,28.87-7.59,45.07,2.53,0,0,4.56,6.59,0,8.11"/><path class="cls-13" d="M104.9,644.17c-30.13-11-81.67-1.51-81.67-1.51L31,736.09l57.89-1.52,13.52,12.16Z"/><path class="cls-6" d="M70,126.1s-19.25-3.54-8.61,8.1L47.66,178.26c-9.79,1.84-3,11.65-3,11.65v25.83s17.73-5.52,23.55-3.27c0-8.75.75-18.29.73-27.05a64.8,64.8,0,0,0-10.79.29c-3-9,2.78-18.14,5.78-27.09,2.8-8.33,3.2-17.25,3.45-26C67.4,130.22,68.12,127.6,70,126.1Z"/><path class="cls-14" d="M67.17,638.86l-43.94,3.8V630l2.68-7.6s.21-116.47.15-135.71-5.73-24.06-5.73-24.06L24.5,341.33C28.68,290.17,29.07,293,29.07,293l14.55-77.28s13.59-3.32,23.55-3.27c-5.93,41.38-10.91,85.63-9,127.38a64.71,64.71,0,0,0,1.65,13.47c1.07,4.07,2.85,7.91,4.26,11.87,6.19,17.5,4.76,36.67,3,55.16C65.62,436.16,64,452,62.36,467.76a106.74,106.74,0,0,1-2.43,15.83c-1,4-2.51,7.83-3.39,11.83a75.37,75.37,0,0,0-1.38,14.46C54.1,552.67,55.93,597.56,67.17,638.86Z"/><path class="cls-15" d="M20.33,745.71H2.1L16.24,642.66l.37-9.88s-.84-143.07,0-158.8,3.72-11.36,3.72-11.36c-2.22,2-.86,5.35-.5,8.29,2.87,23.15,2.35,46.57,1.81,69.89-.22,9.71-.45,19.46-2.12,29-1.28,7.31-3.4,14.78-1.78,22,.55,2.48,1.53,4.86,2.08,7.35a43,43,0,0,1,.61,10.27l-.34,16.89c-.77,38.54-1.55,77.09-.69,115.63C19.44,743.57,19,744.94,20.33,745.71Z"/><path class="cls-14" d="M107.94,536.31l-6.58,29.87,3.54,78-13.48-3.46a12,12,0,0,0,8.11-4c2.13-2.71,1.37-6.6.64-10a117.67,117.67,0,0,1-1.55-40.48c.69-5.06,1.7-10.31.13-15.17-.93-2.9-2.78-5.86-1.85-8.76.56-1.77,2.06-3.08,2.83-4.76.85-1.88.74-4,.87-6.08A22.32,22.32,0,0,1,107.94,536.31Z"/><path class="cls-16" d="M31,736.09l-7.73-93.43c2.36,0,4.5.18,6,2A15.93,15.93,0,0,1,32,651.14c2.84,11.75,2.12,24,1.81,36.11-.14,5.24.21,11.33,4.46,14.4q1.56-20,1.14-40.17a98.06,98.06,0,0,1,2.49,30.35c-.23,3.16-.47,6.79,1.77,9l1.14-19.78c.11-2,1.41-4.7,3.17-3.79Q47,689.59,46,701.88c-.19,2.41-.26,5.15,1.46,6.84a7.33,7.33,0,0,0,4.73,1.66,28.14,28.14,0,0,0,9.14-.86c2.4-.64,5.19-1.54,7.18,0,1.79,1.34,1.95,3.91,1.95,6.15v17.82C58.2,735.56,43.43,736.09,31,736.09Z"/><polygon class="cls-17" points="65.65 561.88 69.2 561.88 67.43 550.49 65.65 561.88"/><path class="cls-18" d="M63.88,51.66V18.74H69c.09,3.93.08,8.16.17,12.1A19.25,19.25,0,0,1,69,34.4c-.13.78-.35,1.55-.51,2.33-.92,4.48.28,9.12-.07,13.68A1.41,1.41,0,0,1,68,51.5a1.43,1.43,0,0,1-.79.16C66.24,51.68,64.81,51.66,63.88,51.66Z"/><path class="cls-19" d="M79.07,146.36a28.79,28.79,0,0,0-21.77,0"/><path class="cls-20" d="M27.38,692.79s57.26-7.34,76.26,2.66"/><line class="cls-21" x1="28.87" y1="692.18" x2="27.38" y2="642.22"/><line class="cls-21" x1="32.99" y1="692.18" x2="31.03" y2="641.79"/><line class="cls-21" x1="35.6" y1="691.12" x2="34.48" y2="641.16"/><line class="cls-21" x1="40.01" y1="691.12" x2="38.78" y2="641.16"/><line class="cls-20" x1="43.3" y1="691.23" x2="41.61" y2="641.07"/><line class="cls-20" x1="45.78" y1="641.07" x2="45.78" y2="691.04"/><line class="cls-20" x1="49.2" y1="690.82" x2="49.2" y2="640.41"/><line class="cls-20" x1="52.42" y1="690.63" x2="53.28" y2="640.06"/><line class="cls-20" x1="56.23" y1="690.45" x2="56.23" y2="639.8"/><line class="cls-20" x1="60.59" y1="639.43" x2="60.59" y2="690.45"/><line class="cls-20" x1="65.51" y1="639" x2="65.51" y2="690.19"/><line class="cls-20" x1="69.7" y1="639.43" x2="69.7" y2="689.37"/><line class="cls-20" x1="73.12" y1="638.85" x2="73.12" y2="690.19"/><line class="cls-20" x1="77.3" y1="639" x2="77.3" y2="690.19"/><line class="cls-20" x1="81.16" y1="639.43" x2="81.42" y2="690.63"/><line class="cls-20" x1="84.98" y1="639.8" x2="84.98" y2="690.45"/><line class="cls-20" x1="89.55" y1="640.41" x2="89.55" y2="690.45"/><line class="cls-20" x1="93.82" y1="641.16" x2="93.82" y2="692.18"/><line class="cls-21" x1="97.3" y1="642.22" x2="97.3" y2="693.06"/><line class="cls-21" x1="101.36" y1="643.41" x2="100.7" y2="694.15"/><path class="cls-16" d="M104.9,644.17l-2.53,102.56c-3.48-2.4-4.81-6.68-5.62-10.82s-.55-8.43-.28-12.64q1.75-27.67,3.52-55.35c.3-4.69.63-9.52,2.66-13.76C104.41,650.47,105.83,648.16,104.9,644.17Z"/><path class="cls-17" d="M65.65,561.88S70,645.7,59.32,641.39c0,0,8.36,9.12,16.21,0,0,0-8.86-6.33-6.33-79.51"/><path class="cls-22" d="M41.39,184.1s25.7-11.63,51.69,0"/><line class="cls-21" x1="35.6" y1="736.09" x2="35.6" y2="691.12"/><line class="cls-21" x1="81.16" y1="735.12" x2="81.42" y2="690.63"/><path class="cls-21" d="M23.23,642.66a11.27,11.27,0,0,0-7.57,0"/><path class="cls-21" d="M104.9,644.17s5.83-2.27,8.1,1.52"/><path class="cls-21" d="M31,736.09S15,731,2.34,734.57"/><path class="cls-21" d="M27.38,692.79s-13.33-2.86-19.18,1.36"/><path class="cls-21" d="M104.9,694.15s13.23-4.14,19.53,1.3"/><path class="cls-21" d="M102.67,734.7s16.41-1.65,24.77,5.95"/><path class="cls-21" d="M15.66,586.19s5.93-3.8,9.23,0"/><path class="cls-21" d="M15.66,534s5.43-4,9.23,0"/><path class="cls-21" d="M15.77,475a6.49,6.49,0,0,1,9.12,0"/><path class="cls-21" d="M115,551.54s-6.52,10.85-13.61,14.64"/><path class="cls-21" d="M103.92,592.52s8.32-3,10.48,0"/><path class="cls-21" d="M26.06,518.58s48.2-13.17,88.34,0"/><path class="cls-21" d="M36.51,253.5s32.44-16.43,63.08,0"/><path class="cls-23" d="M61.71,269.89v9.63c-3.07,8.92-6.37,0-6.37,0v-9.63"/><polyline class="cls-23" points="62.48 286.86 62.48 288 62.48 300.8 60.39 300.65 56.44 288 54.46 288 54.46 301.66 54.46 302.52"/><line class="cls-23" x1="58.47" y1="303.96" x2="58.47" y2="317.47"/><polyline class="cls-23" points="53.37 322.07 58.53 322.07 63.14 322.07"/><line class="cls-23" x1="58.53" y1="334.29" x2="58.53" y2="322.07"/><polyline class="cls-23" points="62.04 338.31 55.23 338.31 55.23 344.13 55.23 349.95 62.04 349.95"/><line class="cls-23" x1="58.47" y1="344.92" x2="55.23" y2="344.92"/><path class="cls-23" d="M55.23,357v11.35h4.28s2.09,1,2.53-2.58a42,42,0,0,0,0-7.91,3.92,3.92,0,0,0-1.87-2c-1.32-.58-4.94,0-4.94,0Z"/><path class="cls-23" d="M60.7,386.85v-2a1.37,1.37,0,0,0-1.43-1.19,29.76,29.76,0,0,1-3,0s-1.23.34-1,2.55.72,2.38.72,2.38l2.78.93s2.21.59,2,2v2s-.26,2.21-1.17,1.79l-2.59.05s-1.62-.22-1.69-2.68"/><line class="cls-23" x1="62.04" y1="403.43" x2="54.46" y2="403.43"/><line class="cls-23" x1="58.47" y1="415.36" x2="58.25" y2="404"/><line class="cls-23" x1="62.15" y1="435.81" x2="54.57" y2="435.81"/><line class="cls-23" x1="58.58" y1="447.74" x2="58.36" y2="436.39"/><path class="cls-23" d="M60.7,472.81v-1.95a1.37,1.37,0,0,0-1.43-1.19,29.76,29.76,0,0,1-3,0s-1.23.34-1,2.55.72,2.38.72,2.38l2.78.93s2.21.59,2,2v2s-.26,2.2-1.17,1.78l-2.59.05s-1.62-.22-1.69-2.68"/><polyline class="cls-23" points="62.08 452.22 55.27 452.22 55.27 458.05 55.27 463.87 62.08 463.87"/><line class="cls-23" x1="58.51" y1="458.84" x2="55.27" y2="458.84"/><polyline class="cls-23" points="55.85 430.74 57.93 418.62 59.01 418.62 61.49 430.74"/><line class="cls-23" x1="56.49" y1="427.05" x2="60.73" y2="427.05"/><path class="cls-24" d="M68.28,155.68V158C67,160.81,66,158,66,158v-2.28"/><polyline class="cls-24" points="69.8 159.22 69.8 155.68 70.46 155.68 71.13 159.22 71.79 159.22 71.79 155.68"/><line class="cls-24" x1="72.93" y1="155.68" x2="72.93" y2="159.22"/><polyline class="cls-24" points="73.5 156.15 74.78 156.4 75.97 156.63"/><line class="cls-24" x1="74.73" y1="159.67" x2="74.78" y2="156.4"/><polyline class="cls-24" points="78.03 157.45 76.57 156.63 76.79 158.4 77.01 160.17 78.85 160.17"/><line class="cls-24" x1="77.71" y1="158.4" x2="76.79" y2="158.4"/><path class="cls-24" d="M78.6,157.45l.57,3.1S82.14,160.55,78.6,157.45Z"/><path class="cls-24" d="M68.53,161.5s-1.33-1.58-2.09,0,1.84,1.21,1.84,1.21a.69.69,0,0,1,0,1.26c-1,.7-2-.44-2-.44"/><polyline class="cls-24" points="69.48 161.25 70.64 161.25 71.79 161.25"/><line class="cls-24" x1="70.64" y1="164.2" x2="70.64" y2="161.25"/><polyline class="cls-24" points="72.93 164.54 72.93 162.9 72.93 161.25 73.97 161.25 75.18 164.54"/><line class="cls-24" x1="74.05" y1="162.9" x2="72.93" y2="162.9"/><line class="cls-24" x1="75.18" y1="161.57" x2="77.71" y2="162.07"/><line class="cls-24" x1="76.44" y1="162.07" x2="76.79" y2="164.54"/><polyline class="cls-24" points="79.78 162.64 78.33 161.82 78.55 163.59 78.77 165.36 80.61 165.36"/><line class="cls-24" x1="79.47" y1="163.59" x2="78.55" y2="163.59"/><path class="cls-24" d="M81.76,163.59s-1.16-1.77-1.16,0l1.16,1.33s.87,1.71-.58,1.08"/><path class="cls-25" d="M81.31,173.63l.17-5.45c-1.55-1.74-9.25-1.3-9.25-1.3v5.35S79.28,172.17,81.31,173.63Z"/><path class="cls-26" d="M72.23,169.7s2.88-.35,3.36.16v-3l-3.36,0Z"/><path class="cls-27" d="M75.59,167.36s4.92.32,5.86,1.58"/><path class="cls-27" d="M75.59,168.15s5.12.35,5.84,1.71"/><path class="cls-27" d="M75.59,169.16s4.88.13,5.81,1.55"/><path class="cls-27" d="M75.59,169.86s4.61-.13,5.72,1.64"/><path class="cls-27" d="M72.23,170.43s8.22-.06,9.08,1.39"/><path class="cls-27" d="M72.23,171.12s8.67.13,9.08,1.56"/><path class="cls-27" d="M72.23,171.82s8.06-.16,9.08,1.24"/><polygon class="cls-25" points="73.63 167.36 73.55 167.4 73.53 167.49 73.47 167.42 73.38 167.44 73.42 167.36 73.38 167.28 73.47 167.29 73.53 167.23 73.55 167.32 73.63 167.36"/><polygon class="cls-25" points="73.17 167.23 73.09 167.27 73.08 167.36 73.02 167.29 72.93 167.31 72.97 167.23 72.93 167.15 73.02 167.17 73.08 167.1 73.09 167.19 73.17 167.23"/><polygon class="cls-25" points="72.66 167.19 72.58 167.23 72.57 167.32 72.51 167.26 72.42 167.27 72.46 167.19 72.42 167.11 72.51 167.13 72.57 167.06 72.58 167.15 72.66 167.19"/><polygon class="cls-25" points="74.15 167.19 74.07 167.23 74.06 167.32 73.99 167.26 73.91 167.27 73.95 167.19 73.91 167.11 73.99 167.13 74.06 167.06 74.07 167.15 74.15 167.19"/><polygon class="cls-25" points="73.05 167.67 72.97 167.71 72.96 167.79 72.9 167.73 72.81 167.75 72.85 167.67 72.81 167.59 72.9 167.6 72.96 167.54 72.97 167.63 73.05 167.67"/><polygon class="cls-25" points="74.6 167.67 74.52 167.71 74.51 167.79 74.44 167.73 74.36 167.75 74.4 167.67 74.36 167.59 74.44 167.6 74.51 167.54 74.52 167.63 74.6 167.67"/><polygon class="cls-25" points="75 167.54 74.92 167.58 74.91 167.67 74.85 167.6 74.76 167.62 74.8 167.54 74.76 167.46 74.85 167.47 74.91 167.41 74.92 167.5 75 167.54"/><polygon class="cls-25" points="73.91 167.92 73.83 167.96 73.82 168.05 73.76 167.99 73.67 168 73.71 167.92 73.67 167.84 73.76 167.86 73.82 167.79 73.83 167.88 73.91 167.92"/><polygon class="cls-25" points="73.3 168.15 73.22 168.19 73.2 168.28 73.14 168.21 73.05 168.23 73.09 168.15 73.05 168.07 73.14 168.09 73.2 168.02 73.22 168.11 73.3 168.15"/><polygon class="cls-25" points="72.66 168.15 72.58 168.19 72.57 168.28 72.51 168.21 72.42 168.23 72.46 168.15 72.42 168.07 72.51 168.09 72.57 168.02 72.58 168.11 72.66 168.15"/><polygon class="cls-25" points="75.21 167.92 75.13 167.96 75.12 168.05 75.06 167.99 74.97 168 75.01 167.92 74.97 167.84 75.06 167.86 75.12 167.79 75.13 167.88 75.21 167.92"/><polygon class="cls-25" points="72.93 168.66 72.85 168.7 72.84 168.79 72.78 168.72 72.69 168.74 72.73 168.66 72.69 168.58 72.78 168.6 72.84 168.53 72.85 168.62 72.93 168.66"/><polygon class="cls-25" points="73.67 168.53 73.59 168.57 73.58 168.66 73.51 168.6 73.42 168.61 73.47 168.53 73.42 168.45 73.51 168.47 73.58 168.4 73.59 168.49 73.67 168.53"/><polygon class="cls-25" points="74.36 168.18 74.4 168.27 74.48 168.28 74.42 168.34 74.43 168.43 74.35 168.39 74.27 168.42 74.29 168.34 74.23 168.27 74.32 168.26 74.36 168.18"/><polygon class="cls-25" points="73.81 169.12 73.85 169.2 73.93 169.22 73.87 169.28 73.88 169.36 73.8 169.32 73.72 169.35 73.74 169.27 73.68 169.2 73.77 169.19 73.81 169.12"/><polygon class="cls-25" points="74.31 168.75 74.34 168.83 74.43 168.85 74.36 168.91 74.37 169 74.29 168.95 74.21 168.99 74.23 168.9 74.17 168.84 74.26 168.83 74.31 168.75"/><polygon class="cls-25" points="74.8 168.54 74.84 168.62 74.92 168.63 74.86 168.69 74.87 168.78 74.79 168.74 74.71 168.77 74.73 168.69 74.67 168.62 74.76 168.61 74.8 168.54"/><polygon class="cls-25" points="74.77 169.17 74.8 169.25 74.89 169.27 74.82 169.33 74.83 169.42 74.75 169.37 74.67 169.41 74.69 169.32 74.63 169.25 74.72 169.25 74.77 169.17"/><polygon class="cls-25" points="75.29 168.93 75.33 169.01 75.41 169.03 75.35 169.09 75.36 169.18 75.28 169.13 75.2 169.17 75.22 169.08 75.16 169.01 75.25 169.01 75.29 168.93"/><polygon class="cls-25" points="75.2 168.18 75.24 168.27 75.33 168.28 75.26 168.34 75.27 168.43 75.19 168.39 75.11 168.42 75.13 168.34 75.07 168.27 75.16 168.26 75.2 168.18"/><polygon class="cls-25" points="73.3 169.05 73.22 169.09 73.2 169.18 73.14 169.12 73.05 169.13 73.09 169.05 73.05 168.97 73.14 168.99 73.2 168.92 73.22 169.01 73.3 169.05"/><polygon class="cls-25" points="72.61 169.42 72.53 169.46 72.52 169.54 72.46 169.48 72.37 169.5 72.41 169.42 72.37 169.34 72.46 169.35 72.52 169.29 72.53 169.38 72.61 169.42"/><polygon class="cls-25" points="75.41 167.61 75.33 167.65 75.31 167.74 75.25 167.68 75.16 167.69 75.21 167.61 75.16 167.53 75.25 167.55 75.31 167.49 75.33 167.57 75.41 167.61"/><polygon class="cls-25" points="73.91 168.79 73.83 168.83 73.82 168.92 73.76 168.85 73.67 168.87 73.71 168.79 73.67 168.71 73.76 168.72 73.82 168.66 73.83 168.75 73.91 168.79"/><polygon class="cls-25" points="74.07 168.31 73.99 168.35 73.98 168.44 73.92 168.37 73.83 168.39 73.87 168.31 73.83 168.23 73.92 168.24 73.98 168.18 73.99 168.27 74.07 168.31"/><polygon class="cls-25" points="74.42 167.17 74.34 167.21 74.33 167.3 74.26 167.24 74.17 167.25 74.22 167.17 74.17 167.09 74.26 167.11 74.33 167.04 74.34 167.13 74.42 167.17"/><polygon class="cls-25" points="75.16 167.04 75.08 167.08 75.06 167.17 75 167.11 74.91 167.12 74.95 167.04 74.91 166.97 75 166.98 75.06 166.92 75.08 167 75.16 167.04"/><line class="cls-28" x1="53.56" y1="597.69" x2="53.56" y2="606.99"/><path class="cls-28" d="M64.76,604.33c-2.28,4.94-4.56,0-4.56,0v-4.17s2.28-5.13,4.56,0Z"/><path class="cls-28" d="M76,602.34c-.45.29-2.6,1.75-4.37-.14V600s1.9-3.61,4.37,0v5.5c-2.09,3.61-5.13,0-5.13,0"/><path class="cls-28" d="M82.64,598.54v8.74H85.3s1.55.6,1.59-2.57,0-4.62,0-4.62a1.54,1.54,0,0,0-1.43-1.55A8,8,0,0,0,82.64,598.54Z"/><path class="cls-29" d="M73.6,137.64c.48-1.95.71-4.18-.43-5.84a19.51,19.51,0,0,1-1.31-1.72,1.58,1.58,0,0,1,.21-2,3.06,3.06,0,0,1,1.63-.32c.83-.08,1.76-.44,2.42.07a2.05,2.05,0,0,1,.62,1.3c.82,4.79-2.08,9.54-1.71,14.38.27,3.57,2.29,6.82,2.56,10.39a2.34,2.34,0,0,1,0,.79,1.5,1.5,0,0,1-2.1.68,2.63,2.63,0,0,1-1.19-2.1,13.29,13.29,0,0,1,.16-2.51c.23-2.51-.67-4.27-1.24-6.57S73,140,73.6,137.64Z"/><path class="cls-30" d="M82.62,211q-2.49,31.36-3.27,62.84c-.16,6.33-.26,12.74,1.05,18.94C82.23,301.4,86.71,309.29,88,318c1.1,7.35-.15,14.81-.91,22.2-1.76,17-1,34.06-.19,51.09l2.32,50.23c1.11,24.14,2.28,48.63,9.85,71.59,2.8,8.47,6.46,16.73,7.79,25.55,5.9-10,.75-22.5-1.39-33.91-2.63-14-.43-28.47-1.84-42.64C102.33,448.81,97.86,436,97,422.66c-.83-12.09,1.29-24.31-.28-36.33-1.1-8.38-4-16.45-5-24.84-2-16.42,3.26-33.27,0-49.49-.89-4.4-2.4-8.66-3.25-13.07-1.08-5.62-1.09-11.38-1.09-17.11L87.24,183c0-1.3-6.36.07-7,1-1.47,2.09.94,4.91,1.61,7.23C83.72,197.57,83.14,204.48,82.62,211Z"/><path class="cls-30" d="M95.32,595.44c.17-12.87,2.87-25.61,3.05-38.48.19-14.4-2.77-28.63-5.73-42.73l-4.44.56c1.64-.2,3.47,64.48,3.36,70.27q-.34,17.6-1.85,35.14c-.79,9.11-3.37,18.26,3.71,25.54C100.42,630.85,95.11,611.26,95.32,595.44Z"/><path class="cls-31" d="M95.58,643.45c1.81,2.09,1.39,5.33.23,7.84s-3,4.74-3.73,7.4c-.71,2.45-.49,5.06-.64,7.6-.3,5.06-2.09,9.9-3.07,14.86s-1.05,10.48,1.75,14.7c.95,1.42,2.21,2.68,2.77,4.29a11,11,0,0,1,.41,3.75l-.07,21.39c0,2.51,0,5.12-1.06,7.42s-3.31,4.23-5.82,4l-.9-13.93-.26-4.09c-.56-8.52-1.11-17.05-1-25.59,0-2.17.09-4.42-.79-6.41a18.68,18.68,0,0,0-2.15-3.3c-6-8.25-7.56-19.31-4.82-29C78.2,648,87.59,634.25,95.58,643.45Z"/><path class="cls-31" d="M109.12,660c0,4,0,8.24,1.74,11.89,1,2.12,2.57,3.94,3.64,6a31,31,0,0,1,1.9,5.25c1.58,5.41,3.16,11.21,1.46,16.57,2.1.49,2.5,3.28,2.45,5.44l-1,43.66c1.33,2,4.67,1.49,6.16-.39s1.58-4.49,1.43-6.88c-.25-4-1-8-1-12.06,0-7.93,3-16,.58-23.6a37.86,37.86,0,0,1-1.4-4.3c-.61-3.12.43-6.43-.42-9.49a21.12,21.12,0,0,0-1.89-4.1,30.91,30.91,0,0,1-3.43-15.15,8.7,8.7,0,0,0-.32-3.53,12.82,12.82,0,0,0-1.76-2.54c-2.45-3.38-2.25-7.92-2.94-12a26.51,26.51,0,0,0-2.15-6.89c-.83-1.77-1.24-3.61-2.64-1.75C107.64,648.57,109.13,656.93,109.12,660Z"/></g></g></svg>