<svg xmlns="http://www.w3.org/2000/svg" viewBox="0 0 292.16 249.67"><defs><style>.cls-1{fill:#fff;stroke:#000;stroke-miterlimit:10;stroke-width:7px;}.cls-2{fill:#1d1d1b;}.cls-3{fill:#646464;}.cls-4{fill:#ffe351;}</style></defs><title>Asset 4</title><g id="Layer_2" data-name="Layer 2"><g id="Vrstva_1" data-name="Vrstva 1"><rect class="cls-1" x="82.01" y="34.92" width="175.24" height="175.24" transform="translate(74.03 -63.61) rotate(26.97)"/><rect class="cls-2" x="50.77" y="163.4" width="176.24" height="39.06" transform="translate(98.08 -43.1) rotate(26.97)"/><rect class="cls-1" x="16.24" y="58.2" width="175.24" height="175.24" transform="matrix(0.99, 0.15, -0.15, 0.99, 23.25, -14.03)"/><rect class="cls-2" x="6.86" y="191.09" width="176.24" height="39.06" transform="matrix(0.99, 0.15, -0.15, 0.99, 32.95, -11.94)"/><polygon class="cls-3" points="76.4 108.7 90.13 145.81 103.85 182.93 64.85 176.26 25.84 169.59 51.12 139.14 76.4 108.7"/><polygon class="cls-3" points="130.38 87.94 150 141 169.63 194.06 113.86 184.52 58.1 174.98 94.24 131.46 130.38 87.94"/><circle class="cls-4" cx="58.1" cy="87.94" r="16.04"/></g></g></svg>