<svg id="Vrstva_1" data-name="Vrstva 1" xmlns="http://www.w3.org/2000/svg" viewBox="0 0 384.79 321.81"><defs><style>.cls-1,.cls-2,.cls-7,.cls-8{fill:#fff;}.cls-1,.cls-3,.cls-4,.cls-5{stroke:#1d1d1b;}.cls-1,.cls-2,.cls-3,.cls-4,.cls-5,.cls-7,.cls-8{stroke-miterlimit:10;stroke-width:2px;}.cls-2,.cls-7{stroke:#000;}.cls-2{opacity:0.99;}.cls-3{fill:#b7b7b7;}.cls-4{fill:none;}.cls-5{fill:#e52421;}.cls-6{fill:#1d1d1b;}.cls-8{stroke:#feeddd;}</style></defs><title>littleguyleftbubble</title><path class="cls-1" d="M351,586.62c0-3.92,4.25-24.62,4.25-24.62l29.11-5,36.81,4.86,4.55,26.29-26.89,1.7s-.17-10.21-9.7-11.74a8.29,8.29,0,0,0-1.28-.13c-8.47-.28-10.64,11-10.64,11Z" transform="translate(-68.14 -285.77)"/><path class="cls-2" d="M431,519.67c-.57-10-5.81-9.13-5.81-9.13l-8.89-.28-47.27.22L320,492.57v-1.21c0-5.61-1.49-10.15-3.32-10.15s-3.11,3.9-3.29,9l-.5-.19h0c-4.19-5.62-10.23-8.28-14.67-6-5.29,2.68-6.32,11.27-2.32,19.2s11.55,12.19,16.83,9.51l3.84-1.94A184.08,184.08,0,0,0,339.69,521c14.81,5.6,10.82,12.51,10.82,12.51s.93,18.13,1,22.44,3.22,5,3.22,5,58.82-1.08,65.91-.14S431,555.68,431,555.68,431.61,529.7,431,519.67Z" transform="translate(-68.14 -285.77)"/><path class="cls-3" d="M334,455.09s-18.57,11.08,2,24.12" transform="translate(-68.14 -285.77)"/><path class="cls-3" d="M444.23,455.09s18.57,11.08-2,24.12" transform="translate(-68.14 -285.77)"/><path class="cls-4" d="M429.06,513c-10.21-4.71-16.34,13.89-16.34,13.89V543l-14.25.72s-21.77,2.15-30.07,16" transform="translate(-68.14 -285.77)"/><rect class="cls-5" x="352.17" y="244.28" width="7.83" height="12.94" rx="3.83"/><line class="cls-4" x1="320.23" y1="291.48" x2="320.23" y2="276.23"/><path class="cls-5" d="M378.71,584.62A27.85,27.85,0,0,0,352,578.85" transform="translate(-68.14 -285.77)"/><path class="cls-5" d="M397.58,584.62s10.67-12.42,26.64-5.13" transform="translate(-68.14 -285.77)"/><path class="cls-3" d="M381.19,597.17c0,7.43-8.42,8.51-18.81,8.51s-18.81-1.08-18.81-8.51,8.42-13.45,18.81-13.45S381.19,589.74,381.19,597.17Z" transform="translate(-68.14 -285.77)"/><path class="cls-3" d="M431.53,598.07c0,7.43-8.42,8.51-18.81,8.51s-18.81-1.08-18.81-8.51,8.43-13.45,18.81-13.45S431.53,590.64,431.53,598.07Z" transform="translate(-68.14 -285.77)"/><path class="cls-1" d="M444.37,463.52c0,24.53-24.92,57.19-55.66,57.19s-55.66-32.66-55.66-57.19S358,416,388.71,416,444.37,439,444.37,463.52Z" transform="translate(-68.14 -285.77)"/><path class="cls-6" d="M417.16,501.77H365.88c-9.71,0-21.51-13.12-21.51-22.93V456.91A17.67,17.67,0,0,1,362,439.15h51.28a17.67,17.67,0,0,1,17.58,17.76v21.93C430.81,488.65,426.87,501.77,417.16,501.77Z" transform="translate(-68.14 -285.77)"/><rect class="cls-1" x="341.47" y="463.01" width="38.81" height="10.72" rx="5.36" transform="translate(-175.62 543.47) rotate(-90)"/><path class="cls-4" d="M380.23,439.15s1-14.11-11.83-19.64" transform="translate(-68.14 -285.77)"/><path class="cls-4" d="M398.49,439.15s-1.05-14.11,11.84-19.64" transform="translate(-68.14 -285.77)"/><rect class="cls-5" x="305.77" y="241.33" width="34.19" height="16.6" rx="7.18"/><path class="cls-4" d="M371.1,518c-9.74,17.91-18.25,20.4-18.25,20.4s10.77-15.78,7.07-28" transform="translate(-68.14 -285.77)"/><line class="cls-4" x1="251.88" y1="206.8" x2="248.44" y2="224.93"/><path class="cls-7" d="M352.85,538.4s3.76-19-.62-34.07" transform="translate(-68.14 -285.77)"/><g id="Group_69" data-name="Group 69"><path id="Path_261" data-name="Path 261" class="cls-8" d="M284.74,394.57c10.8-10.7,17-23.4,17-36.9,0-39.1-51.9-70.9-116.2-70.9s-116.3,31.8-116.4,71,52.1,70.9,116.3,70.9a177.17,177.17,0,0,0,57.7-9.3" transform="translate(-68.14 -285.77)"/><path id="Path_262" data-name="Path 262" class="cls-8" d="M284.84,394.67l19,31.4,29.2,48.3-49.7-30.5-40.2-24.5" transform="translate(-68.14 -285.77)"/></g></svg>