<svg id="Vrstva_1" data-name="Vrstva 1" xmlns="http://www.w3.org/2000/svg" viewBox="0 0 384.9 321.5"><defs><style>.cls-1,.cls-5{fill:#fff;}.cls-1,.cls-2,.cls-3,.cls-4{stroke:#000;}.cls-1,.cls-2,.cls-3,.cls-4,.cls-5{stroke-miterlimit:10;stroke-width:2px;}.cls-2{fill:#b7b7b7;}.cls-3{fill:none;}.cls-4{fill:#e52722;}.cls-5{stroke:#feeddd;}</style></defs><title>littleguyrightbubble</title><g id="Group_66" data-name="Group 66"><path id="Path_241" data-name="Path 241" class="cls-1" d="M218.76,511.16c0-3.9-4.3-24.6-4.3-24.6l-29.1-5-36.8,4.9-4.6,26.3,26.9,1.7s.2-10.2,9.7-11.7a5.62,5.62,0,0,1,1.3-.1c8.5-.3,10.6,11,10.6,11Z" transform="translate(-116.85 -210.56)"/><path id="Path_242" data-name="Path 242" class="cls-1" d="M138.76,444.16c.6-10,5.8-9.1,5.8-9.1l8.9-.3,47.3.2,49-17.9v-1.2c0-5.6,1.5-10.2,3.3-10.2s3.1,3.9,3.3,9l.5-.2h0c4.2-5.6,10.2-8.3,14.7-6,5.3,2.7,6.3,11.3,2.3,19.2s-11.5,12.2-16.8,9.5l-3.8-1.9a184.76,184.76,0,0,1-23.1,10.3c-14.8,5.6-10.8,12.5-10.8,12.5s-.9,18.1-1,22.4-3.2,5-3.2,5-58.8-1.1-65.9-.1a10.64,10.64,0,0,1-10.4-5.1S138.16,454.26,138.76,444.16Z" transform="translate(-116.85 -210.56)"/><path id="Path_243" data-name="Path 243" class="cls-2" d="M235.76,379.66s18.6,11.1-2,24.1" transform="translate(-116.85 -210.56)"/><path id="Path_244" data-name="Path 244" class="cls-2" d="M125.56,379.66s-18.6,11.1,2,24.1" transform="translate(-116.85 -210.56)"/><path id="Path_245" data-name="Path 245" class="cls-3" d="M140.76,437.56c10.2-4.7,16.3,13.9,16.3,13.9v16.1l14.2.7s21.8,2.2,30.1,16" transform="translate(-116.85 -210.56)"/><path id="Path_246" data-name="Path 246" class="cls-4" d="M145.46,467.56h.2a3.8,3.8,0,0,0,3.8-3.8h0v-5.3a3.8,3.8,0,0,0-3.8-3.8h-.2a3.8,3.8,0,0,0-3.8,3.8h0v5.3A3.86,3.86,0,0,0,145.46,467.56Z" transform="translate(-116.85 -210.56)"/><line id="Line_14" data-name="Line 14" class="cls-3" x1="64.6" y1="291.2" x2="64.6" y2="276"/><path id="Path_247" data-name="Path 247" class="cls-4" d="M191.06,509.16a27.93,27.93,0,0,1,26.7-5.8" transform="translate(-116.85 -210.56)"/><path id="Path_248" data-name="Path 248" class="cls-4" d="M172.16,509.16s-10.7-12.4-26.6-5.1" transform="translate(-116.85 -210.56)"/><path id="Path_249" data-name="Path 249" class="cls-2" d="M188.56,521.66c0,7.4,8.4,8.5,18.8,8.5s18.8-1.1,18.8-8.5-8.4-13.4-18.8-13.4S188.56,514.26,188.56,521.66Z" transform="translate(-116.85 -210.56)"/><path id="Path_250" data-name="Path 250" class="cls-2" d="M138.26,522.56c0,7.4,8.4,8.5,18.8,8.5s18.8-1,18.8-8.5-8.4-13.4-18.8-13.4S138.26,515.16,138.26,522.56Z" transform="translate(-116.85 -210.56)"/><path id="Path_251" data-name="Path 251" class="cls-1" d="M125.46,388.06c0,24.5,24.9,57.2,55.7,57.2s55.7-32.7,55.7-57.2-25-47.5-55.8-47.5S125.46,363.56,125.46,388.06Z" transform="translate(-116.85 -210.56)"/><path id="Path_252" data-name="Path 252" d="M152.66,426.26h51.2c9.7,0,21.5-13.1,21.5-22.9v-21.9a17.74,17.74,0,0,0-17.6-17.8h-51.2a17.73,17.73,0,0,0-17.6,17.8v21.9C139,413.16,143,426.26,152.66,426.26Z" transform="translate(-116.85 -210.56)"/><path id="Path_253" data-name="Path 253" class="cls-1" d="M149.66,379.36v28.1a5.37,5.37,0,0,0,5.35,5.4h.05a5.39,5.39,0,0,0,5.4-5.36V379.36a5.38,5.38,0,0,0-5.36-5.4h0a5.38,5.38,0,0,0-5.4,5.36Z" transform="translate(-116.85 -210.56)"/><path id="Path_254" data-name="Path 254" class="cls-3" d="M189.56,363.66s-1.1-14.1,11.8-19.6" transform="translate(-116.85 -210.56)"/><path id="Path_255" data-name="Path 255" class="cls-3" d="M171.26,363.66s1.1-14.1-11.8-19.6" transform="translate(-116.85 -210.56)"/><path id="Path_256" data-name="Path 256" class="cls-4" d="M168.86,468.26h19.8a7.17,7.17,0,0,0,7.2-7.14v-2.26a7.18,7.18,0,0,0-7.14-7.2H168.86a7.16,7.16,0,0,0-7.2,7.14v2.26a7.17,7.17,0,0,0,7.14,7.2Z" transform="translate(-116.85 -210.56)"/><path id="Path_257" data-name="Path 257" class="cls-3" d="M198.66,442.56c9.7,17.9,18.3,20.4,18.3,20.4s-10.8-15.8-7.1-28" transform="translate(-116.85 -210.56)"/><line id="Line_15" data-name="Line 15" class="cls-3" x1="132.9" y1="206.5" x2="136.3" y2="224.7"/><path id="Path_258" data-name="Path 258" class="cls-1" d="M219.26,462.26s-3.8-19,.6-34.1" transform="translate(-116.85 -210.56)"/></g><g id="Group_69" data-name="Group 69"><path id="Path_261" data-name="Path 261" class="cls-5" d="M326.75,344.16a177.13,177.13,0,0,0,57.7,9.3c64.2,0,116.3-31.8,116.3-70.9s-52.1-71-116.4-71-116.2,31.8-116.2,70.9c0,13.5,6.2,26.2,17,36.9" transform="translate(-116.85 -210.56)"/><path id="Path_262" data-name="Path 262" class="cls-5" d="M326.75,344.16l-40.2,24.5-49.7,30.5,29.2-48.3,19-31.4" transform="translate(-116.85 -210.56)"/></g></svg>