<svg xmlns="http://www.w3.org/2000/svg" viewBox="0 0 342.18 342.18"><defs><style>.cls-1{fill:#1d1d1b;}.cls-1,.cls-4,.cls-6{stroke:#fff;}.cls-1,.cls-2,.cls-4,.cls-5,.cls-6{stroke-miterlimit:10;}.cls-2,.cls-3,.cls-5{fill:#fff;}.cls-2{stroke:#1d1d1b;}.cls-5{stroke:#000;}.cls-6{fill:none;}</style></defs><title>logo</title><g id="Layer_2" data-name="Layer 2"><g id="Vrstva_1" data-name="Vrstva 1"><path class="cls-1" d="M341.68,171.09a169.81,169.81,0,0,1-21.42,82.83A171.52,171.52,0,0,1,268,311.53a169.77,169.77,0,0,1-87.9,29.92c-3,.15-6,.23-9,.23A170.59,170.59,0,1,1,341.68,171.09Z"/><polygon class="cls-2" points="290.84 239.48 290.84 192.41 281.82 192.41 273.04 192.41 196.5 192.41 194.31 192.41 183.97 192.41 175.19 192.41 160.33 192.41 160.33 237.67 290.84 239.48"/><path class="cls-2" d="M320.26,253.92A171.52,171.52,0,0,1,268,311.53a169.77,169.77,0,0,1-87.9,29.92c-3,.15-6,.23-9,.23a170,170,0,0,1-55-9.06l.06-5.24.22-18.95c-1.41-9.14.12-19.3,2.64-28.54a147.3,147.3,0,0,1,11.89-29.61c8.19-6.63,19.2-10.43,29.43-12.61a136.7,136.7,0,0,1,28.68-2.9l69.73,1.66,3,.07a137.08,137.08,0,0,1,29.05,3h0c10.13,2.19,21,6,29.06,12.53C319.9,252,320,252.69,320.26,253.92Z"/><path class="cls-2" d="M262.11,217.64l-73.06-4.86v22s32.35,21.32,73.06,0Z"/><circle class="cls-2" cx="228.51" cy="171.09" r="57.42"/><path class="cls-1" d="M277,174.89c0,24.26-24.2,50.11-48.46,50.11s-48.46-25.85-48.46-50.11,24.19-37.76,48.46-37.76S277,150.62,277,174.89Z"/><path class="cls-3" d="M198.48,201.29s-14.9-23.92-4.07-47.85H204.8S189,166.53,198.48,201.29Z"/><path class="cls-2" d="M268,274.52v37a169.77,169.77,0,0,1-87.9,29.92V274.52Z"/><rect class="cls-2" x="110.17" y="279.89" width="13.79" height="47.49"/><polygon class="cls-4" points="98.12 98.58 99.46 101.43 24.47 135.95 98.12 98.58"/><polygon class="cls-4" points="87.33 87.92 89.08 90.53 20.32 136.2 87.33 87.92"/><polygon class="cls-4" points="89.02 92.91 90.61 95.63 19.15 136.95 89.02 92.91"/><polygon class="cls-4" points="91.06 97.49 92.53 100.27 19.29 138.35 91.06 97.49"/><path class="cls-4" d="M138.56,72.52c-5-3.87-23.31.14-36.65,5.21-2.2.84-4.14,1.65-5.83,2.46L74.77,72.07l-8.3,9,9-4.2L87.59,86c-2.08,2.56-2.22,5.18-1.11,8.11,1.82,4.78,4.16,8.78,12.18,7.59l-1.94,10.91-9.44,3,12.18.93,8.82-17.83.64-.2c13.67-5.74,31-17.53,30.89-23.66l24.85-11.74Z"/><polygon class="cls-5" points="97.14 91.99 99.04 94.49 77.64 102.2 97.14 91.99"/><path class="cls-3" d="M136.94,75.82A142,142,0,0,1,108,91.07S128.15,91.18,136.94,75.82Z"/><path class="cls-6" d="M121.79,72.05s8.31,3.29,8.13,14.53"/><path class="cls-6" d="M99.27,78.78S103.21,93.65,110.2,98"/><circle class="cls-6" cx="119.74" cy="77.54" r="2.38"/><circle class="cls-3" cx="119.7" cy="76.86" r="2.03"/></g></g></svg>