<svg xmlns="http://www.w3.org/2000/svg" viewBox="0 0 489.92 254.46"><defs><style>.cls-1{fill:#ffe351;stroke:#1d1d1b;}.cls-1,.cls-2,.cls-3{stroke-miterlimit:10;stroke-width:2px;}.cls-2{fill:#c7e1c6;}.cls-2,.cls-3{stroke:#000;}.cls-3{fill:none;}.cls-4{fill:#fff;}</style></defs><title>Asset 1</title><g id="Layer_2" data-name="Layer 2"><g id="Vrstva_1" data-name="Vrstva 1"><polygon class="cls-1" points="265.9 119.94 270.39 129.52 18.42 245.52 265.9 119.94"/><polygon class="cls-1" points="229.62 84.12 235.54 92.89 4.47 246.36 229.62 84.12"/><polygon class="cls-1" points="235.3 100.91 240.66 110.02 0.53 248.89 235.3 100.91"/><polygon class="cls-1" points="242.18 116.29 247.12 125.64 1 253.58 242.18 116.29"/><path class="cls-2" d="M401.78,32.38c-16.71-13-78.34.48-123.16,17.51-7.39,2.81-13.9,5.55-19.59,8.26l-71.6-27.27L159.54,61l30.15-14.11,40.83,30.87c-7,8.58-7.48,17.4-3.72,27.26,6.08,16,14,29.5,40.92,25.48l-6.54,36.69-31.7,10.15,40.92,3.13L300,120.56l2.14-.67C348.12,100.6,406.23,61,406,40.39L489.5.94Z"/><polygon class="cls-2" points="262.6 97.79 268.99 106.22 197.09 132.12 262.6 97.79"/><path d="M396.34,43.46s-37.45,27.48-97.17,51.26C299.17,94.72,366.81,95.1,396.34,43.46Z"/><path class="cls-3" d="M345.44,30.82s27.92,11,27.31,48.81"/><path class="cls-3" d="M269.75,53.41s13.25,50,36.73,64.63"/><circle cx="338.53" cy="49.25" r="8.01"/><circle class="cls-4" cx="338.39" cy="46.97" r="6.84"/></g></g></svg>