<svg xmlns="http://www.w3.org/2000/svg" viewBox="0 0 262.06 633.19"><defs><style>.cls-1,.cls-2{fill:#515250;}.cls-1{stroke:#686867;}.cls-1,.cls-17,.cls-18,.cls-3,.cls-4,.cls-5,.cls-6,.cls-8{stroke-miterlimit:10;}.cls-17,.cls-18,.cls-3,.cls-4{fill:none;}.cls-3{stroke:#701f0b;}.cls-4{stroke:#72675d;}.cls-5{fill:#892613;stroke:#555454;}.cls-6{fill:#c5ccca;stroke:#6d6d6c;}.cls-7{fill:#1d1d1b;}.cls-8{fill:#cbc9c8;stroke:#5c5c5b;}.cls-9{fill:#777776;}.cls-10{fill:#601a05;}.cls-11{fill:#4a4a49;}.cls-12{fill:#b2b2b2;}.cls-13{fill:#949494;}.cls-14{fill:#8e8e8d;}.cls-15{fill:#701f0b;}.cls-16{fill:#aaaaa9;}.cls-17{stroke:#892613;}.cls-18{stroke:#aaaaa9;stroke-width:4px;}</style></defs><title>spacerocket 1</title><g id="Layer_2" data-name="Layer 2"><g id="Vrstva_1" data-name="Vrstva 1"><path class="cls-1" d="M102.38,189.77C75.26,203.69,75.77,295.3,75.77,295.3S76,180.24,77.46,165.58,95.78,126,95.78,126L109,150.19v13.92Z"/><polygon class="cls-2" points="62.8 633.18 72.33 617.79 73.06 582.61 121.43 582.61 121.43 617.79 128.4 633.18 62.8 633.18"/><path class="cls-3" d="M161,.67s10.57,80.63,0,170"/><path class="cls-4" d="M207.52,193.55s26.89-1.43,45.64,0"/><path class="cls-5" d="M109,164.11,113.87,85s1-43.24,47.14-84.29c0,0,39.58,35.92,49.11,81.72v70.73s-2.94,11-2.94,14.66S210.12,428,210.12,428L187.4,406s-11-8.06-19.06-66.7S142,194.16,142,194.16,128,143.59,109,164.11Z"/><path class="cls-6" d="M249.69,471.21C243.88,455.08,210.12,428,210.12,428l-2.52-222.1,2.52-63L227.71,104s23.45,22.37,24.92,56.26c.51,11.84,3,346.28,3.05,350.85,0,.17.61,85.42.61,85.42l5.13,21.25H194l8.06-22L203.7,535"/><rect class="cls-7" x="78.92" y="168.15" width="10.44" height="6.6"/><path class="cls-8" d="M72.33,568l.73,14.66L147.82,579h11.72l5.13-29.32,91.62-34.45-6.6-44S246,457.28,210.12,428s-35-52.08-35-52.08l-12-70.91L142,194.16c-13.19-43.24-32.7-34.47-33-30s-6.59,25.66-6.59,25.66c-20.53,12.46-25.66,71.82-25.66,71.82L72.33,417s-22.72,43.25-46.91,59.37S.5,517.38.5,517.38V546l44,3.66-3.67,10.26L43,582.61Z"/><polygon class="cls-2" points="90.33 563.24 93.36 558.35 93.59 547.17 108.96 547.17 108.96 558.35 111.17 563.24 90.33 563.24"/><polygon class="cls-9" points="75.65 578.22 78.67 569.52 78.91 549.63 94.28 549.63 94.28 569.52 96.49 578.22 75.65 578.22"/><polygon class="cls-2" points="115.41 564.96 118.44 560.07 118.67 548.9 134.04 548.9 134.04 560.07 136.25 564.96 115.41 564.96"/><polygon class="cls-9" points="104.99 575.03 108.02 566.55 108.25 547.17 123.62 547.17 123.62 566.55 125.83 575.03 104.99 575.03"/><polygon class="cls-8" points="92.1 482.2 92.1 546.7 72.31 567.96 42.99 582.61 40.8 559.89 44.46 549.63 92.1 482.2"/><path class="cls-10" d="M111.35,159.41l2.71-76.95S120.52,38.6,161,.67c-2.39,17.2-2.67,34-5.06,51.17-1.22,8.81-2.46,17.67-5.25,26.11-2.09,6.3-5,12.34-6.33,18.85-1.36,6.81-.84,13.83-.32,20.76L146.66,152c4.63-1.45,10,3.2,9.16,8-.24,1.47-.85,3.24.25,4.24.71.66,1.8.58,2.76.7,5,.61,7.3,7,6.35,12s-3.92,9.42-4.86,14.42c-2.13,11.32,6.41,23.31,2.21,34.05a10.76,10.76,0,0,1,8.2,4.06,41.35,41.35,0,0,0-17,2.75,23.77,23.77,0,0,1,11.93,22.57c-.29,3-1.17,6.14-.27,9,1.09,3.53,4.49,5.76,6.64,8.76,3.32,4.64,3.45,10.77,3.62,16.48a278.28,278.28,0,0,0,9.93,65.46L172,355.85l-3.45-53.8c-.44-6.78-.89-13.65-3.13-20.05-2-5.78-5.41-11-7.21-16.85a62,62,0,0,1-2.1-12.36c-2.09-21.14-3.43-43-12.77-62.07-2.21-4.51-4.86-8.85-6.28-13.67-.87-3-1.27-6.05-2.45-8.89C131.19,160,120.19,159.41,111.35,159.41Z"/><path class="cls-10" d="M172,355.85s8.56,49.95,36.37,68.64a6.76,6.76,0,0,0-2.72-6.79c-2.12-1.7-4.65-3-6.34-5.09-4.18-5.29-1.49-13.05-2.7-19.68-1.17-6.45-6.05-11.66-7.76-18-1.13-4.21-.84-8.81-2.7-12.75-1-2.06-2.49-3.83-3.37-5.93-2.55-6.07.07-14.76-5.44-18.37a41.89,41.89,0,0,0-7.89,8.71C172.46,346.75,173.76,353.37,172,355.85Z"/><path class="cls-11" d="M75.94,253.53l1.52-87.95S81.3,142.49,95.78,126c-2.63,1.66-3,5.71-2.69,8.81s1.55,6,2.4,9c3.14,11,.65,22.69-1.84,33.84l-2.37,10.57a82.29,82.29,0,0,1-3.65,12.94c-.94,2.33-2.1,4.59-2.86,7-1.49,4.7-1.4,9.72-1.61,14.65C82.7,233.74,79.43,243.14,75.94,253.53Z"/><path class="cls-9" d="M225.34,107.3l-13.57,34.42s-2,8.83-3,17.69,3,268.37,3,268.37L236.54,453s14.15,13.22,16.56,23.68c5-8.07-.87-17.23-6-25.23-12.84-20-17.21-44.36-15.2-67.81,1.24-14.47,4.78-29,2.2-43.34-1.55-8.63-5.29-16.75-7.38-25.28-2.86-11.75-2.53-24-2.19-36.05l.86-29.85,1.22-42.27c.75-25.89,1.49-51.8,4.18-77.56C231.58,121.56,231.55,112.25,225.34,107.3Z"/><path class="cls-9" d="M203.7,535l-1.07,60.28L194,617.79l33.72,0c1.29-10.2,1.16-21.45-5.91-28.93a21.62,21.62,0,0,1-3.09-3.47c-3.3-5.5,2.31-12,3.46-18.27.78-4.27-.56-8.83.85-12.93,1.6-4.63,6.19-7.4,10.2-10.21a71.79,71.79,0,0,0,21.52-24,3.18,3.18,0,0,0,.54-2.5c-.46-1.3-2.23-1.44-3.6-1.24-8.87,1.29-16.51,6.66-24.21,11.25S212.66,535,203.7,535Z"/><path class="cls-12" d="M104.53,189.77s-30.78,11-30,227.2c0,0-16.48,33.53-33.35,47.64S-6.14,492.46,2.65,546l44,3.66c3.47,0,5.34-3.08,6.33-6.41S53.88,536.3,55,533a29.33,29.33,0,0,1,4.52-7.55l27.66-37c3.4-4.55,6.88-9.18,11.56-12.41,2.79-1.93,6-3.36,8.25-5.91s3.23-5.89,4.75-8.9c3.16-6.26,8.66-11.13,11.59-17.5,3.15-6.83,3-14.66,2.87-22.19l-4-180c-.17-7.64-.35-15.35-2.18-22.77C117.34,207.87,110.51,199.23,104.53,189.77Z"/><path class="cls-13" d="M89.08,359.7l-3-79.44c-.31-8-.6-16.16,1.35-23.95,1.45-5.81,4.12-11.24,6.76-16.61,9-18.33,19.82-38.3,39.09-45.1a13.19,13.19,0,0,0-23.45-4.5c-1.76,2.41-2.69,5.39-4.73,7.56s-4.91,3.25-7.34,4.92c-4,2.74-6.66,7-8.85,11.27a80.93,80.93,0,0,0-8.42,43.06,45.54,45.54,0,0,1,.32,7.38,47.48,47.48,0,0,1-1.54,7.42C75.47,287,77,303,77.37,318.7c.23,10.46-.07,20.93-.37,31.39L76,386c-.28,9.48-3.19,23.44-.33,32.3C93.86,413.69,89.59,373.05,89.08,359.7Z"/><path class="cls-14" d="M41.5,567l-.69-7.1,3.67-10.26,47.61-67.38c-.06,1-.12,2.8-.18,3.8-.37,6.61-.77,13.28-2.67,19.61-2.49,8.26-7.43,15.52-12.29,22.64-7.3,10.67-14.7,21.46-24.34,30.08-1.71,1.53-3.52,3-4.57,5.07-1.16,2.25-1.23,4.89-1.81,7.36s-2,5.08-4.41,5.74C42.62,573.74,41.9,569.88,41.5,567Z"/><polygon class="cls-7" points="41.5 567 40.81 559.89 44.48 549.63 92.09 482.25 91.75 488.8 46.49 553.5 43.47 560.13 41.5 567"/><path class="cls-15" d="M146.19,214.32l-2.39-10.45s29.21-18.73,63.8,2L207,216.7c-30.2-19.79-60.85-2.38-60.85-2.38"/><path class="cls-15" d="M164.6,196.11l.18-13.31h6.49l4.43,188.39s-5.43-17.61-2.94-18.17S164.6,196.11,164.6,196.11Z"/><rect class="cls-7" x="227.71" y="412.21" width="15.39" height="23.82"/><polygon class="cls-7" points="227.71 164.48 235.04 164.48 235.04 142.13 241.63 142.13 241.63 137 227.71 137 227.71 164.48"/><polygon class="cls-7" points="78.92 187.93 78.92 182.8 103.02 182.8 101.73 185.37 97.52 185.37 97.52 187.93 78.92 187.93"/><polygon class="cls-7" points="0.5 517.38 59.13 517.38 59.13 528.88 52.54 532.41 0.5 532.41 0.5 517.38"/><path class="cls-7" d="M247.68,488.8c-1.65-14.29-30.78-39.58-30.78-39.58a308.34,308.34,0,0,0-35.18-32.43c-19.24-14.84-17.05-50-17.05-50s5.69,29.56,21.44,41.77l41.6,41.23s12.19,15.4,20,23.64S247.68,488.8,247.68,488.8Z"/><path class="cls-7" d="M117.4,234.29c-13.74-24.19-31.33,0-31.33,0s5-24,15.67-20S117.4,234.29,117.4,234.29Z"/><rect class="cls-7" x="86.07" y="243.64" width="6.6" height="6.6"/><rect class="cls-7" x="97.52" y="243.64" width="6.6" height="6.6"/><rect class="cls-7" x="134.44" y="261.23" width="4.12" height="4.12"/><rect class="cls-7" x="134.44" y="282.76" width="4.12" height="4.12"/><rect class="cls-7" x="134.44" y="302.13" width="4.12" height="4.12"/><rect class="cls-7" x="134.44" y="323.66" width="4.12" height="4.12"/><rect class="cls-7" x="134.44" y="338.64" width="4.12" height="4.12"/><rect class="cls-7" x="134.44" y="360.17" width="4.12" height="4.12"/><rect class="cls-7" x="134.44" y="380.69" width="4.12" height="4.12"/><rect class="cls-7" x="134.44" y="402.22" width="4.12" height="4.12"/><rect class="cls-7" x="134.44" y="420.36" width="4.12" height="4.12"/><rect class="cls-7" x="134.44" y="441.89" width="4.12" height="4.12"/><path class="cls-7" d="M150.33,238.15,136.5,227.88V198.93l2.06-11.36H103l6-23.46s7.38-13.31,21.1,4.89S150.33,238.15,150.33,238.15Z"/><polygon class="cls-7" points="166.14 454.72 169.07 454.72 169.07 458.38 173.84 458.38 173.84 454.72 189.96 454.72 189.96 458.38 193.99 458.38 193.99 454.72 197.66 454.72 197.66 458.38 199.35 458.38 199.35 461.31 193.99 461.31 193.99 464.61 174.57 464.61 174.57 461.68 169.07 461.68 169.07 464.61 166.14 464.61 166.14 454.72"/><path class="cls-16" d="M150.33,238.15l1.52,302.32c.17,1.61-.4,4.86-.22,6.47a6.9,6.9,0,0,0,5.65-1c-2.39-10.19.32-20.78,1.91-31.13a144.42,144.42,0,0,0-.4-46.16c-1.13-6.59-2.73-13.19-2.43-19.88.51-11.71,6.76-22.49,8.13-34.13a41.77,41.77,0,0,0-.85-14.57,8.34,8.34,0,0,0-2.35-4.62c-1.48-1.24-3.61-1.43-5.14-2.61-2.62-2-2.52-6-1.38-9.13s3.06-6,3.34-9.25c.24-2.89-.82-5.71-1.59-8.5-4.49-16.26.86-33.44,1.27-50.3a160.48,160.48,0,0,0-1.16-20.19C154.7,276.7,153.14,256.82,150.33,238.15Z"/><path class="cls-4" d="M207.52,273.93s26.89-1.43,45.64,0"/><path class="cls-4" d="M207,342.1s26.89-1.43,45.64,0"/><path class="cls-4" d="M75.77,205.89s17.82-8,15.2-2.25"/><path class="cls-17" d="M203.1,556.93s24.77-15.42,52.91,0"/><path class="cls-17" d="M203.89,567s24.77-15.42,52.9,0"/><path class="cls-17" d="M203,577s24.77-15.42,52.9,0"/><path class="cls-17" d="M203.8,587.09s24.77-15.42,52.9,0"/><path class="cls-17" d="M202.63,595.24s24.77-15.42,52.9,0"/><path class="cls-17" d="M74,589.57s22.21-15.43,47.44,0"/><path class="cls-17" d="M73.2,599.62s22.21-15.42,47.44,0"/><path class="cls-17" d="M73.9,609.68s22.21-15.43,47.44,0"/><path class="cls-17" d="M72.85,617.82s22.21-15.42,47.44,0"/><path class="cls-15" d="M208.32,130.73c-13.19-5.14-36.64-5.87-36.64-5.87l-.74-30c-6.59-20.52-9.93,0-9.93,0v30.78c-9.89-7.36-47.31,7.1-47.31,7.1v9s28.66-17.59,94.62-3.67Z"/><path class="cls-7" d="M13.74,504.84s17.21-32.3,43-41,24.91-70.53,24.91-70.53-8.15,55.91-18.87,54.54C62.75,447.82,15,484.15,13.74,504.84Z"/><polygon class="cls-7" points="31.08 486.71 32.96 486.71 32.96 489.06 36.01 489.06 36.01 486.71 46.34 486.71 46.34 489.06 48.92 489.06 48.92 486.71 51.27 486.71 51.27 489.06 52.35 489.06 52.35 490.94 48.92 490.94 48.92 493.05 36.48 493.05 36.48 491.17 32.96 491.17 32.96 493.05 31.08 493.05 31.08 486.71"/><path class="cls-18" d="M92.12,546.7s60.64-14.29,63.39,32.25"/><polygon class="cls-7" points="159.54 509.14 249.33 494.3 252.81 491.99 254.81 505.29 166.87 521.23 166.97 548.77 164.68 549.63 159.54 578.95 143.79 578.95 143.79 555.86 150.38 554.76 150.93 547.62 159.54 545.97 159.54 509.14"/><polygon class="cls-7" points="49.79 564.11 49.79 571.25 86.07 539.92 86.07 532.41 49.79 564.11"/></g></g></svg>