<svg xmlns="http://www.w3.org/2000/svg" viewBox="0 0 103.36 63.7"><defs><style>.cls-1{fill:#333;}.cls-2,.cls-3{fill:none;stroke-miterlimit:10;}.cls-2{stroke:#ce4c19;}.cls-3{stroke:#333;}</style></defs><title>boots</title><g id="Layer_3" data-name="Layer 3"><path class="cls-1" d="M354.31,602a8.52,8.52,0,0,1,1.43,1.81c-3.51,1.53-2.63,1.48-4.6,2.07a40.63,40.63,0,0,1-6.63,1.27c-4.7.61-7.05.91-9.83.51a21.15,21.15,0,0,1-6.9-2.17,16.31,16.31,0,0,1-5.37-4.17,78.07,78.07,0,0,1,11.73-2.46,45.77,45.77,0,0,1,10.21-.26C351.22,599.29,353.46,601.21,354.31,602Z" transform="translate(-255.18 -598.47)"/><path class="cls-1" d="M291.3,601.36a16.31,16.31,0,0,1-5.37,4.17A21.15,21.15,0,0,1,279,607.7c-2.79.4-5.13.1-9.83-.51a40.61,40.61,0,0,1-6.64-1.27c-2-.59-1.08-.54-4.6-2.07A8.52,8.52,0,0,1,259.4,602c.85-.83,3.09-2.75,10-3.4a45.77,45.77,0,0,1,10.21.26A78.07,78.07,0,0,1,291.3,601.36Z" transform="translate(-255.18 -598.47)"/><path d="M258,603.85c3.52,1.53,2.64,1.48,4.6,2.07a40.61,40.61,0,0,0,6.64,1.27c4.7.61,7,.91,9.83.51a21.15,21.15,0,0,0,6.89-2.17,16.31,16.31,0,0,0,5.37-4.17h0c-.12,18.85-.38,32.54-.63,34.94a11.47,11.47,0,0,1-.64,2.81,35.57,35.57,0,0,1-1.79,3.19A24.41,24.41,0,0,0,287.1,645a28.76,28.76,0,0,0-1,4.47,18.24,18.24,0,0,1-2.81,6.25c-1.34,2.11-2.27,3.57-4.08,4.73-2.15,1.37-4.24,1.48-7.66,1.66a21.24,21.24,0,0,1-7-.51c-2.23-.59-4.93-1.31-6.89-3.71-1.64-2-2-4.18-2.3-6.25-.11-.66-.31-2.2.12-6.89.38-4.07.76-5.39,1.15-8.94.27-2.4.37-4.2.51-7.79.4-9.73.7-21.2.77-24l.07-.16Z" transform="translate(-255.18 -598.47)"/><path d="M351.14,605.92c2-.59,1.09-.54,4.6-2.07h0l.07.16c.07,2.8.37,14.27.76,24,.15,3.59.24,5.39.51,7.79.4,3.55.78,4.87,1.15,8.94.43,4.69.23,6.23.13,6.89-.32,2.07-.66,4.26-2.3,6.25-2,2.4-4.66,3.12-6.89,3.71a21.24,21.24,0,0,1-7,.51c-3.42-.18-5.51-.29-7.66-1.66-1.81-1.16-2.74-2.62-4.09-4.73a18.63,18.63,0,0,1-2.81-6.25,26.62,26.62,0,0,0-1-4.47,24.41,24.41,0,0,0-1.15-2.68c-.83-1.61-1.29-1.95-1.78-3.19a11.47,11.47,0,0,1-.64-2.81c-.26-2.4-.52-16.09-.63-34.94a16.31,16.31,0,0,0,5.37,4.17,21.15,21.15,0,0,0,6.9,2.17c2.78.4,5.13.1,9.83-.51A40.63,40.63,0,0,0,351.14,605.92Z" transform="translate(-255.18 -598.47)"/><path class="cls-2" d="M289,559.45" transform="translate(-255.18 -598.47)"/><path class="cls-2" d="M250.83,559.45" transform="translate(-255.18 -598.47)"/></g><g id="Layer_6" data-name="Layer 6"><path class="cls-3" d="M263.68,606.09c-.32,15.67-.29,21.11-.17,22.72a17.93,17.93,0,0,1,0,3.23c-.09,1-.29,2.05-.42,2.81a22.5,22.5,0,0,0-.43,2.38,4.77,4.77,0,0,0,.17,2.64,4,4,0,0,0,1.62,1.62,6.61,6.61,0,0,0,2.72,1,7.8,7.8,0,0,0,4.77-1.19,5.33,5.33,0,0,0,2.38-1.87,9,9,0,0,0,.68-2.22c.56-1.93.85-2.13,1.11-3.32a10.63,10.63,0,0,0,.17-3.06c-.15-2.41-.13-10.88,0-22.9" transform="translate(-255.18 -598.47)"/><polyline class="cls-3" points="7.23 9.57 22.38 12.72 7.31 14.94 23.14 17.41 6.71 20.04 22.8 23.19 7.06 25.23 22.29 28.38 6.88 30.51 22.97 33.32 6.21 35.45 22.29 38.6 5.52 39.79 20.76 40.98"/><path class="cls-3" d="M350.38,606.09c.33,15.67.3,21.11.17,22.72a17.93,17.93,0,0,0,0,3.23c.1,1,.29,2.05.43,2.81.26,1.43.35,1.59.42,2.38a4.68,4.68,0,0,1-.17,2.64,4,4,0,0,1-1.61,1.62,6.64,6.64,0,0,1-2.73,1,7.75,7.75,0,0,1-4.76-1.19,5.36,5.36,0,0,1-2.39-1.87,9.46,9.46,0,0,1-.68-2.22c-.56-1.93-.84-2.13-1.1-3.32a9.94,9.94,0,0,1-.17-3.06c.15-2.41.12-10.88,0-22.9" transform="translate(-255.18 -598.47)"/><polyline class="cls-3" points="96.48 9.57 81.33 12.72 96.4 14.94 80.57 17.41 96.99 20.04 80.91 23.19 96.65 25.23 81.42 28.38 96.82 30.51 80.74 33.32 97.5 35.45 81.42 38.6 98.18 39.79 82.95 40.98"/></g></svg>