<svg id="Layer_1" data-name="Layer 1" xmlns="http://www.w3.org/2000/svg" viewBox="0 0 45.37 81.39"><defs><style>.cls-1{fill:#5c5c5c;}.cls-2{fill:#ea5917;}.cls-3{fill:#7a7a7a;}.cls-4{fill:none;stroke:#000;stroke-miterlimit:10;}.cls-5{fill:#ce4c19;}</style></defs><title>gloves</title><g id="Layer_3" data-name="Layer 3"><path class="cls-1" d="M16.09,152c6.81,0,12.76,2.65,16,6.61h.07l-.11.11a2.14,2.14,0,0,0-.9,1.15,1.9,1.9,0,0,0,.07,1.08,12.61,12.61,0,0,1,.4,2.93h0a19.29,19.29,0,0,0-10.71-5.56c-.7-.14-1.4-.25-2.11-.32a19,19,0,0,0-2-.14H16a24.79,24.79,0,0,0-5.36.58,19.17,19.17,0,0,0-10,5.27A19.67,19.67,0,0,0,0,158.6H.17C3.42,154.62,9.33,152,16.09,152Z" transform="translate(0 -152.01)"/><path class="cls-2" d="M29.68,183v.07h0a17.45,17.45,0,0,0,0,21.54v.2a36,36,0,0,0-8.52-1c-6.69,0-12.73,1.78-17,4.64a78.79,78.79,0,0,1,.27-19.53,20,20,0,0,0,.27-2.44h.24c2.66-4.18,7.91-7,14-7A17.49,17.49,0,0,1,29.68,183Z" transform="translate(0 -152.01)"/><path class="cls-2" d="M44.56,207a4.7,4.7,0,0,1,.76,3.32,3.18,3.18,0,0,1-1.53,2.17,3.31,3.31,0,0,1-2.55,0,9.65,9.65,0,0,1-4.34-2.93c-1.47-1.55-2-2.59-4.47-5.36-.72-.8-1.49-1.61-2-1.41s-.57.87-.64,1.53v.26a17.45,17.45,0,0,1,0-21.54h0c.08.39.16.65.18.73.62,2.24,1.53,3,4.08,6.51,4,5.49,2.82,5,6.26,9.58A80.4,80.4,0,0,1,44.56,207Z" transform="translate(0 -152.01)"/><path class="cls-2" d="M35.26,219.42a15.72,15.72,0,0,1,.64,9.7,6.21,6.21,0,0,1-1.79,3.45c-.61.5-2.36,1.65-9.45-.13l-1.23-.31c-3.46-.88-5.55-1.49-7.83-2.88C9.19,225.33,6.78,218.56,5.9,216a38.85,38.85,0,0,1-1.68-7.53c4.26-2.86,10.3-4.64,17-4.64a36,36,0,0,1,8.52,1,13.42,13.42,0,0,0,.42,5.16C31.81,214.74,33.67,215.22,35.26,219.42Z" transform="translate(0 -152.01)"/><path class="cls-3" d="M31.62,163.94a28.25,28.25,0,0,1-.64,7.45,20,20,0,0,0-10.08-4.82v-8.24A19.22,19.22,0,0,1,31.59,164Z" transform="translate(0 -152.01)"/><path class="cls-1" d="M31,171.39q-.06.3-.15.6c-.07.25-.12.4-.22.75a22,22,0,0,0-14.44-5c-6.55,0-12.3,2.44-15.6,6.15a13,13,0,0,1,.07-1.59h0a18.94,18.94,0,0,1,10-5.54,25,25,0,0,1,5.59-.63h.5a18.22,18.22,0,0,1,2,.12c.63.07,1.42.17,2.11.3A20,20,0,0,1,31,171.39Z" transform="translate(0 -152.01)"/><path class="cls-2" d="M30.61,172.74a1.53,1.53,0,0,1-.1.34,40.4,40.4,0,0,0-1,4.34A15.85,15.85,0,0,0,29.7,183,17.5,17.5,0,0,0,19,179.46c-6,0-11.29,2.84-13.95,7H4.76a6.61,6.61,0,0,0-.57-3.1A46.42,46.42,0,0,0,1,178a3.06,3.06,0,0,1-.51-1.06,2.77,2.77,0,0,1-.06-.81s.06-.87.12-2.23c3.3-3.71,9.05-6.15,15.6-6.15C22,167.76,27.26,169.7,30.61,172.74Z" transform="translate(0 -152.01)"/><path class="cls-3" d="M18.8,158v8.31c-.66-.07-1.34-.11-2-.12v-8.33A19,19,0,0,1,18.8,158Z" transform="translate(0 -152.01)"/><path class="cls-3" d="M10.64,166.65v.12a18.94,18.94,0,0,0-10,5.54c.09-2.5.16-5.81,0-8.66a19.17,19.17,0,0,1,10-5.27Z" transform="translate(0 -152.01)"/><path class="cls-4" d="M29.76,183.06l-.08-.06a17.5,17.5,0,0,0-10.75-3.54c-6,0-11.29,2.84-13.95,7" transform="translate(0 -152.01)"/><path class="cls-4" d="M29.68,183.07a17.45,17.45,0,0,0,0,21.54" transform="translate(0 -152.01)"/><path class="cls-4" d="M29.8,204.83h-.09a36,36,0,0,0-8.52-1c-6.69,0-12.73,1.78-17,4.64H4.12" transform="translate(0 -152.01)"/></g><g id="Layer_2" data-name="Layer 2"><path class="cls-5" d="M22.09,214.89a21.47,21.47,0,0,0,5.59,8.39,44.48,44.48,0,0,0,4,3.1c1.36,1,2.78,1.94,4.19,3l0,.09a21,21,0,0,1-4.7-2.21,20.49,20.49,0,0,1-4-3.37A21.82,21.82,0,0,1,24,219.7a20.25,20.25,0,0,1-2-4.78Z" transform="translate(0 -152.01)"/><path class="cls-5" d="M16.39,217.61a22.85,22.85,0,0,0,5.92,9,45.08,45.08,0,0,0,4.23,3.32C28,231,29.54,232,31,233l-.05.09a23.17,23.17,0,0,1-5-2.38,21.64,21.64,0,0,1-4.23-3.58,23.46,23.46,0,0,1-3.35-4.4,21.87,21.87,0,0,1-2.1-5.08Z" transform="translate(0 -152.01)"/><path class="cls-5" d="M11.12,220.25a17.54,17.54,0,0,0,5.44,7q1.8,1.33,3.72,2.49c1.25.82,2.55,1.58,3.83,2.44v.09a18.89,18.89,0,0,1-4.3-1.67,17.93,17.93,0,0,1-3.73-2.74,19.36,19.36,0,0,1-3-3.47,16.39,16.39,0,0,1-2-4.15Z" transform="translate(0 -152.01)"/></g></svg>