<svg xmlns="http://www.w3.org/2000/svg" xmlns:xlink="http://www.w3.org/1999/xlink" viewBox="0 0 82.31 94.53"><defs><style>.cls-1{fill:none;}.cls-2{fill:#fff;}.cls-3{fill:#1d1d1b;}.cls-4{clip-path:url(#clip-path);}.cls-5{clip-path:url(#clip-path-2);}.cls-6{fill:url(#radial-gradient);}</style><clipPath id="clip-path" transform="translate(-265.7 -158.76)"><rect class="cls-1" x="312.63" y="321.7" width="21.93" height="18.64"/></clipPath><clipPath id="clip-path-2" transform="translate(-265.7 -158.76)"><rect class="cls-1" x="312.63" y="321.7" width="21.93" height="18.64"/></clipPath><radialGradient id="radial-gradient" cx="52.7" cy="40.43" r="18.55" gradientUnits="userSpaceOnUse"><stop offset="0" stop-color="#fff"/><stop offset="0.8"/></radialGradient></defs><title>helmet</title><g id="Layer_3" data-name="Layer 3"><path class="cls-2" d="M347.82,230a37.31,37.31,0,0,1,.17,6.3c0,4-.15,4.56-.68,5.11a7.2,7.2,0,0,1-3.74,1.7,4.29,4.29,0,0,0-1.7.51,3.94,3.94,0,0,0-.94.72,35.57,35.57,0,0,1-5.19,3.7,32,32,0,0,1-7,3.24c-4.58,1.54-8.41,1.72-13.19,2-2.07.1-7.25,0-8.66,0v-2h.36c4.11,0,14.89,0,21.23-2.09a23.84,23.84,0,0,0,5.8-2.89,16.05,16.05,0,0,0,4.76-4.43,37,37,0,0,0,5.54-9.36c.15-.75.5-2.51.6-3.37.18-1.43.16-5.8.17-7h0c.19.92.42,1.88.75,3C347,227.83,347.41,228,347.82,230Z" transform="translate(-265.7 -158.76)"/><path class="cls-3" d="M307.26,251.22h-.47c-3.83,0-15,0-21.56-2.09a23.63,23.63,0,0,1-5.8-2.89,15.93,15.93,0,0,1-4.76-4.43,37,37,0,0,1-5.54-9.36c-.15-.75-.5-2.51-.61-3.37-.18-1.43-.15-5.8-.16-7h0c.18-.91.31-1.77.45-2.64a63.31,63.31,0,0,0,.68-9.19A110.4,110.4,0,0,1,271.34,191c.26-1.3.51-2.58.81-3.85l.47.11a28.46,28.46,0,0,1,5.61-6.13c6-4.82,11.91-6.26,16.68-7.11a63.7,63.7,0,0,1,11.94-.82h0a63.51,63.51,0,0,1,11.93.82c4.78.85,10.73,2.29,16.68,7.11a28.29,28.29,0,0,1,5.62,6.13l.47-.11c.3,1.27.55,2.55.81,3.85a110.4,110.4,0,0,1,1.87,19.24,61.82,61.82,0,0,0,.68,9.19c.13.87.26,1.73.44,2.64h0c0,1.19,0,5.56-.17,7-.1.86-.45,2.62-.6,3.37a37,37,0,0,1-5.54,9.36,16.05,16.05,0,0,1-4.76,4.43,23.84,23.84,0,0,1-5.8,2.89C322.15,251.18,311.37,251.26,307.26,251.22Z" transform="translate(-265.7 -158.76)"/><path class="cls-2" d="M341.57,187.17l-.47.11a28.29,28.29,0,0,0-5.62-6.13c-6-4.82-11.9-6.26-16.68-7.11a63.51,63.51,0,0,0-11.93-.82h0a63.7,63.7,0,0,0-11.94.82c-4.77.85-10.72,2.29-16.68,7.11a28.46,28.46,0,0,0-5.61,6.13l-.47-.11a37,37,0,0,1,3.61-9.93c1.88-3.46,8-13.36,19.92-17a42.92,42.92,0,0,1,11.17-1.46h0A42.92,42.92,0,0,1,318,160.22c11.92,3.66,18,13.56,19.91,17A37,37,0,0,1,341.57,187.17Z" transform="translate(-265.7 -158.76)"/><path class="cls-2" d="M306.9,251.22v2h-.11c-1.4,0-6.59.11-8.65,0-4.78-.24-8.61-.42-13.19-2a32,32,0,0,1-7-3.24,35,35,0,0,1-5.19-3.7,4.46,4.46,0,0,0-.94-.72,4.29,4.29,0,0,0-1.7-.51,7.23,7.23,0,0,1-3.75-1.7c-.52-.55-.64-1.13-.68-5.11a38.49,38.49,0,0,1,.17-6.3c.42-2,.87-2.17,1.7-4.93a28.24,28.24,0,0,0,.75-3h0c0,1.19,0,5.56.16,7,.11.86.46,2.62.61,3.37a37,37,0,0,0,5.54,9.36,15.93,15.93,0,0,0,4.76,4.43,23.63,23.63,0,0,0,5.8,2.89c6.52,2.1,17.73,2.13,21.56,2.09Z" transform="translate(-265.7 -158.76)"/></g><g id="Layer_8" data-name="Layer 8"><circle class="cls-6" cx="52.7" cy="40.43" r="18.55"/></g></svg>